<svg width="296" height="18" viewBox="0 0 296 18" fill="none" xmlns="http://www.w3.org/2000/svg">
<path d="M5.14095 12.668C3.88495 12.668 2.84095 12.248 2.00895 11.408C1.18495 10.576 0.772953 9.54 0.772953 8.3C0.772953 7.052 1.18495 6.016 2.00895 5.192C2.84095 4.352 3.88495 3.932 5.14095 3.932C5.90095 3.932 6.60095 4.112 7.24095 4.472C7.88895 4.824 8.39295 5.304 8.75295 5.912L7.32495 6.74C7.11695 6.364 6.82095 6.072 6.43695 5.864C6.05295 5.648 5.62095 5.54 5.14095 5.54C4.32495 5.54 3.66495 5.796 3.16095 6.308C2.66495 6.828 2.41695 7.492 2.41695 8.3C2.41695 9.1 2.66495 9.76 3.16095 10.28C3.66495 10.792 4.32495 11.048 5.14095 11.048C5.62095 11.048 6.05295 10.944 6.43695 10.736C6.82895 10.52 7.12495 10.228 7.32495 9.86L8.75295 10.688C8.39295 11.296 7.88895 11.78 7.24095 12.14C6.60095 12.492 5.90095 12.668 5.14095 12.668ZM14.8454 11.756C14.2374 12.364 13.4854 12.668 12.5894 12.668C11.6934 12.668 10.9414 12.364 10.3334 11.756C9.72539 11.148 9.42139 10.396 9.42139 9.5C9.42139 8.612 9.72539 7.864 10.3334 7.256C10.9494 6.64 11.7014 6.332 12.5894 6.332C13.4774 6.332 14.2294 6.64 14.8454 7.256C15.4614 7.872 15.7694 8.62 15.7694 9.5C15.7694 10.388 15.4614 11.14 14.8454 11.756ZM11.4254 10.688C11.7374 11 12.1254 11.156 12.5894 11.156C13.0534 11.156 13.4414 11 13.7534 10.688C14.0654 10.376 14.2214 9.98 14.2214 9.5C14.2214 9.02 14.0654 8.624 13.7534 8.312C13.4414 8 13.0534 7.844 12.5894 7.844C12.1254 7.844 11.7374 8 11.4254 8.312C11.1214 8.632 10.9694 9.028 10.9694 9.5C10.9694 9.972 11.1214 10.368 11.4254 10.688ZM20.3504 6.332C21.1584 6.332 21.8464 6.64 22.4144 7.256C22.9904 7.872 23.2784 8.62 23.2784 9.5C23.2784 10.396 22.9904 11.148 22.4144 11.756C21.8544 12.364 21.1664 12.668 20.3504 12.668C19.5104 12.668 18.8624 12.376 18.4064 11.792V14.9H16.8584V6.5H18.4064V7.208C18.8624 6.624 19.5104 6.332 20.3504 6.332ZM18.8744 10.724C19.1864 11.036 19.5824 11.192 20.0624 11.192C20.5424 11.192 20.9384 11.036 21.2504 10.724C21.5704 10.404 21.7304 9.996 21.7304 9.5C21.7304 9.004 21.5704 8.6 21.2504 8.288C20.9384 7.968 20.5424 7.808 20.0624 7.808C19.5824 7.808 19.1864 7.968 18.8744 8.288C18.5624 8.6 18.4064 9.004 18.4064 9.5C18.4064 9.996 18.5624 10.404 18.8744 10.724ZM28.9301 7.208V6.5H30.4781V12.5H28.9301V11.792C28.4661 12.376 27.8141 12.668 26.9741 12.668C26.1741 12.668 25.4861 12.364 24.9101 11.756C24.3421 11.14 24.0581 10.388 24.0581 9.5C24.0581 8.62 24.3421 7.872 24.9101 7.256C25.4861 6.64 26.1741 6.332 26.9741 6.332C27.8141 6.332 28.4661 6.624 28.9301 7.208ZM26.0741 10.724C26.3861 11.036 26.7821 11.192 27.2621 11.192C27.7421 11.192 28.1381 11.036 28.4501 10.724C28.7701 10.404 28.9301 9.996 28.9301 9.5C28.9301 9.004 28.7701 8.6 28.4501 8.288C28.1381 7.968 27.7421 7.808 27.2621 7.808C26.7821 7.808 26.3861 7.968 26.0741 8.288C25.7621 8.6 25.6061 9.004 25.6061 9.5C25.6061 9.996 25.7621 10.404 26.0741 10.724Z" fill="url(#paint0_linear_3095_8900)"/>
<path d="M42.1538 12.5H40.3538L39.8498 10.988H36.5018L35.9978 12.5H34.2098L37.1498 4.1H39.2018L42.1538 12.5ZM38.1818 6.008L37.0298 9.44H39.3338L38.1818 6.008ZM47.2814 7.208V4.1H48.8294V12.5H47.2814V11.792C46.8254 12.376 46.1774 12.668 45.3374 12.668C44.5294 12.668 43.8374 12.364 43.2614 11.756C42.6934 11.14 42.4094 10.388 42.4094 9.5C42.4094 8.62 42.6934 7.872 43.2614 7.256C43.8374 6.64 44.5294 6.332 45.3374 6.332C46.1774 6.332 46.8254 6.624 47.2814 7.208ZM44.4254 10.724C44.7534 11.036 45.1534 11.192 45.6254 11.192C46.1054 11.192 46.5014 11.036 46.8134 10.724C47.1254 10.404 47.2814 9.996 47.2814 9.5C47.2814 9.004 47.1254 8.6 46.8134 8.288C46.5014 7.968 46.1054 7.808 45.6254 7.808C45.1454 7.808 44.7454 7.968 44.4254 8.288C44.1134 8.6 43.9574 9.004 43.9574 9.5C43.9574 9.996 44.1134 10.404 44.4254 10.724ZM54.7931 7.208V4.1H56.3411V12.5H54.7931V11.792C54.3371 12.376 53.6891 12.668 52.8491 12.668C52.0411 12.668 51.3491 12.364 50.7731 11.756C50.2051 11.14 49.9211 10.388 49.9211 9.5C49.9211 8.62 50.2051 7.872 50.7731 7.256C51.3491 6.64 52.0411 6.332 52.8491 6.332C53.6891 6.332 54.3371 6.624 54.7931 7.208ZM51.9371 10.724C52.2651 11.036 52.6651 11.192 53.1371 11.192C53.6171 11.192 54.0131 11.036 54.3251 10.724C54.6371 10.404 54.7931 9.996 54.7931 9.5C54.7931 9.004 54.6371 8.6 54.3251 8.288C54.0131 7.968 53.6171 7.808 53.1371 7.808C52.6571 7.808 52.2571 7.968 51.9371 8.288C51.6251 8.6 51.4691 9.004 51.4691 9.5C51.4691 9.996 51.6251 10.404 51.9371 10.724ZM59.3048 6.5V7.532C59.4408 7.156 59.6728 6.872 60.0008 6.68C60.3288 6.48 60.7048 6.38 61.1288 6.38V8.108C60.6568 8.044 60.2328 8.14 59.8568 8.396C59.4888 8.644 59.3048 9.056 59.3048 9.632V12.5H57.7568V6.5H59.3048ZM67.6435 10.136H63.1195C63.3195 10.888 63.8835 11.264 64.8115 11.264C65.4035 11.264 65.8515 11.064 66.1555 10.664L67.4035 11.384C66.8115 12.24 65.9395 12.668 64.7875 12.668C63.7955 12.668 62.9995 12.368 62.3995 11.768C61.7995 11.168 61.4995 10.412 61.4995 9.5C61.4995 8.604 61.7955 7.852 62.3875 7.244C62.9715 6.636 63.7315 6.332 64.6675 6.332C65.5555 6.332 66.2795 6.636 66.8395 7.244C67.4155 7.852 67.7035 8.604 67.7035 9.5C67.7035 9.668 67.6835 9.88 67.6435 10.136ZM63.0955 8.936H66.1555C66.0675 8.544 65.8875 8.244 65.6155 8.036C65.3515 7.828 65.0355 7.724 64.6675 7.724C64.2515 7.724 63.9075 7.832 63.6355 8.048C63.3635 8.256 63.1835 8.552 63.0955 8.936ZM69.9778 8.204C69.9778 8.46 70.3418 8.68 71.0698 8.864C71.3258 8.92 71.5578 8.988 71.7658 9.068C71.9738 9.14 72.1818 9.248 72.3898 9.392C72.6058 9.528 72.7738 9.712 72.8938 9.944C73.0138 10.176 73.0738 10.444 73.0738 10.748C73.0738 11.364 72.8418 11.84 72.3778 12.176C71.9138 12.504 71.3418 12.668 70.6618 12.668C69.4298 12.668 68.5898 12.192 68.1418 11.24L69.4858 10.484C69.6698 11.004 70.0618 11.264 70.6618 11.264C71.2138 11.264 71.4898 11.092 71.4898 10.748C71.4898 10.492 71.1258 10.272 70.3978 10.088C70.1258 10.016 69.8938 9.944 69.7018 9.872C69.5098 9.8 69.3018 9.696 69.0778 9.56C68.8538 9.416 68.6818 9.236 68.5618 9.02C68.4498 8.796 68.3938 8.536 68.3938 8.24C68.3938 7.648 68.6098 7.184 69.0418 6.848C69.4818 6.504 70.0258 6.332 70.6738 6.332C71.1618 6.332 71.6058 6.444 72.0058 6.668C72.4058 6.884 72.7218 7.196 72.9538 7.604L71.6338 8.324C71.4418 7.916 71.1218 7.712 70.6738 7.712C70.4738 7.712 70.3058 7.76 70.1698 7.856C70.0418 7.944 69.9778 8.06 69.9778 8.204ZM75.1809 8.204C75.1809 8.46 75.5449 8.68 76.2729 8.864C76.5289 8.92 76.7609 8.988 76.9689 9.068C77.1769 9.14 77.3849 9.248 77.5929 9.392C77.8089 9.528 77.9769 9.712 78.0969 9.944C78.2169 10.176 78.2769 10.444 78.2769 10.748C78.2769 11.364 78.0449 11.84 77.5809 12.176C77.1169 12.504 76.5449 12.668 75.8649 12.668C74.6329 12.668 73.7929 12.192 73.3449 11.24L74.6889 10.484C74.8729 11.004 75.2649 11.264 75.8649 11.264C76.4169 11.264 76.6929 11.092 76.6929 10.748C76.6929 10.492 76.3289 10.272 75.6009 10.088C75.3289 10.016 75.0969 9.944 74.9049 9.872C74.7129 9.8 74.5049 9.696 74.2809 9.56C74.0569 9.416 73.8849 9.236 73.7649 9.02C73.6529 8.796 73.5969 8.536 73.5969 8.24C73.5969 7.648 73.8129 7.184 74.2449 6.848C74.6849 6.504 75.2289 6.332 75.8769 6.332C76.3649 6.332 76.8089 6.444 77.2089 6.668C77.6089 6.884 77.9249 7.196 78.1569 7.604L76.8369 8.324C76.6449 7.916 76.3249 7.712 75.8769 7.712C75.6769 7.712 75.5089 7.76 75.3729 7.856C75.2449 7.944 75.1809 8.06 75.1809 8.204Z" fill="#0C1118" fill-opacity="0.8"/>
<path d="M87 7.5C88.9333 7.525 90.8667 7.55 92.8 7.575C127.6 8.025 162.4 8.475 197.2 8.925C199.133 8.95 201.067 8.975 203 9C203 8 203 7 203 6C201.067 6.025 199.133 6.05 197.2 6.075C162.4 6.525 127.6 6.975 92.8 7.425C90.8667 7.45 88.9333 7.475 87 7.5Z" fill="#ED1B24"/>
<path d="M214.783 13C213.803 13 213.08 12.7153 212.613 12.146C212.156 11.5767 211.927 10.8113 211.927 9.85V3.648H213.705V9.85C213.705 10.2047 213.724 10.4567 213.761 10.606C213.808 10.7553 213.901 10.858 214.041 10.914C214.19 10.9607 214.438 10.984 214.783 10.984H215.287L215.371 12.02L215.287 13H214.783ZM215.13 10.984H216.684C217.104 10.984 217.403 10.914 217.58 10.774C217.757 10.6247 217.837 10.4147 217.818 10.144C217.771 9.56533 217.65 8.79067 217.454 7.82L219.134 7.4C219.246 7.89467 219.349 8.422 219.442 8.982C219.545 9.542 219.596 9.99467 219.596 10.34C219.596 10.8067 219.493 11.2407 219.288 11.642C219.083 12.0433 218.77 12.37 218.35 12.622C217.939 12.874 217.431 13 216.824 13H215.13V10.984ZM214.598 14.106H216.264V15.772H214.598V14.106ZM215.97 16.206H217.566V17.788H215.97V16.206ZM217.258 14.106H218.924V15.772H217.258V14.106ZM222.946 14.61C223.524 14.61 223.963 14.5587 224.262 14.456C224.56 14.3627 224.766 14.1993 224.878 13.966C224.999 13.742 225.069 13.42 225.088 13H223.884C222.997 13 222.292 12.7433 221.77 12.23C221.256 11.7073 221 10.9793 221 10.046C221 9.38333 221.121 8.79533 221.364 8.282C221.616 7.76867 221.956 7.372 222.386 7.092C222.824 6.80267 223.319 6.658 223.87 6.658C224.467 6.658 224.99 6.798 225.438 7.078C225.895 7.358 226.245 7.75467 226.488 8.268C226.74 8.78133 226.866 9.374 226.866 10.046V10.984H227.636L227.748 12.006L227.636 13H226.866C226.828 14.092 226.492 14.9693 225.858 15.632C225.223 16.2947 224.252 16.626 222.946 16.626H221.28V14.61H222.946ZM222.708 9.948C222.708 10.3307 222.801 10.6153 222.988 10.802C223.174 10.9793 223.473 11.068 223.884 11.068H225.088V10.004C225.088 9.03333 224.682 8.548 223.87 8.548C223.487 8.548 223.198 8.67867 223.002 8.94C222.806 9.20133 222.708 9.53733 222.708 9.948ZM234.196 4.586L230.276 6.308L232.432 8.506C232.712 8.786 232.922 9.09867 233.062 9.444C233.202 9.78 233.272 10.1253 233.272 10.48C233.272 10.928 233.164 11.3433 232.95 11.726C232.744 12.1087 232.436 12.4167 232.026 12.65C231.624 12.8833 231.153 13 230.612 13H227.49V10.984H230.654C230.896 10.984 231.083 10.9373 231.214 10.844C231.354 10.7413 231.424 10.6107 231.424 10.452C231.424 10.256 231.326 10.06 231.13 9.864L228.344 7.064L228.778 4.81L233.468 2.738L234.196 4.586Z" fill="url(#paint1_linear_3095_8900)"/>
<path d="M239.98 9.514C239.494 10.5313 239.252 11.4693 239.252 12.328C239.252 13.056 239.42 13.602 239.756 13.966C240.101 14.33 240.675 14.512 241.478 14.512H242.682C243.279 14.512 243.727 14.4607 244.026 14.358C244.324 14.2553 244.525 14.078 244.628 13.826C244.74 13.574 244.796 13.2007 244.796 12.706V8.31H246.574V9.948C246.574 10.312 246.658 10.578 246.826 10.746C247.003 10.9047 247.236 10.984 247.526 10.984C247.824 10.984 248.053 10.914 248.212 10.774C248.37 10.6247 248.45 10.4007 248.45 10.102L248.436 8.31H250.228L250.214 10.172C250.214 10.7133 250.494 10.984 251.054 10.984C251.334 10.984 251.558 10.9047 251.726 10.746C251.903 10.5873 251.978 10.3773 251.95 10.116C251.866 9.56533 251.73 8.8 251.544 7.82L253.224 7.4C253.532 8.76267 253.686 9.74733 253.686 10.354C253.686 10.8207 253.592 11.2547 253.406 11.656C253.228 12.0573 252.939 12.384 252.538 12.636C252.146 12.8787 251.651 13 251.054 13C250.699 13 250.372 12.93 250.074 12.79C249.775 12.65 249.518 12.454 249.304 12.202C249.098 12.4447 248.842 12.6407 248.534 12.79C248.226 12.93 247.89 13 247.526 13C247.208 13 246.891 12.9253 246.574 12.776C246.555 13.9333 246.233 14.848 245.608 15.52C244.982 16.192 244.007 16.528 242.682 16.528H241.478C240.638 16.528 239.919 16.3413 239.322 15.968C238.724 15.5947 238.272 15.0907 237.964 14.456C237.656 13.8213 237.502 13.112 237.502 12.328C237.502 11.7587 237.6 11.152 237.796 10.508C237.992 9.864 238.225 9.27133 238.496 8.73L239.98 9.514ZM257.972 8.31V12.258C257.972 13.602 257.622 14.6473 256.922 15.394C256.222 16.15 255.223 16.528 253.926 16.528H253.044V14.512H253.926C254.514 14.512 254.967 14.442 255.284 14.302C255.611 14.1713 255.839 13.9427 255.97 13.616C256.11 13.2987 256.18 12.846 256.18 12.258V8.31H257.972ZM263.399 6.532C264.444 8.156 264.939 8.926 264.883 8.842C265.247 9.43 265.429 10.0133 265.429 10.592C265.429 11.096 265.298 11.53 265.037 11.894C264.757 12.2953 264.411 12.58 264.001 12.748C263.599 12.916 263.119 13 262.559 13H261.817C261.229 13 260.711 12.9067 260.263 12.72C259.815 12.524 259.465 12.314 259.213 12.09L260.053 10.48C260.23 10.592 260.463 10.704 260.753 10.816C261.051 10.928 261.411 10.984 261.831 10.984H262.517C262.834 10.984 263.072 10.9653 263.231 10.928C263.389 10.8813 263.506 10.802 263.581 10.69C263.627 10.6153 263.651 10.5407 263.651 10.466C263.651 10.3167 263.567 10.1113 263.399 9.85C262.811 8.954 262.097 7.89 261.257 6.658L262.755 5.538L263.399 6.532ZM267.29 5.132H269.11V13H267.29V5.132ZM265.106 4.586C265.302 3.97933 265.587 3.52667 265.96 3.228C266.333 2.92933 266.851 2.78 267.514 2.78H270.384V4.194H267.514C267.187 4.194 266.94 4.264 266.772 4.404C266.604 4.53467 266.464 4.73533 266.352 5.006L265.106 4.586Z" fill="#0C1118" fill-opacity="0.8"/>
<path opacity="0.4" d="M293.465 6.3375C292.677 2.8725 289.655 1.3125 287 1.3125C287 1.3125 287 1.3125 286.992 1.3125C284.345 1.3125 281.315 2.865 280.527 6.33C279.65 10.2 282.02 13.4775 284.165 15.54C284.96 16.305 285.98 16.6875 287 16.6875C288.02 16.6875 289.04 16.305 289.827 15.54C291.972 13.4775 294.342 10.2075 293.465 6.3375Z" fill="#ED1B24"/>
<path d="M287 10.0951C288.305 10.0951 289.363 9.03739 289.363 7.73262C289.363 6.42785 288.305 5.37012 287 5.37012C285.695 5.37012 284.638 6.42785 284.638 7.73262C284.638 9.03739 285.695 10.0951 287 10.0951Z" fill="#ED1B24"/>
<defs>
<linearGradient id="paint0_linear_3095_8900" x1="39.5222" y1="1.62138" x2="39.5222" y2="16.5278" gradientUnits="userSpaceOnUse">
<stop stop-color="#ED1B24" stop-opacity="0.6"/>
<stop offset="1" stop-color="#ED1B24"/>
</linearGradient>
<linearGradient id="paint1_linear_3095_8900" x1="240.517" y1="0.145655" x2="240.517" y2="18.0334" gradientUnits="userSpaceOnUse">
<stop stop-color="#ED1B24" stop-opacity="0.6"/>
<stop offset="1" stop-color="#ED1B24"/>
</linearGradient>
</defs>
</svg>
