<svg width="51" height="34" viewBox="0 0 51 34" fill="none" xmlns="http://www.w3.org/2000/svg">
<path d="M3.10629 11C2.44629 11 1.98962 10.8233 1.73629 10.47C1.48296 10.11 1.35629 9.58333 1.35629 8.89L1.34629 4.51H2.12629L2.13629 8.89C2.13629 9.25 2.15629 9.51 2.19629 9.67C2.24296 9.83 2.32962 9.94333 2.45629 10.01C2.58962 10.07 2.80629 10.1 3.10629 10.1H3.25629L3.30629 10.56L3.25629 11H3.10629ZM3.15996 10.1H4.25996C4.54663 10.1 4.75996 10.04 4.89996 9.92C5.03996 9.79333 5.10996 9.62333 5.10996 9.41C5.10996 9.23667 5.07663 8.96667 5.00996 8.6C4.94996 8.22667 4.87996 7.87 4.79996 7.53L5.55996 7.33C5.63996 7.67 5.71329 8.04333 5.77996 8.45C5.85329 8.85667 5.88996 9.17333 5.88996 9.4C5.88996 9.67333 5.82663 9.93333 5.69996 10.18C5.57329 10.4267 5.38663 10.6267 5.13996 10.78C4.89329 10.9267 4.59996 11 4.25996 11H3.15996V10.1ZM3.40996 12.52H4.40996V13.52H3.40996V12.52ZM11.9538 13.52C11.4271 13.52 10.9671 13.3833 10.5738 13.11C10.1871 12.8367 9.89046 12.4733 9.68379 12.02C9.48379 11.5733 9.38379 11.0933 9.38379 10.58C9.38379 9.86667 9.60379 9.01667 10.0438 8.03L10.7638 8.41C10.3638 9.27 10.1638 9.98667 10.1638 10.56C10.1638 11.1667 10.3138 11.66 10.6138 12.04C10.9205 12.4267 11.3671 12.62 11.9538 12.62H13.0338C13.5405 12.62 13.9505 12.5433 14.2638 12.39C14.5771 12.2367 14.7338 12.0433 14.7338 11.81C14.7338 11.6167 14.6138 11.4533 14.3738 11.32C13.9938 11.1067 13.3505 11 12.4438 11V10.1H16.4838L16.5438 10.57L16.4838 11H15.2138C15.3138 11.08 15.3905 11.1867 15.4438 11.32C15.4971 11.4533 15.5238 11.6 15.5238 11.76C15.5238 12.0467 15.4405 12.3233 15.2738 12.59C15.1071 12.8567 14.8371 13.0767 14.4638 13.25C14.0971 13.43 13.6205 13.52 13.0338 13.52H11.9538ZM16.3826 10.1H17.4826C17.7693 10.1 17.9826 10.04 18.1226 9.92C18.2626 9.79333 18.3326 9.62333 18.3326 9.41C18.3326 9.23667 18.2993 8.96667 18.2326 8.6C18.1726 8.22667 18.1026 7.87 18.0226 7.53L18.7826 7.33C18.8626 7.67 18.936 8.04333 19.0026 8.45C19.076 8.85667 19.1126 9.17333 19.1126 9.4C19.1126 9.67333 19.0493 9.93333 18.9226 10.18C18.796 10.4267 18.6093 10.6267 18.3626 10.78C18.116 10.9267 17.8226 11 17.4826 11H16.3826V10.1ZM17.1126 12.52H18.1126V13.52H17.1126V12.52ZM22.2664 11C21.6064 11 21.1498 10.8233 20.8964 10.47C20.6431 10.11 20.5164 9.58333 20.5164 8.89L20.5064 4.51H21.2864L21.2964 8.89C21.2964 9.25 21.3164 9.51 21.3564 9.67C21.4031 9.83 21.4898 9.94333 21.6164 10.01C21.7498 10.07 21.9664 10.1 22.2664 10.1H22.4164L22.4664 10.56L22.4164 11H22.2664ZM22.3201 10.1H23.6701C24.3568 10.1 24.7001 9.87 24.7001 9.41C24.7001 9.23 24.6668 8.96 24.6001 8.6C24.5401 8.23333 24.4701 7.87667 24.3901 7.53L25.1501 7.33C25.2301 7.67 25.3035 8.04333 25.3701 8.45C25.4435 8.85667 25.4801 9.17333 25.4801 9.4C25.4801 9.68 25.4135 9.94333 25.2801 10.19C25.1468 10.43 24.9435 10.6267 24.6701 10.78C24.3968 10.9267 24.0635 11 23.6701 11H22.3201V10.1ZM21.9301 12.53H22.9301V13.53H21.9301V12.53ZM23.7201 12.53H24.7201V13.53H23.7201V12.53ZM31.7534 7.92V9.34C31.7534 9.61333 31.8201 9.81 31.9534 9.93C32.0867 10.0433 32.2967 10.1 32.5834 10.1H32.6834L32.7434 10.56L32.6834 11H32.5834C32.2434 11 31.9667 10.9067 31.7534 10.72V10.74C31.7534 11.64 31.5267 12.3267 31.0734 12.8C30.6201 13.28 29.9667 13.52 29.1134 13.52H28.4834V12.62H29.1134C29.7801 12.62 30.2567 12.4767 30.5434 12.19C30.8301 11.9033 30.9734 11.42 30.9734 10.74V7.92H31.7534ZM35.4338 7.92V9.34C35.4338 9.61333 35.5005 9.81 35.6338 9.93C35.7671 10.0433 35.9771 10.1 36.2638 10.1H36.7738L36.8238 10.57L36.7738 11H36.2638C36.0505 11 35.8271 10.9467 35.5938 10.84C35.3605 10.7333 35.1638 10.5733 35.0038 10.36C34.8438 10.5667 34.6405 10.7267 34.3938 10.84C34.1471 10.9467 33.8971 11 33.6438 11H32.5838V10.1H33.6438C33.9838 10.1 34.2371 10.03 34.4038 9.89C34.5705 9.75 34.6538 9.52667 34.6538 9.22V7.92H35.4338ZM32.8638 12.53H33.8638V13.53H32.8638V12.53ZM34.6538 12.53H35.6538V13.53H34.6538V12.53ZM41.0256 10.36C40.8923 10.5667 40.7189 10.7267 40.5056 10.84C40.2923 10.9467 40.0556 11 39.7956 11C39.5556 11 39.3156 10.9433 39.0756 10.83C38.8356 10.7167 38.6523 10.56 38.5256 10.36C38.3656 10.5733 38.1789 10.7333 37.9656 10.84C37.7523 10.9467 37.5256 11 37.2856 11H36.6756V10.1H37.2856C37.6123 10.1 37.8423 10.0367 37.9756 9.91C38.1089 9.77667 38.1756 9.54667 38.1756 9.22V7.92H38.9556V9.22C38.9556 9.54 39.0189 9.76667 39.1456 9.9C39.2789 10.0333 39.4956 10.1 39.7956 10.1C40.1023 10.1 40.3189 10.0333 40.4456 9.9C40.5789 9.76667 40.6456 9.54 40.6456 9.22V7.92H41.4256V9.22C41.4256 9.53333 41.5023 9.76 41.6556 9.9C41.8089 10.0333 42.0289 10.1 42.3156 10.1C42.6156 10.1 42.8289 10.0333 42.9556 9.9C43.0823 9.76667 43.1456 9.54 43.1456 9.22V7.92H43.9256V9.22C43.9256 9.54667 43.9923 9.77667 44.1256 9.91C44.2589 10.0367 44.4889 10.1 44.8156 10.1H45.4256L45.4756 10.55L45.4256 11H44.8156C44.5756 11 44.3489 10.9467 44.1356 10.84C43.9223 10.7333 43.7356 10.5733 43.5756 10.36C43.4489 10.56 43.2656 10.7167 43.0256 10.83C42.7856 10.9433 42.5456 11 42.3056 11C42.0723 11 41.8423 10.9467 41.6156 10.84C41.3956 10.7267 41.1989 10.5667 41.0256 10.36ZM45.3279 10.1H45.6079C45.9213 10.1 46.1146 9.96 46.1879 9.68L46.5079 8.53C46.6546 8.01 46.8813 7.60333 47.1879 7.31C47.4946 7.01 47.8646 6.86 48.2979 6.86C48.6446 6.86 48.9513 6.96333 49.2179 7.17C49.4846 7.37 49.6913 7.64333 49.8379 7.99C49.9846 8.33 50.0579 8.7 50.0579 9.1C50.0579 9.59333 49.9879 10 49.8479 10.32C49.7079 10.6333 49.5246 10.86 49.2979 11C49.0779 11.1467 48.8446 11.22 48.5979 11.22C48.3446 11.22 48.0913 11.17 47.8379 11.07C47.5846 10.9767 47.1846 10.79 46.6379 10.51C46.5046 10.6633 46.3479 10.7833 46.1679 10.87C45.9879 10.9567 45.8013 11 45.6079 11H45.3279V10.1ZM47.0079 9.71C47.4879 9.95667 47.8279 10.12 48.0279 10.2C48.2279 10.28 48.4179 10.32 48.5979 10.32C48.8246 10.32 48.9946 10.2367 49.1079 10.07C49.2213 9.89667 49.2779 9.57333 49.2779 9.1C49.2779 8.68 49.1946 8.35333 49.0279 8.12C48.8613 7.88 48.6179 7.76 48.2979 7.76C48.0579 7.76 47.8479 7.84333 47.6679 8.01C47.4946 8.17667 47.3613 8.43 47.2679 8.77L47.0079 9.71Z" fill="#0C1118" fill-opacity="0.8"/>
<path d="M39.6643 24.786L39.7623 25.024C39.9956 25.5373 40.1963 25.934 40.3643 26.214C40.5416 26.4847 40.719 26.6807 40.8963 26.802C41.083 26.9233 41.2976 26.984 41.5403 26.984H41.7783L41.8763 28.02L41.7783 29H41.5403C40.747 29 40.0656 28.6873 39.4963 28.062C38.927 28.6873 38.1383 29 37.1303 29H36.4163C35.847 29 35.3383 28.902 34.8903 28.706C34.4516 28.51 34.1063 28.3 33.8543 28.076L34.6943 26.466C34.8623 26.578 35.0956 26.6947 35.3943 26.816C35.7023 26.928 36.043 26.984 36.4163 26.984H37.1303C37.4383 26.984 37.6763 26.9653 37.8443 26.928C38.0123 26.8813 38.1383 26.802 38.2223 26.69C38.2876 26.5873 38.3203 26.4987 38.3203 26.424C38.3203 26.2747 38.227 26.0087 38.0403 25.626L36.5563 22.406L38.1803 21.566L39.6643 24.786ZM41.6429 26.984H42.3569C42.6462 26.984 42.8609 26.9327 43.0009 26.83C43.1409 26.7273 43.2109 26.5407 43.2109 26.27V19.648H44.9889V26.27V26.34C44.9889 26.5827 45.0542 26.7507 45.1849 26.844C45.3156 26.9373 45.5209 26.984 45.8009 26.984H46.2069L46.3049 28.062L46.2069 29H45.8009C45.5116 29 45.2176 28.944 44.9189 28.832C44.6296 28.72 44.3729 28.552 44.1489 28.328C43.8969 28.552 43.6122 28.72 43.2949 28.832C42.9869 28.944 42.6882 29 42.3989 29H41.6429V26.984ZM46.0586 26.984H47.4166C48.1352 26.984 48.4806 26.704 48.4526 26.144C48.4246 25.7333 48.3032 24.9587 48.0886 23.82L49.7546 23.4C50.0719 24.772 50.2306 25.752 50.2306 26.34C50.2306 26.7973 50.1279 27.2313 49.9226 27.642C49.7266 28.0433 49.4232 28.37 49.0126 28.622C48.6112 28.874 48.1259 29 47.5566 29H46.0586V26.984ZM45.7926 30.694H47.6546V32.514H45.7926V30.694Z" fill="#7868F5"/>
</svg>
