<svg width="341" height="84" viewBox="0 0 341 84" fill="none" xmlns="http://www.w3.org/2000/svg">
<path d="M166.001 40C164.257 40 162.929 39.48 162.017 38.44C161.105 37.384 160.649 36.032 160.649 34.384V23.68H164.465V34.384C164.465 34.816 164.489 35.12 164.537 35.296C164.601 35.456 164.729 35.56 164.921 35.608C165.129 35.656 165.489 35.68 166.001 35.68H167.201L167.345 37.912L167.201 40H166.001ZM166.946 35.68H169.202C170.354 35.68 170.89 35.288 170.81 34.504C170.73 33.592 170.546 32.344 170.258 30.76L173.834 29.872C174.378 32.144 174.65 33.824 174.65 34.912C174.65 35.792 174.458 36.624 174.074 37.408C173.706 38.176 173.146 38.8 172.394 39.28C171.642 39.76 170.714 40 169.61 40H166.946V35.68ZM166.922 41.608H169.946H170.114H173.114V44.776H170.114H169.946H166.922V41.608ZM168.53 45.664H171.554V48.232H168.53V45.664ZM180.703 41.992C181.583 41.992 182.239 41.936 182.671 41.824C183.119 41.712 183.431 41.52 183.607 41.248C183.799 40.976 183.911 40.56 183.943 40H182.311C180.663 40 179.375 39.528 178.447 38.584C177.519 37.624 177.055 36.296 177.055 34.6C177.055 33.352 177.279 32.264 177.727 31.336C178.175 30.392 178.791 29.672 179.575 29.176C180.375 28.664 181.279 28.408 182.287 28.408C183.375 28.408 184.335 28.664 185.167 29.176C185.999 29.672 186.647 30.392 187.111 31.336C187.575 32.264 187.807 33.352 187.807 34.6V35.68H189.127L189.343 37.864L189.127 40H187.783C187.671 41.904 187.039 43.432 185.887 44.584C184.735 45.736 183.007 46.312 180.703 46.312H177.631V41.992H180.703ZM180.679 34.336C180.679 35.392 181.223 35.92 182.311 35.92H183.967V34.48C183.967 33.824 183.847 33.312 183.607 32.944C183.367 32.576 182.927 32.392 182.287 32.392C181.727 32.392 181.319 32.576 181.063 32.944C180.807 33.312 180.679 33.776 180.679 34.336ZM200.524 25.528L194.38 28.24L197.644 31.552C198.172 32.096 198.564 32.688 198.82 33.328C199.092 33.952 199.228 34.6 199.228 35.272C199.228 36.104 199.028 36.88 198.628 37.6C198.228 38.32 197.644 38.904 196.876 39.352C196.124 39.784 195.244 40 194.236 40H188.884V35.68H194.356C194.58 35.68 194.756 35.624 194.884 35.512C195.028 35.4 195.1 35.256 195.1 35.08C195.1 34.856 194.996 34.64 194.788 34.432L190.228 29.824L191.068 25.072L198.988 21.592L200.524 25.528Z" fill="url(#paint0_linear_2429_17309)"/>
<path d="M210.406 34.072C209.606 35.8 209.206 37.352 209.206 38.728C209.206 39.48 209.31 40.072 209.518 40.504C209.726 40.936 210.078 41.248 210.574 41.44C211.086 41.632 211.798 41.728 212.71 41.728H214.414C215.406 41.728 216.118 41.664 216.55 41.536C216.998 41.408 217.294 41.16 217.438 40.792C217.582 40.44 217.654 39.864 217.654 39.064V31.528H221.494V34.504C221.494 34.872 221.614 35.16 221.854 35.368C222.094 35.576 222.374 35.68 222.694 35.68C223.014 35.68 223.294 35.584 223.534 35.392C223.774 35.184 223.894 34.912 223.894 34.576L223.87 31.528H227.71L227.686 34.576C227.686 34.928 227.79 35.2 227.998 35.392C228.206 35.584 228.47 35.68 228.79 35.68C229.142 35.68 229.454 35.576 229.726 35.368C229.998 35.144 230.102 34.832 230.038 34.432L229.39 30.76L232.966 29.872C233.51 32.144 233.782 33.824 233.782 34.912C233.782 36.352 233.382 37.56 232.582 38.536C231.782 39.512 230.518 40 228.79 40C227.574 40 226.574 39.576 225.79 38.728C225.438 39.08 224.982 39.384 224.422 39.64C223.878 39.88 223.302 40 222.694 40C222.262 40 221.854 39.928 221.47 39.784C221.342 41.704 220.702 43.224 219.55 44.344C218.398 45.48 216.686 46.048 214.414 46.048H212.71C211.19 46.048 209.886 45.736 208.798 45.112C207.71 44.488 206.878 43.616 206.302 42.496C205.742 41.392 205.462 40.136 205.462 38.728C205.462 37.816 205.638 36.776 205.99 35.608C206.342 34.424 206.75 33.352 207.214 32.392L210.406 34.072ZM241.43 31.528V38.296C241.43 40.712 240.798 42.608 239.534 43.984C238.27 45.36 236.462 46.048 234.11 46.048H232.598V41.728H234.11C235.07 41.728 235.79 41.632 236.27 41.44C236.766 41.264 237.11 40.936 237.302 40.456C237.494 39.976 237.59 39.256 237.59 38.296V31.528H241.43ZM251.181 28.24C252.973 31.024 253.821 32.344 253.725 32.2C254.413 33.304 254.757 34.4 254.757 35.488C254.757 36.416 254.501 37.248 253.989 37.984C253.493 38.688 252.885 39.2 252.165 39.52C251.461 39.84 250.565 40 249.477 40H248.205C247.117 40 246.165 39.808 245.349 39.424C244.533 39.04 243.909 38.64 243.477 38.224L245.205 34.84C245.509 35.016 245.917 35.2 246.429 35.392C246.957 35.584 247.565 35.68 248.253 35.68H249.333C249.845 35.68 250.205 35.656 250.413 35.608C250.621 35.56 250.765 35.48 250.845 35.368C250.893 35.288 250.917 35.208 250.917 35.128C250.917 34.952 250.789 34.68 250.533 34.312L248.349 31.12L246.861 28.936L250.077 26.536L251.181 28.24ZM257.645 26.776H261.461V40H257.645V26.776ZM254.093 25.528C254.525 24.376 255.053 23.568 255.677 23.104C256.285 22.624 257.181 22.384 258.365 22.384H263.453V25.24H258.365C257.869 25.24 257.493 25.328 257.237 25.504C256.997 25.664 256.789 25.952 256.613 26.368L254.093 25.528Z" fill="#0C1118" fill-opacity="0.8"/>
<path d="M189.966 63.144C188.686 63.144 187.634 62.724 186.81 61.884C185.978 61.036 185.562 60.008 185.562 58.8C185.562 57.592 185.978 56.564 186.81 55.716C187.634 54.876 188.686 54.456 189.966 54.456C190.734 54.456 191.442 54.644 192.09 55.02C192.738 55.388 193.242 55.888 193.602 56.52L192.858 56.952C192.594 56.44 192.202 56.032 191.682 55.728C191.162 55.424 190.59 55.272 189.966 55.272C188.91 55.272 188.054 55.612 187.398 56.292C186.734 56.98 186.402 57.816 186.402 58.8C186.402 59.784 186.734 60.62 187.398 61.308C188.054 61.988 188.91 62.328 189.966 62.328C190.59 62.328 191.162 62.176 191.682 61.872C192.202 61.568 192.594 61.16 192.858 60.648L193.602 61.068C193.258 61.7 192.758 62.204 192.102 62.58C191.446 62.956 190.734 63.144 189.966 63.144ZM199.833 62.244C199.217 62.844 198.473 63.144 197.601 63.144C196.713 63.144 195.965 62.844 195.357 62.244C194.749 61.636 194.445 60.888 194.445 60C194.445 59.112 194.749 58.368 195.357 57.768C195.965 57.16 196.713 56.856 197.601 56.856C198.481 56.856 199.225 57.16 199.833 57.768C200.449 58.368 200.757 59.112 200.757 60C200.757 60.88 200.449 61.628 199.833 62.244ZM195.921 61.692C196.377 62.148 196.937 62.376 197.601 62.376C198.265 62.376 198.825 62.148 199.281 61.692C199.737 61.22 199.965 60.656 199.965 60C199.965 59.336 199.737 58.776 199.281 58.32C198.825 57.856 198.265 57.624 197.601 57.624C196.937 57.624 196.377 57.856 195.921 58.32C195.465 58.776 195.237 59.336 195.237 60C195.237 60.656 195.465 61.22 195.921 61.692ZM205.298 56.856C206.154 56.856 206.882 57.16 207.482 57.768C208.09 58.376 208.394 59.12 208.394 60C208.394 60.88 208.09 61.624 207.482 62.232C206.882 62.84 206.154 63.144 205.298 63.144C204.234 63.144 203.426 62.704 202.874 61.824V65.4H202.082V57H202.874V58.176C203.426 57.296 204.234 56.856 205.298 56.856ZM203.558 61.692C204.014 62.148 204.574 62.376 205.238 62.376C205.902 62.376 206.462 62.148 206.918 61.692C207.374 61.22 207.602 60.656 207.602 60C207.602 59.336 207.374 58.776 206.918 58.32C206.462 57.856 205.902 57.624 205.238 57.624C204.574 57.624 204.014 57.856 203.558 58.32C203.102 58.776 202.874 59.336 202.874 60C202.874 60.656 203.102 61.22 203.558 61.692ZM214.871 58.176V57H215.663V63H214.871V61.824C214.319 62.704 213.511 63.144 212.447 63.144C211.591 63.144 210.859 62.84 210.251 62.232C209.651 61.624 209.351 60.88 209.351 60C209.351 59.12 209.651 58.376 210.251 57.768C210.859 57.16 211.591 56.856 212.447 56.856C213.511 56.856 214.319 57.296 214.871 58.176ZM210.827 61.692C211.283 62.148 211.843 62.376 212.507 62.376C213.171 62.376 213.731 62.148 214.187 61.692C214.643 61.22 214.871 60.656 214.871 60C214.871 59.336 214.643 58.776 214.187 58.32C213.731 57.856 213.171 57.624 212.507 57.624C211.843 57.624 211.283 57.856 210.827 58.32C210.371 58.776 210.143 59.336 210.143 60C210.143 60.656 210.371 61.22 210.827 61.692Z" fill="url(#paint1_linear_2429_17309)"/>
<path d="M226.94 63H226.052L225.272 60.936H221.288L220.508 63H219.62L222.848 54.6H223.712L226.94 63ZM223.28 55.644L221.588 60.144H224.972L223.28 55.644ZM232.941 58.176V54.6H233.733V63H232.941V61.824C232.389 62.704 231.581 63.144 230.517 63.144C229.661 63.144 228.929 62.84 228.321 62.232C227.721 61.624 227.421 60.88 227.421 60C227.421 59.12 227.721 58.376 228.321 57.768C228.929 57.16 229.661 56.856 230.517 56.856C231.581 56.856 232.389 57.296 232.941 58.176ZM228.897 61.692C229.353 62.148 229.913 62.376 230.577 62.376C231.241 62.376 231.801 62.148 232.257 61.692C232.713 61.22 232.941 60.656 232.941 60C232.941 59.336 232.713 58.776 232.257 58.32C231.801 57.856 231.241 57.624 230.577 57.624C229.913 57.624 229.353 57.856 228.897 58.32C228.441 58.776 228.213 59.336 228.213 60C228.213 60.656 228.441 61.22 228.897 61.692ZM240.57 58.176V54.6H241.362V63H240.57V61.824C240.018 62.704 239.21 63.144 238.146 63.144C237.29 63.144 236.558 62.84 235.95 62.232C235.35 61.624 235.05 60.88 235.05 60C235.05 59.12 235.35 58.376 235.95 57.768C236.558 57.16 237.29 56.856 238.146 56.856C239.21 56.856 240.018 57.296 240.57 58.176ZM236.526 61.692C236.982 62.148 237.542 62.376 238.206 62.376C238.87 62.376 239.43 62.148 239.886 61.692C240.342 61.22 240.57 60.656 240.57 60C240.57 59.336 240.342 58.776 239.886 58.32C239.43 57.856 238.87 57.624 238.206 57.624C237.542 57.624 236.982 57.856 236.526 58.32C236.07 58.776 235.842 59.336 235.842 60C235.842 60.656 236.07 61.22 236.526 61.692ZM243.831 57V57.996C244.199 57.268 244.831 56.904 245.727 56.904V57.672C245.151 57.672 244.691 57.84 244.347 58.176C244.003 58.504 243.831 59 243.831 59.664V63H243.039V57H243.831ZM249.221 56.856C250.117 56.856 250.833 57.172 251.369 57.804C251.921 58.428 252.197 59.168 252.197 60.024C252.197 60.064 252.189 60.188 252.173 60.396H246.905C246.985 60.996 247.241 61.476 247.673 61.836C248.105 62.196 248.645 62.376 249.293 62.376C250.205 62.376 250.849 62.036 251.225 61.356L251.921 61.764C251.657 62.196 251.293 62.536 250.829 62.784C250.373 63.024 249.857 63.144 249.281 63.144C248.337 63.144 247.569 62.848 246.977 62.256C246.385 61.664 246.089 60.912 246.089 60C246.089 59.096 246.381 58.348 246.965 57.756C247.549 57.156 248.301 56.856 249.221 56.856ZM249.221 57.624C248.597 57.624 248.073 57.808 247.649 58.176C247.233 58.544 246.985 59.028 246.905 59.628H251.381C251.293 58.988 251.049 58.496 250.649 58.152C250.233 57.8 249.757 57.624 249.221 57.624ZM253.847 58.572C253.847 59.036 254.259 59.376 255.083 59.592C255.315 59.648 255.467 59.688 255.539 59.712C255.611 59.728 255.751 59.772 255.959 59.844C256.175 59.908 256.323 59.964 256.403 60.012C256.491 60.06 256.611 60.136 256.763 60.24C256.915 60.336 257.023 60.436 257.087 60.54C257.151 60.636 257.211 60.764 257.267 60.924C257.323 61.076 257.351 61.24 257.351 61.416C257.351 61.928 257.147 62.344 256.739 62.664C256.347 62.984 255.827 63.144 255.179 63.144C254.619 63.144 254.135 63.02 253.727 62.772C253.319 62.516 253.031 62.18 252.863 61.764L253.535 61.368C253.647 61.68 253.847 61.928 254.135 62.112C254.431 62.288 254.779 62.376 255.179 62.376C255.587 62.376 255.919 62.296 256.175 62.136C256.431 61.976 256.559 61.736 256.559 61.416C256.559 60.952 256.147 60.612 255.323 60.396C255.091 60.34 254.939 60.304 254.867 60.288C254.795 60.264 254.651 60.22 254.435 60.156C254.227 60.084 254.079 60.024 253.991 59.976C253.911 59.928 253.795 59.856 253.643 59.76C253.491 59.656 253.383 59.556 253.319 59.46C253.255 59.356 253.195 59.228 253.139 59.076C253.083 58.916 253.055 58.748 253.055 58.572C253.055 58.084 253.247 57.676 253.631 57.348C254.031 57.02 254.523 56.856 255.107 56.856C255.587 56.856 256.011 56.964 256.379 57.18C256.755 57.396 257.031 57.696 257.207 58.08L256.547 58.464C256.323 57.904 255.843 57.624 255.107 57.624C254.747 57.624 254.447 57.708 254.207 57.876C253.967 58.044 253.847 58.276 253.847 58.572ZM258.933 58.572C258.933 59.036 259.345 59.376 260.169 59.592C260.401 59.648 260.553 59.688 260.625 59.712C260.697 59.728 260.837 59.772 261.045 59.844C261.261 59.908 261.409 59.964 261.489 60.012C261.577 60.06 261.697 60.136 261.849 60.24C262.001 60.336 262.109 60.436 262.173 60.54C262.237 60.636 262.297 60.764 262.353 60.924C262.409 61.076 262.437 61.24 262.437 61.416C262.437 61.928 262.233 62.344 261.825 62.664C261.433 62.984 260.913 63.144 260.265 63.144C259.705 63.144 259.221 63.02 258.813 62.772C258.405 62.516 258.117 62.18 257.949 61.764L258.621 61.368C258.733 61.68 258.933 61.928 259.221 62.112C259.517 62.288 259.865 62.376 260.265 62.376C260.673 62.376 261.005 62.296 261.261 62.136C261.517 61.976 261.645 61.736 261.645 61.416C261.645 60.952 261.233 60.612 260.409 60.396C260.177 60.34 260.025 60.304 259.953 60.288C259.881 60.264 259.737 60.22 259.521 60.156C259.313 60.084 259.165 60.024 259.077 59.976C258.997 59.928 258.881 59.856 258.729 59.76C258.577 59.656 258.469 59.556 258.405 59.46C258.341 59.356 258.281 59.228 258.225 59.076C258.169 58.916 258.141 58.748 258.141 58.572C258.141 58.084 258.333 57.676 258.717 57.348C259.117 57.02 259.609 56.856 260.193 56.856C260.673 56.856 261.097 56.964 261.465 57.18C261.841 57.396 262.117 57.696 262.293 58.08L261.633 58.464C261.409 57.904 260.929 57.624 260.193 57.624C259.833 57.624 259.533 57.708 259.293 57.876C259.053 58.044 258.933 58.276 258.933 58.572Z" fill="#0C1118" fill-opacity="0.8"/>
<g filter="url(#filter0_d_2429_17309)">
<rect x="275" y="18" width="48" height="48" rx="16" fill="url(#paint2_linear_2429_17309)" shape-rendering="crispEdges"/>
<rect x="275.5" y="18.5" width="47" height="47" rx="15.5" stroke="url(#paint3_linear_2429_17309)" shape-rendering="crispEdges"/>
<path opacity="0.4" d="M307.619 38.45C306.569 33.83 302.539 31.75 298.999 31.75C298.999 31.75 298.999 31.75 298.989 31.75C295.459 31.75 291.419 33.82 290.369 38.44C289.199 43.6 292.359 47.97 295.219 50.72C296.279 51.74 297.639 52.25 298.999 52.25C300.359 52.25 301.719 51.74 302.769 50.72C305.629 47.97 308.789 43.61 307.619 38.45Z" fill="white"/>
<path d="M299 43.4599C300.739 43.4599 302.15 42.0496 302.15 40.3099C302.15 38.5702 300.739 37.1599 299 37.1599C297.26 37.1599 295.85 38.5702 295.85 40.3099C295.85 42.0496 297.26 43.4599 299 43.4599Z" fill="white"/>
</g>
<defs>
<filter id="filter0_d_2429_17309" x="257" y="0" width="84" height="84" filterUnits="userSpaceOnUse" color-interpolation-filters="sRGB">
<feFlood flood-opacity="0" result="BackgroundImageFix"/>
<feColorMatrix in="SourceAlpha" type="matrix" values="0 0 0 0 0 0 0 0 0 0 0 0 0 0 0 0 0 0 127 0" result="hardAlpha"/>
<feOffset/>
<feGaussianBlur stdDeviation="9"/>
<feComposite in2="hardAlpha" operator="out"/>
<feColorMatrix type="matrix" values="0 0 0 0 0.929412 0 0 0 0 0.105882 0 0 0 0 0.141176 0 0 0 0.47 0"/>
<feBlend mode="normal" in2="BackgroundImageFix" result="effect1_dropShadow_2429_17309"/>
<feBlend mode="normal" in="SourceGraphic" in2="effect1_dropShadow_2429_17309" result="shape"/>
</filter>
<linearGradient id="paint0_linear_2429_17309" x1="211.029" y1="17.2751" x2="211.029" y2="51.063" gradientUnits="userSpaceOnUse">
<stop stop-color="#ED1B24" stop-opacity="0.6"/>
<stop offset="1" stop-color="#ED1B24"/>
</linearGradient>
<linearGradient id="paint1_linear_2429_17309" x1="224.022" y1="53.1133" x2="224.022" y2="67.0259" gradientUnits="userSpaceOnUse">
<stop stop-color="#ED1B24" stop-opacity="0.6"/>
<stop offset="1" stop-color="#ED1B24"/>
</linearGradient>
<linearGradient id="paint2_linear_2429_17309" x1="275" y1="18" x2="323" y2="66" gradientUnits="userSpaceOnUse">
<stop stop-color="#ED1B24"/>
<stop offset="1" stop-color="#ED1B24" stop-opacity="0.6"/>
</linearGradient>
<linearGradient id="paint3_linear_2429_17309" x1="275" y1="18" x2="323" y2="66" gradientUnits="userSpaceOnUse">
<stop stop-color="white" stop-opacity="0.4"/>
<stop offset="1" stop-color="white" stop-opacity="0"/>
</linearGradient>
</defs>
</svg>
