<svg width="341" height="84" viewBox="0 0 341 84" fill="none" xmlns="http://www.w3.org/2000/svg">
<path d="M143.751 40C142.007 40 140.679 39.48 139.767 38.44C138.855 37.384 138.399 36.032 138.399 34.384V23.68H142.215V34.384C142.215 34.816 142.239 35.12 142.287 35.296C142.351 35.456 142.479 35.56 142.671 35.608C142.879 35.656 143.239 35.68 143.751 35.68H144.951L145.095 37.912L144.951 40H143.751ZM144.696 35.68H146.952C148.104 35.68 148.64 35.288 148.56 34.504C148.48 33.592 148.296 32.344 148.008 30.76L151.584 29.872C152.128 32.144 152.4 33.824 152.4 34.912C152.4 35.792 152.208 36.624 151.824 37.408C151.456 38.176 150.896 38.8 150.144 39.28C149.392 39.76 148.464 40 147.36 40H144.696V35.68ZM144.672 41.608H147.696H147.864H150.864V44.776H147.864H147.696H144.672V41.608ZM146.28 45.664H149.304V48.232H146.28V45.664ZM158.453 41.992C159.333 41.992 159.989 41.936 160.421 41.824C160.869 41.712 161.181 41.52 161.357 41.248C161.549 40.976 161.661 40.56 161.693 40H160.061C158.413 40 157.125 39.528 156.197 38.584C155.269 37.624 154.805 36.296 154.805 34.6C154.805 33.352 155.029 32.264 155.477 31.336C155.925 30.392 156.541 29.672 157.325 29.176C158.125 28.664 159.029 28.408 160.037 28.408C161.125 28.408 162.085 28.664 162.917 29.176C163.749 29.672 164.397 30.392 164.861 31.336C165.325 32.264 165.557 33.352 165.557 34.6V35.68H166.877L167.093 37.864L166.877 40H165.533C165.421 41.904 164.789 43.432 163.637 44.584C162.485 45.736 160.757 46.312 158.453 46.312H155.381V41.992H158.453ZM158.429 34.336C158.429 35.392 158.973 35.92 160.061 35.92H161.717V34.48C161.717 33.824 161.597 33.312 161.357 32.944C161.117 32.576 160.677 32.392 160.037 32.392C159.477 32.392 159.069 32.576 158.813 32.944C158.557 33.312 158.429 33.776 158.429 34.336ZM178.274 25.528L172.13 28.24L175.394 31.552C175.922 32.096 176.314 32.688 176.57 33.328C176.842 33.952 176.978 34.6 176.978 35.272C176.978 36.104 176.778 36.88 176.378 37.6C175.978 38.32 175.394 38.904 174.626 39.352C173.874 39.784 172.994 40 171.986 40H166.634V35.68H172.106C172.33 35.68 172.506 35.624 172.634 35.512C172.778 35.4 172.85 35.256 172.85 35.08C172.85 34.856 172.746 34.64 172.538 34.432L167.978 29.824L168.818 25.072L176.738 21.592L178.274 25.528Z" fill="url(#paint0_linear_2429_17479)"/>
<path d="M188.564 40C186.82 40 185.492 39.48 184.58 38.44C183.668 37.384 183.212 36.032 183.212 34.384V23.68H187.028V34.384C187.028 34.816 187.052 35.12 187.1 35.296C187.164 35.456 187.292 35.56 187.484 35.608C187.692 35.656 188.052 35.68 188.564 35.68H189.764L189.908 37.912L189.764 40H188.564ZM189.508 35.68H191.596C192.156 35.68 192.564 35.592 192.82 35.416C193.076 35.24 193.204 34.968 193.204 34.6C193.204 34.232 193.14 33.68 193.012 32.944C192.9 32.192 192.78 31.464 192.652 30.76L196.228 29.872C196.772 32.144 197.044 33.824 197.044 34.912C197.044 35.792 196.852 36.624 196.468 37.408C196.1 38.176 195.54 38.8 194.788 39.28C194.036 39.76 193.108 40 192.004 40H189.508V35.68ZM188.332 42.424H192.052V46.024H188.332V42.424ZM207.749 34.072C206.949 35.8 206.549 37.352 206.549 38.728C206.549 39.48 206.653 40.072 206.861 40.504C207.069 40.936 207.421 41.248 207.917 41.44C208.429 41.632 209.141 41.728 210.053 41.728H211.757C212.749 41.728 213.461 41.664 213.893 41.536C214.341 41.408 214.637 41.16 214.781 40.792C214.925 40.44 214.997 39.864 214.997 39.064V31.528H218.837V34.504C218.837 34.872 218.957 35.16 219.197 35.368C219.437 35.576 219.717 35.68 220.037 35.68C220.357 35.68 220.637 35.584 220.877 35.392C221.117 35.184 221.237 34.912 221.237 34.576L221.213 31.528H225.053L225.029 34.576C225.029 34.928 225.133 35.2 225.341 35.392C225.549 35.584 225.813 35.68 226.133 35.68C226.485 35.68 226.797 35.576 227.069 35.368C227.341 35.144 227.445 34.832 227.381 34.432L226.733 30.76L230.309 29.872C230.853 32.144 231.125 33.824 231.125 34.912C231.125 36.352 230.725 37.56 229.925 38.536C229.125 39.512 227.861 40 226.133 40C224.917 40 223.917 39.576 223.133 38.728C222.781 39.08 222.325 39.384 221.765 39.64C221.221 39.88 220.645 40 220.037 40C219.605 40 219.197 39.928 218.813 39.784C218.685 41.704 218.045 43.224 216.893 44.344C215.741 45.48 214.029 46.048 211.757 46.048H210.053C208.533 46.048 207.229 45.736 206.141 45.112C205.053 44.488 204.221 43.616 203.645 42.496C203.085 41.392 202.805 40.136 202.805 38.728C202.805 37.816 202.981 36.776 203.333 35.608C203.685 34.424 204.093 33.352 204.557 32.392L207.749 34.072ZM238.884 40C237.14 40 235.812 39.48 234.9 38.44C233.988 37.384 233.532 36.032 233.532 34.384V23.68H237.348V34.384C237.348 34.816 237.372 35.12 237.42 35.296C237.484 35.456 237.612 35.56 237.804 35.608C238.012 35.656 238.372 35.68 238.884 35.68H240.084L240.228 37.912L240.084 40H238.884ZM239.853 35.68H240.453C240.709 35.68 240.901 35.616 241.029 35.488C241.157 35.344 241.269 35.08 241.365 34.696L241.869 32.704C242.237 31.216 242.869 30.096 243.765 29.344C244.661 28.592 245.733 28.216 246.981 28.216C247.957 28.216 248.837 28.472 249.621 28.984C250.421 29.496 251.045 30.224 251.493 31.168C251.957 32.096 252.189 33.16 252.189 34.36C252.189 34.76 252.221 35.048 252.285 35.224C252.365 35.4 252.509 35.52 252.717 35.584C252.941 35.648 253.293 35.68 253.773 35.68H254.181L254.421 37.744L254.181 40H253.773C252.445 40 251.389 39.672 250.605 39.016C250.157 39.464 249.645 39.8 249.069 40.024C248.509 40.248 247.949 40.36 247.389 40.36C246.877 40.36 246.317 40.256 245.709 40.048C245.101 39.84 244.261 39.496 243.189 39.016C242.789 39.32 242.357 39.56 241.893 39.736C241.445 39.912 240.989 40 240.525 40H239.853V35.68ZM245.061 35.44C245.733 35.728 246.245 35.928 246.597 36.04C246.949 36.152 247.277 36.208 247.581 36.208C247.917 36.208 248.181 36.048 248.373 35.728C248.581 35.392 248.685 34.944 248.685 34.384C248.685 33.696 248.525 33.184 248.205 32.848C247.885 32.496 247.509 32.32 247.077 32.32C246.677 32.32 246.333 32.464 246.045 32.752C245.757 33.04 245.549 33.44 245.421 33.952L245.061 35.44ZM253.891 35.68H256.147C257.299 35.68 257.835 35.288 257.755 34.504C257.675 33.592 257.491 32.344 257.203 30.76L260.779 29.872C261.323 32.144 261.595 33.824 261.595 34.912C261.595 35.792 261.403 36.624 261.019 37.408C260.651 38.176 260.091 38.8 259.339 39.28C258.587 39.76 257.659 40 256.555 40H253.891V35.68ZM255.163 24.16H258.139H258.355H261.307V27.328H258.355H258.139H255.163V24.16Z" fill="#0C1118" fill-opacity="0.8"/>
<path d="M167.193 63.144C165.913 63.144 164.861 62.724 164.037 61.884C163.205 61.036 162.789 60.008 162.789 58.8C162.789 57.592 163.205 56.564 164.037 55.716C164.861 54.876 165.913 54.456 167.193 54.456C167.961 54.456 168.669 54.644 169.317 55.02C169.965 55.388 170.469 55.888 170.829 56.52L170.085 56.952C169.821 56.44 169.429 56.032 168.909 55.728C168.389 55.424 167.817 55.272 167.193 55.272C166.137 55.272 165.281 55.612 164.625 56.292C163.961 56.98 163.629 57.816 163.629 58.8C163.629 59.784 163.961 60.62 164.625 61.308C165.281 61.988 166.137 62.328 167.193 62.328C167.817 62.328 168.389 62.176 168.909 61.872C169.429 61.568 169.821 61.16 170.085 60.648L170.829 61.068C170.485 61.7 169.985 62.204 169.329 62.58C168.673 62.956 167.961 63.144 167.193 63.144ZM177.059 62.244C176.443 62.844 175.699 63.144 174.827 63.144C173.939 63.144 173.191 62.844 172.583 62.244C171.975 61.636 171.671 60.888 171.671 60C171.671 59.112 171.975 58.368 172.583 57.768C173.191 57.16 173.939 56.856 174.827 56.856C175.707 56.856 176.451 57.16 177.059 57.768C177.675 58.368 177.983 59.112 177.983 60C177.983 60.88 177.675 61.628 177.059 62.244ZM173.147 61.692C173.603 62.148 174.163 62.376 174.827 62.376C175.491 62.376 176.051 62.148 176.507 61.692C176.963 61.22 177.191 60.656 177.191 60C177.191 59.336 176.963 58.776 176.507 58.32C176.051 57.856 175.491 57.624 174.827 57.624C174.163 57.624 173.603 57.856 173.147 58.32C172.691 58.776 172.463 59.336 172.463 60C172.463 60.656 172.691 61.22 173.147 61.692ZM182.117 56.856C182.837 56.856 183.409 57.08 183.833 57.528C184.257 57.968 184.469 58.564 184.469 59.316V63H183.677V59.316C183.677 58.78 183.533 58.364 183.245 58.068C182.965 57.772 182.565 57.624 182.045 57.624C181.445 57.624 180.969 57.812 180.617 58.188C180.273 58.564 180.101 59.12 180.101 59.856V63H179.309V57H180.101V57.936C180.549 57.216 181.221 56.856 182.117 56.856ZM189.18 57V57.768H187.452V61.404C187.452 61.732 187.516 61.968 187.644 62.112C187.772 62.248 187.964 62.32 188.22 62.328C188.476 62.328 188.796 62.32 189.18 62.304V63C188.324 63.128 187.688 63.068 187.272 62.82C186.864 62.564 186.66 62.092 186.66 61.404V57.768H185.4V57H186.66V55.56L187.452 55.32V57H189.18ZM195.297 58.176V57H196.089V63H195.297V61.824C194.745 62.704 193.937 63.144 192.873 63.144C192.017 63.144 191.285 62.84 190.677 62.232C190.077 61.624 189.777 60.88 189.777 60C189.777 59.12 190.077 58.376 190.677 57.768C191.285 57.16 192.017 56.856 192.873 56.856C193.937 56.856 194.745 57.296 195.297 58.176ZM191.253 61.692C191.709 62.148 192.269 62.376 192.933 62.376C193.597 62.376 194.157 62.148 194.613 61.692C195.069 61.22 195.297 60.656 195.297 60C195.297 59.336 195.069 58.776 194.613 58.32C194.157 57.856 193.597 57.624 192.933 57.624C192.269 57.624 191.709 57.856 191.253 58.32C190.797 58.776 190.569 59.336 190.569 60C190.569 60.656 190.797 61.22 191.253 61.692ZM200.562 63.144C199.658 63.144 198.906 62.844 198.306 62.244C197.706 61.628 197.406 60.88 197.406 60C197.406 59.112 197.706 58.368 198.306 57.768C198.906 57.16 199.658 56.856 200.562 56.856C201.154 56.856 201.686 57 202.158 57.288C202.63 57.568 202.974 57.948 203.19 58.428L202.542 58.8C202.382 58.44 202.122 58.156 201.762 57.948C201.41 57.732 201.01 57.624 200.562 57.624C199.898 57.624 199.338 57.856 198.882 58.32C198.426 58.776 198.198 59.336 198.198 60C198.198 60.656 198.426 61.22 198.882 61.692C199.338 62.148 199.898 62.376 200.562 62.376C201.002 62.376 201.398 62.272 201.75 62.064C202.11 61.856 202.39 61.568 202.59 61.2L203.25 61.584C203.002 62.064 202.638 62.444 202.158 62.724C201.678 63.004 201.146 63.144 200.562 63.144ZM207.567 57V57.768H205.839V61.404C205.839 61.732 205.903 61.968 206.031 62.112C206.159 62.248 206.351 62.32 206.607 62.328C206.863 62.328 207.183 62.32 207.567 62.304V63C206.711 63.128 206.075 63.068 205.659 62.82C205.251 62.564 205.047 62.092 205.047 61.404V57.768H203.787V57H205.047V55.56L205.839 55.32V57H207.567ZM209.148 58.572C209.148 59.036 209.56 59.376 210.384 59.592C210.616 59.648 210.768 59.688 210.84 59.712C210.912 59.728 211.052 59.772 211.26 59.844C211.476 59.908 211.624 59.964 211.704 60.012C211.792 60.06 211.912 60.136 212.064 60.24C212.216 60.336 212.324 60.436 212.388 60.54C212.452 60.636 212.512 60.764 212.568 60.924C212.624 61.076 212.652 61.24 212.652 61.416C212.652 61.928 212.448 62.344 212.04 62.664C211.648 62.984 211.128 63.144 210.48 63.144C209.92 63.144 209.436 63.02 209.028 62.772C208.62 62.516 208.332 62.18 208.164 61.764L208.836 61.368C208.948 61.68 209.148 61.928 209.436 62.112C209.732 62.288 210.08 62.376 210.48 62.376C210.888 62.376 211.22 62.296 211.476 62.136C211.732 61.976 211.86 61.736 211.86 61.416C211.86 60.952 211.448 60.612 210.624 60.396C210.392 60.34 210.24 60.304 210.168 60.288C210.096 60.264 209.952 60.22 209.736 60.156C209.528 60.084 209.38 60.024 209.292 59.976C209.212 59.928 209.096 59.856 208.944 59.76C208.792 59.656 208.684 59.556 208.62 59.46C208.556 59.356 208.496 59.228 208.44 59.076C208.384 58.916 208.356 58.748 208.356 58.572C208.356 58.084 208.548 57.676 208.932 57.348C209.332 57.02 209.824 56.856 210.408 56.856C210.888 56.856 211.312 56.964 211.68 57.18C212.056 57.396 212.332 57.696 212.508 58.08L211.848 58.464C211.624 57.904 211.144 57.624 210.408 57.624C210.048 57.624 209.748 57.708 209.508 57.876C209.268 58.044 209.148 58.276 209.148 58.572ZM221.197 60.144V57H221.989V63H221.197V62.064C220.749 62.784 220.077 63.144 219.181 63.144C218.461 63.144 217.889 62.924 217.465 62.484C217.041 62.036 216.829 61.436 216.829 60.684V57H217.621V60.684C217.621 61.22 217.761 61.636 218.041 61.932C218.329 62.228 218.733 62.376 219.253 62.376C219.853 62.376 220.325 62.188 220.669 61.812C221.021 61.436 221.197 60.88 221.197 60.144ZM224.288 58.572C224.288 59.036 224.7 59.376 225.524 59.592C225.756 59.648 225.908 59.688 225.98 59.712C226.052 59.728 226.192 59.772 226.4 59.844C226.616 59.908 226.764 59.964 226.844 60.012C226.932 60.06 227.052 60.136 227.204 60.24C227.356 60.336 227.464 60.436 227.528 60.54C227.592 60.636 227.652 60.764 227.708 60.924C227.764 61.076 227.792 61.24 227.792 61.416C227.792 61.928 227.588 62.344 227.18 62.664C226.788 62.984 226.268 63.144 225.62 63.144C225.06 63.144 224.576 63.02 224.168 62.772C223.76 62.516 223.472 62.18 223.304 61.764L223.976 61.368C224.088 61.68 224.288 61.928 224.576 62.112C224.872 62.288 225.22 62.376 225.62 62.376C226.028 62.376 226.36 62.296 226.616 62.136C226.872 61.976 227 61.736 227 61.416C227 60.952 226.588 60.612 225.764 60.396C225.532 60.34 225.38 60.304 225.308 60.288C225.236 60.264 225.092 60.22 224.876 60.156C224.668 60.084 224.52 60.024 224.432 59.976C224.352 59.928 224.236 59.856 224.084 59.76C223.932 59.656 223.824 59.556 223.76 59.46C223.696 59.356 223.636 59.228 223.58 59.076C223.524 58.916 223.496 58.748 223.496 58.572C223.496 58.084 223.688 57.676 224.072 57.348C224.472 57.02 224.964 56.856 225.548 56.856C226.028 56.856 226.452 56.964 226.82 57.18C227.196 57.396 227.472 57.696 227.648 58.08L226.988 58.464C226.764 57.904 226.284 57.624 225.548 57.624C225.188 57.624 224.888 57.708 224.648 57.876C224.408 58.044 224.288 58.276 224.288 58.572Z" fill="#0C1118" fill-opacity="0.8"/>
<path d="M236.157 63.144C234.877 63.144 233.825 62.724 233.001 61.884C232.169 61.036 231.753 60.008 231.753 58.8C231.753 57.592 232.169 56.564 233.001 55.716C233.825 54.876 234.877 54.456 236.157 54.456C236.925 54.456 237.633 54.644 238.281 55.02C238.929 55.388 239.433 55.888 239.793 56.52L239.049 56.952C238.785 56.44 238.393 56.032 237.873 55.728C237.353 55.424 236.781 55.272 236.157 55.272C235.101 55.272 234.245 55.612 233.589 56.292C232.925 56.98 232.593 57.816 232.593 58.8C232.593 59.784 232.925 60.62 233.589 61.308C234.245 61.988 235.101 62.328 236.157 62.328C236.781 62.328 237.353 62.176 237.873 61.872C238.393 61.568 238.785 61.16 239.049 60.648L239.793 61.068C239.449 61.7 238.949 62.204 238.293 62.58C237.637 62.956 236.925 63.144 236.157 63.144ZM246.024 62.244C245.408 62.844 244.664 63.144 243.792 63.144C242.904 63.144 242.156 62.844 241.548 62.244C240.94 61.636 240.636 60.888 240.636 60C240.636 59.112 240.94 58.368 241.548 57.768C242.156 57.16 242.904 56.856 243.792 56.856C244.672 56.856 245.416 57.16 246.024 57.768C246.64 58.368 246.948 59.112 246.948 60C246.948 60.88 246.64 61.628 246.024 62.244ZM242.112 61.692C242.568 62.148 243.128 62.376 243.792 62.376C244.456 62.376 245.016 62.148 245.472 61.692C245.928 61.22 246.156 60.656 246.156 60C246.156 59.336 245.928 58.776 245.472 58.32C245.016 57.856 244.456 57.624 243.792 57.624C243.128 57.624 242.568 57.856 242.112 58.32C241.656 58.776 241.428 59.336 241.428 60C241.428 60.656 241.656 61.22 242.112 61.692ZM251.49 56.856C252.346 56.856 253.074 57.16 253.674 57.768C254.282 58.376 254.586 59.12 254.586 60C254.586 60.88 254.282 61.624 253.674 62.232C253.074 62.84 252.346 63.144 251.49 63.144C250.426 63.144 249.618 62.704 249.066 61.824V65.4H248.274V57H249.066V58.176C249.618 57.296 250.426 56.856 251.49 56.856ZM249.75 61.692C250.206 62.148 250.766 62.376 251.43 62.376C252.094 62.376 252.654 62.148 253.11 61.692C253.566 61.22 253.794 60.656 253.794 60C253.794 59.336 253.566 58.776 253.11 58.32C252.654 57.856 252.094 57.624 251.43 57.624C250.766 57.624 250.206 57.856 249.75 58.32C249.294 58.776 249.066 59.336 249.066 60C249.066 60.656 249.294 61.22 249.75 61.692ZM261.062 58.176V57H261.855V63H261.062V61.824C260.511 62.704 259.703 63.144 258.639 63.144C257.783 63.144 257.051 62.84 256.443 62.232C255.843 61.624 255.543 60.88 255.543 60C255.543 59.12 255.843 58.376 256.443 57.768C257.051 57.16 257.783 56.856 258.639 56.856C259.703 56.856 260.511 57.296 261.062 58.176ZM257.019 61.692C257.475 62.148 258.035 62.376 258.699 62.376C259.363 62.376 259.923 62.148 260.379 61.692C260.835 61.22 261.062 60.656 261.062 60C261.062 59.336 260.835 58.776 260.379 58.32C259.923 57.856 259.363 57.624 258.699 57.624C258.035 57.624 257.475 57.856 257.019 58.32C256.563 58.776 256.335 59.336 256.335 60C256.335 60.656 256.563 61.22 257.019 61.692Z" fill="url(#paint1_linear_2429_17479)"/>
<g filter="url(#filter0_d_2429_17479)">
<rect x="275" y="18" width="48" height="48" rx="16" fill="url(#paint2_linear_2429_17479)" shape-rendering="crispEdges"/>
<rect x="275.5" y="18.5" width="47" height="47" rx="15.5" stroke="url(#paint3_linear_2429_17479)" shape-rendering="crispEdges"/>
<path d="M304.62 40.7499C304.19 40.7499 303.85 40.3999 303.85 39.9799C303.85 39.6099 303.48 38.8399 302.86 38.1699C302.25 37.5199 301.58 37.1399 301.02 37.1399C300.59 37.1399 300.25 36.7899 300.25 36.3699C300.25 35.9499 300.6 35.5999 301.02 35.5999C302.02 35.5999 303.07 36.1399 303.99 37.1099C304.85 38.0199 305.4 39.1499 305.4 39.9699C305.4 40.3999 305.05 40.7499 304.62 40.7499Z" fill="white"/>
<path d="M308.23 40.75C307.8 40.75 307.46 40.4 307.46 39.98C307.46 36.43 304.57 33.55 301.03 33.55C300.6 33.55 300.26 33.2 300.26 32.78C300.26 32.36 300.6 32 301.02 32C305.42 32 309 35.58 309 39.98C309 40.4 308.65 40.75 308.23 40.75Z" fill="white"/>
<path opacity="0.4" d="M298.79 44.21L295.52 47.48C295.16 47.16 294.81 46.83 294.47 46.49C293.44 45.45 292.51 44.36 291.68 43.22C290.86 42.08 290.2 40.94 289.72 39.81C289.24 38.67 289 37.58 289 36.54C289 35.86 289.12 35.21 289.36 34.61C289.6 34 289.98 33.44 290.51 32.94C291.15 32.31 291.85 32 292.59 32C292.87 32 293.15 32.06 293.4 32.18C293.66 32.3 293.89 32.48 294.07 32.74L296.39 36.01C296.57 36.26 296.7 36.49 296.79 36.71C296.88 36.92 296.93 37.13 296.93 37.32C296.93 37.56 296.86 37.8 296.72 38.03C296.59 38.26 296.4 38.5 296.16 38.74L295.4 39.53C295.29 39.64 295.24 39.77 295.24 39.93C295.24 40.01 295.25 40.08 295.27 40.16C295.3 40.24 295.33 40.3 295.35 40.36C295.53 40.69 295.84 41.12 296.28 41.64C296.73 42.16 297.21 42.69 297.73 43.22C298.09 43.57 298.44 43.91 298.79 44.21Z" fill="white"/>
<path d="M308.97 48.33C308.97 48.61 308.92 48.9 308.82 49.18C308.79 49.26 308.76 49.34 308.72 49.42C308.55 49.78 308.33 50.12 308.04 50.44C307.55 50.98 307.01 51.37 306.4 51.62C306.39 51.62 306.38 51.63 306.37 51.63C305.78 51.87 305.14 52 304.45 52C303.43 52 302.34 51.76 301.19 51.27C300.04 50.78 298.89 50.12 297.75 49.29C297.36 49 296.97 48.71 296.6 48.4L299.87 45.13C300.15 45.34 300.4 45.5 300.61 45.61C300.66 45.63 300.72 45.66 300.79 45.69C300.87 45.72 300.95 45.73 301.04 45.73C301.21 45.73 301.34 45.67 301.45 45.56L302.21 44.81C302.46 44.56 302.7 44.37 302.93 44.25C303.16 44.11 303.39 44.04 303.64 44.04C303.83 44.04 304.03 44.08 304.25 44.17C304.47 44.26 304.7 44.39 304.95 44.56L308.26 46.91C308.52 47.09 308.7 47.3 308.81 47.55C308.91 47.8 308.97 48.05 308.97 48.33Z" fill="white"/>
</g>
<defs>
<filter id="filter0_d_2429_17479" x="257" y="0" width="84" height="84" filterUnits="userSpaceOnUse" color-interpolation-filters="sRGB">
<feFlood flood-opacity="0" result="BackgroundImageFix"/>
<feColorMatrix in="SourceAlpha" type="matrix" values="0 0 0 0 0 0 0 0 0 0 0 0 0 0 0 0 0 0 127 0" result="hardAlpha"/>
<feOffset/>
<feGaussianBlur stdDeviation="9"/>
<feComposite in2="hardAlpha" operator="out"/>
<feColorMatrix type="matrix" values="0 0 0 0 0.929412 0 0 0 0 0.105882 0 0 0 0 0.141176 0 0 0 0.47 0"/>
<feBlend mode="normal" in2="BackgroundImageFix" result="effect1_dropShadow_2429_17479"/>
<feBlend mode="normal" in="SourceGraphic" in2="effect1_dropShadow_2429_17479" result="shape"/>
</filter>
<linearGradient id="paint0_linear_2429_17479" x1="200.035" y1="17.2751" x2="200.035" y2="51.063" gradientUnits="userSpaceOnUse">
<stop stop-color="#ED1B24" stop-opacity="0.6"/>
<stop offset="1" stop-color="#ED1B24"/>
</linearGradient>
<linearGradient id="paint1_linear_2429_17479" x1="212.528" y1="53.1133" x2="212.528" y2="67.0259" gradientUnits="userSpaceOnUse">
<stop stop-color="#ED1B24" stop-opacity="0.6"/>
<stop offset="1" stop-color="#ED1B24"/>
</linearGradient>
<linearGradient id="paint2_linear_2429_17479" x1="275" y1="18" x2="323" y2="66" gradientUnits="userSpaceOnUse">
<stop stop-color="#ED1B24"/>
<stop offset="1" stop-color="#ED1B24" stop-opacity="0.6"/>
</linearGradient>
<linearGradient id="paint3_linear_2429_17479" x1="275" y1="18" x2="323" y2="66" gradientUnits="userSpaceOnUse">
<stop stop-color="white" stop-opacity="0.4"/>
<stop offset="1" stop-color="white" stop-opacity="0"/>
</linearGradient>
</defs>
</svg>
