<svg width="296" height="18" viewBox="0 0 296 18" fill="none" xmlns="http://www.w3.org/2000/svg">
<path d="M4.86166 12.668C3.60566 12.668 2.56166 12.248 1.72966 11.408C0.905656 10.576 0.493656 9.54 0.493656 8.3C0.493656 7.052 0.905656 6.016 1.72966 5.192C2.56166 4.352 3.60566 3.932 4.86166 3.932C5.62166 3.932 6.32166 4.112 6.96166 4.472C7.60966 4.824 8.11366 5.304 8.47366 5.912L7.04566 6.74C6.83766 6.364 6.54166 6.072 6.15766 5.864C5.77366 5.648 5.34166 5.54 4.86166 5.54C4.04566 5.54 3.38566 5.796 2.88166 6.308C2.38566 6.828 2.13766 7.492 2.13766 8.3C2.13766 9.1 2.38566 9.76 2.88166 10.28C3.38566 10.792 4.04566 11.048 4.86166 11.048C5.34166 11.048 5.77366 10.944 6.15766 10.736C6.54966 10.52 6.84566 10.228 7.04566 9.86L8.47366 10.688C8.11366 11.296 7.60966 11.78 6.96166 12.14C6.32166 12.492 5.62166 12.668 4.86166 12.668ZM12.8487 6.332C13.5127 6.332 14.0527 6.552 14.4687 6.992C14.9007 7.44 15.1167 8.048 15.1167 8.816V12.5H13.5687V9.008C13.5687 8.616 13.4607 8.312 13.2447 8.096C13.0367 7.88 12.7487 7.772 12.3807 7.772C11.9727 7.772 11.6487 7.9 11.4087 8.156C11.1767 8.404 11.0607 8.772 11.0607 9.26V12.5H9.51269V4.1H11.0607V7.172C11.4287 6.612 12.0247 6.332 12.8487 6.332ZM20.9985 7.208V6.5H22.5465V12.5H20.9985V11.792C20.5345 12.376 19.8825 12.668 19.0425 12.668C18.2425 12.668 17.5545 12.364 16.9785 11.756C16.4105 11.14 16.1265 10.388 16.1265 9.5C16.1265 8.62 16.4105 7.872 16.9785 7.256C17.5545 6.64 18.2425 6.332 19.0425 6.332C19.8825 6.332 20.5345 6.624 20.9985 7.208ZM18.1425 10.724C18.4545 11.036 18.8505 11.192 19.3305 11.192C19.8105 11.192 20.2065 11.036 20.5185 10.724C20.8385 10.404 20.9985 9.996 20.9985 9.5C20.9985 9.004 20.8385 8.6 20.5185 8.288C20.2065 7.968 19.8105 7.808 19.3305 7.808C18.8505 7.808 18.4545 7.968 18.1425 8.288C17.8305 8.6 17.6745 9.004 17.6745 9.5C17.6745 9.996 17.8305 10.404 18.1425 10.724ZM27.3822 6.5V7.988H26.0262V10.484C26.0262 10.692 26.0782 10.844 26.1822 10.94C26.2862 11.036 26.4382 11.092 26.6382 11.108C26.8382 11.116 27.0862 11.112 27.3822 11.096V12.5C26.3342 12.62 25.5862 12.524 25.1382 12.212C24.6982 11.892 24.4782 11.316 24.4782 10.484V7.988H23.4342V6.5H24.4782V5.288L26.0262 4.82V6.5H27.3822ZM31.6713 6.5V7.988H30.3153V10.484C30.3153 10.692 30.3673 10.844 30.4713 10.94C30.5753 11.036 30.7273 11.092 30.9273 11.108C31.1273 11.116 31.3753 11.112 31.6713 11.096V12.5C30.6233 12.62 29.8753 12.524 29.4273 12.212C28.9873 11.892 28.7673 11.316 28.7673 10.484V7.988H27.7233V6.5H28.7673V5.288L30.3153 4.82V6.5H31.6713ZM33.5307 5.78C33.2747 5.78 33.0507 5.688 32.8587 5.504C32.6747 5.312 32.5827 5.088 32.5827 4.832C32.5827 4.576 32.6747 4.352 32.8587 4.16C33.0507 3.968 33.2747 3.872 33.5307 3.872C33.7947 3.872 34.0187 3.968 34.2027 4.16C34.3947 4.352 34.4907 4.576 34.4907 4.832C34.4907 5.088 34.3947 5.312 34.2027 5.504C34.0187 5.688 33.7947 5.78 33.5307 5.78ZM34.3107 12.5H32.7627V6.5H34.3107V12.5ZM39.0635 6.332C39.7275 6.332 40.2675 6.552 40.6835 6.992C41.1155 7.44 41.3315 8.048 41.3315 8.816V12.5H39.7835V9.008C39.7835 8.616 39.6755 8.312 39.4595 8.096C39.2515 7.88 38.9635 7.772 38.5955 7.772C38.1875 7.772 37.8635 7.9 37.6235 8.156C37.3915 8.404 37.2755 8.772 37.2755 9.26V12.5H35.7275V6.5H37.2755V7.172C37.6435 6.612 38.2395 6.332 39.0635 6.332ZM47.2493 7.244V6.5H48.7613V12.212C48.7613 13.132 48.4533 13.84 47.8373 14.336C47.2293 14.824 46.4933 15.068 45.6293 15.068C44.2693 15.068 43.3213 14.58 42.7853 13.604L44.1053 12.848C44.4013 13.408 44.9253 13.688 45.6773 13.688C46.1653 13.688 46.5493 13.56 46.8293 13.304C47.1093 13.048 47.2493 12.684 47.2493 12.212V11.564C46.7933 12.172 46.1533 12.476 45.3293 12.476C44.4813 12.476 43.7693 12.18 43.1933 11.588C42.6253 10.98 42.3413 10.252 42.3413 9.404C42.3413 8.556 42.6293 7.832 43.2053 7.232C43.7813 6.632 44.4893 6.332 45.3293 6.332C46.1533 6.332 46.7933 6.636 47.2493 7.244ZM46.7693 10.592C47.0893 10.28 47.2493 9.884 47.2493 9.404C47.2493 8.924 47.0893 8.536 46.7693 8.24C46.4573 7.928 46.0573 7.772 45.5693 7.772C45.0893 7.772 44.6853 7.928 44.3573 8.24C44.0453 8.536 43.8893 8.924 43.8893 9.404C43.8893 9.884 44.0453 10.28 44.3573 10.592C44.6773 10.896 45.0813 11.048 45.5693 11.048C46.0573 11.048 46.4573 10.896 46.7693 10.592ZM58.901 10.196L59.921 6.5H61.565L59.657 12.5H58.181L57.077 8.864L55.973 12.5H54.497L52.589 6.5H54.233L55.253 10.184L56.345 6.5H57.809L58.901 10.196ZM63.1674 5.78C62.9114 5.78 62.6874 5.688 62.4954 5.504C62.3114 5.312 62.2194 5.088 62.2194 4.832C62.2194 4.576 62.3114 4.352 62.4954 4.16C62.6874 3.968 62.9114 3.872 63.1674 3.872C63.4314 3.872 63.6554 3.968 63.8394 4.16C64.0314 4.352 64.1274 4.576 64.1274 4.832C64.1274 5.088 64.0314 5.312 63.8394 5.504C63.6554 5.688 63.4314 5.78 63.1674 5.78ZM63.9474 12.5H62.3994V6.5H63.9474V12.5ZM68.7963 6.5V7.988H67.4403V10.484C67.4403 10.692 67.4923 10.844 67.5963 10.94C67.7003 11.036 67.8523 11.092 68.0523 11.108C68.2523 11.116 68.5003 11.112 68.7963 11.096V12.5C67.7483 12.62 67.0003 12.524 66.5523 12.212C66.1123 11.892 65.8923 11.316 65.8923 10.484V7.988H64.8483V6.5H65.8923V5.288L67.4403 4.82V6.5H68.7963ZM73.2237 6.332C73.8877 6.332 74.4277 6.552 74.8437 6.992C75.2757 7.44 75.4917 8.048 75.4917 8.816V12.5H73.9437V9.008C73.9437 8.616 73.8357 8.312 73.6197 8.096C73.4117 7.88 73.1237 7.772 72.7557 7.772C72.3477 7.772 72.0237 7.9 71.7837 8.156C71.5517 8.404 71.4357 8.772 71.4357 9.26V12.5H69.8877V4.1H71.4357V7.172C71.8037 6.612 72.3997 6.332 73.2237 6.332Z" fill="#0C1118" fill-opacity="0.8"/>
<path d="M83.8695 12.668C82.6135 12.668 81.5695 12.248 80.7375 11.408C79.9135 10.576 79.5015 9.54 79.5015 8.3C79.5015 7.052 79.9135 6.016 80.7375 5.192C81.5695 4.352 82.6135 3.932 83.8695 3.932C84.6295 3.932 85.3295 4.112 85.9695 4.472C86.6175 4.824 87.1215 5.304 87.4815 5.912L86.0535 6.74C85.8455 6.364 85.5495 6.072 85.1655 5.864C84.7815 5.648 84.3495 5.54 83.8695 5.54C83.0535 5.54 82.3935 5.796 81.8895 6.308C81.3935 6.828 81.1455 7.492 81.1455 8.3C81.1455 9.1 81.3935 9.76 81.8895 10.28C82.3935 10.792 83.0535 11.048 83.8695 11.048C84.3495 11.048 84.7815 10.944 85.1655 10.736C85.5575 10.52 85.8535 10.228 86.0535 9.86L87.4815 10.688C87.1215 11.296 86.6175 11.78 85.9695 12.14C85.3295 12.492 84.6295 12.668 83.8695 12.668ZM93.5739 11.756C92.9659 12.364 92.2139 12.668 91.3179 12.668C90.4219 12.668 89.6699 12.364 89.0619 11.756C88.4539 11.148 88.1499 10.396 88.1499 9.5C88.1499 8.612 88.4539 7.864 89.0619 7.256C89.6779 6.64 90.4299 6.332 91.3179 6.332C92.2059 6.332 92.9579 6.64 93.5739 7.256C94.1899 7.872 94.4979 8.62 94.4979 9.5C94.4979 10.388 94.1899 11.14 93.5739 11.756ZM90.1539 10.688C90.4659 11 90.8539 11.156 91.3179 11.156C91.7819 11.156 92.1699 11 92.4819 10.688C92.7939 10.376 92.9499 9.98 92.9499 9.5C92.9499 9.02 92.7939 8.624 92.4819 8.312C92.1699 8 91.7819 7.844 91.3179 7.844C90.8539 7.844 90.4659 8 90.1539 8.312C89.8499 8.632 89.6979 9.028 89.6979 9.5C89.6979 9.972 89.8499 10.368 90.1539 10.688ZM99.0789 6.332C99.8869 6.332 100.575 6.64 101.143 7.256C101.719 7.872 102.007 8.62 102.007 9.5C102.007 10.396 101.719 11.148 101.143 11.756C100.583 12.364 99.8949 12.668 99.0789 12.668C98.2389 12.668 97.5909 12.376 97.1349 11.792V14.9H95.5869V6.5H97.1349V7.208C97.5909 6.624 98.2389 6.332 99.0789 6.332ZM97.6029 10.724C97.9149 11.036 98.3109 11.192 98.7909 11.192C99.2709 11.192 99.6669 11.036 99.9789 10.724C100.299 10.404 100.459 9.996 100.459 9.5C100.459 9.004 100.299 8.6 99.9789 8.288C99.6669 7.968 99.2709 7.808 98.7909 7.808C98.3109 7.808 97.9149 7.968 97.6029 8.288C97.2909 8.6 97.1349 9.004 97.1349 9.5C97.1349 9.996 97.2909 10.404 97.6029 10.724ZM107.659 7.208V6.5H109.207V12.5H107.659V11.792C107.195 12.376 106.543 12.668 105.703 12.668C104.903 12.668 104.215 12.364 103.639 11.756C103.071 11.14 102.787 10.388 102.787 9.5C102.787 8.62 103.071 7.872 103.639 7.256C104.215 6.64 104.903 6.332 105.703 6.332C106.543 6.332 107.195 6.624 107.659 7.208ZM104.803 10.724C105.115 11.036 105.511 11.192 105.991 11.192C106.471 11.192 106.867 11.036 107.179 10.724C107.499 10.404 107.659 9.996 107.659 9.5C107.659 9.004 107.499 8.6 107.179 8.288C106.867 7.968 106.471 7.808 105.991 7.808C105.511 7.808 105.115 7.968 104.803 8.288C104.491 8.6 104.335 9.004 104.335 9.5C104.335 9.996 104.491 10.404 104.803 10.724Z" fill="url(#paint0_linear_3095_8738)"/>
<path d="M118 7.5C119.05 7.525 120.1 7.55 121.15 7.575C140.05 8.025 158.95 8.475 177.85 8.925C178.9 8.95 179.95 8.975 181 9C181 8 181 7 181 6C179.95 6.025 178.9 6.05 177.85 6.075C158.95 6.525 140.05 6.975 121.15 7.425C120.1 7.45 119.05 7.475 118 7.5Z" fill="#ED1B24"/>
<path d="M193.16 13C192.18 13 191.457 12.7153 190.99 12.146C190.533 11.5767 190.304 10.8113 190.304 9.85V3.648H192.082V9.85C192.082 10.2047 192.101 10.4567 192.138 10.606C192.185 10.7553 192.278 10.858 192.418 10.914C192.567 10.9607 192.815 10.984 193.16 10.984H193.664L193.748 12.02L193.664 13H193.16ZM193.507 10.984H195.061C195.481 10.984 195.779 10.914 195.957 10.774C196.134 10.6247 196.213 10.4147 196.195 10.144C196.148 9.56533 196.027 8.79067 195.831 7.82L197.511 7.4C197.623 7.89467 197.725 8.422 197.819 8.982C197.921 9.542 197.973 9.99467 197.973 10.34C197.973 10.8067 197.87 11.2407 197.665 11.642C197.459 12.0433 197.147 12.37 196.727 12.622C196.316 12.874 195.807 13 195.201 13H193.507V10.984ZM192.975 14.106H194.641V15.772H192.975V14.106ZM194.347 16.206H195.943V17.788H194.347V16.206ZM195.635 14.106H197.301V15.772H195.635V14.106ZM201.323 14.61C201.901 14.61 202.34 14.5587 202.639 14.456C202.937 14.3627 203.143 14.1993 203.255 13.966C203.376 13.742 203.446 13.42 203.465 13H202.261C201.374 13 200.669 12.7433 200.147 12.23C199.633 11.7073 199.377 10.9793 199.377 10.046C199.377 9.38333 199.498 8.79533 199.741 8.282C199.993 7.76867 200.333 7.372 200.763 7.092C201.201 6.80267 201.696 6.658 202.247 6.658C202.844 6.658 203.367 6.798 203.815 7.078C204.272 7.358 204.622 7.75467 204.865 8.268C205.117 8.78133 205.243 9.374 205.243 10.046V10.984H206.013L206.125 12.006L206.013 13H205.243C205.205 14.092 204.869 14.9693 204.235 15.632C203.6 16.2947 202.629 16.626 201.323 16.626H199.657V14.61H201.323ZM201.085 9.948C201.085 10.3307 201.178 10.6153 201.365 10.802C201.551 10.9793 201.85 11.068 202.261 11.068H203.465V10.004C203.465 9.03333 203.059 8.548 202.247 8.548C201.864 8.548 201.575 8.67867 201.379 8.94C201.183 9.20133 201.085 9.53733 201.085 9.948ZM212.573 4.586L208.653 6.308L210.809 8.506C211.089 8.786 211.299 9.09867 211.439 9.444C211.579 9.78 211.649 10.1253 211.649 10.48C211.649 10.928 211.541 11.3433 211.327 11.726C211.121 12.1087 210.813 12.4167 210.403 12.65C210.001 12.8833 209.53 13 208.989 13H205.867V10.984H209.031C209.273 10.984 209.46 10.9373 209.591 10.844C209.731 10.7413 209.801 10.6107 209.801 10.452C209.801 10.256 209.703 10.06 209.507 9.864L206.721 7.064L207.155 4.81L211.845 2.738L212.573 4.586Z" fill="url(#paint1_linear_3095_8738)"/>
<path d="M218.959 13C217.979 13 217.255 12.7153 216.789 12.146C216.331 11.5767 216.103 10.8113 216.103 9.85V3.648H217.881V9.85C217.881 10.2047 217.899 10.4567 217.937 10.606C217.983 10.7553 218.077 10.858 218.217 10.914C218.366 10.9607 218.613 10.984 218.959 10.984H219.463L219.547 12.02L219.463 13H218.959ZM219.306 10.984H220.664C221.382 10.984 221.728 10.704 221.7 10.144C221.672 9.73333 221.55 8.95867 221.336 7.82L223.002 7.4C223.319 8.772 223.478 9.752 223.478 10.34C223.478 10.7973 223.375 11.2313 223.17 11.642C222.974 12.0433 222.67 12.37 222.26 12.622C221.858 12.874 221.373 13 220.804 13H219.306V10.984ZM219.04 14.694H220.902V16.514H219.04V14.694ZM229.937 9.514C229.451 10.5313 229.209 11.4693 229.209 12.328C229.209 13.056 229.377 13.602 229.713 13.966C230.058 14.33 230.632 14.512 231.435 14.512H232.639C233.236 14.512 233.684 14.4607 233.983 14.358C234.281 14.2553 234.482 14.078 234.585 13.826C234.697 13.574 234.753 13.2007 234.753 12.706V8.31H236.531V12.706C236.531 13.882 236.213 14.8107 235.579 15.492C234.953 16.1827 233.973 16.528 232.639 16.528H231.435C230.595 16.528 229.876 16.3413 229.279 15.968C228.681 15.5947 228.229 15.0907 227.921 14.456C227.613 13.8213 227.459 13.112 227.459 12.328C227.459 11.7587 227.557 11.152 227.753 10.508C227.949 9.864 228.182 9.27133 228.453 8.73L229.937 9.514ZM231.435 7.022H233.297V8.842H231.435V7.022ZM240.929 13C239.949 13 239.226 12.7153 238.759 12.146C238.302 11.5767 238.073 10.8113 238.073 9.85V3.648H239.851V9.85C239.851 10.2047 239.87 10.4567 239.907 10.606C239.954 10.7553 240.047 10.858 240.187 10.914C240.337 10.9607 240.584 10.984 240.929 10.984H241.433L241.517 12.02L241.433 13H240.929ZM241.29 10.984H241.654C241.841 10.984 241.981 10.942 242.074 10.858C242.177 10.7647 242.252 10.6153 242.298 10.41L242.662 9.066C242.868 8.254 243.213 7.63333 243.698 7.204C244.184 6.77467 244.767 6.56 245.448 6.56C245.99 6.56 246.47 6.70933 246.89 7.008C247.32 7.29733 247.656 7.70333 247.898 8.226C248.141 8.73933 248.262 9.318 248.262 9.962C248.262 10.2607 248.286 10.48 248.332 10.62C248.388 10.76 248.477 10.858 248.598 10.914C248.72 10.9607 248.906 10.984 249.158 10.984H249.368L249.48 11.964L249.368 13H249.158C248.477 13 247.926 12.8133 247.506 12.44C247.264 12.7107 246.988 12.9113 246.68 13.042C246.382 13.182 246.074 13.252 245.756 13.252C245.439 13.252 245.103 13.1867 244.748 13.056C244.403 12.9347 243.885 12.7107 243.194 12.384C242.98 12.58 242.742 12.734 242.48 12.846C242.219 12.9487 241.953 13 241.682 13H241.29V10.984ZM244.048 10.69C244.552 10.9233 244.926 11.082 245.168 11.166C245.411 11.25 245.63 11.292 245.826 11.292C246.34 11.292 246.596 10.8533 246.596 9.976C246.596 9.5 246.494 9.136 246.288 8.884C246.083 8.62267 245.817 8.492 245.49 8.492C245.22 8.492 244.982 8.59 244.776 8.786C244.571 8.982 244.422 9.26667 244.328 9.64L244.048 10.69ZM253.658 8.31V10.34C253.658 10.5827 253.723 10.7507 253.854 10.844C253.985 10.9373 254.19 10.984 254.47 10.984H255.226L255.31 12.048L255.226 13H254.47C254.181 13 253.877 12.944 253.56 12.832C253.243 12.7107 252.963 12.538 252.72 12.314C252.459 12.538 252.16 12.7107 251.824 12.832C251.497 12.944 251.161 13 250.816 13H249.22V10.984H250.816C251.208 10.984 251.483 10.9327 251.642 10.83C251.801 10.718 251.88 10.5313 251.88 10.27V8.31H253.658ZM249.584 5.006H251.25V6.672H249.584V5.006ZM252.202 5.006H253.882V6.672H252.202V5.006ZM255.057 10.984H255.631C255.902 10.984 256.28 10.9747 256.765 10.956C256.56 10.732 256.397 10.48 256.275 10.2C256.154 9.92 256.093 9.63533 256.093 9.346C256.093 8.842 256.219 8.36133 256.471 7.904C256.733 7.44667 257.087 7.078 257.535 6.798C257.993 6.518 258.497 6.378 259.047 6.378C259.579 6.378 260.065 6.518 260.503 6.798C260.951 7.078 261.301 7.44667 261.553 7.904C261.815 8.36133 261.945 8.83733 261.945 9.332C261.945 9.63067 261.885 9.92 261.763 10.2C261.642 10.48 261.479 10.732 261.273 10.956C261.74 10.9747 262.113 10.984 262.393 10.984H262.953L263.065 11.992L262.953 13H262.015C261.595 13 261.115 12.9533 260.573 12.86C260.032 12.7573 259.509 12.6127 259.005 12.426C258.501 12.6127 257.983 12.7573 257.451 12.86C256.919 12.9533 256.448 13 256.037 13H255.057V10.984ZM257.843 9.458C257.843 9.766 257.951 10.0367 258.165 10.27C258.389 10.494 258.669 10.6573 259.005 10.76C259.351 10.6667 259.64 10.5033 259.873 10.27C260.107 10.0367 260.223 9.766 260.223 9.458C260.223 9.11267 260.111 8.828 259.887 8.604C259.663 8.38 259.383 8.268 259.047 8.268C258.702 8.268 258.413 8.38 258.179 8.604C257.955 8.828 257.843 9.11267 257.843 9.458ZM258.095 3.62H259.957V5.44H258.095V3.62ZM269.544 4.95L265.89 6.588L267.752 8.506C268.032 8.79533 268.242 9.11267 268.382 9.458C268.522 9.794 268.592 10.1393 268.592 10.494C268.592 10.9327 268.485 11.3433 268.27 11.726C268.065 12.1087 267.757 12.4167 267.346 12.65C266.945 12.8833 266.473 13 265.932 13H262.81V10.984H265.974C266.217 10.984 266.403 10.9373 266.534 10.844C266.674 10.7413 266.744 10.6107 266.744 10.452C266.744 10.256 266.646 10.06 266.45 9.864L263.958 7.344L264.392 5.09L268.83 3.116L269.544 4.95ZM264.56 3.48L268.06 1.954L268.312 2.626L264.476 4.292L264.56 3.48Z" fill="#0C1118" fill-opacity="0.8"/>
<path d="M291.5 12.5627C291.38 12.5627 291.268 12.5252 291.163 12.4502C290.915 12.2627 290.863 11.9102 291.05 11.6627C292.228 10.0952 292.228 7.9052 291.05 6.3377C290.863 6.0902 290.915 5.7377 291.163 5.5502C291.41 5.3627 291.763 5.4152 291.95 5.6627C293.42 7.6277 293.42 10.3727 291.95 12.3377C291.838 12.4877 291.673 12.5627 291.5 12.5627Z" fill="#ED1B24"/>
<path d="M292.872 14.4377C292.752 14.4377 292.64 14.4002 292.535 14.3252C292.287 14.1377 292.235 13.7852 292.422 13.5377C294.425 10.8677 294.425 7.1327 292.422 4.4627C292.235 4.2152 292.287 3.8627 292.535 3.6752C292.782 3.4877 293.135 3.5402 293.322 3.7877C295.625 6.8552 295.625 11.1452 293.322 14.2127C293.217 14.3627 293.045 14.4377 292.872 14.4377Z" fill="#ED1B24"/>
<path opacity="0.4" d="M289.812 5.55729V12.4423C289.812 13.7323 289.348 14.6998 288.515 15.1648C288.178 15.3523 287.803 15.4423 287.413 15.4423C286.812 15.4423 286.168 15.2398 285.508 14.8273L283.318 13.4548C283.168 13.3648 282.995 13.3123 282.822 13.3123H282.125V4.68729H282.822C282.995 4.68729 283.168 4.63479 283.318 4.54479L285.508 3.17229C286.602 2.48979 287.675 2.36979 288.515 2.83479C289.348 3.29979 289.812 4.26729 289.812 5.55729Z" fill="#ED1B24"/>
<path d="M282.125 4.6875V13.3125H281.75C279.935 13.3125 278.938 12.315 278.938 10.5V7.5C278.938 5.685 279.935 4.6875 281.75 4.6875H282.125Z" fill="#ED1B24"/>
<defs>
<linearGradient id="paint0_linear_3095_8738" x1="55.0309" y1="1.62138" x2="55.0309" y2="16.5278" gradientUnits="userSpaceOnUse">
<stop stop-color="#ED1B24" stop-opacity="0.6"/>
<stop offset="1" stop-color="#ED1B24"/>
</linearGradient>
<linearGradient id="paint1_linear_3095_8738" x1="229.523" y1="0.145655" x2="229.523" y2="18.0334" gradientUnits="userSpaceOnUse">
<stop stop-color="#ED1B24" stop-opacity="0.6"/>
<stop offset="1" stop-color="#ED1B24"/>
</linearGradient>
</defs>
</svg>
