<svg width="735" height="84" viewBox="0 0 735 84" fill="none" xmlns="http://www.w3.org/2000/svg">
<path d="M522.892 40C521.148 40 519.82 39.48 518.908 38.44C517.996 37.384 517.54 36.032 517.54 34.384V23.68H521.356V34.384C521.356 34.816 521.38 35.12 521.428 35.296C521.492 35.456 521.62 35.56 521.812 35.608C522.02 35.656 522.38 35.68 522.892 35.68H524.092L524.236 37.912L524.092 40H522.892ZM523.836 35.68H526.092C527.244 35.68 527.78 35.288 527.7 34.504C527.62 33.592 527.436 32.344 527.148 30.76L530.724 29.872C531.268 32.144 531.54 33.824 531.54 34.912C531.54 35.792 531.348 36.624 530.964 37.408C530.596 38.176 530.036 38.8 529.284 39.28C528.532 39.76 527.604 40 526.5 40H523.836V35.68ZM523.812 41.608H526.836H527.004H530.004V44.776H527.004H526.836H523.812V41.608ZM525.42 45.664H528.444V48.232H525.42V45.664ZM537.594 41.992C538.474 41.992 539.13 41.936 539.562 41.824C540.01 41.712 540.322 41.52 540.498 41.248C540.69 40.976 540.802 40.56 540.834 40H539.202C537.554 40 536.266 39.528 535.338 38.584C534.41 37.624 533.946 36.296 533.946 34.6C533.946 33.352 534.17 32.264 534.618 31.336C535.066 30.392 535.682 29.672 536.466 29.176C537.266 28.664 538.17 28.408 539.178 28.408C540.266 28.408 541.226 28.664 542.058 29.176C542.89 29.672 543.538 30.392 544.002 31.336C544.466 32.264 544.698 33.352 544.698 34.6V35.68H546.018L546.234 37.864L546.018 40H544.674C544.562 41.904 543.93 43.432 542.778 44.584C541.626 45.736 539.898 46.312 537.594 46.312H534.522V41.992H537.594ZM537.57 34.336C537.57 35.392 538.114 35.92 539.202 35.92H540.858V34.48C540.858 33.824 540.738 33.312 540.498 32.944C540.258 32.576 539.818 32.392 539.178 32.392C538.618 32.392 538.21 32.576 537.954 32.944C537.698 33.312 537.57 33.776 537.57 34.336ZM557.415 25.528L551.271 28.24L554.535 31.552C555.063 32.096 555.455 32.688 555.711 33.328C555.983 33.952 556.119 34.6 556.119 35.272C556.119 36.104 555.919 36.88 555.519 37.6C555.119 38.32 554.535 38.904 553.767 39.352C553.015 39.784 552.135 40 551.127 40H545.775V35.68H551.247C551.471 35.68 551.647 35.624 551.775 35.512C551.919 35.4 551.991 35.256 551.991 35.08C551.991 34.856 551.887 34.64 551.679 34.432L547.119 29.824L547.959 25.072L555.879 21.592L557.415 25.528Z" fill="url(#paint0_linear_2429_17274)"/>
<path d="M567.704 40C565.96 40 564.632 39.48 563.72 38.44C562.808 37.384 562.352 36.032 562.352 34.384V23.68H566.168V34.384C566.168 34.816 566.192 35.12 566.24 35.296C566.304 35.456 566.432 35.56 566.624 35.608C566.832 35.656 567.192 35.68 567.704 35.68H568.904L569.048 37.912L568.904 40H567.704ZM568.649 35.68H570.737C571.297 35.68 571.705 35.592 571.961 35.416C572.217 35.24 572.345 34.968 572.345 34.6C572.345 34.232 572.281 33.68 572.153 32.944C572.041 32.192 571.921 31.464 571.793 30.76L575.369 29.872C575.913 32.144 576.185 33.824 576.185 34.912C576.185 35.792 575.993 36.624 575.609 37.408C575.241 38.176 574.681 38.8 573.929 39.28C573.177 39.76 572.249 40 571.145 40H568.649V35.68ZM567.473 42.424H571.193V46.024H567.473V42.424ZM586.89 34.072C586.09 35.8 585.69 37.352 585.69 38.728C585.69 39.48 585.794 40.072 586.002 40.504C586.21 40.936 586.562 41.248 587.058 41.44C587.57 41.632 588.282 41.728 589.194 41.728H590.898C591.89 41.728 592.602 41.664 593.034 41.536C593.482 41.408 593.778 41.16 593.922 40.792C594.066 40.44 594.138 39.864 594.138 39.064V31.528H597.978V39.064C597.978 41.176 597.402 42.864 596.25 44.128C595.098 45.408 593.314 46.048 590.898 46.048H589.194C587.674 46.048 586.37 45.736 585.282 45.112C584.194 44.488 583.362 43.616 582.786 42.496C582.226 41.392 581.946 40.136 581.946 38.728C581.946 37.816 582.122 36.776 582.474 35.608C582.826 34.424 583.234 33.352 583.698 32.392L586.89 34.072ZM588.762 27.904H592.482V31.504H588.762V27.904ZM605.72 40C603.976 40 602.648 39.48 601.736 38.44C600.824 37.384 600.368 36.032 600.368 34.384V23.68H604.184V34.384C604.184 34.816 604.208 35.12 604.256 35.296C604.32 35.456 604.448 35.56 604.64 35.608C604.848 35.656 605.208 35.68 605.72 35.68H606.92L607.064 37.912L606.92 40H605.72ZM606.689 35.68H607.289C607.545 35.68 607.737 35.616 607.865 35.488C607.993 35.344 608.105 35.08 608.201 34.696L608.705 32.704C609.073 31.216 609.705 30.096 610.601 29.344C611.497 28.592 612.569 28.216 613.817 28.216C614.793 28.216 615.673 28.472 616.457 28.984C617.257 29.496 617.881 30.224 618.329 31.168C618.793 32.096 619.025 33.16 619.025 34.36C619.025 34.76 619.057 35.048 619.121 35.224C619.201 35.4 619.345 35.52 619.553 35.584C619.777 35.648 620.129 35.68 620.609 35.68H621.017L621.257 37.744L621.017 40H620.609C619.281 40 618.225 39.672 617.441 39.016C616.993 39.464 616.481 39.8 615.905 40.024C615.345 40.248 614.785 40.36 614.225 40.36C613.713 40.36 613.153 40.256 612.545 40.048C611.937 39.84 611.097 39.496 610.025 39.016C609.625 39.32 609.193 39.56 608.729 39.736C608.281 39.912 607.825 40 607.361 40H606.689V35.68ZM611.897 35.44C612.569 35.728 613.081 35.928 613.433 36.04C613.785 36.152 614.113 36.208 614.417 36.208C614.753 36.208 615.017 36.048 615.209 35.728C615.417 35.392 615.521 34.944 615.521 34.384C615.521 33.696 615.361 33.184 615.041 32.848C614.721 32.496 614.345 32.32 613.913 32.32C613.513 32.32 613.169 32.464 612.881 32.752C612.593 33.04 612.385 33.44 612.257 33.952L611.897 35.44ZM628.863 31.528V35.056C628.863 35.312 628.935 35.48 629.079 35.56C629.239 35.64 629.495 35.68 629.847 35.68H631.191L631.359 37.96L631.191 40H629.847C629.351 40 628.839 39.92 628.311 39.76C627.783 39.584 627.295 39.328 626.847 38.992C626.399 39.312 625.895 39.56 625.335 39.736C624.775 39.912 624.207 40 623.631 40H620.751V35.68H623.631C624.191 35.68 624.559 35.64 624.735 35.56C624.927 35.48 625.023 35.312 625.023 35.056V31.528H628.863ZM621.879 25.48H624.855H625.071H628.023V28.648H625.071H624.855H621.879V25.48ZM630.946 35.68H631.714H633.226C633.018 35.344 632.858 34.96 632.746 34.528C632.634 34.096 632.578 33.672 632.578 33.256C632.578 32.408 632.81 31.568 633.274 30.736C633.754 29.904 634.41 29.224 635.242 28.696C636.074 28.168 637.002 27.904 638.026 27.904C639.018 27.904 639.922 28.168 640.738 28.696C641.57 29.224 642.218 29.904 642.682 30.736C643.162 31.552 643.402 32.384 643.402 33.232C643.402 33.648 643.338 34.08 643.21 34.528C643.098 34.96 642.938 35.344 642.73 35.68H644.194H645.034L645.274 37.84L645.034 40H643.114C642.346 40 641.506 39.92 640.594 39.76C639.698 39.584 638.818 39.336 637.954 39.016C637.09 39.336 636.21 39.584 635.314 39.76C634.418 39.92 633.602 40 632.866 40H630.946V35.68ZM636.154 22.864H639.874V26.464H636.154V22.864ZM636.322 33.592C636.322 34.072 636.49 34.488 636.826 34.84C637.178 35.176 637.562 35.392 637.978 35.488C638.378 35.408 638.77 35.192 639.154 34.84C639.538 34.472 639.73 34.056 639.73 33.592C639.73 33.128 639.562 32.728 639.226 32.392C638.89 32.056 638.49 31.888 638.026 31.888C637.562 31.888 637.162 32.056 636.826 32.392C636.49 32.728 636.322 33.128 636.322 33.592ZM656.534 26.104L650.798 28.696L653.558 31.552C654.086 32.08 654.478 32.672 654.734 33.328C654.99 33.968 655.118 34.616 655.118 35.272C655.118 36.104 654.918 36.888 654.518 37.624C654.118 38.344 653.542 38.92 652.79 39.352C652.038 39.784 651.158 40 650.15 40H644.798V35.68H650.27C650.494 35.68 650.67 35.624 650.798 35.512C650.942 35.4 651.014 35.256 651.014 35.08C651.014 34.856 650.91 34.64 650.702 34.432L646.646 30.28L647.486 25.528L654.998 22.168L656.534 26.104ZM647.846 22.72L653.606 20.2L654.11 21.496L647.678 24.304L647.846 22.72Z" fill="#0C1118" fill-opacity="0.8"/>
<path d="M552.38 63.144C551.1 63.144 550.048 62.724 549.224 61.884C548.392 61.036 547.976 60.008 547.976 58.8C547.976 57.592 548.392 56.564 549.224 55.716C550.048 54.876 551.1 54.456 552.38 54.456C553.148 54.456 553.856 54.644 554.504 55.02C555.152 55.388 555.656 55.888 556.016 56.52L555.272 56.952C555.008 56.44 554.616 56.032 554.096 55.728C553.576 55.424 553.004 55.272 552.38 55.272C551.324 55.272 550.468 55.612 549.812 56.292C549.148 56.98 548.816 57.816 548.816 58.8C548.816 59.784 549.148 60.62 549.812 61.308C550.468 61.988 551.324 62.328 552.38 62.328C553.004 62.328 553.576 62.176 554.096 61.872C554.616 61.568 555.008 61.16 555.272 60.648L556.016 61.068C555.672 61.7 555.172 62.204 554.516 62.58C553.86 62.956 553.148 63.144 552.38 63.144ZM560.086 56.856C560.806 56.856 561.378 57.08 561.802 57.528C562.226 57.968 562.438 58.564 562.438 59.316V63H561.646V59.316C561.646 58.78 561.502 58.364 561.214 58.068C560.934 57.772 560.534 57.624 560.014 57.624C559.414 57.624 558.938 57.812 558.586 58.188C558.242 58.564 558.07 59.12 558.07 59.856V63H557.278V54.6H558.07V57.936C558.518 57.216 559.19 56.856 560.086 56.856ZM569.129 58.176V57H569.921V63H569.129V61.824C568.577 62.704 567.769 63.144 566.705 63.144C565.849 63.144 565.117 62.84 564.509 62.232C563.909 61.624 563.609 60.88 563.609 60C563.609 59.12 563.909 58.376 564.509 57.768C565.117 57.16 565.849 56.856 566.705 56.856C567.769 56.856 568.577 57.296 569.129 58.176ZM565.085 61.692C565.541 62.148 566.101 62.376 566.765 62.376C567.429 62.376 567.989 62.148 568.445 61.692C568.901 61.22 569.129 60.656 569.129 60C569.129 59.336 568.901 58.776 568.445 58.32C567.989 57.856 567.429 57.624 566.765 57.624C566.101 57.624 565.541 57.856 565.085 58.32C564.629 58.776 564.401 59.336 564.401 60C564.401 60.656 564.629 61.22 565.085 61.692ZM574.778 57V57.768H573.05V61.404C573.05 61.732 573.114 61.968 573.242 62.112C573.37 62.248 573.562 62.32 573.818 62.328C574.074 62.328 574.394 62.32 574.778 62.304V63C573.922 63.128 573.286 63.068 572.87 62.82C572.462 62.564 572.258 62.092 572.258 61.404V57.768H570.998V57H572.258V55.56L573.05 55.32V57H574.778ZM578.915 57V57.768H577.187V61.404C577.187 61.732 577.251 61.968 577.379 62.112C577.507 62.248 577.699 62.32 577.955 62.328C578.211 62.328 578.531 62.32 578.915 62.304V63C578.059 63.128 577.423 63.068 577.007 62.82C576.599 62.564 576.395 62.092 576.395 61.404V57.768H575.135V57H576.395V55.56L577.187 55.32V57H578.915ZM581.207 55.152C581.207 55.312 581.151 55.448 581.039 55.56C580.927 55.672 580.791 55.728 580.631 55.728C580.471 55.728 580.335 55.672 580.223 55.56C580.111 55.448 580.055 55.312 580.055 55.152C580.055 54.992 580.111 54.856 580.223 54.744C580.335 54.632 580.471 54.576 580.631 54.576C580.791 54.576 580.927 54.632 581.039 54.744C581.151 54.856 581.207 54.992 581.207 55.152ZM581.027 63H580.235V57H581.027V63ZM585.515 56.856C586.235 56.856 586.807 57.08 587.231 57.528C587.655 57.968 587.867 58.564 587.867 59.316V63H587.075V59.316C587.075 58.78 586.931 58.364 586.643 58.068C586.363 57.772 585.963 57.624 585.443 57.624C584.843 57.624 584.367 57.812 584.015 58.188C583.671 58.564 583.499 59.12 583.499 59.856V63H582.707V57H583.499V57.936C583.947 57.216 584.619 56.856 585.515 56.856ZM594.559 58.176V57H595.351V62.76C595.351 63.624 595.055 64.304 594.463 64.8C593.871 65.296 593.163 65.544 592.339 65.544C590.939 65.544 589.991 65.056 589.495 64.08L590.191 63.684C590.551 64.412 591.267 64.776 592.339 64.776C593.027 64.776 593.567 64.596 593.959 64.236C594.359 63.876 594.559 63.384 594.559 62.76V61.824C594.007 62.704 593.199 63.144 592.135 63.144C591.279 63.144 590.547 62.84 589.939 62.232C589.339 61.624 589.039 60.88 589.039 60C589.039 59.12 589.339 58.376 589.939 57.768C590.547 57.16 591.279 56.856 592.135 56.856C593.199 56.856 594.007 57.296 594.559 58.176ZM590.515 61.692C590.971 62.148 591.531 62.376 592.195 62.376C592.859 62.376 593.419 62.148 593.875 61.692C594.331 61.22 594.559 60.656 594.559 60C594.559 59.336 594.331 58.776 593.875 58.32C593.419 57.856 592.859 57.624 592.195 57.624C591.531 57.624 590.971 57.856 590.515 58.32C590.059 58.776 589.831 59.336 589.831 60C589.831 60.656 590.059 61.22 590.515 61.692ZM605.776 61.98L607.252 57H608.068L606.22 63H605.355L603.808 58.164L602.26 63H601.396L599.548 57H600.364L601.84 61.98L603.412 57H604.204L605.776 61.98ZM610.234 55.152C610.234 55.312 610.178 55.448 610.066 55.56C609.954 55.672 609.818 55.728 609.658 55.728C609.498 55.728 609.362 55.672 609.25 55.56C609.138 55.448 609.082 55.312 609.082 55.152C609.082 54.992 609.138 54.856 609.25 54.744C609.362 54.632 609.498 54.576 609.658 54.576C609.818 54.576 609.954 54.632 610.066 54.744C610.178 54.856 610.234 54.992 610.234 55.152ZM610.054 63H609.262V57H610.054V63ZM614.915 57V57.768H613.187V61.404C613.187 61.732 613.251 61.968 613.379 62.112C613.507 62.248 613.699 62.32 613.955 62.328C614.211 62.328 614.531 62.32 614.915 62.304V63C614.059 63.128 613.423 63.068 613.007 62.82C612.599 62.564 612.395 62.092 612.395 61.404V57.768H611.135V57H612.395V55.56L613.187 55.32V57H614.915ZM619.043 56.856C619.763 56.856 620.335 57.08 620.759 57.528C621.183 57.968 621.395 58.564 621.395 59.316V63H620.603V59.316C620.603 58.78 620.459 58.364 620.171 58.068C619.891 57.772 619.491 57.624 618.971 57.624C618.371 57.624 617.895 57.812 617.543 58.188C617.199 58.564 617.027 59.12 617.027 59.856V63H616.235V54.6H617.027V57.936C617.475 57.216 618.147 56.856 619.043 56.856Z" fill="#0C1118" fill-opacity="0.8"/>
<path d="M629.97 63.144C628.69 63.144 627.638 62.724 626.814 61.884C625.982 61.036 625.566 60.008 625.566 58.8C625.566 57.592 625.982 56.564 626.814 55.716C627.638 54.876 628.69 54.456 629.97 54.456C630.738 54.456 631.446 54.644 632.094 55.02C632.742 55.388 633.246 55.888 633.606 56.52L632.862 56.952C632.598 56.44 632.206 56.032 631.686 55.728C631.166 55.424 630.594 55.272 629.97 55.272C628.914 55.272 628.058 55.612 627.402 56.292C626.738 56.98 626.406 57.816 626.406 58.8C626.406 59.784 626.738 60.62 627.402 61.308C628.058 61.988 628.914 62.328 629.97 62.328C630.594 62.328 631.166 62.176 631.686 61.872C632.206 61.568 632.598 61.16 632.862 60.648L633.606 61.068C633.262 61.7 632.762 62.204 632.106 62.58C631.45 62.956 630.738 63.144 629.97 63.144ZM639.837 62.244C639.221 62.844 638.477 63.144 637.605 63.144C636.717 63.144 635.969 62.844 635.361 62.244C634.753 61.636 634.449 60.888 634.449 60C634.449 59.112 634.753 58.368 635.361 57.768C635.969 57.16 636.717 56.856 637.605 56.856C638.485 56.856 639.229 57.16 639.837 57.768C640.453 58.368 640.761 59.112 640.761 60C640.761 60.88 640.453 61.628 639.837 62.244ZM635.925 61.692C636.381 62.148 636.941 62.376 637.605 62.376C638.269 62.376 638.829 62.148 639.285 61.692C639.741 61.22 639.969 60.656 639.969 60C639.969 59.336 639.741 58.776 639.285 58.32C638.829 57.856 638.269 57.624 637.605 57.624C636.941 57.624 636.381 57.856 635.925 58.32C635.469 58.776 635.241 59.336 635.241 60C635.241 60.656 635.469 61.22 635.925 61.692ZM645.302 56.856C646.158 56.856 646.886 57.16 647.486 57.768C648.094 58.376 648.398 59.12 648.398 60C648.398 60.88 648.094 61.624 647.486 62.232C646.886 62.84 646.158 63.144 645.302 63.144C644.238 63.144 643.43 62.704 642.878 61.824V65.4H642.086V57H642.878V58.176C643.43 57.296 644.238 56.856 645.302 56.856ZM643.562 61.692C644.018 62.148 644.578 62.376 645.242 62.376C645.906 62.376 646.466 62.148 646.922 61.692C647.378 61.22 647.606 60.656 647.606 60C647.606 59.336 647.378 58.776 646.922 58.32C646.466 57.856 645.906 57.624 645.242 57.624C644.578 57.624 644.018 57.856 643.562 58.32C643.106 58.776 642.878 59.336 642.878 60C642.878 60.656 643.106 61.22 643.562 61.692ZM654.875 58.176V57H655.667V63H654.875V61.824C654.323 62.704 653.515 63.144 652.451 63.144C651.595 63.144 650.863 62.84 650.255 62.232C649.655 61.624 649.355 60.88 649.355 60C649.355 59.12 649.655 58.376 650.255 57.768C650.863 57.16 651.595 56.856 652.451 56.856C653.515 56.856 654.323 57.296 654.875 58.176ZM650.831 61.692C651.287 62.148 651.847 62.376 652.511 62.376C653.175 62.376 653.735 62.148 654.191 61.692C654.647 61.22 654.875 60.656 654.875 60C654.875 59.336 654.647 58.776 654.191 58.32C653.735 57.856 653.175 57.624 652.511 57.624C651.847 57.624 651.287 57.856 650.831 58.32C650.375 58.776 650.147 59.336 650.147 60C650.147 60.656 650.375 61.22 650.831 61.692Z" fill="url(#paint1_linear_2429_17274)"/>
<g filter="url(#filter0_d_2429_17274)">
<rect x="669" y="18" width="48" height="48" rx="16" fill="url(#paint2_linear_2429_17274)" shape-rendering="crispEdges"/>
<rect x="669.5" y="18.5" width="47" height="47" rx="15.5" stroke="url(#paint3_linear_2429_17274)" shape-rendering="crispEdges"/>
<path d="M699 46.75C698.84 46.75 698.69 46.7 698.55 46.6C698.22 46.35 698.15 45.88 698.4 45.55C699.97 43.46 699.97 40.54 698.4 38.45C698.15 38.12 698.22 37.65 698.55 37.4C698.88 37.15 699.35 37.22 699.6 37.55C701.56 40.17 701.56 43.83 699.6 46.45C699.45 46.65 699.23 46.75 699 46.75Z" fill="white"/>
<path d="M700.83 49.25C700.67 49.25 700.52 49.2 700.38 49.1C700.05 48.85 699.98 48.38 700.23 48.05C702.9 44.49 702.9 39.51 700.23 35.95C699.98 35.62 700.05 35.15 700.38 34.9C700.71 34.65 701.18 34.72 701.43 35.05C704.5 39.14 704.5 44.86 701.43 48.95C701.29 49.15 701.06 49.25 700.83 49.25Z" fill="white"/>
<path opacity="0.4" d="M696.75 37.41V46.59C696.75 48.31 696.13 49.6 695.02 50.22C694.57 50.47 694.07 50.59 693.55 50.59C692.75 50.59 691.89 50.32 691.01 49.77L688.09 47.94C687.89 47.82 687.66 47.75 687.43 47.75H686.5V36.25H687.43C687.66 36.25 687.89 36.18 688.09 36.06L691.01 34.23C692.47 33.32 693.9 33.16 695.02 33.78C696.13 34.4 696.75 35.69 696.75 37.41Z" fill="white"/>
<path d="M686.5 36.25V47.75H686C683.58 47.75 682.25 46.42 682.25 44V40C682.25 37.58 683.58 36.25 686 36.25H686.5Z" fill="white"/>
</g>
<defs>
<filter id="filter0_d_2429_17274" x="651" y="0" width="84" height="84" filterUnits="userSpaceOnUse" color-interpolation-filters="sRGB">
<feFlood flood-opacity="0" result="BackgroundImageFix"/>
<feColorMatrix in="SourceAlpha" type="matrix" values="0 0 0 0 0 0 0 0 0 0 0 0 0 0 0 0 0 0 127 0" result="hardAlpha"/>
<feOffset/>
<feGaussianBlur stdDeviation="9"/>
<feComposite in2="hardAlpha" operator="out"/>
<feColorMatrix type="matrix" values="0 0 0 0 0.929412 0 0 0 0 0.105882 0 0 0 0 0.141176 0 0 0 0.47 0"/>
<feBlend mode="normal" in2="BackgroundImageFix" result="effect1_dropShadow_2429_17274"/>
<feBlend mode="normal" in="SourceGraphic" in2="effect1_dropShadow_2429_17274" result="shape"/>
</filter>
<linearGradient id="paint0_linear_2429_17274" x1="586.54" y1="17.2751" x2="586.54" y2="51.063" gradientUnits="userSpaceOnUse">
<stop stop-color="#ED1B24" stop-opacity="0.6"/>
<stop offset="1" stop-color="#ED1B24"/>
</linearGradient>
<linearGradient id="paint1_linear_2429_17274" x1="602.031" y1="53.1133" x2="602.031" y2="67.0259" gradientUnits="userSpaceOnUse">
<stop stop-color="#ED1B24" stop-opacity="0.6"/>
<stop offset="1" stop-color="#ED1B24"/>
</linearGradient>
<linearGradient id="paint2_linear_2429_17274" x1="669" y1="18" x2="717" y2="66" gradientUnits="userSpaceOnUse">
<stop stop-color="#ED1B24"/>
<stop offset="1" stop-color="#ED1B24" stop-opacity="0.6"/>
</linearGradient>
<linearGradient id="paint3_linear_2429_17274" x1="669" y1="18" x2="717" y2="66" gradientUnits="userSpaceOnUse">
<stop stop-color="white" stop-opacity="0.4"/>
<stop offset="1" stop-color="white" stop-opacity="0"/>
</linearGradient>
</defs>
</svg>
