<svg width="328" height="28" viewBox="0 0 328 28" fill="none" xmlns="http://www.w3.org/2000/svg">
<path d="M5.18392 17.668C3.92792 17.668 2.88392 17.248 2.05192 16.408C1.22792 15.576 0.815922 14.54 0.815922 13.3C0.815922 12.052 1.22792 11.016 2.05192 10.192C2.88392 9.352 3.92792 8.932 5.18392 8.932C5.94392 8.932 6.64392 9.112 7.28392 9.472C7.93192 9.824 8.43592 10.304 8.79592 10.912L7.36792 11.74C7.15992 11.364 6.86392 11.072 6.47992 10.864C6.09592 10.648 5.66392 10.54 5.18392 10.54C4.36792 10.54 3.70792 10.796 3.20392 11.308C2.70792 11.828 2.45992 12.492 2.45992 13.3C2.45992 14.1 2.70792 14.76 3.20392 15.28C3.70792 15.792 4.36792 16.048 5.18392 16.048C5.66392 16.048 6.09592 15.944 6.47992 15.736C6.87192 15.52 7.16792 15.228 7.36792 14.86L8.79592 15.688C8.43592 16.296 7.93192 16.78 7.28392 17.14C6.64392 17.492 5.94392 17.668 5.18392 17.668ZM14.8884 16.756C14.2804 17.364 13.5284 17.668 12.6324 17.668C11.7364 17.668 10.9844 17.364 10.3764 16.756C9.76836 16.148 9.46436 15.396 9.46436 14.5C9.46436 13.612 9.76836 12.864 10.3764 12.256C10.9924 11.64 11.7444 11.332 12.6324 11.332C13.5204 11.332 14.2724 11.64 14.8884 12.256C15.5044 12.872 15.8124 13.62 15.8124 14.5C15.8124 15.388 15.5044 16.14 14.8884 16.756ZM11.4684 15.688C11.7804 16 12.1684 16.156 12.6324 16.156C13.0964 16.156 13.4844 16 13.7964 15.688C14.1084 15.376 14.2644 14.98 14.2644 14.5C14.2644 14.02 14.1084 13.624 13.7964 13.312C13.4844 13 13.0964 12.844 12.6324 12.844C12.1684 12.844 11.7804 13 11.4684 13.312C11.1644 13.632 11.0124 14.028 11.0124 14.5C11.0124 14.972 11.1644 15.368 11.4684 15.688ZM20.2374 11.332C20.9014 11.332 21.4414 11.552 21.8574 11.992C22.2894 12.44 22.5054 13.048 22.5054 13.816V17.5H20.9574V14.008C20.9574 13.616 20.8494 13.312 20.6334 13.096C20.4254 12.88 20.1374 12.772 19.7694 12.772C19.3614 12.772 19.0374 12.9 18.7974 13.156C18.5654 13.404 18.4494 13.772 18.4494 14.26V17.5H16.9014V11.5H18.4494V12.172C18.8174 11.612 19.4134 11.332 20.2374 11.332ZM27.2591 11.5V12.988H25.9031V15.484C25.9031 15.692 25.9551 15.844 26.0591 15.94C26.1631 16.036 26.3151 16.092 26.5151 16.108C26.7151 16.116 26.9631 16.112 27.2591 16.096V17.5C26.2111 17.62 25.4631 17.524 25.0151 17.212C24.5751 16.892 24.3551 16.316 24.3551 15.484V12.988H23.3111V11.5H24.3551V10.288L25.9031 9.82V11.5H27.2591ZM32.7231 12.208V11.5H34.2711V17.5H32.7231V16.792C32.2591 17.376 31.6071 17.668 30.7671 17.668C29.9671 17.668 29.2791 17.364 28.7031 16.756C28.1351 16.14 27.8511 15.388 27.8511 14.5C27.8511 13.62 28.1351 12.872 28.7031 12.256C29.2791 11.64 29.9671 11.332 30.7671 11.332C31.6071 11.332 32.2591 11.624 32.7231 12.208ZM29.8671 15.724C30.1791 16.036 30.5751 16.192 31.0551 16.192C31.5351 16.192 31.9311 16.036 32.2431 15.724C32.5631 15.404 32.7231 14.996 32.7231 14.5C32.7231 14.004 32.5631 13.6 32.2431 13.288C31.9311 12.968 31.5351 12.808 31.0551 12.808C30.5751 12.808 30.1791 12.968 29.8671 13.288C29.5551 13.6 29.3991 14.004 29.3991 14.5C29.3991 14.996 29.5551 15.404 29.8671 15.724ZM38.5308 17.668C37.6268 17.668 36.8708 17.364 36.2628 16.756C35.6628 16.148 35.3628 15.396 35.3628 14.5C35.3628 13.604 35.6628 12.852 36.2628 12.244C36.8708 11.636 37.6268 11.332 38.5308 11.332C39.1148 11.332 39.6468 11.472 40.1268 11.752C40.6068 12.032 40.9708 12.408 41.2188 12.88L39.8868 13.66C39.7668 13.412 39.5828 13.216 39.3348 13.072C39.0948 12.928 38.8228 12.856 38.5188 12.856C38.0548 12.856 37.6708 13.012 37.3668 13.324C37.0628 13.628 36.9108 14.02 36.9108 14.5C36.9108 14.964 37.0628 15.356 37.3668 15.676C37.6708 15.98 38.0548 16.132 38.5188 16.132C38.8308 16.132 39.1068 16.064 39.3468 15.928C39.5948 15.784 39.7788 15.588 39.8988 15.34L41.2428 16.108C40.9788 16.588 40.6028 16.968 40.1148 17.248C39.6348 17.528 39.1068 17.668 38.5308 17.668ZM45.4935 11.5V12.988H44.1375V15.484C44.1375 15.692 44.1895 15.844 44.2935 15.94C44.3975 16.036 44.5495 16.092 44.7495 16.108C44.9495 16.116 45.1975 16.112 45.4935 16.096V17.5C44.4455 17.62 43.6975 17.524 43.2495 17.212C42.8095 16.892 42.5895 16.316 42.5895 15.484V12.988H41.5455V11.5H42.5895V10.288L44.1375 9.82V11.5H45.4935ZM47.884 13.204C47.884 13.46 48.248 13.68 48.976 13.864C49.232 13.92 49.464 13.988 49.672 14.068C49.88 14.14 50.088 14.248 50.296 14.392C50.512 14.528 50.68 14.712 50.8 14.944C50.92 15.176 50.98 15.444 50.98 15.748C50.98 16.364 50.748 16.84 50.284 17.176C49.82 17.504 49.248 17.668 48.568 17.668C47.336 17.668 46.496 17.192 46.048 16.24L47.392 15.484C47.576 16.004 47.968 16.264 48.568 16.264C49.12 16.264 49.396 16.092 49.396 15.748C49.396 15.492 49.032 15.272 48.304 15.088C48.032 15.016 47.8 14.944 47.608 14.872C47.416 14.8 47.208 14.696 46.984 14.56C46.76 14.416 46.588 14.236 46.468 14.02C46.356 13.796 46.3 13.536 46.3 13.24C46.3 12.648 46.516 12.184 46.948 11.848C47.388 11.504 47.932 11.332 48.58 11.332C49.068 11.332 49.512 11.444 49.912 11.668C50.312 11.884 50.628 12.196 50.86 12.604L49.54 13.324C49.348 12.916 49.028 12.712 48.58 12.712C48.38 12.712 48.212 12.76 48.076 12.856C47.948 12.944 47.884 13.06 47.884 13.204ZM58.9942 14.74V11.5H60.5422V17.5H58.9942V16.828C58.6262 17.388 58.0302 17.668 57.2062 17.668C56.5502 17.668 56.0062 17.448 55.5742 17.008C55.1502 16.56 54.9382 15.952 54.9382 15.184V11.5H56.4862V14.992C56.4862 15.384 56.5902 15.688 56.7982 15.904C57.0142 16.12 57.3062 16.228 57.6742 16.228C58.0822 16.228 58.4022 16.104 58.6342 15.856C58.8742 15.6 58.9942 15.228 58.9942 14.74ZM63.3411 13.204C63.3411 13.46 63.7051 13.68 64.4331 13.864C64.6891 13.92 64.9211 13.988 65.1291 14.068C65.3371 14.14 65.5451 14.248 65.7531 14.392C65.9691 14.528 66.1371 14.712 66.2571 14.944C66.3771 15.176 66.4371 15.444 66.4371 15.748C66.4371 16.364 66.2051 16.84 65.7411 17.176C65.2771 17.504 64.7051 17.668 64.0251 17.668C62.7931 17.668 61.9531 17.192 61.5051 16.24L62.8491 15.484C63.0331 16.004 63.4251 16.264 64.0251 16.264C64.5771 16.264 64.8531 16.092 64.8531 15.748C64.8531 15.492 64.4891 15.272 63.7611 15.088C63.4891 15.016 63.2571 14.944 63.0651 14.872C62.8731 14.8 62.6651 14.696 62.4411 14.56C62.2171 14.416 62.0451 14.236 61.9251 14.02C61.8131 13.796 61.7571 13.536 61.7571 13.24C61.7571 12.648 61.9731 12.184 62.4051 11.848C62.8451 11.504 63.3891 11.332 64.0371 11.332C64.5251 11.332 64.9691 11.444 65.3691 11.668C65.7691 11.884 66.0851 12.196 66.3171 12.604L64.9971 13.324C64.8051 12.916 64.4851 12.712 64.0371 12.712C63.8371 12.712 63.6691 12.76 63.5331 12.856C63.4051 12.944 63.3411 13.06 63.3411 13.204Z" fill="#0C1118" fill-opacity="0.8"/>
<path d="M74.5472 17.668C73.2912 17.668 72.2472 17.248 71.4152 16.408C70.5912 15.576 70.1792 14.54 70.1792 13.3C70.1792 12.052 70.5912 11.016 71.4152 10.192C72.2472 9.352 73.2912 8.932 74.5472 8.932C75.3072 8.932 76.0072 9.112 76.6472 9.472C77.2952 9.824 77.7992 10.304 78.1592 10.912L76.7312 11.74C76.5232 11.364 76.2272 11.072 75.8432 10.864C75.4592 10.648 75.0272 10.54 74.5472 10.54C73.7312 10.54 73.0712 10.796 72.5672 11.308C72.0712 11.828 71.8232 12.492 71.8232 13.3C71.8232 14.1 72.0712 14.76 72.5672 15.28C73.0712 15.792 73.7312 16.048 74.5472 16.048C75.0272 16.048 75.4592 15.944 75.8432 15.736C76.2352 15.52 76.5312 15.228 76.7312 14.86L78.1592 15.688C77.7992 16.296 77.2952 16.78 76.6472 17.14C76.0072 17.492 75.3072 17.668 74.5472 17.668ZM84.2516 16.756C83.6436 17.364 82.8916 17.668 81.9956 17.668C81.0996 17.668 80.3476 17.364 79.7396 16.756C79.1316 16.148 78.8276 15.396 78.8276 14.5C78.8276 13.612 79.1316 12.864 79.7396 12.256C80.3556 11.64 81.1076 11.332 81.9956 11.332C82.8836 11.332 83.6356 11.64 84.2516 12.256C84.8676 12.872 85.1756 13.62 85.1756 14.5C85.1756 15.388 84.8676 16.14 84.2516 16.756ZM80.8316 15.688C81.1436 16 81.5316 16.156 81.9956 16.156C82.4596 16.156 82.8476 16 83.1596 15.688C83.4716 15.376 83.6276 14.98 83.6276 14.5C83.6276 14.02 83.4716 13.624 83.1596 13.312C82.8476 13 82.4596 12.844 81.9956 12.844C81.5316 12.844 81.1436 13 80.8316 13.312C80.5276 13.632 80.3756 14.028 80.3756 14.5C80.3756 14.972 80.5276 15.368 80.8316 15.688ZM89.7566 11.332C90.5646 11.332 91.2526 11.64 91.8206 12.256C92.3966 12.872 92.6846 13.62 92.6846 14.5C92.6846 15.396 92.3966 16.148 91.8206 16.756C91.2606 17.364 90.5726 17.668 89.7566 17.668C88.9166 17.668 88.2686 17.376 87.8126 16.792V19.9H86.2646V11.5H87.8126V12.208C88.2686 11.624 88.9166 11.332 89.7566 11.332ZM88.2806 15.724C88.5926 16.036 88.9886 16.192 89.4686 16.192C89.9486 16.192 90.3446 16.036 90.6566 15.724C90.9766 15.404 91.1366 14.996 91.1366 14.5C91.1366 14.004 90.9766 13.6 90.6566 13.288C90.3446 12.968 89.9486 12.808 89.4686 12.808C88.9886 12.808 88.5926 12.968 88.2806 13.288C87.9686 13.6 87.8126 14.004 87.8126 14.5C87.8126 14.996 87.9686 15.404 88.2806 15.724ZM98.3364 12.208V11.5H99.8844V17.5H98.3364V16.792C97.8724 17.376 97.2204 17.668 96.3804 17.668C95.5804 17.668 94.8924 17.364 94.3164 16.756C93.7484 16.14 93.4644 15.388 93.4644 14.5C93.4644 13.62 93.7484 12.872 94.3164 12.256C94.8924 11.64 95.5804 11.332 96.3804 11.332C97.2204 11.332 97.8724 11.624 98.3364 12.208ZM95.4804 15.724C95.7924 16.036 96.1884 16.192 96.6684 16.192C97.1484 16.192 97.5444 16.036 97.8564 15.724C98.1764 15.404 98.3364 14.996 98.3364 14.5C98.3364 14.004 98.1764 13.6 97.8564 13.288C97.5444 12.968 97.1484 12.808 96.6684 12.808C96.1884 12.808 95.7924 12.968 95.4804 13.288C95.1684 13.6 95.0124 14.004 95.0124 14.5C95.0124 14.996 95.1684 15.404 95.4804 15.724Z" fill="url(#paint0_linear_3095_7704)"/>
<path d="M109 12.5C110.4 12.525 111.8 12.55 113.2 12.575C138.4 13.025 163.6 13.475 188.8 13.925C190.2 13.95 191.6 13.975 193 14C193 13 193 12 193 11C191.6 11.025 190.2 11.05 188.8 11.075C163.6 11.525 138.4 11.975 113.2 12.425C111.8 12.45 110.4 12.475 109 12.5Z" fill="#ED1B24"/>
<path d="M206.313 19C205.005 19 204.009 18.61 203.325 17.83C202.641 17.038 202.299 16.024 202.299 14.788V6.76H205.161V14.788C205.161 15.112 205.179 15.34 205.215 15.472C205.263 15.592 205.359 15.67 205.503 15.706C205.659 15.742 205.929 15.76 206.313 15.76H207.213L207.321 17.434L207.213 19H206.313ZM207.022 15.76H208.714C209.578 15.76 209.98 15.466 209.92 14.878C209.86 14.194 209.722 13.258 209.506 12.07L212.188 11.404C212.596 13.108 212.8 14.368 212.8 15.184C212.8 15.844 212.656 16.468 212.368 17.056C212.092 17.632 211.672 18.1 211.108 18.46C210.544 18.82 209.848 19 209.02 19H207.022V15.76ZM207.004 20.206H209.272H209.398H211.648V22.582H209.398H209.272H207.004V20.206ZM208.21 23.248H210.478V25.174H208.21V23.248ZM217.34 20.494C218 20.494 218.492 20.452 218.816 20.368C219.152 20.284 219.386 20.14 219.518 19.936C219.662 19.732 219.746 19.42 219.77 19H218.546C217.31 19 216.344 18.646 215.648 17.938C214.952 17.218 214.604 16.222 214.604 14.95C214.604 14.014 214.772 13.198 215.108 12.502C215.444 11.794 215.906 11.254 216.494 10.882C217.094 10.498 217.772 10.306 218.528 10.306C219.344 10.306 220.064 10.498 220.688 10.882C221.312 11.254 221.798 11.794 222.146 12.502C222.494 13.198 222.668 14.014 222.668 14.95V15.76H223.658L223.82 17.398L223.658 19H222.65C222.566 20.428 222.092 21.574 221.228 22.438C220.364 23.302 219.068 23.734 217.34 23.734H215.036V20.494H217.34ZM217.322 14.752C217.322 15.544 217.73 15.94 218.546 15.94H219.788V14.86C219.788 14.368 219.698 13.984 219.518 13.708C219.338 13.432 219.008 13.294 218.528 13.294C218.108 13.294 217.802 13.432 217.61 13.708C217.418 13.984 217.322 14.332 217.322 14.752ZM232.205 8.146L227.597 10.18L230.045 12.664C230.441 13.072 230.735 13.516 230.927 13.996C231.131 14.464 231.233 14.95 231.233 15.454C231.233 16.078 231.083 16.66 230.783 17.2C230.483 17.74 230.045 18.178 229.469 18.514C228.905 18.838 228.245 19 227.489 19H223.475V15.76H227.579C227.747 15.76 227.879 15.718 227.975 15.634C228.083 15.55 228.137 15.442 228.137 15.31C228.137 15.142 228.059 14.98 227.903 14.824L224.483 11.368L225.113 7.804L231.053 5.194L232.205 8.146Z" fill="url(#paint1_linear_3095_7704)"/>
<path d="M239.923 19C238.615 19 237.619 18.61 236.935 17.83C236.251 17.038 235.909 16.024 235.909 14.788V6.76H238.771V14.788C238.771 15.112 238.789 15.34 238.825 15.472C238.873 15.592 238.969 15.67 239.113 15.706C239.269 15.742 239.539 15.76 239.923 15.76H240.823L240.931 17.434L240.823 19H239.923ZM240.631 15.76H242.197C242.617 15.76 242.923 15.694 243.115 15.562C243.307 15.43 243.403 15.226 243.403 14.95C243.403 14.674 243.355 14.26 243.259 13.708C243.175 13.144 243.085 12.598 242.989 12.07L245.671 11.404C246.079 13.108 246.283 14.368 246.283 15.184C246.283 15.844 246.139 16.468 245.851 17.056C245.575 17.632 245.155 18.1 244.591 18.46C244.027 18.82 243.331 19 242.503 19H240.631V15.76ZM239.749 20.818H242.539V23.518H239.749V20.818ZM254.312 14.554C253.712 15.85 253.412 17.014 253.412 18.046C253.412 18.61 253.49 19.054 253.646 19.378C253.802 19.702 254.066 19.936 254.438 20.08C254.822 20.224 255.356 20.296 256.04 20.296H257.318C258.062 20.296 258.596 20.248 258.92 20.152C259.256 20.056 259.478 19.87 259.586 19.594C259.694 19.33 259.748 18.898 259.748 18.298V12.646H262.628V14.878C262.628 15.154 262.718 15.37 262.898 15.526C263.078 15.682 263.288 15.76 263.528 15.76C263.768 15.76 263.978 15.688 264.158 15.544C264.338 15.388 264.428 15.184 264.428 14.932L264.41 12.646H267.29L267.272 14.932C267.272 15.196 267.35 15.4 267.506 15.544C267.662 15.688 267.86 15.76 268.1 15.76C268.364 15.76 268.598 15.682 268.802 15.526C269.006 15.358 269.084 15.124 269.036 14.824L268.55 12.07L271.232 11.404C271.64 13.108 271.844 14.368 271.844 15.184C271.844 16.264 271.544 17.17 270.944 17.902C270.344 18.634 269.396 19 268.1 19C267.188 19 266.438 18.682 265.85 18.046C265.586 18.31 265.244 18.538 264.824 18.73C264.416 18.91 263.984 19 263.528 19C263.204 19 262.898 18.946 262.61 18.838C262.514 20.278 262.034 21.418 261.17 22.258C260.306 23.11 259.022 23.536 257.318 23.536H256.04C254.9 23.536 253.922 23.302 253.106 22.834C252.29 22.366 251.666 21.712 251.234 20.872C250.814 20.044 250.604 19.102 250.604 18.046C250.604 17.362 250.736 16.582 251 15.706C251.264 14.818 251.57 14.014 251.918 13.294L254.312 14.554ZM277.663 19C276.355 19 275.359 18.61 274.675 17.83C273.991 17.038 273.649 16.024 273.649 14.788V6.76H276.511V14.788C276.511 15.112 276.529 15.34 276.565 15.472C276.613 15.592 276.709 15.67 276.853 15.706C277.009 15.742 277.279 15.76 277.663 15.76H278.563L278.671 17.434L278.563 19H277.663ZM278.389 15.76H278.839C279.031 15.76 279.175 15.712 279.271 15.616C279.367 15.508 279.451 15.31 279.523 15.022L279.901 13.528C280.177 12.412 280.651 11.572 281.323 11.008C281.995 10.444 282.799 10.162 283.735 10.162C284.467 10.162 285.127 10.354 285.715 10.738C286.315 11.122 286.783 11.668 287.119 12.376C287.467 13.072 287.641 13.87 287.641 14.77C287.641 15.07 287.665 15.286 287.713 15.418C287.773 15.55 287.881 15.64 288.037 15.688C288.205 15.736 288.469 15.76 288.829 15.76H289.135L289.315 17.308L289.135 19H288.829C287.833 19 287.041 18.754 286.453 18.262C286.117 18.598 285.733 18.85 285.301 19.018C284.881 19.186 284.461 19.27 284.041 19.27C283.657 19.27 283.237 19.192 282.781 19.036C282.325 18.88 281.695 18.622 280.891 18.262C280.591 18.49 280.267 18.67 279.919 18.802C279.583 18.934 279.241 19 278.893 19H278.389V15.76ZM282.295 15.58C282.799 15.796 283.183 15.946 283.447 16.03C283.711 16.114 283.957 16.156 284.185 16.156C284.437 16.156 284.635 16.036 284.779 15.796C284.935 15.544 285.013 15.208 285.013 14.788C285.013 14.272 284.893 13.888 284.653 13.636C284.413 13.372 284.131 13.24 283.807 13.24C283.507 13.24 283.249 13.348 283.033 13.564C282.817 13.78 282.661 14.08 282.565 14.464L282.295 15.58ZM288.918 15.76H290.61C291.474 15.76 291.876 15.466 291.816 14.878C291.756 14.194 291.618 13.258 291.402 12.07L294.084 11.404C294.492 13.108 294.696 14.368 294.696 15.184C294.696 15.844 294.552 16.468 294.264 17.056C293.988 17.632 293.568 18.1 293.004 18.46C292.44 18.82 291.744 19 290.916 19H288.918V15.76ZM289.872 7.12H292.104H292.266H294.48V9.496H292.266H292.104H289.872V7.12Z" fill="#0C1118" fill-opacity="0.8"/>
<path d="M321.62 12.7501C321.19 12.7501 320.85 12.4001 320.85 11.9801C320.85 11.6101 320.48 10.8401 319.86 10.1701C319.25 9.5201 318.58 9.1401 318.02 9.1401C317.59 9.1401 317.25 8.7901 317.25 8.3701C317.25 7.9501 317.6 7.6001 318.02 7.6001C319.02 7.6001 320.07 8.1401 320.99 9.1101C321.85 10.0201 322.4 11.1501 322.4 11.9701C322.4 12.4001 322.05 12.7501 321.62 12.7501Z" fill="#ED1B24"/>
<path d="M325.23 12.75C324.8 12.75 324.46 12.4 324.46 11.98C324.46 8.43 321.57 5.55 318.03 5.55C317.6 5.55 317.26 5.2 317.26 4.78C317.26 4.36 317.6 4 318.02 4C322.42 4 326 7.58 326 11.98C326 12.4 325.65 12.75 325.23 12.75Z" fill="#ED1B24"/>
<path opacity="0.4" d="M315.79 16.21L312.52 19.48C312.16 19.16 311.81 18.83 311.47 18.49C310.44 17.45 309.51 16.36 308.68 15.22C307.86 14.08 307.2 12.94 306.72 11.81C306.24 10.67 306 9.58 306 8.54C306 7.86 306.12 7.21 306.36 6.61C306.6 6 306.98 5.44 307.51 4.94C308.15 4.31 308.85 4 309.59 4C309.87 4 310.15 4.06 310.4 4.18C310.66 4.3 310.89 4.48 311.07 4.74L313.39 8.01C313.57 8.26 313.7 8.49 313.79 8.71C313.88 8.92 313.93 9.13 313.93 9.32C313.93 9.56 313.86 9.8 313.72 10.03C313.59 10.26 313.4 10.5 313.16 10.74L312.4 11.53C312.29 11.64 312.24 11.77 312.24 11.93C312.24 12.01 312.25 12.08 312.27 12.16C312.3 12.24 312.33 12.3 312.35 12.36C312.53 12.69 312.84 13.12 313.28 13.64C313.73 14.16 314.21 14.69 314.73 15.22C315.09 15.57 315.44 15.91 315.79 16.21Z" fill="#ED1B24"/>
<path d="M325.971 20.33C325.971 20.61 325.921 20.9 325.821 21.18C325.791 21.26 325.761 21.34 325.721 21.42C325.551 21.78 325.331 22.12 325.041 22.44C324.551 22.98 324.011 23.37 323.401 23.62C323.391 23.62 323.381 23.63 323.371 23.63C322.781 23.87 322.141 24 321.451 24C320.431 24 319.341 23.76 318.191 23.27C317.041 22.78 315.891 22.12 314.751 21.29C314.361 21 313.971 20.71 313.601 20.4L316.871 17.13C317.151 17.34 317.401 17.5 317.611 17.61C317.661 17.63 317.721 17.66 317.791 17.69C317.871 17.72 317.951 17.73 318.041 17.73C318.211 17.73 318.341 17.67 318.451 17.56L319.211 16.81C319.461 16.56 319.701 16.37 319.931 16.25C320.161 16.11 320.391 16.04 320.641 16.04C320.831 16.04 321.031 16.08 321.251 16.17C321.471 16.26 321.701 16.39 321.951 16.56L325.261 18.91C325.521 19.09 325.701 19.3 325.811 19.55C325.911 19.8 325.971 20.05 325.971 20.33Z" fill="#ED1B24"/>
<defs>
<linearGradient id="paint0_linear_3095_7704" x1="50.5284" y1="6.62138" x2="50.5284" y2="21.5278" gradientUnits="userSpaceOnUse">
<stop stop-color="#ED1B24" stop-opacity="0.6"/>
<stop offset="1" stop-color="#ED1B24"/>
</linearGradient>
<linearGradient id="paint1_linear_3095_7704" x1="248.527" y1="0.226574" x2="248.527" y2="28.0519" gradientUnits="userSpaceOnUse">
<stop stop-color="#ED1B24" stop-opacity="0.6"/>
<stop offset="1" stop-color="#ED1B24"/>
</linearGradient>
</defs>
</svg>
