<svg width="340" height="84" viewBox="0 0 340 84" fill="none" xmlns="http://www.w3.org/2000/svg">
<path d="M46.9387 40C45.1947 40 43.8667 39.48 42.9547 38.44C42.0427 37.384 41.5867 36.032 41.5867 34.384V23.68H45.4027V34.384C45.4027 34.816 45.4267 35.12 45.4747 35.296C45.5387 35.456 45.6667 35.56 45.8587 35.608C46.0667 35.656 46.4267 35.68 46.9387 35.68H48.1387L48.2827 37.912L48.1387 40H46.9387ZM47.8833 35.68H50.1393C51.2913 35.68 51.8273 35.288 51.7473 34.504C51.6673 33.592 51.4833 32.344 51.1953 30.76L54.7713 29.872C55.3153 32.144 55.5873 33.824 55.5873 34.912C55.5873 35.792 55.3953 36.624 55.0113 37.408C54.6433 38.176 54.0833 38.8 53.3313 39.28C52.5793 39.76 51.6513 40 50.5473 40H47.8833V35.68ZM47.8593 41.608H50.8833H51.0513H54.0513V44.776H51.0513H50.8833H47.8593V41.608ZM49.4673 45.664H52.4913V48.232H49.4673V45.664ZM61.641 41.992C62.521 41.992 63.177 41.936 63.609 41.824C64.057 41.712 64.369 41.52 64.545 41.248C64.737 40.976 64.849 40.56 64.881 40H63.249C61.601 40 60.313 39.528 59.385 38.584C58.457 37.624 57.993 36.296 57.993 34.6C57.993 33.352 58.217 32.264 58.665 31.336C59.113 30.392 59.729 29.672 60.513 29.176C61.313 28.664 62.217 28.408 63.225 28.408C64.313 28.408 65.273 28.664 66.105 29.176C66.937 29.672 67.585 30.392 68.049 31.336C68.513 32.264 68.745 33.352 68.745 34.6V35.68H70.065L70.281 37.864L70.065 40H68.721C68.609 41.904 67.977 43.432 66.825 44.584C65.673 45.736 63.945 46.312 61.641 46.312H58.569V41.992H61.641ZM61.617 34.336C61.617 35.392 62.161 35.92 63.249 35.92H64.905V34.48C64.905 33.824 64.785 33.312 64.545 32.944C64.305 32.576 63.865 32.392 63.225 32.392C62.665 32.392 62.257 32.576 62.001 32.944C61.745 33.312 61.617 33.776 61.617 34.336ZM81.4614 25.528L75.3174 28.24L78.5814 31.552C79.1094 32.096 79.5014 32.688 79.7574 33.328C80.0294 33.952 80.1654 34.6 80.1654 35.272C80.1654 36.104 79.9654 36.88 79.5654 37.6C79.1654 38.32 78.5814 38.904 77.8134 39.352C77.0614 39.784 76.1814 40 75.1734 40H69.8214V35.68H75.2934C75.5174 35.68 75.6934 35.624 75.8214 35.512C75.9654 35.4 76.0374 35.256 76.0374 35.08C76.0374 34.856 75.9334 34.64 75.7254 34.432L71.1654 29.824L72.0054 25.072L79.9254 21.592L81.4614 25.528Z" fill="url(#paint0_linear_2429_17501)"/>
<path d="M91.3432 34.072C90.5432 35.864 90.1432 37.416 90.1432 38.728C90.1432 39.48 90.2472 40.072 90.4552 40.504C90.6632 40.936 91.0152 41.248 91.5112 41.44C92.0232 41.632 92.7352 41.728 93.6472 41.728H95.3512C96.2152 41.728 96.8552 41.688 97.2712 41.608C97.7032 41.528 97.9992 41.408 98.1592 41.248C98.3352 41.104 98.4552 40.88 98.5192 40.576V40.48C98.5192 40.4 98.4792 40.352 98.3992 40.336L92.7352 38.8C92.5752 38.064 92.4952 37.312 92.4952 36.544C92.4952 35.44 92.6632 34.392 92.9992 33.4C93.3352 32.408 93.7992 31.584 94.3912 30.928C95.8472 29.28 97.5992 28.456 99.6472 28.456C100.175 28.456 100.711 28.512 101.255 28.624C101.799 28.736 102.231 28.888 102.551 29.08L101.639 32.824C101.127 32.68 100.623 32.608 100.127 32.608C99.0232 32.608 98.0952 32.928 97.3432 33.568C97.0392 33.824 96.7832 34.112 96.5752 34.432C96.3832 34.736 96.2632 35.016 96.2152 35.272L100.439 36.496C101.239 36.736 101.767 37.048 102.023 37.432C102.295 37.816 102.431 38.416 102.431 39.232C102.431 39.552 102.423 39.808 102.407 40C102.327 41.872 101.695 43.344 100.511 44.416C99.3272 45.504 97.6072 46.048 95.3512 46.048H93.6472C92.1272 46.048 90.8232 45.736 89.7352 45.112C88.6472 44.488 87.8152 43.616 87.2392 42.496C86.6792 41.392 86.3992 40.136 86.3992 38.728C86.3992 37.816 86.5752 36.776 86.9272 35.608C87.2792 34.424 87.6872 33.352 88.1512 32.392L91.3432 34.072ZM112.336 31.528V38.296C112.336 40.712 111.704 42.608 110.44 43.984C109.176 45.36 107.368 46.048 105.016 46.048H103.504V41.728H105.016C105.976 41.728 106.696 41.632 107.176 41.44C107.672 41.264 108.016 40.936 108.208 40.456C108.4 39.976 108.496 39.256 108.496 38.296V31.528H112.336ZM108.496 25.408H112.216V29.008H108.496V25.408ZM119.736 40C117.992 40 116.664 39.48 115.752 38.44C114.84 37.384 114.384 36.032 114.384 34.384V23.68H118.2V34.384C118.2 34.816 118.224 35.12 118.272 35.296C118.336 35.456 118.464 35.56 118.656 35.608C118.864 35.656 119.224 35.68 119.736 35.68H120.936L121.08 37.912L120.936 40H119.736ZM137.048 40C135.976 40 135.08 39.8 134.36 39.4C133.64 38.984 133.04 38.392 132.56 37.624C131.088 38.392 129.616 38.984 128.144 39.4C126.672 39.8 125.104 40 123.44 40H120.608V35.68H123.44C126.256 35.68 128.872 35.144 131.288 34.072C128.072 33.112 126.272 32.632 125.888 32.632C125.392 32.632 125 33 124.712 33.736L121.448 32.704C121.816 31.376 122.384 30.336 123.152 29.584C123.92 28.816 124.832 28.432 125.888 28.432C127.136 28.432 130.104 29.4 134.792 31.336L135.176 35.392C135.832 35.584 136.408 35.68 136.904 35.68H137.528L137.768 37.768L137.528 40H137.048ZM127.112 42.424H130.832V46.024H127.112V42.424ZM137.157 35.68H137.757C138.013 35.68 138.205 35.616 138.333 35.488C138.461 35.344 138.573 35.08 138.669 34.696L139.173 32.704C139.541 31.216 140.173 30.096 141.069 29.344C141.965 28.592 143.037 28.216 144.285 28.216C145.261 28.216 146.141 28.472 146.925 28.984C147.725 29.496 148.349 30.224 148.797 31.168C149.261 32.096 149.493 33.16 149.493 34.36C149.493 35.768 149.245 36.928 148.749 37.84C148.269 38.736 147.661 39.384 146.925 39.784C146.189 40.168 145.445 40.36 144.693 40.36C144.181 40.36 143.621 40.256 143.013 40.048C142.405 39.84 141.565 39.496 140.493 39.016C140.093 39.32 139.661 39.56 139.197 39.736C138.749 39.912 138.293 40 137.829 40H137.157V35.68ZM142.365 35.44C143.037 35.728 143.549 35.928 143.901 36.04C144.253 36.152 144.581 36.208 144.885 36.208C145.221 36.208 145.485 36.048 145.677 35.728C145.885 35.392 145.989 34.944 145.989 34.384C145.989 33.696 145.829 33.184 145.509 32.848C145.189 32.496 144.813 32.32 144.381 32.32C143.981 32.32 143.637 32.464 143.349 32.752C143.061 33.04 142.853 33.44 142.725 33.952L142.365 35.44ZM160.859 34.072C160.059 35.864 159.659 37.416 159.659 38.728C159.659 39.48 159.763 40.072 159.971 40.504C160.179 40.936 160.531 41.248 161.027 41.44C161.539 41.632 162.251 41.728 163.163 41.728H164.867C165.731 41.728 166.371 41.688 166.787 41.608C167.219 41.528 167.515 41.408 167.675 41.248C167.851 41.104 167.971 40.88 168.035 40.576V40.48C168.035 40.4 167.995 40.352 167.915 40.336L162.251 38.8C162.091 38.064 162.011 37.312 162.011 36.544C162.011 35.44 162.179 34.392 162.515 33.4C162.851 32.408 163.315 31.584 163.907 30.928C165.363 29.28 167.115 28.456 169.163 28.456C169.691 28.456 170.227 28.512 170.771 28.624C171.315 28.736 171.747 28.888 172.067 29.08L171.155 32.824C170.643 32.68 170.139 32.608 169.643 32.608C168.539 32.608 167.611 32.928 166.859 33.568C166.555 33.824 166.299 34.112 166.091 34.432C165.899 34.736 165.779 35.016 165.731 35.272L169.955 36.496C170.755 36.736 171.283 37.048 171.539 37.432C171.811 37.816 171.947 38.416 171.947 39.232C171.947 39.552 171.939 39.808 171.923 40C171.843 41.872 171.211 43.344 170.027 44.416C168.843 45.504 167.123 46.048 164.867 46.048H163.163C161.643 46.048 160.339 45.736 159.251 45.112C158.163 44.488 157.331 43.616 156.755 42.496C156.195 41.392 155.915 40.136 155.915 38.728C155.915 37.816 156.091 36.776 156.443 35.608C156.795 34.424 157.203 33.352 157.667 32.392L160.859 34.072ZM180.298 40C178.554 40 177.226 39.48 176.314 38.44C175.402 37.384 174.946 36.032 174.946 34.384V23.68H178.762V34.384C178.762 34.816 178.786 35.12 178.834 35.296C178.898 35.456 179.026 35.56 179.218 35.608C179.426 35.656 179.786 35.68 180.298 35.68H181.498L181.642 37.912L181.498 40H180.298ZM195.355 25.72L199.315 31.624C199.635 32.12 199.875 32.664 200.035 33.256C200.211 33.848 200.299 34.44 200.299 35.032C200.299 36.12 200.067 37.008 199.603 37.696C198.995 38.576 198.123 39.208 196.987 39.592C195.867 39.976 194.331 40.168 192.379 40.168C190.715 40.168 189.139 39.912 187.651 39.4C186.259 39.8 184.795 40 183.259 40H181.267V35.68H182.803C182.371 34.864 182.155 34.008 182.155 33.112C182.155 32.056 182.403 31.072 182.899 30.16C183.395 29.232 184.075 28.496 184.939 27.952C185.819 27.392 186.779 27.112 187.819 27.112C188.843 27.112 189.779 27.384 190.627 27.928C191.475 28.472 192.147 29.208 192.643 30.136C193.139 31.048 193.387 32.032 193.387 33.088C193.387 34.128 193.131 35.072 192.619 35.92C193.851 35.904 194.691 35.848 195.139 35.752C195.587 35.64 195.899 35.48 196.075 35.272C196.219 35.096 196.291 34.904 196.291 34.696C196.291 34.424 196.163 34.088 195.907 33.688L192.139 28.12L195.355 25.72ZM185.995 33.112C185.995 33.48 186.147 33.832 186.451 34.168C186.771 34.504 187.211 34.792 187.771 35.032C188.955 34.568 189.547 33.92 189.547 33.088C189.547 32.528 189.371 32.072 189.019 31.72C188.683 31.352 188.283 31.168 187.819 31.168C187.307 31.168 186.875 31.352 186.523 31.72C186.171 32.072 185.995 32.536 185.995 33.112ZM216.367 33.928C216.527 34.6 216.823 35.064 217.255 35.32C217.703 35.56 218.311 35.68 219.079 35.68H219.559L219.799 37.744L219.559 40H219.079C218.039 40 217.047 39.792 216.103 39.376C215.175 38.96 214.399 38.32 213.775 37.456C213.295 37.968 212.759 38.36 212.167 38.632C211.591 38.904 210.983 39.04 210.343 39.04C209.479 39.04 208.639 38.808 207.823 38.344C206.927 37.864 206.239 37.184 205.759 36.304C205.295 35.408 205.063 34.456 205.063 33.448C205.063 32.392 205.303 31.472 205.783 30.688C206.055 30.224 206.343 29.832 206.647 29.512C206.951 29.192 207.415 28.848 208.039 28.48C208.679 28.096 209.583 27.648 210.751 27.136L210.415 25.72L214.159 24.76L216.367 33.928ZM209.095 32.896C208.967 33.072 208.903 33.288 208.903 33.544C208.903 33.752 208.951 33.96 209.047 34.168C209.143 34.36 209.279 34.52 209.455 34.648C209.743 34.856 210.047 34.96 210.367 34.96C210.767 34.96 211.151 34.784 211.519 34.432C211.887 34.064 212.071 33.568 212.071 32.944C212.071 32.848 212.055 32.688 212.023 32.464C211.975 32.208 211.887 31.824 211.759 31.312C210.831 31.712 210.191 32.016 209.839 32.224C209.503 32.432 209.255 32.656 209.095 32.896ZM230.969 25.528L224.825 28.24L227.513 31.552L227.945 32.08C228.729 33.04 229.329 33.752 229.745 34.216C230.161 34.664 230.577 35.024 230.993 35.296C231.425 35.552 231.873 35.68 232.337 35.68H232.697L232.937 37.744L232.697 40H232.337C231.569 40 230.873 39.84 230.249 39.52C229.625 39.2 228.953 38.68 228.233 37.96C227.817 38.6 227.257 39.104 226.553 39.472C225.865 39.824 225.049 40 224.105 40H219.329V35.68H224.225C224.449 35.68 224.625 35.632 224.753 35.536C224.897 35.424 224.969 35.28 224.969 35.104C224.969 34.88 224.865 34.656 224.657 34.432L220.673 29.824L221.513 25.072L229.433 21.592L230.969 25.528ZM239.798 31.528V35.056C239.798 35.312 239.87 35.48 240.014 35.56C240.174 35.64 240.43 35.68 240.782 35.68H241.382L241.55 38.008L241.382 40H240.782C240.286 40 239.774 39.92 239.246 39.76C238.718 39.584 238.23 39.328 237.782 38.992C237.334 39.312 236.83 39.56 236.27 39.736C235.71 39.912 235.142 40 234.566 40H232.454V35.68H234.566C235.126 35.68 235.494 35.64 235.67 35.56C235.862 35.48 235.958 35.312 235.958 35.056V31.528H239.798ZM232.046 42.4H235.766V46H232.046V42.4ZM241.15 35.68H243.094C243.51 35.68 243.814 35.6 244.006 35.44C244.198 35.28 244.294 35.016 244.294 34.648V31.528H248.134V34.576C248.134 34.928 248.254 35.2 248.494 35.392C248.734 35.584 249.014 35.68 249.334 35.68C249.654 35.68 249.934 35.584 250.174 35.392C250.414 35.184 250.534 34.912 250.534 34.576L250.51 31.528H254.35L254.326 34.576C254.326 34.928 254.43 35.2 254.638 35.392C254.846 35.584 255.11 35.68 255.43 35.68C255.782 35.68 256.094 35.576 256.366 35.368C256.638 35.144 256.742 34.832 256.678 34.432L256.03 30.76L259.606 29.872C260.15 32.144 260.422 33.824 260.422 34.912C260.422 36.352 260.022 37.56 259.222 38.536C258.422 39.512 257.158 40 255.43 40C254.214 40 253.214 39.576 252.43 38.728C252.078 39.08 251.614 39.384 251.038 39.64C250.478 39.88 249.862 40 249.19 40C248.63 40 248.03 39.872 247.39 39.616C246.766 39.344 246.342 39.048 246.118 38.728C245.894 39.08 245.494 39.384 244.918 39.64C244.342 39.88 243.662 40 242.878 40H241.15V35.68ZM249.43 25.72H252.454H252.622H255.622V28.888H252.622H252.454H249.43V25.72ZM251.038 22.264H254.062V24.832H251.038V22.264Z" fill="#0C1118" fill-opacity="0.8"/>
<path d="M161.255 63.144C159.975 63.144 158.923 62.724 158.099 61.884C157.267 61.036 156.851 60.008 156.851 58.8C156.851 57.592 157.267 56.564 158.099 55.716C158.923 54.876 159.975 54.456 161.255 54.456C162.023 54.456 162.731 54.644 163.379 55.02C164.027 55.388 164.531 55.888 164.891 56.52L164.147 56.952C163.883 56.44 163.491 56.032 162.971 55.728C162.451 55.424 161.879 55.272 161.255 55.272C160.199 55.272 159.343 55.612 158.687 56.292C158.023 56.98 157.691 57.816 157.691 58.8C157.691 59.784 158.023 60.62 158.687 61.308C159.343 61.988 160.199 62.328 161.255 62.328C161.879 62.328 162.451 62.176 162.971 61.872C163.491 61.568 163.883 61.16 164.147 60.648L164.891 61.068C164.547 61.7 164.047 62.204 163.391 62.58C162.735 62.956 162.023 63.144 161.255 63.144ZM171.122 62.244C170.506 62.844 169.762 63.144 168.89 63.144C168.002 63.144 167.254 62.844 166.646 62.244C166.038 61.636 165.734 60.888 165.734 60C165.734 59.112 166.038 58.368 166.646 57.768C167.254 57.16 168.002 56.856 168.89 56.856C169.77 56.856 170.514 57.16 171.122 57.768C171.738 58.368 172.046 59.112 172.046 60C172.046 60.88 171.738 61.628 171.122 62.244ZM167.21 61.692C167.666 62.148 168.226 62.376 168.89 62.376C169.554 62.376 170.114 62.148 170.57 61.692C171.026 61.22 171.254 60.656 171.254 60C171.254 59.336 171.026 58.776 170.57 58.32C170.114 57.856 169.554 57.624 168.89 57.624C168.226 57.624 167.666 57.856 167.21 58.32C166.754 58.776 166.526 59.336 166.526 60C166.526 60.656 166.754 61.22 167.21 61.692ZM176.587 56.856C177.443 56.856 178.171 57.16 178.771 57.768C179.379 58.376 179.683 59.12 179.683 60C179.683 60.88 179.379 61.624 178.771 62.232C178.171 62.84 177.443 63.144 176.587 63.144C175.523 63.144 174.715 62.704 174.163 61.824V65.4H173.371V57H174.163V58.176C174.715 57.296 175.523 56.856 176.587 56.856ZM174.847 61.692C175.303 62.148 175.863 62.376 176.527 62.376C177.191 62.376 177.751 62.148 178.207 61.692C178.663 61.22 178.891 60.656 178.891 60C178.891 59.336 178.663 58.776 178.207 58.32C177.751 57.856 177.191 57.624 176.527 57.624C175.863 57.624 175.303 57.856 174.847 58.32C174.391 58.776 174.163 59.336 174.163 60C174.163 60.656 174.391 61.22 174.847 61.692ZM186.16 58.176V57H186.952V63H186.16V61.824C185.608 62.704 184.8 63.144 183.736 63.144C182.88 63.144 182.148 62.84 181.54 62.232C180.94 61.624 180.64 60.88 180.64 60C180.64 59.12 180.94 58.376 181.54 57.768C182.148 57.16 182.88 56.856 183.736 56.856C184.8 56.856 185.608 57.296 186.16 58.176ZM182.116 61.692C182.572 62.148 183.132 62.376 183.796 62.376C184.46 62.376 185.02 62.148 185.476 61.692C185.932 61.22 186.16 60.656 186.16 60C186.16 59.336 185.932 58.776 185.476 58.32C185.02 57.856 184.46 57.624 183.796 57.624C183.132 57.624 182.572 57.856 182.116 58.32C181.66 58.776 181.432 59.336 181.432 60C181.432 60.656 181.66 61.22 182.116 61.692Z" fill="url(#paint1_linear_2429_17501)"/>
<path d="M194.389 63.144C193.621 63.144 192.961 62.964 192.409 62.604C191.865 62.236 191.485 61.732 191.269 61.092L191.989 60.672C192.141 61.2 192.421 61.608 192.829 61.896C193.245 62.184 193.769 62.328 194.401 62.328C195.017 62.328 195.501 62.192 195.853 61.92C196.205 61.648 196.381 61.28 196.381 60.816C196.381 60.376 196.221 60.044 195.901 59.82C195.589 59.596 195.061 59.364 194.317 59.124C193.429 58.828 192.853 58.596 192.589 58.428C191.949 58.044 191.629 57.488 191.629 56.76C191.629 56.048 191.877 55.488 192.373 55.08C192.861 54.664 193.473 54.456 194.209 54.456C194.841 54.456 195.401 54.624 195.889 54.96C196.377 55.288 196.741 55.724 196.981 56.268L196.273 56.664C195.889 55.736 195.201 55.272 194.209 55.272C193.681 55.272 193.257 55.404 192.937 55.668C192.625 55.924 192.469 56.276 192.469 56.724C192.469 57.148 192.613 57.46 192.901 57.66C193.197 57.868 193.673 58.08 194.329 58.296L194.977 58.524C195.113 58.564 195.305 58.636 195.553 58.74C195.825 58.844 196.013 58.932 196.117 59.004C196.541 59.26 196.809 59.496 196.921 59.712C197.121 60.032 197.221 60.392 197.221 60.792C197.221 61.504 196.961 62.076 196.441 62.508C195.921 62.932 195.237 63.144 194.389 63.144ZM203.688 62.244C203.072 62.844 202.328 63.144 201.456 63.144C200.568 63.144 199.82 62.844 199.212 62.244C198.604 61.636 198.3 60.888 198.3 60C198.3 59.112 198.604 58.368 199.212 57.768C199.82 57.16 200.568 56.856 201.456 56.856C202.336 56.856 203.08 57.16 203.688 57.768C204.304 58.368 204.612 59.112 204.612 60C204.612 60.88 204.304 61.628 203.688 62.244ZM199.776 61.692C200.232 62.148 200.792 62.376 201.456 62.376C202.12 62.376 202.68 62.148 203.136 61.692C203.592 61.22 203.82 60.656 203.82 60C203.82 59.336 203.592 58.776 203.136 58.32C202.68 57.856 202.12 57.624 201.456 57.624C200.792 57.624 200.232 57.856 199.776 58.32C199.32 58.776 199.092 59.336 199.092 60C199.092 60.656 199.32 61.22 199.776 61.692ZM208.734 63.144C207.83 63.144 207.078 62.844 206.478 62.244C205.878 61.628 205.578 60.88 205.578 60C205.578 59.112 205.878 58.368 206.478 57.768C207.078 57.16 207.83 56.856 208.734 56.856C209.326 56.856 209.858 57 210.33 57.288C210.802 57.568 211.146 57.948 211.362 58.428L210.714 58.8C210.554 58.44 210.294 58.156 209.934 57.948C209.582 57.732 209.182 57.624 208.734 57.624C208.07 57.624 207.51 57.856 207.054 58.32C206.598 58.776 206.37 59.336 206.37 60C206.37 60.656 206.598 61.22 207.054 61.692C207.51 62.148 208.07 62.376 208.734 62.376C209.174 62.376 209.57 62.272 209.922 62.064C210.282 61.856 210.562 61.568 210.762 61.2L211.422 61.584C211.174 62.064 210.81 62.444 210.33 62.724C209.85 63.004 209.318 63.144 208.734 63.144ZM213.531 55.152C213.531 55.312 213.475 55.448 213.363 55.56C213.251 55.672 213.115 55.728 212.955 55.728C212.795 55.728 212.659 55.672 212.547 55.56C212.435 55.448 212.379 55.312 212.379 55.152C212.379 54.992 212.435 54.856 212.547 54.744C212.659 54.632 212.795 54.576 212.955 54.576C213.115 54.576 213.251 54.632 213.363 54.744C213.475 54.856 213.531 54.992 213.531 55.152ZM213.351 63H212.559V57H213.351V63ZM220.191 58.176V57H220.983V63H220.191V61.824C219.639 62.704 218.831 63.144 217.767 63.144C216.911 63.144 216.179 62.84 215.571 62.232C214.971 61.624 214.671 60.88 214.671 60C214.671 59.12 214.971 58.376 215.571 57.768C216.179 57.16 216.911 56.856 217.767 56.856C218.831 56.856 219.639 57.296 220.191 58.176ZM216.147 61.692C216.603 62.148 217.163 62.376 217.827 62.376C218.491 62.376 219.051 62.148 219.507 61.692C219.963 61.22 220.191 60.656 220.191 60C220.191 59.336 219.963 58.776 219.507 58.32C219.051 57.856 218.491 57.624 217.827 57.624C217.163 57.624 216.603 57.856 216.147 58.32C215.691 58.776 215.463 59.336 215.463 60C215.463 60.656 215.691 61.22 216.147 61.692ZM223.452 63H222.66V54.24H223.452V63ZM234.889 54.6H235.933V63H235.093V55.872L232.153 60.792H232.033L229.093 55.872V63H228.253V54.6H229.297L232.093 59.28L234.889 54.6ZM240.503 56.856C241.399 56.856 242.115 57.172 242.651 57.804C243.203 58.428 243.479 59.168 243.479 60.024C243.479 60.064 243.471 60.188 243.455 60.396H238.187C238.267 60.996 238.523 61.476 238.955 61.836C239.387 62.196 239.927 62.376 240.575 62.376C241.487 62.376 242.131 62.036 242.507 61.356L243.203 61.764C242.939 62.196 242.575 62.536 242.111 62.784C241.655 63.024 241.139 63.144 240.563 63.144C239.619 63.144 238.851 62.848 238.259 62.256C237.667 61.664 237.371 60.912 237.371 60C237.371 59.096 237.663 58.348 238.247 57.756C238.831 57.156 239.583 56.856 240.503 56.856ZM240.503 57.624C239.879 57.624 239.355 57.808 238.931 58.176C238.515 58.544 238.267 59.028 238.187 59.628H242.663C242.575 58.988 242.331 58.496 241.931 58.152C241.515 57.8 241.039 57.624 240.503 57.624ZM249.898 58.176V54.6H250.69V63H249.898V61.824C249.346 62.704 248.538 63.144 247.474 63.144C246.618 63.144 245.886 62.84 245.278 62.232C244.678 61.624 244.378 60.88 244.378 60C244.378 59.12 244.678 58.376 245.278 57.768C245.886 57.16 246.618 56.856 247.474 56.856C248.538 56.856 249.346 57.296 249.898 58.176ZM245.854 61.692C246.31 62.148 246.87 62.376 247.534 62.376C248.198 62.376 248.758 62.148 249.214 61.692C249.67 61.22 249.898 60.656 249.898 60C249.898 59.336 249.67 58.776 249.214 58.32C248.758 57.856 248.198 57.624 247.534 57.624C246.87 57.624 246.31 57.856 245.854 58.32C245.398 58.776 245.17 59.336 245.17 60C245.17 60.656 245.398 61.22 245.854 61.692ZM253.339 55.152C253.339 55.312 253.283 55.448 253.171 55.56C253.059 55.672 252.923 55.728 252.763 55.728C252.603 55.728 252.467 55.672 252.355 55.56C252.243 55.448 252.187 55.312 252.187 55.152C252.187 54.992 252.243 54.856 252.355 54.744C252.467 54.632 252.603 54.576 252.763 54.576C252.923 54.576 253.059 54.632 253.171 54.744C253.283 54.856 253.339 54.992 253.339 55.152ZM253.159 63H252.367V57H253.159V63ZM260 58.176V57H260.792V63H260V61.824C259.448 62.704 258.64 63.144 257.576 63.144C256.72 63.144 255.988 62.84 255.38 62.232C254.78 61.624 254.48 60.88 254.48 60C254.48 59.12 254.78 58.376 255.38 57.768C255.988 57.16 256.72 56.856 257.576 56.856C258.64 56.856 259.448 57.296 260 58.176ZM255.956 61.692C256.412 62.148 256.972 62.376 257.636 62.376C258.3 62.376 258.86 62.148 259.316 61.692C259.772 61.22 260 60.656 260 60C260 59.336 259.772 58.776 259.316 58.32C258.86 57.856 258.3 57.624 257.636 57.624C256.972 57.624 256.412 57.856 255.956 58.32C255.5 58.776 255.272 59.336 255.272 60C255.272 60.656 255.5 61.22 255.956 61.692Z" fill="#0C1118" fill-opacity="0.8"/>
<g filter="url(#filter0_d_2429_17501)">
<rect x="274" y="18" width="48" height="48" rx="16" fill="url(#paint2_linear_2429_17501)" shape-rendering="crispEdges"/>
<rect x="274.5" y="18.5" width="47" height="47" rx="15.5" stroke="url(#paint3_linear_2429_17501)" shape-rendering="crispEdges"/>
<path opacity="0.4" d="M302.24 32H293.76C291 32 290 33 290 35.81V48.19C290 51 291 52 293.76 52H302.23C305 52 306 51 306 48.19V35.81C306 33 305 32 302.24 32Z" fill="white"/>
<path d="M300 36.25H296C295.59 36.25 295.25 35.91 295.25 35.5C295.25 35.09 295.59 34.75 296 34.75H300C300.41 34.75 300.75 35.09 300.75 35.5C300.75 35.91 300.41 36.25 300 36.25Z" fill="white"/>
<path d="M298 49.3C298.966 49.3 299.75 48.5165 299.75 47.55C299.75 46.5835 298.966 45.8 298 45.8C297.034 45.8 296.25 46.5835 296.25 47.55C296.25 48.5165 297.034 49.3 298 49.3Z" fill="white"/>
</g>
<defs>
<filter id="filter0_d_2429_17501" x="256" y="0" width="84" height="84" filterUnits="userSpaceOnUse" color-interpolation-filters="sRGB">
<feFlood flood-opacity="0" result="BackgroundImageFix"/>
<feColorMatrix in="SourceAlpha" type="matrix" values="0 0 0 0 0 0 0 0 0 0 0 0 0 0 0 0 0 0 127 0" result="hardAlpha"/>
<feOffset/>
<feGaussianBlur stdDeviation="9"/>
<feComposite in2="hardAlpha" operator="out"/>
<feColorMatrix type="matrix" values="0 0 0 0 0.929412 0 0 0 0 0.105882 0 0 0 0 0.141176 0 0 0 0.47 0"/>
<feBlend mode="normal" in2="BackgroundImageFix" result="effect1_dropShadow_2429_17501"/>
<feBlend mode="normal" in="SourceGraphic" in2="effect1_dropShadow_2429_17501" result="shape"/>
</filter>
<linearGradient id="paint0_linear_2429_17501" x1="151.062" y1="17.2751" x2="151.062" y2="51.063" gradientUnits="userSpaceOnUse">
<stop stop-color="#ED1B24" stop-opacity="0.6"/>
<stop offset="1" stop-color="#ED1B24"/>
</linearGradient>
<linearGradient id="paint1_linear_2429_17501" x1="209.03" y1="53.1133" x2="209.03" y2="67.0259" gradientUnits="userSpaceOnUse">
<stop stop-color="#ED1B24" stop-opacity="0.6"/>
<stop offset="1" stop-color="#ED1B24"/>
</linearGradient>
<linearGradient id="paint2_linear_2429_17501" x1="274" y1="18" x2="322" y2="66" gradientUnits="userSpaceOnUse">
<stop stop-color="#ED1B24"/>
<stop offset="1" stop-color="#ED1B24" stop-opacity="0.6"/>
</linearGradient>
<linearGradient id="paint3_linear_2429_17501" x1="274" y1="18" x2="322" y2="66" gradientUnits="userSpaceOnUse">
<stop stop-color="white" stop-opacity="0.4"/>
<stop offset="1" stop-color="white" stop-opacity="0"/>
</linearGradient>
</defs>
</svg>
