<svg width="16" height="16" viewBox="0 0 16 16" fill="none" xmlns="http://www.w3.org/2000/svg">
<path d="M6.75363 10.0067L6.06697 9.32002L6.72697 8.66002C6.9203 8.46668 6.9203 8.14668 6.72697 7.95335C6.53363 7.76002 6.21363 7.76002 6.0203 7.95335L5.3603 8.61335L4.7203 7.97335C4.52697 7.78002 4.20697 7.78002 4.01363 7.97335C3.8203 8.16668 3.8203 8.48668 4.01363 8.68002L4.65363 9.32002L3.99363 9.98002C3.8003 10.1733 3.8003 10.4933 3.99363 10.6867C4.09363 10.7867 4.2203 10.8333 4.34697 10.8333C4.47363 10.8333 4.6003 10.7867 4.7003 10.6867L5.3603 10.0267L6.04697 10.7133C6.14697 10.8133 6.27363 10.86 6.4003 10.86C6.52697 10.86 6.65363 10.8133 6.75363 10.7133C6.94697 10.52 6.94697 10.2 6.75363 10.0067Z" fill="white"/>
<path d="M9.02685 10.0001C8.66018 10.0001 8.35352 9.70008 8.35352 9.33341C8.35352 8.96675 8.64685 8.66675 9.01352 8.66675H9.02685C9.39352 8.66675 9.69352 8.96675 9.69352 9.33341C9.69352 9.70008 9.40018 10.0001 9.02685 10.0001Z" fill="white"/>
<path d="M11.6538 10.0001C11.2871 10.0001 10.9805 9.70008 10.9805 9.33341C10.9805 8.96675 11.2738 8.66675 11.6405 8.66675H11.6538C12.0205 8.66675 12.3205 8.96675 12.3205 9.33341C12.3205 9.70008 12.0271 10.0001 11.6538 10.0001Z" fill="white"/>
<path d="M10.3337 11.3134C9.96699 11.3134 9.66699 11.0201 9.66699 10.6534V10.6401C9.66699 10.2734 9.96699 9.97339 10.3337 9.97339C10.7003 9.97339 11.0003 10.2734 11.0003 10.6401C11.0003 11.0067 10.707 11.3134 10.3337 11.3134Z" fill="white"/>
<path d="M10.3337 8.68668C9.96699 8.68668 9.66699 8.39335 9.66699 8.02668V8.01335C9.66699 7.64668 9.96699 7.34668 10.3337 7.34668C10.7003 7.34668 11.0003 7.64668 11.0003 8.01335C11.0003 8.38001 10.707 8.68668 10.3337 8.68668Z" fill="white"/>
<path opacity="0.4" d="M14.6663 7.3799V11.0999C14.6663 13.0666 13.0663 14.6666 11.0997 14.6666H4.89967C2.93301 14.6666 1.33301 13.0666 1.33301 11.0999V7.3799C1.33301 5.41323 2.93301 3.81323 4.89967 3.81323H11.0997C13.0663 3.81323 14.6663 5.41323 14.6663 7.3799Z" fill="white"/>
<path d="M9.09292 1.80659L9.08625 2.43325C9.07958 3.01992 8.59292 3.50659 7.99958 3.50659C7.89958 3.50659 7.83958 3.57325 7.83958 3.65992C7.83958 3.74659 7.90625 3.81325 7.99292 3.81325H6.91958C6.91292 3.76659 6.90625 3.71325 6.90625 3.65992C6.90625 3.05992 7.39292 2.57325 7.98625 2.57325C8.08625 2.57325 8.15292 2.50659 8.15292 2.41992L8.15958 1.79325C8.16625 1.53992 8.37292 1.33325 8.62625 1.33325H8.63292C8.89292 1.33325 9.09292 1.54659 9.09292 1.80659Z" fill="white"/>
</svg>
