<svg width="60" height="60" viewBox="0 0 60 60" fill="none" xmlns="http://www.w3.org/2000/svg">
<path fill-rule="evenodd" clip-rule="evenodd" d="M5.99631 36.1909L6.90587 36.1914L7.61797 37.8612C7.85859 38.4133 8.12969 38.9275 8.42339 39.4641C9.5519 41.5263 10.9989 43.4251 12.605 45.0291C17.0671 49.4842 23.2178 52.1223 29.7908 52.1413C35.7685 52.1587 40.7323 50.0262 44.3996 47.3242C47.5215 45.0242 50.4165 41.5297 52.0197 37.9178C52.1452 37.6351 52.256 37.3844 52.3855 37.08C52.5119 36.7831 52.6093 36.4645 52.7544 36.1897L53.6827 36.1917C53.618 36.5699 53.1694 37.5908 52.9977 37.9659C52.7253 38.5601 52.4466 39.1113 52.152 39.6926C51.5898 40.8018 50.8488 41.8895 50.1777 42.8111L49.0599 44.2127C48.6176 44.7034 48.2571 45.1198 47.8299 45.5544C43.534 49.9258 37.104 53.0545 29.8452 53.0523C22.5688 53.0501 16.1444 49.9445 11.858 45.5563C11.2105 44.8934 10.6544 44.3017 10.0735 43.5634C9.42346 42.7368 9.06401 42.2857 8.47182 41.3338C7.89341 40.4038 6.0008 37.0133 5.99601 36.1908L5.99631 36.1909ZM8.67391 36.1887L15.9799 36.1898C16.1671 36.3545 16.3537 36.73 16.5161 36.957L17.3939 38.1055C18.6968 39.5619 19.487 40.3749 21.3878 41.5568C23.608 42.9375 26.5711 43.9206 29.7909 43.9288C34.5333 43.941 38.523 42.0077 41.597 38.8832L43.1151 37.0059C43.2338 36.829 43.5414 36.3122 43.6641 36.1908L51.0012 36.19C50.9044 36.5921 50.5483 37.2998 50.3634 37.6869C48.7841 40.9943 46.2114 44.0149 43.287 46.1554C37.484 50.403 29.5772 51.8362 22.2361 49.2487C19.468 48.2729 17.2415 46.9296 15.2028 45.225C15.0853 45.1269 15.0086 45.0884 14.8953 44.9814C12.8938 43.0902 11.6008 41.7686 10.1105 39.2037C9.8117 38.6892 8.75979 36.7658 8.67391 36.1884V36.1887ZM17.9461 36.2017L41.7028 36.1898C41.5063 36.5555 41.039 37.1152 40.741 37.4242C39.9651 38.229 39.3276 38.9025 38.3888 39.5622C35.9648 41.2654 33.2099 42.3305 29.8455 42.3302C26.5259 42.3302 23.7069 41.2824 21.2939 39.571C21.066 39.4095 20.8812 39.2724 20.6706 39.0989C20.4775 38.9398 20.2176 38.7371 20.0427 38.5757L17.9463 36.2017H17.9461ZM1.56027 33.9206C1.49745 33.4488 1.54495 23.9248 1.54495 22.7517C1.54511 21.526 1.42797 20.179 3.45644 20.1849C20.6042 20.2344 37.8163 20.1854 54.9751 20.1854C55.5405 20.1854 56.6499 20.1158 57.1058 20.2917C57.5839 20.4761 58.0243 20.9434 58.1005 21.5474C58.1634 22.046 58.117 31.522 58.117 32.7161C58.117 34.0517 58.1873 35.2821 56.1797 35.2784L4.66108 35.2781C3.61675 35.2781 1.78047 35.5696 1.56012 33.9206H1.56027ZM29.736 13.1333C33.5336 13.125 36.2594 14.3134 38.9497 16.331C39.4375 16.6968 40.3108 17.5288 40.691 17.9848C40.9892 18.3426 41.495 18.8242 41.6935 19.272C33.9712 19.271 26.0433 19.3288 18.3482 19.272L17.9701 19.2664C18.3952 18.3491 20.4005 16.5292 21.2885 15.8925C23.6345 14.2098 26.5146 13.1525 29.736 13.1333ZM8.66107 19.267C8.91283 18.3754 9.67522 17.0191 10.1331 16.2338C10.7103 15.2437 11.2826 14.4189 11.9274 13.5937C19.7639 3.56508 34.7939 1.9671 44.4866 10.2475C45.2298 10.8824 46.395 11.9733 47.0049 12.7078C48.3563 14.3352 50.4483 17.2562 50.9995 19.2718L43.6146 19.2709C43.4634 18.8583 42.7848 18.0067 42.5053 17.6475C41.966 16.9548 41.7182 16.7705 41.229 16.2399C40.4649 15.4108 39.1619 14.4502 38.2266 13.8782C35.99 12.5107 33.0239 11.523 29.7903 11.535C24.4625 11.555 20.2295 13.9107 17.1219 17.6938C16.7564 18.1387 16.1156 19.1366 15.9938 19.2721L8.66091 19.2673L8.66107 19.267ZM5.9745 19.27C6.08467 18.7592 6.48885 17.9022 6.70579 17.4064C8.42246 13.483 11.252 10.0362 14.6015 7.50704C23.5368 0.759828 36.1336 0.682304 45.0811 7.51648C47.2767 9.19369 48.4767 10.463 50.1525 12.6276C51.2287 14.0177 53.3108 17.5401 53.6841 19.2709L52.718 19.2687C52.4808 18.3522 51.6387 16.6996 51.1909 15.9157C49.2024 12.4342 46.3702 9.24104 42.9414 7.13691C38.9291 4.67487 34.7614 3.31162 29.7906 3.32245C23.9429 3.33545 18.8012 5.45676 15.2175 8.1783C12.2374 10.4417 10.2945 12.7276 8.4418 15.9669C8.00296 16.7339 7.17728 18.3797 6.9427 19.2707L5.9745 19.27ZM5.20839 19.2591C4.2241 19.3419 3.00104 19.0968 2.14936 19.472C0.16639 20.346 0.631378 22.4673 0.631378 24.5037C0.631378 25.8352 0.554321 33.5378 0.680742 34.1795C0.859001 35.0844 1.44561 35.6739 2.15401 35.9916C2.93513 36.3421 4.27856 36.1439 5.20854 36.1977C5.44204 36.5426 6.2456 39.5435 8.84582 43.0939C9.92698 44.5705 10.9678 45.7406 12.2982 46.9243C13.008 47.5558 13.2826 47.8135 14.0851 48.4222C25.8589 57.3525 42.4236 54.6517 50.8279 43.0765C52.0493 41.3943 52.85 40.0176 53.7029 38.0688L54.4503 36.1908C55.4068 36.1788 56.7061 36.3271 57.5315 35.9842C58.2286 35.6947 58.8316 35.0164 58.9873 34.1623C59.1239 33.4124 59.032 31.7527 59.032 30.9092C59.032 29.5845 59.1124 21.8525 58.9741 21.2201C58.7915 20.3867 58.1675 19.7122 57.4572 19.4488C56.6913 19.1649 55.318 19.2738 54.4132 19.2696C54.198 18.3018 53.2746 16.4791 52.8131 15.5538C51.2197 12.3607 48.3714 9.14294 45.5728 7.02426C36.2218 -0.0544044 23.3066 -0.0475959 14.0487 7.0631C11.1256 9.30835 8.54872 12.264 6.82463 15.6093C6.51948 16.201 6.2487 16.7551 5.96846 17.3798C5.79237 17.7724 5.38494 19.0004 5.20885 19.2591H5.20839Z" fill="#0C1118"/>
<path fill-rule="evenodd" clip-rule="evenodd" d="M3.63256 33.8428L6.29917 33.8527C6.38768 32.6173 6.30164 30.4562 6.32934 29.028L9.94806 29.0183C10.0407 30.1194 9.95579 32.507 9.97993 33.8507L12.6436 33.8517L12.6639 22.1338L9.97514 22.1349L9.97313 26.6972C8.84276 26.7014 7.39967 26.7346 6.3216 26.6879L6.32145 22.1347L3.63086 22.1356L3.63272 33.8428H3.63256Z" fill="#0C1118"/>
<path fill-rule="evenodd" clip-rule="evenodd" d="M18.8768 25.2312L20.1209 29.262L17.6554 29.2631L18.8768 25.2312ZM13.8496 33.8429L16.2476 33.8501L16.9927 31.426L20.7404 31.4262C20.9458 31.781 21.3213 33.3061 21.4935 33.8409L24.4167 33.8506L20.7984 22.1471L17.5822 22.1343L13.8496 33.8429Z" fill="#0C1118"/>
<path fill-rule="evenodd" clip-rule="evenodd" d="M45.7231 29.7523L43.0911 29.5807C42.9254 30.989 41.9128 32.2783 40.2613 31.6638C38.965 31.1815 38.8073 29.6264 38.8157 27.953C38.8234 26.373 39.0975 24.7216 40.3133 24.2943C41.0582 24.0324 41.8428 24.2568 42.2602 24.6822C42.9204 25.3553 42.7399 26.2257 42.9308 26.6706L45.748 26.5047C45.7853 26.0123 45.4495 24.9282 45.2719 24.5183C44.9921 23.8732 44.6691 23.413 44.2218 22.9958C42.1834 21.094 35.839 21.2693 35.7759 27.8981C35.7452 31.1038 37.2171 33.4252 39.9646 33.9379C42.0773 34.3321 44.2139 33.5391 45.1966 31.6966C45.3831 31.3471 45.8752 30.1633 45.7231 29.7525V29.7523Z" fill="#0C1118"/>
<path fill-rule="evenodd" clip-rule="evenodd" d="M34.7148 29.76L32.0737 29.582C31.9518 30.2889 31.6743 31.0211 31.2728 31.3506C30.794 31.7436 30.0012 31.9384 29.2479 31.6716C27.94 31.2083 27.7856 29.5692 27.7923 27.9533C27.8116 23.3674 30.4606 23.8988 31.2414 24.6963C31.9236 25.3933 31.7513 26.3544 31.9264 26.6796L34.7086 26.5057C34.792 26.03 34.4206 24.9093 34.2398 24.4921C33.3694 22.485 31.4343 21.6788 29.1075 22.0212C24.2659 22.7338 23.9382 29.2483 25.7893 31.8999C27.8042 34.7856 32.4182 34.7797 34.1449 31.7606C34.3697 31.3679 34.7555 30.2937 34.7146 29.7602L34.7148 29.76Z" fill="#0C1118"/>
<path fill-rule="evenodd" clip-rule="evenodd" d="M50.0616 27.3476L50.0651 24.2642C51.6726 24.1895 53.6489 24.0185 53.6794 25.7618C53.6934 26.5655 53.2362 27.1094 52.6062 27.2804C52.1999 27.3906 50.5088 27.4113 50.0616 27.3474V27.3476ZM47.3594 33.8524L50.1396 33.85L50.1543 29.4927C51.0575 29.4978 52.0435 29.5284 52.9338 29.4715C53.9763 29.4051 54.3862 29.2309 55.0678 28.7574C56.0761 28.0567 56.7648 26.298 56.2876 24.6163C55.8502 23.0748 54.5207 22.3299 53.023 22.1798C52.1137 22.0888 48.5072 22.1292 47.3603 22.1353L47.3594 33.8524Z" fill="#0C1118"/>
<path fill-rule="evenodd" clip-rule="evenodd" d="M44.313 40.3486L42.5238 40.0339C42.2553 40.4721 41.624 40.9114 41.1799 41.2577L39.749 42.4068C39.8382 42.6006 39.9804 42.7661 40.1379 42.8966C40.4551 42.7442 40.7415 42.3502 41.0915 42.2214C41.1895 42.4291 42.9072 44.6075 43.0878 44.7466C43.2735 44.5845 43.486 44.441 43.6551 44.2683C43.391 43.8222 41.7869 41.9375 41.6774 41.6936C41.8624 41.5827 42.004 41.4306 42.1956 41.2899C42.4204 41.125 42.6303 41.085 42.4542 40.8324C42.8274 40.8514 44.1728 41.0408 44.521 41.1395C44.8043 41.22 45.5639 42.0652 45.8463 42.2176C46.0152 42.0921 46.2298 41.8196 46.3396 41.6402C45.9434 41.0303 45.2699 41.0584 45.0129 40.1616C44.8837 39.7111 44.5335 38.3561 44.3533 38.0288C44.2069 38.1079 44.1377 38.2363 43.9435 38.4395C43.5369 38.8652 44.1178 39.2153 44.3127 40.3485L44.313 40.3486Z" fill="#0C1118"/>
<path fill-rule="evenodd" clip-rule="evenodd" d="M23.3871 8.02406C23.5998 7.91667 24.0692 7.81021 24.3141 7.75032C25.1013 7.55752 25.4302 8.42638 24.5162 8.71667C24.2689 8.79512 23.8599 8.93577 23.6173 8.94846L23.3871 8.02421V8.02406ZM22.4268 7.5699L23.4706 11.3492L24.2061 11.1577C24.2005 10.7475 23.8776 10.021 23.8106 9.55674C24.4634 9.46235 24.4401 9.29724 25.3314 10.1291C25.9248 10.6832 25.9141 10.7335 26.6138 10.4907L26.8432 10.3625C26.143 9.78467 25.9584 9.45337 25.1475 9.10908C25.4056 8.91024 25.8386 8.74947 25.8505 8.13315C25.8607 7.61044 25.5432 7.20936 25.2159 7.06715C24.6271 6.81152 23.0828 7.45044 22.4268 7.56974V7.5699Z" fill="#0C1118"/>
<path fill-rule="evenodd" clip-rule="evenodd" d="M22.4109 45.4176C21.824 47.4509 19.7915 46.7378 20.1382 45.2893C20.2735 44.7241 20.7377 44.0345 21.3596 44.0228C22.0937 44.009 22.6339 44.645 22.4109 45.4174V45.4176ZM23.2325 45.4176C23.4034 44.2615 22.4315 43.3896 21.4085 43.2985C20.295 43.1993 19.4757 44.2603 19.318 45.2333C19.1227 46.4381 20.1033 47.3156 21.1399 47.3979C22.2837 47.4888 23.0818 46.4359 23.2325 45.4176Z" fill="#0C1118"/>
<path fill-rule="evenodd" clip-rule="evenodd" d="M19.1093 43.4472C18.9411 43.9219 18.3756 44.6107 17.7459 44.6124C17.0575 44.6142 16.5162 43.9204 16.7773 43.1897C16.9529 42.698 17.5078 42.0088 18.1284 42.0196C18.8105 42.0317 19.3776 42.689 19.1092 43.4472H19.1093ZM17.7233 41.3061C16.6983 41.5003 15.8549 42.6458 15.9239 43.614C15.992 44.5729 17.0894 45.5557 18.2139 45.3336C19.0482 45.1688 20.0373 44.0776 19.9455 43.0078C19.8638 42.0556 18.811 41.1001 17.7235 41.3061H17.7233Z" fill="#0C1118"/>
<path fill-rule="evenodd" clip-rule="evenodd" d="M41.1317 13.4993C41.3248 13.1841 41.7054 12.8381 41.955 12.5236L42.8208 11.5752C43.0306 11.7054 43.59 12.2159 43.6641 12.4916C43.7938 12.9738 43.3797 13.4142 43.1898 13.6489C42.465 14.5451 41.8326 14.3413 41.1318 13.4993H41.1317ZM40.0859 13.5121C40.3351 13.7216 40.6645 13.9791 40.9065 14.2101C41.1183 14.4124 41.4671 14.7181 41.7878 14.8625C43.1855 15.4909 45.086 13.3007 44.2243 11.9855C44.0082 11.6557 43.7475 11.5123 43.4524 11.2255C43.2369 11.0162 42.8981 10.7533 42.6564 10.5527C42.3881 10.7299 41.6598 11.6919 41.3418 12.0206L40.0859 13.5121Z" fill="#0C1118"/>
<path fill-rule="evenodd" clip-rule="evenodd" d="M24.3154 45.2044C25.4312 45.4241 25.9429 45.6575 25.5707 46.946C25.4651 47.3119 25.2676 47.7924 24.9386 47.9027C24.5804 48.0228 23.9195 47.8333 23.6444 47.6603L24.3154 45.2044ZM22.7158 48.1008C23.0446 48.3016 24.6154 48.6822 25.0785 48.5935C25.7683 48.4613 26.1939 47.8059 26.3755 47.0945C26.6041 46.1997 26.4772 45.4498 25.8621 45.0221C25.5717 44.8202 24.1468 44.4233 23.7247 44.3594L22.7158 48.1006V48.1008Z" fill="#0C1118"/>
<path fill-rule="evenodd" clip-rule="evenodd" d="M36.8672 11.6843L39.495 13.037L39.8168 12.4629L37.8959 11.4809L38.3316 10.5448L40.0741 11.4006C40.2066 11.2244 40.3254 11.0229 40.3576 10.8166L38.6617 9.94762L39.03 9.17764L40.8987 10.0966L41.2277 9.49826L38.6068 8.20264L36.8673 11.6847L36.8672 11.6843Z" fill="#0C1118"/>
<path fill-rule="evenodd" clip-rule="evenodd" d="M27.9473 47.9586C27.6887 49.7488 31.46 49.9658 31.0725 47.9046C30.909 47.0347 30.04 47.041 29.2242 46.6958C28.2713 46.2924 29.4794 45.6602 30.0358 46.1041C30.2238 46.254 30.1758 46.3857 30.2838 46.5589L31.0418 46.558C31.0165 45.6063 30.2551 45.2099 29.2445 45.3154C28.3697 45.4067 27.7712 46.2048 28.3385 47.0353C28.7379 47.6201 30.2086 47.5939 30.2868 48.1081C30.3891 48.7815 29.2259 48.8835 28.8782 48.4099C28.7649 48.2557 28.7399 48.0591 28.6415 47.9192L27.9474 47.959L27.9473 47.9586Z" fill="#0C1118"/>
<path fill-rule="evenodd" clip-rule="evenodd" d="M18.3164 9.74323C18.733 10.5623 19.9848 12.5273 20.2525 13.1193L22.8346 11.6445L22.5299 11.0769L20.6543 12.1428L20.11 11.2621C20.3521 11.0271 21.429 10.4683 21.7793 10.2486L21.4768 9.70346C20.9812 9.84737 20.2918 10.4428 19.7722 10.6444L19.3261 9.90617L21.1302 8.86447C21.055 8.65588 20.9168 8.48443 20.8306 8.30029L18.3164 9.74338V9.74323Z" fill="#0C1118"/>
<path fill-rule="evenodd" clip-rule="evenodd" d="M37.0234 43.8656L38.6971 47.3878L41.3657 46.126L41.1228 45.5275L39.1591 46.4536L38.6835 45.5363C39.0516 45.208 39.9257 44.9669 40.4077 44.6515L40.1617 44.0777L38.3989 44.8982C38.2835 44.7253 38.0998 44.3393 38.0226 44.1274L39.8805 43.222C39.8262 43.0164 39.7276 42.7673 39.5915 42.6357L37.0234 43.8659V43.8656Z" fill="#0C1118"/>
<path fill-rule="evenodd" clip-rule="evenodd" d="M32.641 46.2299C32.671 46.1485 32.678 46.1497 32.7051 46.1089C32.7922 46.3688 33.2847 47.1051 33.4511 47.3876L32.4203 47.5817L32.641 46.2297V46.2299ZM32.1375 49.2383C32.3472 48.3123 32.1239 48.3156 32.6008 48.2275C33.0214 48.15 33.4333 48.0566 33.845 47.9996L34.3399 48.7951L35.1687 48.6504L34.0408 46.8632C33.685 46.2924 33.2244 45.6694 32.9068 45.085L32.0663 45.2824L31.3359 49.3807L32.1373 49.238L32.1375 49.2383Z" fill="#0C1118"/>
<path fill-rule="evenodd" clip-rule="evenodd" d="M17.3627 11.9328C17.5188 11.7821 17.7166 11.5205 17.8034 11.3092C17.4907 11.0213 16.9127 10.9376 16.4592 11.1141C15.0523 11.6616 14.9237 13.2825 15.8812 14.2706C16.405 14.8114 17.2714 15.3474 18.2093 14.7837C18.781 14.4401 19.5261 13.4835 18.8889 12.5529L18.1851 12.8444C18.3775 13.4699 18.4383 13.8985 17.8801 14.1799C17.2799 14.4831 16.825 14.0586 16.5157 13.7456C16.2692 13.4962 15.8093 12.9191 16.0487 12.3466C16.3725 11.5723 17.0371 11.8281 17.3627 11.9328Z" fill="#0C1118"/>
<path fill-rule="evenodd" clip-rule="evenodd" d="M32.1877 10.3637L32.9589 10.537L33.3341 8.94617L34.9425 9.29L35.0854 8.63097C34.7421 8.58115 33.7366 8.37503 33.5101 8.2432L33.6945 7.383C34.246 7.43159 35.0297 7.76351 35.5393 7.76072L35.7024 7.15523L33.0703 6.53906L32.1875 10.3637H32.1877Z" fill="#0C1118"/>
<path fill-rule="evenodd" clip-rule="evenodd" d="M13.1006 41.3674L13.6247 41.9666L14.8312 40.8289C15.1911 41.1952 15.5221 41.6158 15.9402 41.9657C16.1251 41.8894 16.3342 41.6681 16.4258 41.5104C16.2073 41.3404 15.418 40.5216 15.3222 40.3048C15.5577 40.1377 15.7423 39.8502 16.001 39.7277C16.2012 39.9564 17.0467 40.9125 17.3087 41.0505L17.7444 40.6558C17.6567 40.472 16.1443 38.8956 15.8853 38.71C15.7102 38.8181 15.3483 39.2286 15.2012 39.3674L13.1006 41.3674Z" fill="#0C1118"/>
<path fill-rule="evenodd" clip-rule="evenodd" d="M36.963 44.5968C36.9406 44.3933 36.8669 44.1552 36.7391 43.9902L34.2461 44.9338L35.601 48.587L36.3487 48.3331L35.7856 46.7867C35.9049 46.6728 37.0687 46.2644 37.3062 46.1982L37.0868 45.5661L35.5334 46.1216L35.2214 45.2599L36.963 44.5967V44.5968Z" fill="#0C1118"/>
<path fill-rule="evenodd" clip-rule="evenodd" d="M26.7832 6.50931L26.7968 7.13848L27.964 7.09685L28.2093 10.3278L28.9967 10.2752C28.9748 9.71797 28.7131 7.33035 28.7917 7.02521L29.9049 6.93933L29.8608 6.31465C29.5793 6.23372 27.2864 6.47867 26.7832 6.50931Z" fill="#0C1118"/>
<path fill-rule="evenodd" clip-rule="evenodd" d="M5.10395 41.4761C5.15733 41.4153 5.12345 41.4427 5.21706 41.3721L6.12197 40.8107L5.86635 40.415C5.51354 40.5481 4.86674 40.9774 4.52662 41.1765C4.1339 41.4064 3.52856 41.7039 3.21289 41.9751L3.4713 42.3849L4.60709 41.7384L5.1202 42.5877L3.99154 43.2827C4.06333 43.4524 4.13575 43.585 4.24175 43.6997L6.8918 42.1244L6.63292 41.7306C6.25737 41.8713 5.95501 42.1628 5.58054 42.2965L5.1041 41.4759L5.10395 41.4761Z" fill="#0C1118"/>
<path fill-rule="evenodd" clip-rule="evenodd" d="M12.6084 50.9529C12.9044 50.7764 13.197 50.4469 13.5257 50.2863L13.1474 51.3391C12.9303 51.2318 12.7661 51.1101 12.6084 50.9531V50.9529ZM14.1841 49.791C14.0393 49.7096 13.9178 49.6106 13.7494 49.5078C13.3137 49.7616 12.8503 50.158 12.4422 50.4615C12.1122 50.707 11.3843 51.1946 11.1738 51.4402C11.2826 51.5456 11.4367 51.668 11.572 51.7473C11.7549 51.6338 11.9763 51.4054 12.1617 51.3289C12.4657 51.4817 12.6861 51.7159 12.9919 51.8792L12.7786 52.5899C12.8976 52.7186 13.0756 52.8344 13.2206 52.8984L14.1841 49.791Z" fill="#0C1118"/>
<path fill-rule="evenodd" clip-rule="evenodd" d="M48.8423 47.7719C49.0428 47.5204 49.4317 47.1325 49.7634 47.4531C50.1722 47.8482 49.5927 48.2495 49.4289 48.4068C49.272 48.2672 48.9184 47.9314 48.8423 47.7719ZM49.8081 48.8122C50.0228 48.4663 50.4426 48.3201 50.4774 47.8741C50.5117 47.4367 50.1826 47.0946 49.9265 46.9066C49.4818 46.5804 49.1674 46.7588 48.8563 47.0174C48.6716 47.171 48.219 47.5967 48.0947 47.7615L50.2122 49.9753C50.3623 49.8958 50.4484 49.8384 50.5492 49.6332C50.4379 49.4873 50.3161 49.3482 50.1897 49.2168C50.0065 49.0266 49.9486 49.0463 49.808 48.812L49.8081 48.8122Z" fill="#0C1118"/>
<path fill-rule="evenodd" clip-rule="evenodd" d="M27.2654 56.6941C26.9495 57.6513 26.0057 57.4387 26.1465 56.1548C26.2771 54.963 27.2367 54.8133 27.3761 55.7306L27.8915 55.6578C27.7775 54.2161 25.8691 54.161 25.6271 56.0396C25.3546 58.1548 27.4355 58.311 27.7372 56.9055L27.2654 56.6941Z" fill="#0C1118"/>
<path fill-rule="evenodd" clip-rule="evenodd" d="M10.815 48.7446C10.9784 49.0932 10.9065 49.2787 10.6586 49.5528C10.545 49.6783 10.18 50.115 9.86261 49.8539C9.54122 49.5895 10.0689 48.5575 10.8152 48.7446H10.815ZM11.8101 48.9515C11.97 48.7658 12.1917 48.5691 12.2813 48.3475L11.8748 48.0908C11.751 48.3133 11.4959 48.5871 11.2859 48.8176C11.2 48.7477 11.2645 48.8316 11.1893 48.6864C11.1822 48.6726 11.165 48.6168 11.1454 48.5716C11.0943 48.4541 11.0903 48.4435 11.0179 48.3693C10.0491 47.3756 8.13062 50.4246 10.0972 50.2353C9.99088 50.4223 10.0076 50.2918 9.9621 50.5139C10.1766 50.6183 10.0822 50.6446 10.3236 50.7373L11.8098 48.9515H11.8101Z" fill="#0C1118"/>
<path fill-rule="evenodd" clip-rule="evenodd" d="M39.6331 55.0612C39.6203 55.5293 39.5911 55.9568 39.0476 55.8884C38.6875 55.8431 38.4919 55.437 38.374 55.1211C38.249 54.7857 38.1159 54.3031 38.3832 54.0099C38.7745 53.5805 39.0461 53.9712 39.3176 54.1363C39.4598 54.0425 39.5931 53.9723 39.6861 53.8491C39.4419 53.3168 38.6824 53.0569 38.1135 53.5214C37.6268 53.9187 37.6537 54.73 37.8903 55.3304C38.6365 57.2238 40.4475 56.4021 40.126 55.0736L39.6331 55.0613V55.0612Z" fill="#0C1118"/>
<path fill-rule="evenodd" clip-rule="evenodd" d="M30.6823 10.3021L31.4431 10.3535L31.7377 6.44338L30.9481 6.38721C30.8888 7.03788 30.6009 9.86681 30.6824 10.3021H30.6823Z" fill="#0C1118"/>
<path fill-rule="evenodd" clip-rule="evenodd" d="M35.3945 11.1891C35.5836 11.297 35.9217 11.4149 36.1424 11.4177C36.32 11.0389 37.3187 8.06834 37.352 7.75097C37.1417 7.6326 36.8805 7.54378 36.6351 7.5249L35.3945 11.1891Z" fill="#0C1118"/>
<path fill-rule="evenodd" clip-rule="evenodd" d="M46.4433 51.1667C46.1813 50.2782 47.3048 50.4654 47.5024 51.2506C47.7186 52.11 46.6551 51.8854 46.4433 51.1667ZM45.9575 51.2761C46.3417 52.7272 48.301 52.5757 47.9792 51.1594C47.6281 49.615 45.5701 49.8132 45.9575 51.2761Z" fill="#0C1118"/>
<path fill-rule="evenodd" clip-rule="evenodd" d="M51.0389 47.0605C50.8943 46.2385 52.1149 46.6049 52.2311 47.2384C52.3025 47.6281 51.995 47.8164 51.6236 47.6765C51.4203 47.6 51.0794 47.2909 51.0389 47.0605ZM50.5437 47.1151C50.6198 47.5971 51.1732 48.1132 51.6462 48.2027C52.3181 48.3301 52.8286 47.8478 52.7179 47.1844C52.4903 45.8207 50.3184 45.6886 50.5437 47.1151Z" fill="#0C1118"/>
<path fill-rule="evenodd" clip-rule="evenodd" d="M19.0352 53.4901L18.5844 53.314C18.5072 53.7336 18.4914 54.2871 18.4566 54.7238C18.3922 55.5306 18.4869 55.5145 18.1448 55.9216C17.9653 55.9355 18.0116 55.9198 17.8703 55.9082L17.6459 55.9034L17.582 56.3034C18.0172 56.5033 18.2027 56.5506 18.5371 56.2272C18.7765 55.9957 18.9259 55.7697 19.1337 55.5097L20.3059 54.0117L19.8819 53.8439C19.5927 54.0925 19.1495 54.8576 18.8804 55.0675L19.0352 53.4901Z" fill="#0C1118"/>
<path fill-rule="evenodd" clip-rule="evenodd" d="M16.6559 53.6875C16.4391 54.3328 16.0275 54.2279 15.9225 54.0803C15.7943 53.9005 15.8979 53.6747 16.0555 53.6286C16.2118 53.5826 16.487 53.6632 16.6559 53.6874V53.6875ZM15.4438 53.5769C15.1444 54.1921 15.6736 54.7218 16.2628 54.4679C16.42 54.7179 16.12 54.6902 16.713 54.9047C16.7793 54.2412 17.4167 53.5803 17.4322 53.08C17.4495 52.516 16.3668 51.9983 15.9903 52.6995C16.1339 52.8569 16.1695 52.8495 16.2877 52.9527C16.429 52.8903 16.5434 52.761 16.7507 52.8694C16.9424 52.9699 16.94 53.1268 16.8632 53.3019C16.4937 53.4554 15.7963 52.853 15.4438 53.5771V53.5769Z" fill="#0C1118"/>
<path fill-rule="evenodd" clip-rule="evenodd" d="M7.40305 47.397C7.37519 47.2252 7.39469 47.1228 7.44359 46.9971C7.80258 46.8585 7.94633 47.0426 8.18092 47.2243L8.13186 47.2933C8.08869 47.3413 8.12753 47.3117 8.04753 47.3797C7.81434 47.5777 7.59817 47.5178 7.40305 47.397ZM8.08699 47.9669C8.75484 47.3131 9.71546 46.9541 8.87585 46.1301C8.55399 45.8142 8.35082 45.8508 7.93442 46.02L8.13125 46.385C8.37388 46.3825 8.45852 46.3217 8.6049 46.5137C8.75453 46.7096 8.6541 46.8358 8.56219 46.954C8.06827 46.8628 7.6791 46.117 7.08692 46.6932C6.62487 47.1431 6.88421 47.6907 7.5078 47.8006C7.52978 47.8552 7.49264 47.9691 7.55593 48.1009C7.60962 48.2126 7.69395 48.2734 7.78169 48.3342C7.88722 48.2122 7.97496 48.0766 8.08683 47.967L8.08699 47.9669Z" fill="#0C1118"/>
<path fill-rule="evenodd" clip-rule="evenodd" d="M5.91369 44.3775C5.674 44.6696 5.43152 44.7355 5.10797 44.4437C5.12746 43.7461 5.6723 44.1158 5.91369 44.3775ZM5.43524 45.465C5.79191 44.9458 6.45682 44.7362 6.85527 44.2715C7.27678 43.7802 6.49473 42.7755 5.79485 43.1804L5.94433 43.5388C6.32746 43.5789 6.54533 43.64 6.43253 44.064C6.1345 44.1896 6.23028 44.1338 5.7899 43.7955C4.80746 43.0405 3.97837 44.6537 5.24646 44.9008C5.21938 45.0497 4.98557 45.0854 5.43508 45.465H5.43524Z" fill="#0C1118"/>
<path fill-rule="evenodd" clip-rule="evenodd" d="M40.6955 54.4511C40.5053 53.6327 41.4379 53.5787 41.6618 54.4671C41.8851 55.3537 40.9042 55.3498 40.6955 54.4511ZM40.1966 54.5057C40.2837 55.0187 40.699 55.5874 41.2327 55.6216C41.9018 55.6644 42.2815 55.0866 42.1537 54.4061C41.8733 52.9115 39.9439 53.0159 40.1966 54.5057Z" fill="#0C1118"/>
<path fill-rule="evenodd" clip-rule="evenodd" d="M35.4162 56.3235C34.0143 56.6598 35.6214 57.8203 35.4162 56.3235V56.3235ZM34.5542 55.9393C34.8708 55.8389 34.6283 55.6713 34.9497 55.6055C35.2493 55.5446 35.2972 55.6962 35.3259 55.9435C34.8607 56.1587 34.235 56.3207 34.3702 56.9918C34.509 57.6789 35.3075 57.6623 35.5301 57.1634C35.5447 57.1701 35.5591 57.1851 35.569 57.1916L35.8216 57.3083C35.9047 57.3174 36.023 57.2815 36.0859 57.2646L36.0753 57.0449C36.0477 56.9573 36.0146 56.8903 35.99 56.7953C35.9509 56.6437 35.919 56.4572 35.8888 56.2916C35.839 56.0187 35.7751 55.5226 35.6409 55.3357C35.4325 55.0449 34.3091 54.8953 34.2305 55.93L34.5542 55.9391V55.9393Z" fill="#0C1118"/>
<path fill-rule="evenodd" clip-rule="evenodd" d="M43.2551 54.7722C43.1463 54.3991 42.2688 53.1606 42.7946 52.9333C43.2967 52.7162 43.6026 54.0802 43.9203 54.4253L44.3229 54.2541C44.2237 53.9377 43.7544 53.0142 43.595 52.7467C43.2328 52.1379 42.5406 52.2789 42.3714 53.0004L42.2151 52.7674L41.8428 52.9772L42.8111 54.9727L43.2554 54.7722H43.2551Z" fill="#0C1118"/>
<path fill-rule="evenodd" clip-rule="evenodd" d="M15.0172 51.3839L14.6379 51.1797C14.4365 51.4907 13.5285 52.8447 13.459 53.0819L13.8675 53.3027C14.0139 53.0106 14.7976 51.5277 15.2233 52.0519C15.4789 52.3679 14.6044 53.3541 14.4578 53.6849C14.5773 53.8016 14.6825 53.8841 14.8488 53.9484C15.1199 53.5644 15.4542 53.0588 15.7047 52.6282C16.0991 51.9501 15.6584 51.4746 14.8943 51.6485L15.0174 51.3839H15.0172Z" fill="#0C1118"/>
<path fill-rule="evenodd" clip-rule="evenodd" d="M22.6379 56.3852C22.5794 57.2402 23.7127 57.5727 24.1584 57.0296C24.4532 56.6703 24.3597 56.2844 24.0792 56.057C23.8319 55.8565 23.3134 55.748 23.4142 55.4102C23.8206 55.2652 23.906 55.4526 24.0431 55.7188L24.4844 55.7251C24.4002 54.7424 23.2867 54.7823 23.0031 55.2202C22.4084 56.1386 23.7571 56.2285 23.8096 56.6963C23.6968 56.8456 23.5797 56.9254 23.331 56.8098C23.1318 56.7173 23.1708 56.6218 23.0802 56.401L22.6379 56.3854V56.3852Z" fill="#0C1118"/>
<path fill-rule="evenodd" clip-rule="evenodd" d="M19.8371 55.5566C19.8168 56.7275 21.3734 56.8442 21.5204 55.9188C21.6072 55.3715 21.1425 55.2137 20.8325 54.9769C20.6818 54.862 20.5217 54.6012 20.9135 54.6138C21.2502 54.6244 21.2147 54.8001 21.341 55.0164L21.7525 55.0551C21.7557 54.0432 20.5617 53.9533 20.2677 54.5121C19.7399 55.5153 21.307 55.4958 20.905 56.0759C20.477 56.1319 20.3399 56.0002 20.3313 55.6007L19.8374 55.5566H19.8371Z" fill="#0C1118"/>
<path fill-rule="evenodd" clip-rule="evenodd" d="M54.1523 45.6365C53.7175 45.2597 52.6814 44.7922 53.0113 44.3312C53.3014 43.9254 54.3852 45.0071 54.7094 45.1384C54.8125 44.9966 54.8847 44.9228 54.9568 44.7611C54.8039 44.5975 54.5079 44.4125 54.3085 44.2772C54.0963 44.1332 53.8881 43.9529 53.6705 43.8223C53.022 43.4333 52.5341 43.8596 52.6755 44.5931C52.5087 44.508 52.6006 44.5194 52.3982 44.4711L52.1934 44.8321L53.9899 46.0968L54.1581 45.9133C54.2113 45.8396 54.2178 45.8225 54.2617 45.7465L54.1522 45.6365H54.1523Z" fill="#0C1118"/>
<path fill-rule="evenodd" clip-rule="evenodd" d="M8.24957 45.5505C8.17468 45.2703 7.95232 45.0849 7.80764 44.9002C7.656 44.7069 7.52478 44.5043 7.34404 44.3276C7.19518 44.3799 7.34157 44.3185 7.23557 44.3802L6.97143 44.5967C7.05484 44.8335 7.3801 45.0509 7.43875 45.2804C6.7059 45.3064 5.86335 45.2271 5.55078 45.637C5.6119 45.7814 6.3548 46.7208 6.52269 46.8924C6.76021 46.799 6.77058 46.7377 6.93801 46.5884C6.78621 46.3895 6.456 46.0247 6.35635 45.8139C6.71751 45.8102 7.07635 45.7907 7.43689 45.7751C8.07039 45.7477 7.84895 45.7265 8.24942 45.5505H8.24957Z" fill="#0C1118"/>
<path fill-rule="evenodd" clip-rule="evenodd" d="M33.635 56.9884C33.5952 57.0781 33.5375 57.2965 33.2515 57.242C32.8489 57.1651 32.7405 56.1269 33.0259 55.9324C33.3139 55.7362 33.4781 55.9881 33.5685 56.0996L34.0167 55.9847C33.6734 54.9793 32.1563 55.2322 32.4005 56.7683C32.6307 58.2172 34.19 57.925 34.1404 56.831L33.7329 56.7936L33.6351 56.9882L33.635 56.9884Z" fill="#0C1118"/>
<path fill-rule="evenodd" clip-rule="evenodd" d="M30.1816 55.7107C30.201 56.211 30.1182 56.0109 30.4192 56.1488C30.4449 56.5092 30.4173 57.3785 30.5278 57.6538C30.614 57.8688 30.7816 57.9451 31.0516 57.9208C31.41 57.8883 31.3522 57.7738 31.2953 57.4625C31.1696 57.3935 31.0613 57.4616 30.9776 57.3192L30.918 56.1485C30.9321 56.1412 30.951 56.1348 30.9623 56.1313L31.0997 56.09C31.105 56.0887 31.2137 56.0729 31.2461 56.0669L31.2308 55.6279L30.8985 55.6073L30.8625 54.8555C30.281 55.1569 30.4017 55.3116 30.3972 55.6007L30.182 55.7102L30.1816 55.7107Z" fill="#0C1118"/>
<path fill-rule="evenodd" clip-rule="evenodd" d="M45.305 53.1177C45.2898 53.1242 45.2725 53.1356 45.2615 53.1413C45.2506 53.1469 45.2315 53.1577 45.2183 53.1644L45.011 53.2518C44.8516 53.0923 44.4225 52.3697 44.3521 52.1434L44.6037 51.98L44.4008 51.5926L44.0893 51.7476L43.6971 51.1206C43.4707 51.3858 43.3727 51.6365 43.6428 51.9121C43.5386 52.2862 43.3273 51.8621 43.7169 52.5129C44.0022 52.3701 43.9625 52.4902 44.1382 52.8048C44.3563 53.1946 44.6237 53.7892 44.9584 53.812C45.2332 53.8305 45.4127 53.6353 45.5098 53.466C45.4131 53.3061 45.3774 53.2874 45.305 53.1175V53.1177Z" fill="#0C1118"/>
<path fill-rule="evenodd" clip-rule="evenodd" d="M54.062 42.9394C54.1336 42.7987 54.1587 42.7993 54.2073 42.6351L53.8281 42.4198L53.6561 42.6652C53.413 42.5567 53.2748 42.3919 52.9902 42.2783L53.0121 42.8496L53.374 43.0775C53.2202 43.3802 53.3011 43.3107 53.6066 43.5004C53.7468 43.4502 53.7025 43.4667 53.8052 43.3615C54.1096 43.5614 54.4629 43.8076 54.8015 44.0049C55.3082 44.3003 55.6426 44.1092 55.6955 43.5569L55.279 43.4811C55.2686 43.4926 55.2387 43.5305 55.2271 43.5397C55.1447 43.6066 55.2541 43.6253 55.0628 43.5832L54.0623 42.9394H54.062Z" fill="#0C1118"/>
<path fill-rule="evenodd" clip-rule="evenodd" d="M36.5305 57.145L37.0145 57.0495L36.3139 54.0171L35.835 54.1107L36.5305 57.145Z" fill="#0C1118"/>
<path fill-rule="evenodd" clip-rule="evenodd" d="M46.7725 48.8798C46.923 49.0214 47.1014 49.2739 47.2552 49.4694C47.4222 49.6815 47.5612 49.8613 47.7335 50.0866L48.6795 51.2538C48.8368 51.1698 48.9356 51.0893 49.0485 50.9513L47.1414 48.5581C46.9665 48.6629 46.8949 48.6935 46.7725 48.8798Z" fill="#0C1118"/>
<path fill-rule="evenodd" clip-rule="evenodd" d="M9.82011 47.5945C9.89732 47.5048 9.91172 47.5422 9.97562 47.3889C9.83466 47.2238 9.84611 47.1727 9.61988 47.0942L8.05176 48.6082L8.38367 48.9468C8.98096 48.5539 9.50955 47.66 9.89284 48.0101C9.9897 48.0986 9.97856 48.2416 10.0052 48.1723C10.0083 48.1641 10.0177 48.1952 10.0279 48.2085L10.4652 47.9962C10.4008 47.6077 10.2322 47.5665 9.81995 47.5945H9.82011Z" fill="#0C1118"/>
<path fill-rule="evenodd" clip-rule="evenodd" d="M18.7402 52.4618L18.3029 52.2749L17.0498 55.1006L17.4956 55.2832L18.7402 52.4618Z" fill="#0C1118"/>
<path fill-rule="evenodd" clip-rule="evenodd" d="M46.1558 53.0821C46.0808 52.8618 45.7767 52.4544 45.6251 52.1955C45.111 51.3172 45.6565 51.4436 45.693 51.3474C45.6998 51.3291 45.7219 51.3376 45.7359 51.33L45.6243 50.8647C45.1754 50.8849 45.1428 51.0034 45.1011 51.428C44.9367 51.2202 45.0835 51.315 44.8973 51.2372L44.5781 51.4312C44.6806 51.6945 45.5929 53.1072 45.7865 53.3373L46.1557 53.082L46.1558 53.0821Z" fill="#0C1118"/>
<path fill-rule="evenodd" clip-rule="evenodd" d="M29.1847 56.2048C29.2406 55.9597 29.4226 55.7324 29.2098 55.6348C28.904 55.4944 28.719 55.6869 28.6223 55.8983L28.5314 55.6243L28.1437 55.6127L28.0703 57.8641L28.5579 57.874C28.5715 57.4917 28.5731 57.0833 28.6074 56.7014C28.6464 56.268 28.699 56.0141 29.1849 56.2048H29.1847Z" fill="#0C1118"/>
<path fill-rule="evenodd" clip-rule="evenodd" d="M31.5143 55.6322C31.4281 55.949 31.6203 57.4142 31.6386 57.8744L32.1313 57.8459L31.9618 55.605L31.5143 55.6322Z" fill="#0C1118"/>
<path fill-rule="evenodd" clip-rule="evenodd" d="M51.6406 45.4729C51.7576 45.6134 53.2075 46.7583 53.411 46.8449C53.4941 46.7211 53.6002 46.6134 53.6658 46.4418C53.3216 46.2527 52.2291 45.2688 51.9029 45.103C51.8115 45.1934 51.6988 45.3345 51.6408 45.4729H51.6406Z" fill="#0C1118"/>
<path fill-rule="evenodd" clip-rule="evenodd" d="M22.6236 55.2801C22.7044 54.9959 22.7315 55.0141 22.7092 54.7339L22.2908 54.6431L21.6992 56.7989L22.1766 56.9151L22.6236 55.2801Z" fill="#0C1118"/>
<path fill-rule="evenodd" clip-rule="evenodd" d="M30.0091 55.6665L29.5437 55.6814L29.4756 57.9073L29.9644 57.9237L30.0091 55.6665Z" fill="#0C1118"/>
<path fill-rule="evenodd" clip-rule="evenodd" d="M22.9863 53.937L22.5232 53.8145L22.3867 54.3466L22.8554 54.4455L22.9863 53.937Z" fill="#0C1118"/>
<path fill-rule="evenodd" clip-rule="evenodd" d="M31.4496 55.3262L31.9263 55.3009L31.8715 54.7593L31.4092 54.7775L31.4496 55.3262Z" fill="#0C1118"/>
<path fill-rule="evenodd" clip-rule="evenodd" d="M51.362 45.2532C51.4945 45.1369 51.5865 45.0528 51.663 44.8437C51.4906 44.7595 51.4227 44.6797 51.2524 44.5825C51.1984 44.624 51.2138 44.6082 51.1588 44.6661L50.9668 44.9248L51.362 45.2532Z" fill="#0C1118"/>
<path fill-rule="evenodd" clip-rule="evenodd" d="M29.5625 55.3115L30.0139 55.3429L30.0574 54.8899L29.5757 54.856L29.5625 55.3115Z" fill="#0C1118"/>
<path fill-rule="evenodd" clip-rule="evenodd" d="M29.5627 55.3109C29.6403 55.3767 29.5586 55.344 29.6843 55.3779L30.0685 55.3775L30.0657 54.8342C29.8732 54.7752 29.6561 54.7313 29.5758 54.8554L30.0575 54.8893L30.014 55.3425L29.5625 55.3109H29.5627Z" fill="#0C1118"/>
</svg>
