<svg width="24" height="24" viewBox="0 0 24 24" fill="none" xmlns="http://www.w3.org/2000/svg">
<path opacity="0.4" d="M7.10942 5.95979L16.1294 2.94979C20.1794 1.59979 22.3794 3.80979 21.0394 7.85979L18.0294 16.8798C16.0094 22.9498 12.6894 22.9498 10.6694 16.8798L9.77941 14.1998L7.09941 13.3098C1.03941 11.2998 1.03941 7.98979 7.10942 5.95979Z" fill="white"/>
<path d="M12.1201 11.6301L15.9301 7.81006L12.1201 11.6301Z" fill="white"/>
<path d="M12.1196 12.38C11.9296 12.38 11.7396 12.31 11.5896 12.16C11.2996 11.87 11.2996 11.39 11.5896 11.1L15.3896 7.28C15.6796 6.99 16.1596 6.99 16.4496 7.28C16.7396 7.57 16.7396 8.05 16.4496 8.34L12.6496 12.16C12.4996 12.3 12.3096 12.38 12.1196 12.38Z" fill="white"/>
</svg>
