<svg width="60" height="60" viewBox="0 0 60 60" fill="none" xmlns="http://www.w3.org/2000/svg">
<g clip-path="url(#clip0_2277_4291)">
<path d="M33.911 31.6105C33.5693 31.325 33.212 31.0241 32.8489 30.7251C31.4897 29.6066 29.9811 28.7154 28.4665 27.8358C28.0432 27.5912 27.618 27.3523 27.2355 27.0417C26.4705 26.4165 26.1249 25.6068 26.1171 24.6262C26.1093 23.5466 26.0647 22.4671 26.088 21.3875C26.0938 21.0904 25.954 20.8846 25.686 20.7545C25.1676 20.5021 24.6142 20.4613 24.0511 20.4827C22.5366 20.5429 21.0765 20.8516 19.7328 21.5681C17.3795 22.8224 15.6825 24.6573 14.8689 27.2378C14.5019 28.4047 14.4359 29.6047 14.5214 30.8163C14.5835 31.7056 14.7485 32.5774 14.9582 33.4415C14.9932 33.5871 15.0417 33.6881 15.2242 33.6492C16.3776 33.4026 17.5349 33.1793 18.6455 32.7716C19.7328 32.3735 20.7056 31.7639 21.6687 31.1367C22.2862 30.7348 22.8706 30.2862 23.523 29.9387C24.9967 29.1523 26.4705 29.1387 27.9403 29.9445C29.5092 30.8047 31.0723 31.6726 32.6392 32.5366C32.7208 32.5813 32.8586 32.6143 32.8586 32.6959C32.8586 32.8027 32.7188 32.8415 32.6256 32.89C31.5577 33.4473 30.4898 34.0046 29.4199 34.5599C27.8491 35.3754 26.2841 36.1987 24.7055 36.9986C23.6978 37.5093 22.6201 37.8006 21.4901 37.6782C20.4571 37.5656 19.4998 37.1792 18.6358 36.5928C17.5892 35.8841 16.5524 35.1637 15.5116 34.4492C15.4437 34.4026 15.3815 34.3444 15.2767 34.389C15.4204 34.8104 15.6009 35.2142 15.8126 35.6006C16.7931 37.3909 17.9212 39.086 19.1193 40.7364C20.8163 43.0742 22.6842 45.2663 24.6919 47.34C26.4122 49.1167 28.2258 50.7924 30.1539 52.3399C30.6004 52.6991 31.0218 53.0836 31.3849 53.5282C31.4354 53.5903 31.4839 53.6563 31.5538 53.7457C31.1946 53.7107 30.8839 53.6292 30.5791 53.5321C28.8879 52.9884 27.2433 52.3205 25.6336 51.571C22.7774 50.239 20.061 48.672 17.5815 46.7168C15.4145 45.0081 13.4476 43.0858 11.77 40.8917C10.5797 39.3345 9.73122 37.5773 9.00697 35.7637C8.4167 34.288 7.92545 32.7832 7.69051 31.2066C6.98762 26.4883 8.15846 22.3195 11.4166 18.7973C13.0593 17.0206 15.0437 15.7644 17.4125 15.1799C21.5871 14.1508 25.3443 14.9955 28.6724 17.7294C31.2897 19.8788 32.8373 22.6612 33.5635 25.9388C33.8217 27.1058 33.8974 28.2863 33.9052 29.4746C33.9091 30.1853 33.9052 30.894 33.9052 31.6066L33.911 31.6105Z" fill="#23A538"/>
<path d="M30.2334 17.5703C30.4469 17.314 30.6877 17.0907 30.9285 16.8712C32.4022 15.5334 34.0876 14.5568 35.9846 13.9548C37.5321 13.4636 39.1204 13.3083 40.7398 13.3956C42.1223 13.4714 43.4737 13.6869 44.7882 14.1276C46.825 14.8111 48.5997 15.9062 50.058 17.4945C51.1919 18.7294 52.0326 20.1488 52.6598 21.6983C53.2268 23.1002 53.5705 24.5584 53.7355 26.0612C53.8423 27.0224 53.8967 27.9835 53.8675 28.9505C53.784 31.7484 53.1511 34.4241 52.0385 36.9871C51.289 38.7152 50.3123 40.3093 49.0988 41.752C46.7551 44.5364 43.8601 46.4664 40.3185 47.3848C38.9806 47.7324 37.6215 47.911 36.2409 47.9596C34.7808 48.01 33.3439 47.8858 31.975 47.3576C29.313 46.3285 27.6645 44.3927 27.0238 41.6161C26.8529 40.8782 26.8218 40.119 27.0781 39.3793C27.3305 38.6511 27.8393 38.1327 28.4528 37.6997C29.478 36.9735 30.5363 36.292 31.5343 35.525C32.3304 34.9134 33.0935 34.2629 33.7808 33.527C33.8235 33.4824 33.8643 33.4028 33.9303 33.4299C34.0196 33.4649 33.9575 33.5523 33.9536 33.6144C33.8857 34.5775 33.841 35.5405 33.8158 36.5056C33.7925 37.3754 33.7206 38.2434 33.7614 39.1132C33.8119 40.1695 33.7963 41.2336 34.0196 42.2763C34.1458 42.8646 34.34 43.4238 34.7827 43.8665C35.1536 44.2354 35.6021 44.4179 36.1128 44.4412C36.9691 44.4801 37.769 44.2451 38.5457 43.915C39.6505 43.4471 40.5728 42.719 41.433 41.8976C42.3126 41.0588 43.13 40.1637 43.7921 39.1404C44.5397 37.9871 45.0484 36.723 45.4814 35.426C46.0095 33.8455 46.3688 32.228 46.5668 30.5718C46.6794 29.632 46.7765 28.6903 46.7357 27.7427C46.6619 26.0166 46.361 24.339 45.5765 22.7798C44.7086 21.0498 43.3805 19.7663 41.7087 18.8226C40.3573 18.0596 38.8952 17.6091 37.3846 17.3004C36.1827 17.0557 34.9691 16.8848 33.742 16.8868C32.6061 16.8868 31.5246 17.1897 30.4586 17.5586C30.3906 17.5819 30.3246 17.6363 30.2314 17.5741L30.2334 17.5703Z" fill="#3FBFEF"/>
<path d="M29.8199 10.3162C29.7131 12.2734 29.5131 14.0908 29.3597 15.9121C29.3519 16.0131 29.383 16.1587 29.2762 16.2053C29.1733 16.2499 29.1053 16.1198 29.0277 16.0597C27.3034 14.6985 25.5753 13.3432 23.8589 11.9724C23.0356 11.3142 22.1716 10.7045 21.4337 9.94723C20.2338 8.71815 19.7231 7.2347 19.8648 5.52407C19.9561 4.41537 20.2318 3.33774 20.426 2.24651C20.5483 1.55915 20.6706 0.87374 20.793 0.186383C20.8046 0.118425 20.8046 0.023282 20.8745 0.00580682C20.9541 -0.0155517 20.9735 0.0873576 21.0124 0.137841C21.6162 0.937815 22.1386 1.79798 22.7987 2.55718C24.0026 3.93772 25.4608 4.99399 27.0413 5.89494C27.7209 6.28133 28.3073 6.78811 28.8335 7.35897C29.6179 8.20942 29.8509 9.28512 29.816 10.3181L29.8199 10.3162Z" fill="#23A538"/>
<path d="M34.4917 58.0834C34.2082 57.866 34.1888 57.598 34.284 57.3281C34.4005 56.9941 34.8451 56.6854 35.148 56.6971C35.4703 56.7087 35.6567 56.9087 35.814 57.1961C35.48 57.1009 35.1771 57.1048 34.8723 57.2058C34.7403 57.2504 34.7131 57.3203 34.7383 57.4466C34.8082 57.798 35.1053 57.9902 35.4432 57.897C35.649 57.8407 35.8528 57.7708 36.0839 57.7475C36.0024 57.9242 35.9247 58.0815 35.8528 58.2446C35.8257 58.3067 35.7791 58.3281 35.7208 58.3378C35.249 58.4116 34.7966 58.5572 34.3364 58.6756C34.2568 58.697 34.1752 58.7087 34.0937 58.7164C33.7888 58.7436 33.6568 58.664 33.5189 58.3863C33.4976 58.3436 33.4782 58.3009 33.4587 58.264C33.4354 58.2698 33.4257 58.2698 33.4238 58.2737C33.35 58.4116 33.3675 58.6096 33.1714 58.6698C32.8588 58.7669 32.5442 58.8329 32.2238 58.6951C32.1403 58.6582 32.0976 58.6057 32.1054 58.5048C32.117 58.3261 32.1559 58.1533 32.1908 57.9805C32.2005 57.9339 32.2141 57.8931 32.2724 57.8951C32.3229 57.897 32.3306 57.9339 32.3326 57.9747C32.3365 58.0931 32.4355 58.1087 32.517 58.132C32.7656 58.2019 33.0063 58.1533 33.2471 58.0815C33.3422 58.0524 33.3539 57.9941 33.3287 57.9067C33.251 57.6446 33.1636 57.3864 33.0005 57.1631C32.95 57.0951 32.9461 57.0485 33.0005 56.9825C33.0762 56.8893 33.1481 56.7922 33.2122 56.6893C33.2801 56.5825 33.3228 56.6175 33.3655 56.7048C33.4704 56.9242 33.5248 57.1572 33.5714 57.3941C33.5752 57.4135 33.583 57.431 33.5869 57.4485C33.783 58.2349 33.7558 58.0912 34.4878 58.0834H34.4917Z" fill="#23A538"/>
<path d="M44.9335 55.6797C45.0442 55.9554 45.0597 56.2331 45.0655 56.5107C45.0733 56.8719 45.0694 57.235 45.0713 57.5961C45.0713 57.6272 45.0675 57.6602 45.0752 57.6913C45.1121 57.8505 45.0811 58.0563 45.3141 58.0912C45.5898 58.132 45.7723 58.0078 45.8597 57.7592C45.8907 57.6699 45.815 57.4932 46.0131 57.5146C46.1801 57.534 46.081 57.6738 46.1043 57.7573C46.149 57.9262 46.2422 58.0466 46.415 58.0815C46.5936 58.1184 46.7548 58.0815 46.8655 57.9146C46.9257 57.8214 46.9567 57.7184 46.9664 57.6116C46.9761 57.5262 47.0169 57.5107 47.0907 57.5126C47.1781 57.5146 47.1878 57.5612 47.1897 57.6369C47.1975 58.0466 47.4499 58.2077 47.8188 58.0485C47.9217 58.0039 47.9781 57.9456 47.9082 57.8311C47.9043 57.8252 47.9023 57.8194 47.9004 57.8136C47.8344 57.7068 47.7664 57.6 47.7043 57.4893C47.6984 57.4777 47.7101 57.4524 47.7198 57.4369C47.8188 57.299 47.9198 57.1612 48.0382 56.9981C48.1994 57.2874 48.3742 57.5437 48.2518 57.8796C48.1761 58.0854 48.1606 58.3126 47.9878 58.4796C47.5975 58.8543 47.2538 58.7903 47.0402 58.2777C46.9393 58.5204 46.8189 58.732 46.5218 58.7165C46.2383 58.7029 46.0791 58.5242 45.9781 58.2699C45.815 58.6155 45.5781 58.7553 45.25 58.7106C44.9626 58.6718 44.7743 58.4718 44.7257 58.1204C44.6655 57.6796 44.718 57.233 44.6597 56.7903C44.6345 56.5962 44.6189 56.3981 44.5393 56.2156C44.5063 56.1399 44.5044 56.0894 44.5665 56.0311C44.6869 55.9204 44.8034 55.8059 44.9374 55.6777L44.9335 55.6797Z" fill="#23A538"/>
<path d="M36.7687 53.7807C36.5474 53.7011 36.4153 53.5205 36.2891 53.336C36.1396 53.1166 36.0056 52.8856 35.8503 52.6681C35.7707 52.5574 35.7901 52.5108 35.8988 52.4409C36.1687 52.2701 36.3862 52.0506 36.4483 51.7206C36.5085 51.3944 36.3513 51.1419 36.027 51.1225C35.526 51.0953 35.0231 51.1089 34.5222 51.105C34.4853 51.105 34.4406 51.1031 34.4406 51.1594C34.4387 51.206 34.4659 51.2235 34.5105 51.2254C34.6969 51.2351 34.761 51.3536 34.7649 51.5186C34.7804 52.1846 34.7843 52.8526 34.763 53.5186C34.7571 53.6661 34.7047 53.7787 34.5319 53.7904C34.4892 53.7923 34.4367 53.7943 34.4406 53.8603C34.4445 53.9283 34.4989 53.9147 34.5397 53.9147H35.3979C35.4387 53.9147 35.4969 53.9302 35.5066 53.8681C35.5183 53.7943 35.4581 53.7923 35.4076 53.7807C35.2833 53.7535 35.1998 53.6739 35.1959 53.5457C35.1901 53.1943 35.194 52.8409 35.194 52.4895C35.2076 52.4856 35.2212 52.4836 35.2328 52.4798C35.2717 52.5361 35.3105 52.5943 35.3493 52.6506C35.5746 53.004 35.8018 53.3555 36.027 53.7088C36.0949 53.8156 36.1746 53.905 36.3085 53.9127C36.4542 53.9185 36.5998 53.9147 36.7474 53.9147C36.7823 53.9147 36.8289 53.9224 36.8406 53.8719C36.8522 53.8176 36.8173 53.7982 36.7687 53.7807ZM35.2853 52.3011C35.2095 52.2584 35.1785 52.204 35.1785 52.1186C35.1824 51.8914 35.1843 51.6623 35.1785 51.4351C35.1765 51.3439 35.2134 51.2992 35.295 51.2643C35.5474 51.1555 35.7726 51.2351 35.9008 51.4837C35.9707 51.6215 35.9979 51.7691 36.0017 51.9244C35.9823 52.0934 35.9784 52.2739 35.8037 52.3691C35.6173 52.47 35.4503 52.3924 35.2853 52.3011Z" fill="#23A538"/>
<path d="M42.3397 57.3533C42.0698 57.1611 41.7688 57.2193 41.6038 57.5009C41.5378 57.6135 41.4756 57.7319 41.4135 57.8504C41.3048 58.062 41.198 58.128 40.9941 58.0912C40.7941 58.0543 40.7844 57.8814 40.7728 57.7378C40.7553 57.5048 40.7689 57.2679 40.7689 57.0329H40.7611C40.7611 56.8757 40.7669 56.7164 40.7592 56.5572C40.7475 56.299 40.7417 56.0369 40.6601 55.7883C40.6446 55.7437 40.6465 55.6388 40.5611 55.7126C40.4349 55.8271 40.3106 55.9495 40.2135 56.0873C40.1514 56.1767 40.2582 56.2737 40.2776 56.3689C40.3766 56.8388 40.3883 57.3125 40.3844 57.7883C40.3844 57.9747 40.3961 58.1572 40.464 58.3319C40.5941 58.6678 41.0485 58.8698 41.2601 58.6445C41.4737 58.4174 41.5824 58.5086 41.7766 58.6387C42.13 58.8795 42.2698 58.8309 42.4873 58.464C42.5319 58.3863 42.5708 58.3067 42.6018 58.2232C42.7106 57.9378 42.5863 57.5281 42.3397 57.3533ZM42.3222 58.2698C42.3086 58.3377 42.2679 58.33 42.2232 58.3203C42.0213 58.2737 41.8543 58.1611 41.7067 58.0213C41.6465 57.9649 41.6951 57.9183 41.7203 57.8698C41.763 57.7883 41.8135 57.7164 41.9125 57.7319C42.1416 57.7378 42.3669 58.0465 42.3222 58.2698Z" fill="#23A538"/>
<path d="M45.11 52.0856C45.0828 51.5264 44.7605 51.1536 44.2033 51.1225C43.5819 51.0895 42.9586 51.1089 42.3373 51.107C42.2946 51.107 42.2383 51.0953 42.2383 51.1633C42.2383 51.2118 42.2752 51.2235 42.3179 51.2273C42.5179 51.2448 42.5587 51.3827 42.5587 51.5516C42.5567 51.8681 42.5587 52.1865 42.5587 52.503C42.5587 52.8195 42.5587 53.1632 42.5567 53.4933C42.5567 53.637 42.5218 53.7593 42.3509 53.7845C42.3024 53.7923 42.2325 53.7865 42.2402 53.8583C42.246 53.9438 42.3237 53.9185 42.3742 53.9185C42.7043 53.9205 43.0344 53.9205 43.3645 53.9205C44.4518 53.9166 45.1625 53.169 45.11 52.0856ZM44.4071 53.4059C44.0538 53.8758 43.4052 53.804 43.0441 53.5943C42.9625 53.5477 42.9781 53.4777 42.9781 53.4117C42.9761 53.0952 42.9781 52.7768 42.9781 52.4603C42.9781 52.1438 42.9819 51.839 42.9761 51.5283C42.9722 51.4196 43.0072 51.3555 43.1082 51.3069C43.8149 50.9769 44.5508 51.371 44.6615 52.1399C44.7295 52.5943 44.6926 53.0234 44.4071 53.4059Z" fill="#3FBFEF"/>
<path d="M47.1029 51.0411C46.2369 51.0314 45.4971 51.7498 45.4893 52.6061C45.4816 53.4061 46.0194 53.9692 46.798 53.975C47.6757 53.9847 48.4193 53.276 48.4291 52.4236C48.4388 51.6314 47.8796 51.0489 47.1029 51.0411ZM48.0213 53.0139C47.8601 53.7012 47.1689 53.9964 46.567 53.6216C46.0835 53.3207 45.8854 52.8585 45.8699 52.4566C45.8699 51.4256 46.5922 51.0003 47.3611 51.4275C47.6601 51.5945 47.8407 51.8566 47.9495 52.1712C48.0427 52.445 48.0893 52.7265 48.0213 53.0139Z" fill="#3FBFEF"/>
<path d="M39.4583 57.2505C39.8894 57.701 40.0331 58.6155 39.771 59.1359C39.7438 59.1902 39.6991 59.2271 39.6525 59.2582C39.1224 59.6096 38.5457 59.7922 37.905 59.6873C37.406 59.6038 37.1613 59.2194 37.2759 58.7223C37.3497 58.4019 37.5011 58.1184 37.6836 57.8485C37.7205 57.7942 37.7613 57.7417 37.837 57.7883C37.9225 57.8408 37.8662 57.8951 37.837 57.9476C37.7341 58.132 37.6448 58.3184 37.639 58.5359C37.6332 58.7922 37.7458 58.9747 37.9904 59.0349C38.5419 59.1669 39.0584 59.0563 39.5457 58.7805C39.6311 58.732 39.6312 58.6718 39.602 58.5883C39.5263 58.3728 39.4389 58.1611 39.2952 57.9806C39.2467 57.9204 39.2292 57.8699 39.2622 57.7922C39.3321 57.6233 39.3865 57.4466 39.4564 57.2544L39.4583 57.2505Z" fill="#23A538"/>
<path d="M29.746 57.8702C29.6703 57.6275 29.5383 57.4236 29.2859 57.3207C29.1577 57.2683 29.0567 57.2838 28.9558 57.379C28.6723 57.6469 28.5519 57.9828 28.5267 58.3634C28.5208 58.4702 28.5616 58.5284 28.649 58.5731C28.9247 58.7148 29.2082 58.7673 29.5208 58.676C29.2509 59.208 28.7694 59.4896 28.2451 59.7401C28.4529 59.876 28.6626 59.9284 28.8684 59.9828C29.0373 60.0274 29.1713 59.9964 29.2762 59.8371C29.3829 59.6779 29.5014 59.5303 29.5907 59.3614C29.8392 58.8838 29.9072 58.3867 29.746 57.8702ZM29.4295 58.1537C29.3965 58.2178 29.3169 58.1964 29.2296 58.2061C29.1732 58.1945 29.0898 58.1867 29.014 58.1576C28.9247 58.1207 28.7849 58.1129 28.8626 57.944C28.9383 57.779 29.0179 57.7401 29.1713 57.812C29.2548 57.8527 29.3208 57.911 29.3694 57.9867C29.4024 58.0372 29.4645 58.0916 29.4295 58.1537Z" fill="#23A538"/>
<path d="M22.8473 58.029C22.8007 57.8018 22.7114 57.5921 22.5328 57.4329C22.3017 57.229 22.1133 57.2407 21.9172 57.4756C21.7056 57.728 21.6085 58.0232 21.5852 58.3494C21.5774 58.4639 21.6202 58.5299 21.7134 58.5765C21.9871 58.7163 22.2726 58.7668 22.5891 58.6523C22.5658 58.7688 22.5095 58.8464 22.4531 58.9163C22.1522 59.2891 21.7561 59.5357 21.2959 59.7377C21.5522 59.8891 21.791 59.9629 22.0454 59.9959C22.1133 60.0037 22.1813 60.0114 22.2376 59.9474C22.7133 59.394 23.0026 58.7804 22.8473 58.029ZM22.4939 58.1494C22.4629 58.2115 22.3832 58.1979 22.2881 58.2057C22.2337 58.194 22.1425 58.1843 22.0609 58.1533C21.9755 58.1202 21.8473 58.1067 21.9192 57.9494C21.9794 57.8193 22.0493 57.728 22.2085 57.8018C22.3017 57.8445 22.3813 57.9086 22.4357 57.996C22.4648 58.0426 22.5192 58.097 22.4939 58.1494Z" fill="#23A538"/>
<path d="M41.1082 51.1072C41.3295 51.1072 41.5528 51.1072 41.7742 51.1072C41.846 51.1072 41.914 51.1189 41.9742 51.0393C42.0363 50.9577 42.0848 51.016 42.0848 51.0975C42.0868 51.3189 42.0848 51.5422 42.0848 51.7635C42.0848 51.8237 42.0576 51.8567 41.9955 51.8606C41.9256 51.8645 41.9178 51.8257 41.9062 51.7674C41.8149 51.3499 41.5004 51.1441 41.081 51.2199C41.015 51.2315 40.9955 51.2606 40.9936 51.3189C40.9858 51.5402 40.9625 51.7635 41.015 51.9829C41.081 52.2625 41.2518 52.4023 41.5392 52.412C41.5897 52.412 41.6402 52.412 41.6907 52.412C41.7431 52.412 41.7936 52.4121 41.7975 52.4878C41.8033 52.5654 41.7586 52.5868 41.6926 52.5887C41.5081 52.5926 41.3237 52.6004 41.1412 52.5965C41.0344 52.5946 40.9936 52.6295 40.9975 52.7383C41.0033 52.9674 40.9975 53.1946 40.9994 53.4237C41.0014 53.6004 41.048 53.7538 41.2577 53.7868C41.2965 53.7926 41.3334 53.8042 41.3334 53.8547C41.3334 53.9207 41.2829 53.9188 41.2402 53.9188C40.9412 53.9188 40.6441 53.9188 40.3451 53.9188C40.3062 53.9188 40.2635 53.913 40.2558 53.8664C40.2461 53.8062 40.2927 53.7906 40.3393 53.7887C40.5431 53.7751 40.582 53.6411 40.58 53.4703C40.58 52.8412 40.5781 52.2121 40.58 51.5849C40.58 51.3946 40.5509 51.2393 40.3179 51.2257C40.2732 51.2237 40.2441 51.2024 40.2538 51.1538C40.2635 51.1034 40.3082 51.1092 40.3451 51.1092C40.5994 51.1092 40.8538 51.1092 41.1062 51.1092L41.1082 51.1072Z" fill="#3FBFEF"/>
<path d="M26.2161 58.7708C25.6743 58.7786 25.519 58.5184 25.7617 58.0116C25.7792 57.9767 25.7967 57.9398 25.8433 57.9456C25.8899 57.9514 25.9015 57.9903 25.8996 58.031C25.8976 58.1242 25.9695 58.1456 26.0374 58.1611C26.2879 58.2174 26.5287 58.1805 26.7617 58.0776C26.8529 58.0369 26.8568 57.9844 26.8258 57.8951C26.7093 57.5612 26.4394 57.4175 26.1306 57.3359C25.9792 57.2971 25.9501 57.2311 25.987 57.099C25.9986 57.0563 26.0064 57.0117 26.0122 56.9689C26.0743 56.5592 26.0763 56.5573 26.4432 56.7651C26.7675 56.9476 27.0374 57.1806 27.1287 57.5631C27.2063 57.8854 27.0995 58.1922 27.016 58.4951C26.985 58.6097 26.8413 58.6349 26.7384 58.6757C26.5714 58.7417 26.3966 58.7689 26.218 58.7708H26.2161Z" fill="#23A538"/>
<path d="M38.4601 51.105C38.6057 51.105 38.7513 51.105 38.897 51.105C38.9397 51.105 38.9921 51.0952 38.9902 51.1651C38.9902 51.2176 38.9513 51.2215 38.9105 51.2253C38.6989 51.2389 38.662 51.3807 38.662 51.5574C38.664 52.1787 38.664 52.8 38.662 53.4233C38.662 53.6078 38.7125 53.7476 38.9144 53.7884C38.9533 53.7961 38.9921 53.8097 38.9882 53.8583C38.9824 53.9223 38.93 53.9146 38.8872 53.9146C38.596 53.9146 38.3028 53.9146 38.0115 53.9146C37.9669 53.9146 37.9164 53.9185 37.9164 53.8524C37.9164 53.802 37.9611 53.7942 37.998 53.7922C38.2018 53.7806 38.2446 53.6388 38.2446 53.4738C38.2465 52.833 38.2446 52.1923 38.2446 51.5515C38.2446 51.3748 38.1941 51.235 37.9844 51.2253C37.9378 51.2234 37.9125 51.202 37.9164 51.1554C37.9203 51.1011 37.9649 51.105 38.0018 51.105C38.1533 51.105 38.3067 51.105 38.4581 51.105H38.4601Z" fill="#23A538"/>
<path d="M32.6347 53.9146C32.4891 53.9146 32.3415 53.9146 32.1959 53.9146C32.159 53.9146 32.1163 53.9146 32.1104 53.8641C32.1046 53.8137 32.1415 53.7962 32.1803 53.7942C32.4056 53.7787 32.4347 53.6234 32.4347 53.4447C32.4347 52.8215 32.4347 52.2001 32.4347 51.5768C32.4347 51.4001 32.4075 51.239 32.1803 51.2273C32.1357 51.2254 32.1065 51.2099 32.1085 51.1613C32.1085 51.105 32.1512 51.1069 32.19 51.1069C32.4949 51.1069 32.7997 51.1069 33.1046 51.1069C33.1473 51.1069 33.1803 51.1167 33.1764 51.1691C33.1764 51.2079 33.157 51.2254 33.1182 51.2273C32.8386 51.2409 32.8463 51.4506 32.8444 51.6409C32.8386 52.1419 32.8424 52.6448 32.8444 53.1457C32.8444 53.2603 32.8444 53.3748 32.8541 53.4874C32.8657 53.6389 32.924 53.7573 33.0929 53.7865C33.1376 53.7942 33.1842 53.802 33.1764 53.8661C33.1687 53.934 33.1123 53.9166 33.0735 53.9166C32.9279 53.9185 32.7823 53.9166 32.6347 53.9166V53.9146Z" fill="#23A538"/>
<path d="M22.7734 59.6794C23.1055 59.5046 23.4239 59.3454 23.6763 59.093C24.0569 58.7124 24.1015 58.7163 23.6938 58.3047C23.5987 58.2095 23.5637 58.1474 23.6453 58.0251C23.7346 57.8892 23.8006 57.7358 23.8918 57.5591C24.1617 57.9901 24.4239 58.3804 24.2336 58.9066C24.1015 59.2697 23.9229 59.5959 23.6763 59.891C23.6142 59.9648 23.5579 59.9862 23.4647 59.959C23.2297 59.893 22.989 59.8425 22.7734 59.6775V59.6794Z" fill="#23A538"/>
<path d="M42.751 59.6814C43.1218 59.4892 43.4636 59.3144 43.7257 59.0329C44.0208 58.7164 44.0907 58.7203 43.7199 58.3514C43.584 58.2154 43.5471 58.1222 43.6597 57.963C43.7432 57.8465 43.7975 57.7106 43.8733 57.5728C44.0946 57.8465 44.2325 58.1455 44.2927 58.4698C44.3257 58.6504 44.2441 58.831 44.1839 59.0038C44.0694 59.3377 43.883 59.629 43.6558 59.8989C43.6014 59.9649 43.5509 59.9882 43.4616 59.963C43.2247 59.8989 42.9879 59.8406 42.751 59.6814Z" fill="#23A538"/>
<path d="M31.6684 55.6582C31.7733 56.2562 31.7383 56.8193 31.717 57.3805C31.7053 57.6834 31.6626 57.9863 31.6529 58.2911C31.6451 58.5435 31.4976 58.7008 31.3209 58.8911C31.35 58.2678 31.3364 57.6814 31.2762 57.097C31.2451 56.8077 31.2218 56.5164 31.1364 56.2368C31.115 56.1689 31.117 56.1184 31.1772 56.0698C31.3345 55.9417 31.4878 55.8116 31.6704 55.6582H31.6684Z" fill="#23A538"/>
<path d="M24.8938 58.9086C24.9132 57.965 24.9035 57.0796 24.6918 56.2077C24.6802 56.1592 24.6783 56.1262 24.719 56.0912C24.8841 55.9553 25.0452 55.8175 25.2277 55.6641C25.3287 56.1534 25.3171 56.6194 25.2918 57.0854C25.2685 57.5223 25.2336 57.9591 25.2044 58.3941C25.1909 58.6038 25.018 58.7125 24.8918 58.9086H24.8938Z" fill="#23A538"/>
<path d="M40.0872 53.8332C40.0911 54.0118 39.9571 54.1555 39.7862 54.1555C39.6192 54.1555 39.4697 54.006 39.4697 53.8409C39.4697 53.6759 39.6192 53.5303 39.7882 53.5303C39.9532 53.5303 40.0814 53.6623 40.0852 53.8332H40.0872Z" fill="#23A538"/>
<path d="M37.4288 53.5303C37.6016 53.5342 37.7278 53.676 37.722 53.8546C37.7162 54.0235 37.5841 54.1536 37.4191 54.1536C37.254 54.1536 37.1045 54.0002 37.1065 53.8371C37.1065 53.6721 37.2618 53.5265 37.4268 53.5303H37.4288Z" fill="#23A538"/>
<path d="M34.3189 53.8448C34.3131 54.0099 34.1577 54.1613 33.9985 54.1536C33.8315 54.1458 33.6898 53.9924 33.6976 53.8274C33.7053 53.6662 33.8471 53.5303 34.0082 53.5303C34.1791 53.5303 34.3267 53.6798 34.3209 53.8448H34.3189Z" fill="#23A538"/>
<path d="M38.5712 57.2061C38.5401 57.2042 38.2217 56.8954 38.2236 56.8683C38.2256 56.8352 38.5557 56.5518 38.5887 56.5518C38.6236 56.5518 38.9479 56.8469 38.9479 56.878C38.9479 56.909 38.6023 57.208 38.5693 57.2061H38.5712Z" fill="#23A538"/>
<path d="M33.4062 55.9748C33.3926 56.0408 33.3344 56.0641 33.2936 56.101C33.0334 56.334 33.0373 56.3263 32.7849 56.1049C32.6684 56.004 32.6664 55.9515 32.7888 55.8544C33.0606 55.635 33.148 55.6409 33.3693 55.9341C33.381 55.9496 33.3926 55.9632 33.4043 55.9768L33.4062 55.9748Z" fill="#23A538"/>
<path d="M35.078 55.6993C35.109 55.6954 35.4352 55.9847 35.4391 56.0196C35.443 56.0468 35.1284 56.3458 35.0896 56.3517C35.0547 56.3575 34.7207 56.0604 34.7188 56.0216C34.7188 55.9963 35.0469 55.7012 35.078 55.6993Z" fill="#23A538"/>
<path d="M44.1629 56.8972C44.1221 56.9283 44.0852 56.9535 44.0522 56.9827C43.8464 57.1678 43.649 57.1581 43.46 56.9535C43.4425 56.9341 43.4075 56.9069 43.4114 56.8992C43.4755 56.7652 43.6134 56.7031 43.7105 56.6001C43.7648 56.5419 43.8075 56.5691 43.8541 56.6137C43.9493 56.705 44.0483 56.7943 44.1629 56.8992V56.8972Z" fill="#23A538"/>
</g>
<defs>
<clipPath id="clip0_2277_4291">
<rect width="60" height="60" fill="white"/>
</clipPath>
</defs>
</svg>
