<svg width="408" height="100" viewBox="0 0 408 100" fill="none" xmlns="http://www.w3.org/2000/svg">
<path d="M0 8C0 9 0 10 0 11C2.11667 10.975 4.23333 10.95 6.35 10.925C44.45 10.475 82.55 10.025 120.65 9.575C122.767 9.55 124.883 9.525 127 9.5C124.883 9.475 122.767 9.45 120.65 9.425C82.55 8.975 44.45 8.525 6.35 8.075C4.23333 8.05 2.11667 8.025 0 8Z" fill="#ED1B24"/>
<path d="M142.512 16.252C140.628 16.252 139.062 15.622 137.814 14.362C136.578 13.114 135.96 11.56 135.96 9.7C135.96 7.828 136.578 6.274 137.814 5.038C139.062 3.778 140.628 3.148 142.512 3.148C143.652 3.148 144.702 3.418 145.662 3.958C146.634 4.486 147.39 5.206 147.93 6.118L145.788 7.36C145.476 6.796 145.032 6.358 144.456 6.046C143.88 5.722 143.232 5.56 142.512 5.56C141.288 5.56 140.298 5.944 139.542 6.712C138.798 7.492 138.426 8.488 138.426 9.7C138.426 10.9 138.798 11.89 139.542 12.67C140.298 13.438 141.288 13.822 142.512 13.822C143.232 13.822 143.88 13.666 144.456 13.354C145.044 13.03 145.488 12.592 145.788 12.04L147.93 13.282C147.39 14.194 146.634 14.92 145.662 15.46C144.702 15.988 143.652 16.252 142.512 16.252ZM157.069 14.884C156.157 15.796 155.029 16.252 153.685 16.252C152.341 16.252 151.213 15.796 150.301 14.884C149.389 13.972 148.933 12.844 148.933 11.5C148.933 10.168 149.389 9.046 150.301 8.134C151.225 7.21 152.353 6.748 153.685 6.748C155.017 6.748 156.145 7.21 157.069 8.134C157.993 9.058 158.455 10.18 158.455 11.5C158.455 12.832 157.993 13.96 157.069 14.884ZM151.939 13.282C152.407 13.75 152.989 13.984 153.685 13.984C154.381 13.984 154.963 13.75 155.431 13.282C155.899 12.814 156.133 12.22 156.133 11.5C156.133 10.78 155.899 10.186 155.431 9.718C154.963 9.25 154.381 9.016 153.685 9.016C152.989 9.016 152.407 9.25 151.939 9.718C151.483 10.198 151.255 10.792 151.255 11.5C151.255 12.208 151.483 12.802 151.939 13.282ZM165.326 6.748C166.538 6.748 167.57 7.21 168.422 8.134C169.286 9.058 169.718 10.18 169.718 11.5C169.718 12.844 169.286 13.972 168.422 14.884C167.582 15.796 166.55 16.252 165.326 16.252C164.066 16.252 163.094 15.814 162.41 14.938V19.6H160.088V7H162.41V8.062C163.094 7.186 164.066 6.748 165.326 6.748ZM163.112 13.336C163.58 13.804 164.174 14.038 164.894 14.038C165.614 14.038 166.208 13.804 166.676 13.336C167.156 12.856 167.396 12.244 167.396 11.5C167.396 10.756 167.156 10.15 166.676 9.682C166.208 9.202 165.614 8.962 164.894 8.962C164.174 8.962 163.58 9.202 163.112 9.682C162.644 10.15 162.41 10.756 162.41 11.5C162.41 12.244 162.644 12.856 163.112 13.336ZM178.196 8.062V7H180.518V16H178.196V14.938C177.5 15.814 176.522 16.252 175.262 16.252C174.062 16.252 173.03 15.796 172.166 14.884C171.314 13.96 170.888 12.832 170.888 11.5C170.888 10.18 171.314 9.058 172.166 8.134C173.03 7.21 174.062 6.748 175.262 6.748C176.522 6.748 177.5 7.186 178.196 8.062ZM173.912 13.336C174.38 13.804 174.974 14.038 175.694 14.038C176.414 14.038 177.008 13.804 177.476 13.336C177.956 12.856 178.196 12.244 178.196 11.5C178.196 10.756 177.956 10.15 177.476 9.682C177.008 9.202 176.414 8.962 175.694 8.962C174.974 8.962 174.38 9.202 173.912 9.682C173.444 10.15 173.21 10.756 173.21 11.5C173.21 12.244 173.444 12.856 173.912 13.336Z" fill="url(#paint0_linear_2273_4279)"/>
<path d="M191.534 16.252C190.298 16.252 189.254 15.976 188.402 15.424C187.55 14.872 186.944 14.11 186.584 13.138L188.708 11.896C189.2 13.18 190.166 13.822 191.606 13.822C192.278 13.822 192.782 13.702 193.118 13.462C193.454 13.222 193.622 12.898 193.622 12.49C193.622 12.046 193.424 11.704 193.028 11.464C192.632 11.212 191.924 10.942 190.904 10.654C189.8 10.318 188.93 9.928 188.294 9.484C187.502 8.896 187.106 8.032 187.106 6.892C187.106 5.74 187.508 4.834 188.312 4.174C189.116 3.49 190.094 3.148 191.246 3.148C192.254 3.148 193.148 3.394 193.928 3.886C194.708 4.378 195.314 5.074 195.746 5.974L193.658 7.18C193.154 6.1 192.35 5.56 191.246 5.56C190.742 5.56 190.34 5.68 190.04 5.92C189.74 6.148 189.59 6.448 189.59 6.82C189.59 7.216 189.752 7.54 190.076 7.792C190.436 8.044 191.072 8.308 191.984 8.584L192.848 8.872C193.004 8.92 193.274 9.022 193.658 9.178C194.018 9.31 194.282 9.436 194.45 9.556C195.038 9.916 195.434 10.288 195.638 10.672C195.95 11.176 196.106 11.77 196.106 12.454C196.106 13.618 195.68 14.542 194.828 15.226C193.976 15.91 192.878 16.252 191.534 16.252ZM202.502 7V9.232H200.468V12.976C200.468 13.288 200.546 13.516 200.702 13.66C200.858 13.804 201.086 13.888 201.386 13.912C201.686 13.924 202.058 13.918 202.502 13.894V16C200.93 16.18 199.808 16.036 199.136 15.568C198.476 15.088 198.146 14.224 198.146 12.976V9.232H196.58V7H198.146V5.182L200.468 4.48V7H202.502ZM210.698 8.062V7H213.02V16H210.698V14.938C210.002 15.814 209.024 16.252 207.764 16.252C206.564 16.252 205.532 15.796 204.668 14.884C203.816 13.96 203.39 12.832 203.39 11.5C203.39 10.18 203.816 9.058 204.668 8.134C205.532 7.21 206.564 6.748 207.764 6.748C209.024 6.748 210.002 7.186 210.698 8.062ZM206.414 13.336C206.882 13.804 207.476 14.038 208.196 14.038C208.916 14.038 209.51 13.804 209.978 13.336C210.458 12.856 210.698 12.244 210.698 11.5C210.698 10.756 210.458 10.15 209.978 9.682C209.51 9.202 208.916 8.962 208.196 8.962C207.476 8.962 206.882 9.202 206.414 9.682C205.946 10.15 205.712 10.756 205.712 11.5C205.712 12.244 205.946 12.856 206.414 13.336ZM220.129 6.748C221.125 6.748 221.935 7.078 222.559 7.738C223.207 8.41 223.531 9.322 223.531 10.474V16H221.209V10.762C221.209 10.174 221.047 9.718 220.723 9.394C220.411 9.07 219.979 8.908 219.427 8.908C218.815 8.908 218.329 9.1 217.969 9.484C217.621 9.856 217.447 10.408 217.447 11.14V16H215.125V7H217.447V8.008C217.999 7.168 218.893 6.748 220.129 6.748ZM232.336 8.062V3.4H234.658V16H232.336V14.938C231.652 15.814 230.68 16.252 229.42 16.252C228.208 16.252 227.17 15.796 226.306 14.884C225.454 13.96 225.028 12.832 225.028 11.5C225.028 10.18 225.454 9.058 226.306 8.134C227.17 7.21 228.208 6.748 229.42 6.748C230.68 6.748 231.652 7.186 232.336 8.062ZM228.052 13.336C228.544 13.804 229.144 14.038 229.852 14.038C230.572 14.038 231.166 13.804 231.634 13.336C232.102 12.856 232.336 12.244 232.336 11.5C232.336 10.756 232.102 10.15 231.634 9.682C231.166 9.202 230.572 8.962 229.852 8.962C229.132 8.962 228.532 9.202 228.052 9.682C227.584 10.15 227.35 10.756 227.35 11.5C227.35 12.244 227.584 12.856 228.052 13.336ZM243.622 8.062V7H245.944V16H243.622V14.938C242.926 15.814 241.948 16.252 240.688 16.252C239.488 16.252 238.456 15.796 237.592 14.884C236.74 13.96 236.314 12.832 236.314 11.5C236.314 10.18 236.74 9.058 237.592 8.134C238.456 7.21 239.488 6.748 240.688 6.748C241.948 6.748 242.926 7.186 243.622 8.062ZM239.338 13.336C239.806 13.804 240.4 14.038 241.12 14.038C241.84 14.038 242.434 13.804 242.902 13.336C243.382 12.856 243.622 12.244 243.622 11.5C243.622 10.756 243.382 10.15 242.902 9.682C242.434 9.202 241.84 8.962 241.12 8.962C240.4 8.962 239.806 9.202 239.338 9.682C238.87 10.15 238.636 10.756 238.636 11.5C238.636 12.244 238.87 12.856 239.338 13.336ZM250.371 7V8.548C250.575 7.984 250.923 7.558 251.415 7.27C251.907 6.97 252.471 6.82 253.107 6.82V9.412C252.399 9.316 251.763 9.46 251.199 9.844C250.647 10.216 250.371 10.834 250.371 11.698V16H248.049V7H250.371ZM260.953 8.062V3.4H263.275V16H260.953V14.938C260.269 15.814 259.297 16.252 258.037 16.252C256.825 16.252 255.787 15.796 254.923 14.884C254.071 13.96 253.645 12.832 253.645 11.5C253.645 10.18 254.071 9.058 254.923 8.134C255.787 7.21 256.825 6.748 258.037 6.748C259.297 6.748 260.269 7.186 260.953 8.062ZM256.669 13.336C257.161 13.804 257.761 14.038 258.469 14.038C259.189 14.038 259.783 13.804 260.251 13.336C260.719 12.856 260.953 12.244 260.953 11.5C260.953 10.756 260.719 10.15 260.251 9.682C259.783 9.202 259.189 8.962 258.469 8.962C257.749 8.962 257.149 9.202 256.669 9.682C256.201 10.15 255.967 10.756 255.967 11.5C255.967 12.244 256.201 12.856 256.669 13.336ZM267.471 9.556C267.471 9.94 268.017 10.27 269.109 10.546C269.493 10.63 269.841 10.732 270.153 10.852C270.465 10.96 270.777 11.122 271.089 11.338C271.413 11.542 271.665 11.818 271.845 12.166C272.025 12.514 272.115 12.916 272.115 13.372C272.115 14.296 271.767 15.01 271.071 15.514C270.375 16.006 269.517 16.252 268.497 16.252C266.649 16.252 265.389 15.538 264.717 14.11L266.733 12.976C267.009 13.756 267.597 14.146 268.497 14.146C269.325 14.146 269.739 13.888 269.739 13.372C269.739 12.988 269.193 12.658 268.101 12.382C267.693 12.274 267.345 12.166 267.057 12.058C266.769 11.95 266.457 11.794 266.121 11.59C265.785 11.374 265.527 11.104 265.347 10.78C265.179 10.444 265.095 10.054 265.095 9.61C265.095 8.722 265.419 8.026 266.067 7.522C266.727 7.006 267.543 6.748 268.515 6.748C269.247 6.748 269.913 6.916 270.513 7.252C271.113 7.576 271.587 8.044 271.935 8.656L269.955 9.736C269.667 9.124 269.187 8.818 268.515 8.818C268.215 8.818 267.963 8.89 267.759 9.034C267.567 9.166 267.471 9.34 267.471 9.556Z" fill="#0C1118" fill-opacity="0.8"/>
<path d="M281 9.5C283.117 9.525 285.233 9.55 287.35 9.575C325.45 10.025 363.55 10.475 401.65 10.925C403.767 10.95 405.883 10.975 408 11C408 10 408 9 408 8C405.883 8.025 403.767 8.05 401.65 8.075C363.55 8.525 325.45 8.975 287.35 9.425C285.233 9.45 283.117 9.475 281 9.5Z" fill="#ED1B24"/>
<path d="M14.7326 73C12.0446 73 9.78863 72.424 7.96463 71.272C6.14063 70.088 4.78063 68.52 3.88463 66.568C2.98863 64.616 2.54063 62.456 2.54063 60.088V37.384H13.1006V59.8C13.1006 60.216 13.1806 60.52 13.3406 60.712C13.5326 60.904 13.8366 61 14.2526 61H17.1326L17.6126 66.712L17.1326 73H14.7326ZM16.635 61H22.203C23.259 61 23.995 60.824 24.411 60.472C24.827 60.12 24.971 59.576 24.843 58.84C24.619 57.368 24.299 55.496 23.883 53.224L33.867 50.68C34.987 55.448 35.547 58.936 35.547 61.144C35.547 63.128 35.115 65.032 34.251 66.856C33.419 68.648 32.139 70.12 30.411 71.272C28.683 72.424 26.587 73 24.123 73H16.635V61ZM14.523 76.696H22.443H22.539H30.459V84.712H22.539H22.443H17.163H14.523V76.696ZM18.651 87.208H26.331V94.12H18.651V87.208ZM49.2968 74.44C51.3768 74.44 52.7688 74.36 53.4728 74.2C54.2088 74.072 54.7048 73.672 54.9608 73H52.6568C48.7528 73 45.7288 71.88 43.5848 69.64C41.4408 67.4 40.3688 64.296 40.3688 60.328C40.3688 55.752 41.4248 52.232 43.5368 49.768C45.6808 47.272 48.7208 46.024 52.6568 46.024C56.5928 46.024 59.7128 47.288 62.0168 49.816C64.3528 52.344 65.6008 56.072 65.7608 61H68.5928L69.2648 67.24L68.5928 73H65.6168C65.3288 75.592 64.5288 77.896 63.2168 79.912C61.9368 81.928 60.1128 83.512 57.7448 84.664C55.4088 85.848 52.5928 86.44 49.2968 86.44H41.3288V74.44H49.2968ZM50.0168 59.272C50.0168 60.072 50.2408 60.664 50.6888 61.048C51.1368 61.4 51.7928 61.576 52.6568 61.576H55.2008V59.272C55.2008 58.408 54.9768 57.736 54.5288 57.256C54.1128 56.776 53.4888 56.536 52.6568 56.536C51.8248 56.536 51.1688 56.792 50.6888 57.304C50.2408 57.784 50.0168 58.44 50.0168 59.272ZM91.9129 43.912L81.8329 48.376L86.6329 53.272C87.7529 54.424 88.5849 55.72 89.1289 57.16C89.7049 58.6 89.9929 60.088 89.9929 61.624C89.9929 63.576 89.5449 65.432 88.6489 67.192C87.7529 68.92 86.4569 70.328 84.7609 71.416C83.0649 72.472 81.0649 73 78.7609 73H68.0569V61H78.4729L68.9209 51.208L70.6489 40.456L87.6889 32.968L91.9129 43.912Z" fill="url(#paint1_linear_2273_4279)"/>
<path d="M114.267 59.8C113.627 61.112 113.035 62.6 112.491 64.264C111.979 65.896 111.723 67.32 111.723 68.536C111.723 70.072 112.139 71.208 112.971 71.944C113.835 72.648 115.243 73 117.195 73H122.235C124.379 73 125.851 72.92 126.651 72.76C127.483 72.6 127.947 72.312 128.043 71.896L116.331 69.064C115.787 66.952 115.515 64.872 115.515 62.824C115.515 60.328 115.883 57.976 116.619 55.768C117.355 53.528 118.379 51.64 119.691 50.104C121.419 48.184 123.291 46.808 125.307 45.976C127.355 45.112 129.531 44.68 131.835 44.68C133.915 44.68 136.043 45.032 138.219 45.736L135.723 56.008C134.763 55.784 133.899 55.672 133.131 55.672C132.107 55.672 131.083 55.8 130.059 56.056C129.067 56.28 128.187 56.632 127.419 57.112C126.107 57.944 125.259 58.952 124.875 60.136L129.051 60.952C129.563 61.048 130.171 61.16 130.875 61.288C131.579 61.416 132.347 61.576 133.179 61.768C134.587 62.056 135.659 62.504 136.395 63.112C137.131 63.688 137.643 64.456 137.931 65.416C138.219 66.376 138.363 67.64 138.363 69.208C138.363 70.008 138.347 70.632 138.315 71.08C138.155 75.08 136.811 78.392 134.283 81.016C131.755 83.64 127.739 84.952 122.235 84.952H117.195C113.739 84.952 110.811 84.216 108.411 82.744C106.043 81.272 104.251 79.288 103.035 76.792C101.851 74.328 101.259 71.576 101.259 68.536C101.259 66.424 101.627 64.184 102.363 61.816C103.131 59.416 103.963 57.352 104.859 55.624L114.267 59.8ZM155.358 73C152.67 73 150.414 72.424 148.59 71.272C146.766 70.088 145.406 68.52 144.51 66.568C143.614 64.616 143.166 62.456 143.166 60.088V37.384H153.726V59.8C153.726 60.216 153.806 60.52 153.966 60.712C154.158 60.904 154.462 61 154.878 61H157.758L158.238 66.712L157.758 73H155.358ZM157.26 61H161.1C160.876 60.2 160.764 59.288 160.764 58.264C160.764 55.96 161.212 53.848 162.108 51.928C163.036 49.976 164.348 48.424 166.044 47.272C167.74 46.12 169.724 45.544 171.996 45.544C174.94 45.544 177.452 46.552 179.532 48.568L186.3 42.808L193.98 53.272C195.74 55.704 196.62 58.312 196.62 61.096C196.62 62.44 196.412 63.72 195.996 64.936C195.58 66.12 195.02 67.128 194.316 67.96C191.564 71.32 187.644 73 182.556 73C178.588 73 174.86 72.328 171.372 70.984C167.724 72.328 163.868 73 159.804 73H157.26V61ZM169.26 58.216C169.26 59.208 169.98 60.04 171.42 60.712C172.732 60.52 173.612 60.232 174.06 59.848C174.54 59.464 174.78 58.92 174.78 58.216C174.78 57.544 174.492 56.968 173.916 56.488C173.34 55.976 172.7 55.72 171.996 55.72C171.324 55.72 170.7 55.976 170.124 56.488C169.548 56.968 169.26 57.544 169.26 58.216ZM183.324 62.296C185.404 62.296 186.668 61.88 187.116 61.048C187.18 60.952 187.212 60.776 187.212 60.52C187.212 59.976 187.036 59.48 186.684 59.032L182.46 53.416C182.972 54.856 183.228 56.456 183.228 58.216C183.228 59.688 182.94 61.048 182.364 62.296H183.324ZM216.154 41.512C216.762 42.344 217.034 42.728 216.97 42.664C217.674 43.72 218.842 45.464 220.474 47.896C222.106 50.296 223.274 52.056 223.978 53.176C224.81 54.424 225.45 55.768 225.898 57.208C226.346 58.648 226.57 60.072 226.57 61.48C226.57 63.976 225.914 66.136 224.602 67.96C223.386 69.624 221.882 70.888 220.09 71.752C218.298 72.584 216.33 73 214.186 73H211.546C209.114 73 206.954 72.648 205.066 71.944C203.21 71.208 201.514 70.28 199.978 69.16L204.106 59.704C205.162 60.088 206.154 60.408 207.082 60.664C208.042 60.888 209.242 61 210.682 61H213.082C213.946 61 214.57 60.968 214.954 60.904C215.338 60.808 215.578 60.664 215.674 60.472C215.738 60.344 215.77 60.232 215.77 60.136C215.77 59.816 215.626 59.464 215.338 59.08C211.018 53.128 208.346 49.48 207.322 48.136L216.154 41.512ZM244.245 54.376V67.816C244.245 71.272 243.621 74.28 242.373 76.84C241.157 79.432 239.333 81.432 236.901 82.84C234.501 84.28 231.589 85 228.165 85H225.141V73H228.165C229.957 73 231.205 72.904 231.909 72.712C232.645 72.488 233.125 72.04 233.349 71.368C233.573 70.696 233.685 69.512 233.685 67.816V54.376H244.245ZM248.072 37.384H258.632V73H248.072V37.384ZM284.675 48.184L287.747 54.76L287.843 54.952C288.611 56.616 289.267 57.88 289.811 58.744C290.387 59.576 290.931 60.168 291.443 60.52C291.987 60.84 292.595 61 293.267 61H294.275L294.755 67.192L294.275 73H293.267C290.547 73 288.003 71.992 285.635 69.976C283.299 71.992 280.403 73 276.947 73H274.499C272.067 73 269.907 72.648 268.019 71.944C266.163 71.208 264.467 70.28 262.931 69.16L267.059 59.704C268.147 60.088 269.203 60.408 270.227 60.664C271.283 60.888 272.707 61 274.499 61H275.891C277.299 61 278.195 60.888 278.579 60.664C278.163 59.672 277.811 58.856 277.523 58.216L272.051 46.888L281.555 41.608L284.675 48.184ZM293.807 61H298.223C299.279 61 300.015 60.824 300.431 60.472C300.847 60.12 300.991 59.576 300.863 58.84C300.639 57.368 300.319 55.496 299.903 53.224L309.887 50.68C311.007 55.448 311.567 58.936 311.567 61.144C311.567 63.064 311.087 64.952 310.127 66.808C309.199 68.632 307.871 70.12 306.143 71.272C304.415 72.424 302.415 73 300.143 73H293.807V61ZM296.543 39.16H301.007C302.991 39.16 304.463 39.176 305.423 39.208V47.8H296.543V39.16ZM328.561 73C325.873 73 323.617 72.424 321.793 71.272C319.969 70.088 318.609 68.52 317.713 66.568C316.817 64.616 316.369 62.456 316.369 60.088V37.384H326.929V59.8C326.929 60.216 327.009 60.52 327.169 60.712C327.361 60.904 327.665 61 328.081 61H330.961L331.441 66.712L330.961 73H328.561ZM347.887 54.376V59.8C347.887 60.28 347.967 60.6 348.127 60.76C348.287 60.92 348.591 61 349.039 61H350.287L350.719 67.192L350.287 73H348.415C346.111 73 344.031 72.312 342.175 70.936C340.191 72.312 338.127 73 335.983 73H330.463V61H335.887C336.495 61 336.879 60.92 337.039 60.76C337.231 60.6 337.327 60.28 337.327 59.8V54.376H347.887ZM331.855 42.376H334.495H339.775H339.871H347.791V50.392H339.871H339.775H331.855V42.376ZM349.822 61H352.415C352.927 61 353.295 60.92 353.519 60.76C353.743 60.568 353.855 60.248 353.855 59.8V54.376H364.415V61C364.415 61.288 364.527 61.544 364.751 61.768C365.007 61.96 365.295 62.056 365.615 62.056C365.935 62.056 366.207 61.96 366.431 61.768C366.687 61.544 366.815 61.288 366.815 61V54.376H377.375V60.712C377.375 61.096 377.487 61.416 377.711 61.672C377.967 61.896 378.287 62.008 378.671 62.008C379.055 62.008 379.359 61.864 379.583 61.576C379.839 61.288 379.967 60.856 379.967 60.28C379.967 59.96 379.951 59.704 379.919 59.512L378.959 53.224L388.943 50.68C390.063 55.448 390.623 58.936 390.623 61.144C390.623 63.128 390.191 65.032 389.327 66.856C388.495 68.648 387.183 70.12 385.391 71.272C383.599 72.424 381.343 73 378.623 73C376.159 73 373.983 72.28 372.095 70.84C371.391 71.48 370.415 72.008 369.167 72.424C367.919 72.808 366.735 73 365.615 73C364.111 73 362.735 72.824 361.487 72.472C360.271 72.088 359.375 71.544 358.799 70.84C357.551 72.28 355.407 73 352.367 73H349.822V61ZM395.4 37.384H405.96V73H395.4V37.384Z" fill="#0C1118" fill-opacity="0.8"/>
<defs>
<linearGradient id="paint0_linear_2273_4279" x1="204.039" y1="0.178023" x2="204.039" y2="22.0408" gradientUnits="userSpaceOnUse">
<stop stop-color="#ED1B24" stop-opacity="0.6"/>
<stop offset="1" stop-color="#ED1B24"/>
</linearGradient>
<linearGradient id="paint1_linear_2273_4279" x1="204.115" y1="22.6312" x2="204.115" y2="100.145" gradientUnits="userSpaceOnUse">
<stop stop-color="#ED1B24" stop-opacity="0.6"/>
<stop offset="1" stop-color="#ED1B24"/>
</linearGradient>
</defs>
</svg>
