<svg width="318" height="100" viewBox="0 0 318 100" fill="none" xmlns="http://www.w3.org/2000/svg">
<path d="M0 8C0 9 0 10 0 11C1.63333 10.975 3.26667 10.95 4.9 10.925C34.3 10.475 63.7 10.025 93.1 9.575C94.7333 9.55 96.3667 9.525 98 9.5C96.3667 9.475 94.7333 9.45 93.1 9.425C63.7 8.975 34.3 8.525 4.9 8.075C3.26667 8.05 1.63333 8.025 0 8Z" fill="#ED1B24"/>
<path d="M113.218 16.252C111.334 16.252 109.768 15.622 108.52 14.362C107.284 13.114 106.666 11.56 106.666 9.7C106.666 7.828 107.284 6.274 108.52 5.038C109.768 3.778 111.334 3.148 113.218 3.148C114.358 3.148 115.408 3.418 116.368 3.958C117.34 4.486 118.096 5.206 118.636 6.118L116.494 7.36C116.182 6.796 115.738 6.358 115.162 6.046C114.586 5.722 113.938 5.56 113.218 5.56C111.994 5.56 111.004 5.944 110.248 6.712C109.504 7.492 109.132 8.488 109.132 9.7C109.132 10.9 109.504 11.89 110.248 12.67C111.004 13.438 111.994 13.822 113.218 13.822C113.938 13.822 114.586 13.666 115.162 13.354C115.75 13.03 116.194 12.592 116.494 12.04L118.636 13.282C118.096 14.194 117.34 14.92 116.368 15.46C115.408 15.988 114.358 16.252 113.218 16.252ZM127.775 14.884C126.863 15.796 125.735 16.252 124.391 16.252C123.047 16.252 121.919 15.796 121.007 14.884C120.095 13.972 119.639 12.844 119.639 11.5C119.639 10.168 120.095 9.046 121.007 8.134C121.931 7.21 123.059 6.748 124.391 6.748C125.723 6.748 126.851 7.21 127.775 8.134C128.699 9.058 129.161 10.18 129.161 11.5C129.161 12.832 128.699 13.96 127.775 14.884ZM122.645 13.282C123.113 13.75 123.695 13.984 124.391 13.984C125.087 13.984 125.669 13.75 126.137 13.282C126.605 12.814 126.839 12.22 126.839 11.5C126.839 10.78 126.605 10.186 126.137 9.718C125.669 9.25 125.087 9.016 124.391 9.016C123.695 9.016 123.113 9.25 122.645 9.718C122.189 10.198 121.961 10.792 121.961 11.5C121.961 12.208 122.189 12.802 122.645 13.282ZM136.032 6.748C137.244 6.748 138.276 7.21 139.128 8.134C139.992 9.058 140.424 10.18 140.424 11.5C140.424 12.844 139.992 13.972 139.128 14.884C138.288 15.796 137.256 16.252 136.032 16.252C134.772 16.252 133.8 15.814 133.116 14.938V19.6H130.794V7H133.116V8.062C133.8 7.186 134.772 6.748 136.032 6.748ZM133.818 13.336C134.286 13.804 134.88 14.038 135.6 14.038C136.32 14.038 136.914 13.804 137.382 13.336C137.862 12.856 138.102 12.244 138.102 11.5C138.102 10.756 137.862 10.15 137.382 9.682C136.914 9.202 136.32 8.962 135.6 8.962C134.88 8.962 134.286 9.202 133.818 9.682C133.35 10.15 133.116 10.756 133.116 11.5C133.116 12.244 133.35 12.856 133.818 13.336ZM148.902 8.062V7H151.224V16H148.902V14.938C148.206 15.814 147.228 16.252 145.968 16.252C144.768 16.252 143.736 15.796 142.872 14.884C142.02 13.96 141.594 12.832 141.594 11.5C141.594 10.18 142.02 9.058 142.872 8.134C143.736 7.21 144.768 6.748 145.968 6.748C147.228 6.748 148.206 7.186 148.902 8.062ZM144.618 13.336C145.086 13.804 145.68 14.038 146.4 14.038C147.12 14.038 147.714 13.804 148.182 13.336C148.662 12.856 148.902 12.244 148.902 11.5C148.902 10.756 148.662 10.15 148.182 9.682C147.714 9.202 147.12 8.962 146.4 8.962C145.68 8.962 145.086 9.202 144.618 9.682C144.15 10.15 143.916 10.756 143.916 11.5C143.916 12.244 144.15 12.856 144.618 13.336Z" fill="url(#paint0_linear_2268_4225)"/>
<path d="M164.13 16H161.052L156.822 3.4H159.522L162.6 13.084L165.66 3.4H168.378L164.13 16ZM175.252 8.062V7H177.574V16H175.252V14.938C174.556 15.814 173.578 16.252 172.318 16.252C171.118 16.252 170.086 15.796 169.222 14.884C168.37 13.96 167.944 12.832 167.944 11.5C167.944 10.18 168.37 9.058 169.222 8.134C170.086 7.21 171.118 6.748 172.318 6.748C173.578 6.748 174.556 7.186 175.252 8.062ZM170.968 13.336C171.436 13.804 172.03 14.038 172.75 14.038C173.47 14.038 174.064 13.804 174.532 13.336C175.012 12.856 175.252 12.244 175.252 11.5C175.252 10.756 175.012 10.15 174.532 9.682C174.064 9.202 173.47 8.962 172.75 8.962C172.03 8.962 171.436 9.202 170.968 9.682C170.5 10.15 170.266 10.756 170.266 11.5C170.266 12.244 170.5 12.856 170.968 13.336ZM182.001 16H179.679V2.86H182.001V16ZM190.066 11.86V7H192.388V16H190.066V14.992C189.514 15.832 188.62 16.252 187.384 16.252C186.4 16.252 185.584 15.922 184.936 15.262C184.3 14.59 183.982 13.678 183.982 12.526V7H186.304V12.238C186.304 12.826 186.46 13.282 186.772 13.606C187.096 13.93 187.534 14.092 188.086 14.092C188.698 14.092 189.178 13.906 189.526 13.534C189.886 13.15 190.066 12.592 190.066 11.86ZM203.263 12.454H196.477C196.777 13.582 197.623 14.146 199.015 14.146C199.903 14.146 200.575 13.846 201.031 13.246L202.903 14.326C202.015 15.61 200.707 16.252 198.979 16.252C197.491 16.252 196.297 15.802 195.397 14.902C194.497 14.002 194.047 12.868 194.047 11.5C194.047 10.156 194.491 9.028 195.379 8.116C196.255 7.204 197.395 6.748 198.799 6.748C200.131 6.748 201.217 7.204 202.057 8.116C202.921 9.028 203.353 10.156 203.353 11.5C203.353 11.752 203.323 12.07 203.263 12.454ZM196.441 10.654H201.031C200.899 10.066 200.629 9.616 200.221 9.304C199.825 8.992 199.351 8.836 198.799 8.836C198.175 8.836 197.659 8.998 197.251 9.322C196.843 9.634 196.573 10.078 196.441 10.654ZM206.765 9.556C206.765 9.94 207.311 10.27 208.403 10.546C208.787 10.63 209.135 10.732 209.447 10.852C209.759 10.96 210.071 11.122 210.383 11.338C210.707 11.542 210.959 11.818 211.139 12.166C211.319 12.514 211.409 12.916 211.409 13.372C211.409 14.296 211.061 15.01 210.365 15.514C209.669 16.006 208.811 16.252 207.791 16.252C205.943 16.252 204.683 15.538 204.011 14.11L206.027 12.976C206.303 13.756 206.891 14.146 207.791 14.146C208.619 14.146 209.033 13.888 209.033 13.372C209.033 12.988 208.487 12.658 207.395 12.382C206.987 12.274 206.639 12.166 206.351 12.058C206.063 11.95 205.751 11.794 205.415 11.59C205.079 11.374 204.821 11.104 204.641 10.78C204.473 10.444 204.389 10.054 204.389 9.61C204.389 8.722 204.713 8.026 205.361 7.522C206.021 7.006 206.837 6.748 207.809 6.748C208.541 6.748 209.207 6.916 209.807 7.252C210.407 7.576 210.881 8.044 211.229 8.656L209.249 9.736C208.961 9.124 208.481 8.818 207.809 8.818C207.509 8.818 207.257 8.89 207.053 9.034C206.861 9.166 206.765 9.34 206.765 9.556Z" fill="#0C1118" fill-opacity="0.8"/>
<path d="M220 9.5C221.633 9.525 223.267 9.55 224.9 9.575C254.3 10.025 283.7 10.475 313.1 10.925C314.733 10.95 316.367 10.975 318 11C318 10 318 9 318 8C316.367 8.025 314.733 8.05 313.1 8.075C283.7 8.525 254.3 8.975 224.9 9.425C223.267 9.45 221.633 9.475 220 9.5Z" fill="#ED1B24"/>
<path d="M14.9904 73C12.3024 73 10.0464 72.424 8.22244 71.272C6.39844 70.088 5.03844 68.52 4.14244 66.568C3.24644 64.616 2.79844 62.456 2.79844 60.088V37.384H13.3584V59.8C13.3584 60.216 13.4384 60.52 13.5984 60.712C13.7904 60.904 14.0944 61 14.5104 61H17.3904L17.8704 66.712L17.3904 73H14.9904ZM16.8928 61H22.4608C23.5168 61 24.2528 60.824 24.6688 60.472C25.0848 60.12 25.2288 59.576 25.1008 58.84C24.8768 57.368 24.5568 55.496 24.1408 53.224L34.1248 50.68C35.2448 55.448 35.8048 58.936 35.8048 61.144C35.8048 63.128 35.3728 65.032 34.5088 66.856C33.6768 68.648 32.3968 70.12 30.6688 71.272C28.9408 72.424 26.8448 73 24.3808 73H16.8928V61ZM14.7808 76.696H22.7008H22.7968H30.7168V84.712H22.7968H22.7008H17.4208H14.7808V76.696ZM18.9088 87.208H26.5888V94.12H18.9088V87.208ZM49.5546 74.44C51.6346 74.44 53.0266 74.36 53.7306 74.2C54.4666 74.072 54.9626 73.672 55.2186 73H52.9146C49.0106 73 45.9866 71.88 43.8426 69.64C41.6986 67.4 40.6266 64.296 40.6266 60.328C40.6266 55.752 41.6826 52.232 43.7946 49.768C45.9386 47.272 48.9786 46.024 52.9146 46.024C56.8506 46.024 59.9706 47.288 62.2746 49.816C64.6106 52.344 65.8586 56.072 66.0186 61H68.8506L69.5226 67.24L68.8506 73H65.8746C65.5866 75.592 64.7866 77.896 63.4746 79.912C62.1946 81.928 60.3706 83.512 58.0026 84.664C55.6666 85.848 52.8506 86.44 49.5546 86.44H41.5866V74.44H49.5546ZM50.2746 59.272C50.2746 60.072 50.4986 60.664 50.9466 61.048C51.3946 61.4 52.0506 61.576 52.9146 61.576H55.4586V59.272C55.4586 58.408 55.2346 57.736 54.7866 57.256C54.3706 56.776 53.7466 56.536 52.9146 56.536C52.0826 56.536 51.4266 56.792 50.9466 57.304C50.4986 57.784 50.2746 58.44 50.2746 59.272ZM92.1707 43.912L82.0907 48.376L86.8907 53.272C88.0107 54.424 88.8427 55.72 89.3867 57.16C89.9627 58.6 90.2507 60.088 90.2507 61.624C90.2507 63.576 89.8027 65.432 88.9067 67.192C88.0107 68.92 86.7147 70.328 85.0187 71.416C83.3227 72.472 81.3227 73 79.0187 73H68.3147V61H78.7307L69.1787 51.208L70.9067 40.456L87.9467 32.968L92.1707 43.912Z" fill="url(#paint1_linear_2268_4225)"/>
<path d="M114.525 59.8C113.885 61.112 113.293 62.6 112.749 64.264C112.237 65.896 111.981 67.32 111.981 68.536C111.981 70.072 112.397 71.208 113.229 71.944C114.093 72.648 115.501 73 117.453 73H122.493C124.637 73 126.109 72.92 126.909 72.76C127.741 72.6 128.205 72.312 128.301 71.896L116.589 69.064C116.045 66.952 115.773 64.872 115.773 62.824C115.773 60.328 116.141 57.976 116.877 55.768C117.613 53.528 118.637 51.64 119.949 50.104C121.677 48.184 123.549 46.808 125.565 45.976C127.613 45.112 129.789 44.68 132.093 44.68C134.173 44.68 136.301 45.032 138.477 45.736L135.981 56.008C135.021 55.784 134.157 55.672 133.389 55.672C132.365 55.672 131.341 55.8 130.317 56.056C129.325 56.28 128.445 56.632 127.677 57.112C126.365 57.944 125.517 58.952 125.133 60.136L129.309 60.952C129.821 61.048 130.429 61.16 131.133 61.288C131.837 61.416 132.605 61.576 133.437 61.768C134.845 62.056 135.917 62.504 136.653 63.112C137.389 63.688 137.901 64.456 138.189 65.416C138.477 66.376 138.621 67.64 138.621 69.208C138.621 70.008 138.605 70.632 138.573 71.08C138.413 75.08 137.069 78.392 134.541 81.016C132.013 83.64 127.997 84.952 122.493 84.952H117.453C113.997 84.952 111.069 84.216 108.669 82.744C106.301 81.272 104.509 79.288 103.293 76.792C102.109 74.328 101.517 71.576 101.517 68.536C101.517 66.424 101.885 64.184 102.621 61.816C103.389 59.416 104.221 57.352 105.117 55.624L114.525 59.8ZM155.615 73C152.927 73 150.671 72.424 148.847 71.272C147.023 70.088 145.663 68.52 144.767 66.568C143.871 64.616 143.423 62.456 143.423 60.088V37.384H153.983V59.8C153.983 60.216 154.063 60.52 154.223 60.712C154.415 60.904 154.719 61 155.135 61H158.015L158.495 66.712L158.015 73H155.615ZM157.518 61H161.358C161.134 60.2 161.022 59.288 161.022 58.264C161.022 55.96 161.47 53.848 162.366 51.928C163.294 49.976 164.606 48.424 166.302 47.272C167.998 46.12 169.982 45.544 172.254 45.544C175.198 45.544 177.71 46.552 179.79 48.568L186.558 42.808L194.238 53.272C195.998 55.704 196.878 58.312 196.878 61.096C196.878 62.44 196.67 63.72 196.254 64.936C195.838 66.12 195.278 67.128 194.574 67.96C191.822 71.32 187.902 73 182.814 73C178.846 73 175.118 72.328 171.63 70.984C167.982 72.328 164.126 73 160.062 73H157.518V61ZM169.518 58.216C169.518 59.208 170.238 60.04 171.678 60.712C172.99 60.52 173.87 60.232 174.318 59.848C174.798 59.464 175.038 58.92 175.038 58.216C175.038 57.544 174.75 56.968 174.174 56.488C173.598 55.976 172.958 55.72 172.254 55.72C171.582 55.72 170.958 55.976 170.382 56.488C169.806 56.968 169.518 57.544 169.518 58.216ZM183.582 62.296C185.662 62.296 186.926 61.88 187.374 61.048C187.438 60.952 187.47 60.776 187.47 60.52C187.47 59.976 187.294 59.48 186.942 59.032L182.718 53.416C183.23 54.856 183.486 56.456 183.486 58.216C183.486 59.688 183.198 61.048 182.622 62.296H183.582ZM214.697 59.8C214.057 61.08 213.465 62.568 212.921 64.264C212.409 65.928 212.153 67.368 212.153 68.584C212.153 70.12 212.585 71.24 213.449 71.944C214.313 72.648 215.769 73 217.817 73H220.361C221.833 73 222.953 72.888 223.721 72.664C224.489 72.44 225.017 72.072 225.305 71.56C225.625 71.048 225.785 70.296 225.785 69.304V54.376H236.345V61C236.345 61.288 236.457 61.544 236.681 61.768C236.937 61.96 237.241 62.056 237.593 62.056C237.945 62.056 238.233 61.96 238.457 61.768C238.713 61.544 238.841 61.288 238.841 61V54.376H249.401V60.712C249.401 61.096 249.513 61.416 249.737 61.672C249.993 61.928 250.313 62.056 250.697 62.056C251.081 62.056 251.385 61.912 251.609 61.624C251.865 61.336 251.993 60.888 251.993 60.28C251.993 59.96 251.977 59.704 251.945 59.512L250.985 53.224L260.969 50.68C262.089 55.448 262.649 58.936 262.649 61.144C262.649 63.128 262.217 65.032 261.353 66.856C260.521 68.648 259.209 70.12 257.417 71.272C255.625 72.424 253.369 73 250.649 73C248.185 73 246.009 72.28 244.121 70.84C243.417 71.48 242.425 72.008 241.145 72.424C239.897 72.808 238.713 73 237.593 73C237.145 73 236.633 72.952 236.057 72.856C235.481 76.6 233.897 79.56 231.305 81.736C228.713 83.912 225.065 85 220.361 85H217.817C214.297 85 211.321 84.264 208.889 82.792C206.457 81.32 204.649 79.336 203.465 76.84C202.281 74.376 201.689 71.624 201.689 68.584C201.689 66.472 202.057 64.216 202.793 61.816C203.561 59.416 204.393 57.352 205.289 55.624L214.697 59.8ZM235.001 42.328H237.641H242.921H243.017H250.937V50.344H243.017H242.921H235.001V42.328ZM239.129 32.92H246.809V39.832H239.129V32.92ZM280.784 54.376V67.816C280.784 71.272 280.16 74.28 278.912 76.84C277.696 79.432 275.872 81.432 273.44 82.84C271.04 84.28 268.128 85 264.704 85H261.68V73H264.704C266.496 73 267.744 72.904 268.448 72.712C269.184 72.488 269.664 72.04 269.888 71.368C270.112 70.696 270.224 69.512 270.224 67.816V54.376H280.784ZM271.04 39.976H275.504C277.488 39.976 278.96 39.992 279.92 40.024V48.616H271.04V39.976ZM301.315 54.376V67.816C301.315 71.272 300.691 74.28 299.443 76.84C298.227 79.432 296.403 81.432 293.971 82.84C291.571 84.28 288.659 85 285.235 85H282.211V73H285.235C287.027 73 288.275 72.904 288.979 72.712C289.715 72.488 290.195 72.04 290.419 71.368C290.643 70.696 290.755 69.512 290.755 67.816V54.376H301.315ZM305.142 37.384H315.702V73H305.142V37.384Z" fill="#0C1118" fill-opacity="0.8"/>
<defs>
<linearGradient id="paint0_linear_2268_4225" x1="159.03" y1="0.178023" x2="159.03" y2="22.0408" gradientUnits="userSpaceOnUse">
<stop stop-color="#ED1B24" stop-opacity="0.6"/>
<stop offset="1" stop-color="#ED1B24"/>
</linearGradient>
<linearGradient id="paint1_linear_2268_4225" x1="159.089" y1="22.6312" x2="159.089" y2="100.145" gradientUnits="userSpaceOnUse">
<stop stop-color="#ED1B24" stop-opacity="0.6"/>
<stop offset="1" stop-color="#ED1B24"/>
</linearGradient>
</defs>
</svg>
