<svg width="387" height="100" viewBox="0 0 387 100" fill="none" xmlns="http://www.w3.org/2000/svg">
<path d="M0 8C0 9 0 10 0 11C1.69167 10.975 3.38333 10.95 5.075 10.925C35.525 10.475 65.975 10.025 96.425 9.575C98.1167 9.55 99.8083 9.525 101.5 9.5C99.8083 9.475 98.1167 9.45 96.425 9.425C65.975 8.975 35.525 8.525 5.075 8.075C3.38333 8.05 1.69167 8.025 0 8Z" fill="#ED1B24"/>
<path d="M116.728 16.252C114.844 16.252 113.278 15.622 112.03 14.362C110.794 13.114 110.176 11.56 110.176 9.7C110.176 7.828 110.794 6.274 112.03 5.038C113.278 3.778 114.844 3.148 116.728 3.148C117.868 3.148 118.918 3.418 119.878 3.958C120.85 4.486 121.606 5.206 122.146 6.118L120.004 7.36C119.692 6.796 119.248 6.358 118.672 6.046C118.096 5.722 117.448 5.56 116.728 5.56C115.504 5.56 114.514 5.944 113.758 6.712C113.014 7.492 112.642 8.488 112.642 9.7C112.642 10.9 113.014 11.89 113.758 12.67C114.514 13.438 115.504 13.822 116.728 13.822C117.448 13.822 118.096 13.666 118.672 13.354C119.26 13.03 119.704 12.592 120.004 12.04L122.146 13.282C121.606 14.194 120.85 14.92 119.878 15.46C118.918 15.988 117.868 16.252 116.728 16.252ZM131.285 14.884C130.373 15.796 129.245 16.252 127.901 16.252C126.557 16.252 125.429 15.796 124.517 14.884C123.605 13.972 123.149 12.844 123.149 11.5C123.149 10.168 123.605 9.046 124.517 8.134C125.441 7.21 126.569 6.748 127.901 6.748C129.233 6.748 130.361 7.21 131.285 8.134C132.209 9.058 132.671 10.18 132.671 11.5C132.671 12.832 132.209 13.96 131.285 14.884ZM126.155 13.282C126.623 13.75 127.205 13.984 127.901 13.984C128.597 13.984 129.179 13.75 129.647 13.282C130.115 12.814 130.349 12.22 130.349 11.5C130.349 10.78 130.115 10.186 129.647 9.718C129.179 9.25 128.597 9.016 127.901 9.016C127.205 9.016 126.623 9.25 126.155 9.718C125.699 10.198 125.471 10.792 125.471 11.5C125.471 12.208 125.699 12.802 126.155 13.282ZM139.542 6.748C140.754 6.748 141.786 7.21 142.638 8.134C143.502 9.058 143.934 10.18 143.934 11.5C143.934 12.844 143.502 13.972 142.638 14.884C141.798 15.796 140.766 16.252 139.542 16.252C138.282 16.252 137.31 15.814 136.626 14.938V19.6H134.304V7H136.626V8.062C137.31 7.186 138.282 6.748 139.542 6.748ZM137.328 13.336C137.796 13.804 138.39 14.038 139.11 14.038C139.83 14.038 140.424 13.804 140.892 13.336C141.372 12.856 141.612 12.244 141.612 11.5C141.612 10.756 141.372 10.15 140.892 9.682C140.424 9.202 139.83 8.962 139.11 8.962C138.39 8.962 137.796 9.202 137.328 9.682C136.86 10.15 136.626 10.756 136.626 11.5C136.626 12.244 136.86 12.856 137.328 13.336ZM152.412 8.062V7H154.734V16H152.412V14.938C151.716 15.814 150.738 16.252 149.478 16.252C148.278 16.252 147.246 15.796 146.382 14.884C145.53 13.96 145.104 12.832 145.104 11.5C145.104 10.18 145.53 9.058 146.382 8.134C147.246 7.21 148.278 6.748 149.478 6.748C150.738 6.748 151.716 7.186 152.412 8.062ZM148.128 13.336C148.596 13.804 149.19 14.038 149.91 14.038C150.63 14.038 151.224 13.804 151.692 13.336C152.172 12.856 152.412 12.244 152.412 11.5C152.412 10.756 152.172 10.15 151.692 9.682C151.224 9.202 150.63 8.962 149.91 8.962C149.19 8.962 148.596 9.202 148.128 9.682C147.66 10.15 147.426 10.756 147.426 11.5C147.426 12.244 147.66 12.856 148.128 13.336Z" fill="url(#paint0_linear_2277_4791)"/>
<path d="M172.247 16H169.547L168.791 13.732H163.769L163.013 16H160.331L164.741 3.4H167.819L172.247 16ZM166.289 6.262L164.561 11.41H168.017L166.289 6.262ZM177.401 16.252C176.045 16.252 174.911 15.796 173.999 14.884C173.099 13.972 172.649 12.844 172.649 11.5C172.649 10.156 173.099 9.028 173.999 8.116C174.911 7.204 176.045 6.748 177.401 6.748C178.277 6.748 179.075 6.958 179.795 7.378C180.515 7.798 181.061 8.362 181.433 9.07L179.435 10.24C179.255 9.868 178.979 9.574 178.607 9.358C178.247 9.142 177.839 9.034 177.383 9.034C176.687 9.034 176.111 9.268 175.655 9.736C175.199 10.192 174.971 10.78 174.971 11.5C174.971 12.196 175.199 12.784 175.655 13.264C176.111 13.72 176.687 13.948 177.383 13.948C177.851 13.948 178.265 13.846 178.625 13.642C178.997 13.426 179.273 13.132 179.453 12.76L181.469 13.912C181.073 14.632 180.509 15.202 179.777 15.622C179.057 16.042 178.265 16.252 177.401 16.252ZM187.701 6.748C188.697 6.748 189.507 7.078 190.131 7.738C190.779 8.41 191.103 9.322 191.103 10.474V16H188.781V10.762C188.781 10.174 188.619 9.718 188.295 9.394C187.983 9.07 187.551 8.908 186.999 8.908C186.387 8.908 185.901 9.1 185.541 9.484C185.193 9.856 185.019 10.408 185.019 11.14V16H182.697V3.4H185.019V8.008C185.571 7.168 186.465 6.748 187.701 6.748ZM194.237 5.92C193.853 5.92 193.517 5.782 193.229 5.506C192.953 5.218 192.815 4.882 192.815 4.498C192.815 4.114 192.953 3.778 193.229 3.49C193.517 3.202 193.853 3.058 194.237 3.058C194.633 3.058 194.969 3.202 195.245 3.49C195.533 3.778 195.677 4.114 195.677 4.498C195.677 4.882 195.533 5.218 195.245 5.506C194.969 5.782 194.633 5.92 194.237 5.92ZM195.407 16H193.085V7H195.407V16ZM206.281 12.454H199.495C199.795 13.582 200.641 14.146 202.033 14.146C202.921 14.146 203.593 13.846 204.049 13.246L205.921 14.326C205.033 15.61 203.725 16.252 201.997 16.252C200.509 16.252 199.315 15.802 198.415 14.902C197.515 14.002 197.065 12.868 197.065 11.5C197.065 10.156 197.509 9.028 198.397 8.116C199.273 7.204 200.413 6.748 201.817 6.748C203.149 6.748 204.235 7.204 205.075 8.116C205.939 9.028 206.371 10.156 206.371 11.5C206.371 11.752 206.341 12.07 206.281 12.454ZM199.459 10.654H204.049C203.917 10.066 203.647 9.616 203.239 9.304C202.843 8.992 202.369 8.836 201.817 8.836C201.193 8.836 200.677 8.998 200.269 9.322C199.861 9.634 199.591 10.078 199.459 10.654ZM211.366 13.3L213.562 7H216.118L212.698 16H210.052L206.632 7H209.188L211.366 13.3ZM225.634 12.454H218.848C219.148 13.582 219.994 14.146 221.386 14.146C222.274 14.146 222.946 13.846 223.402 13.246L225.274 14.326C224.386 15.61 223.078 16.252 221.35 16.252C219.862 16.252 218.668 15.802 217.768 14.902C216.868 14.002 216.418 12.868 216.418 11.5C216.418 10.156 216.862 9.028 217.75 8.116C218.626 7.204 219.766 6.748 221.17 6.748C222.502 6.748 223.588 7.204 224.428 8.116C225.292 9.028 225.724 10.156 225.724 11.5C225.724 11.752 225.694 12.07 225.634 12.454ZM218.812 10.654H223.402C223.27 10.066 223 9.616 222.592 9.304C222.196 8.992 221.722 8.836 221.17 8.836C220.546 8.836 220.03 8.998 219.622 9.322C219.214 9.634 218.944 10.078 218.812 10.654ZM237.299 6.748C238.331 6.748 239.153 7.084 239.765 7.756C240.389 8.428 240.701 9.328 240.701 10.456V16H238.379V10.618C238.379 10.078 238.247 9.658 237.983 9.358C237.719 9.058 237.347 8.908 236.867 8.908C236.339 8.908 235.925 9.082 235.625 9.43C235.337 9.778 235.193 10.282 235.193 10.942V16H232.871V10.618C232.871 10.078 232.739 9.658 232.475 9.358C232.211 9.058 231.839 8.908 231.359 8.908C230.843 8.908 230.429 9.088 230.117 9.448C229.817 9.796 229.667 10.294 229.667 10.942V16H227.345V7H229.667V7.954C230.207 7.15 231.041 6.748 232.169 6.748C233.285 6.748 234.101 7.18 234.617 8.044C235.205 7.18 236.099 6.748 237.299 6.748ZM251.421 12.454H244.635C244.935 13.582 245.781 14.146 247.173 14.146C248.061 14.146 248.733 13.846 249.189 13.246L251.061 14.326C250.173 15.61 248.865 16.252 247.137 16.252C245.649 16.252 244.455 15.802 243.555 14.902C242.655 14.002 242.205 12.868 242.205 11.5C242.205 10.156 242.649 9.028 243.537 8.116C244.413 7.204 245.553 6.748 246.957 6.748C248.289 6.748 249.375 7.204 250.215 8.116C251.079 9.028 251.511 10.156 251.511 11.5C251.511 11.752 251.481 12.07 251.421 12.454ZM244.599 10.654H249.189C249.057 10.066 248.787 9.616 248.379 9.304C247.983 8.992 247.509 8.836 246.957 8.836C246.333 8.836 245.817 8.998 245.409 9.322C245.001 9.634 244.731 10.078 244.599 10.654ZM258.136 6.748C259.132 6.748 259.942 7.078 260.566 7.738C261.214 8.41 261.538 9.322 261.538 10.474V16H259.216V10.762C259.216 10.174 259.054 9.718 258.73 9.394C258.418 9.07 257.986 8.908 257.434 8.908C256.822 8.908 256.336 9.1 255.976 9.484C255.628 9.856 255.454 10.408 255.454 11.14V16H253.132V7H255.454V8.008C256.006 7.168 256.9 6.748 258.136 6.748ZM268.669 7V9.232H266.635V12.976C266.635 13.288 266.713 13.516 266.869 13.66C267.025 13.804 267.253 13.888 267.553 13.912C267.853 13.924 268.225 13.918 268.669 13.894V16C267.097 16.18 265.975 16.036 265.303 15.568C264.643 15.088 264.313 14.224 264.313 12.976V9.232H262.747V7H264.313V5.182L266.635 4.48V7H268.669ZM272.255 9.556C272.255 9.94 272.801 10.27 273.893 10.546C274.277 10.63 274.625 10.732 274.937 10.852C275.249 10.96 275.561 11.122 275.873 11.338C276.197 11.542 276.449 11.818 276.629 12.166C276.809 12.514 276.899 12.916 276.899 13.372C276.899 14.296 276.551 15.01 275.855 15.514C275.159 16.006 274.301 16.252 273.281 16.252C271.433 16.252 270.173 15.538 269.501 14.11L271.517 12.976C271.793 13.756 272.381 14.146 273.281 14.146C274.109 14.146 274.523 13.888 274.523 13.372C274.523 12.988 273.977 12.658 272.885 12.382C272.477 12.274 272.129 12.166 271.841 12.058C271.553 11.95 271.241 11.794 270.905 11.59C270.569 11.374 270.311 11.104 270.131 10.78C269.963 10.444 269.879 10.054 269.879 9.61C269.879 8.722 270.203 8.026 270.851 7.522C271.511 7.006 272.327 6.748 273.299 6.748C274.031 6.748 274.697 6.916 275.297 7.252C275.897 7.576 276.371 8.044 276.719 8.656L274.739 9.736C274.451 9.124 273.971 8.818 273.299 8.818C272.999 8.818 272.747 8.89 272.543 9.034C272.351 9.166 272.255 9.34 272.255 9.556Z" fill="#0C1118" fill-opacity="0.8"/>
<path d="M285.5 9.5C287.192 9.525 288.883 9.55 290.575 9.575C321.025 10.025 351.475 10.475 381.925 10.925C383.617 10.95 385.308 10.975 387 11C387 10 387 9 387 8C385.308 8.025 383.617 8.05 381.925 8.075C351.475 8.525 321.025 8.975 290.575 9.425C288.883 9.45 287.192 9.475 285.5 9.5Z" fill="#ED1B24"/>
<path d="M15.0139 73C12.3259 73 10.0699 72.424 8.24588 71.272C6.42188 70.088 5.06188 68.52 4.16588 66.568C3.26988 64.616 2.82188 62.456 2.82188 60.088V37.384H13.3819V59.8C13.3819 60.216 13.4619 60.52 13.6219 60.712C13.8139 60.904 14.1179 61 14.5339 61H17.4139L17.8939 66.712L17.4139 73H15.0139ZM16.9162 61H22.4843C23.5403 61 24.2763 60.824 24.6923 60.472C25.1083 60.12 25.2523 59.576 25.1243 58.84C24.9003 57.368 24.5803 55.496 24.1643 53.224L34.1483 50.68C35.2683 55.448 35.8283 58.936 35.8283 61.144C35.8283 63.128 35.3963 65.032 34.5323 66.856C33.7003 68.648 32.4203 70.12 30.6923 71.272C28.9643 72.424 26.8683 73 24.4043 73H16.9162V61ZM14.8042 76.696H22.7243H22.8203H30.7403V84.712H22.8203H22.7243H17.4443H14.8042V76.696ZM18.9323 87.208H26.6123V94.12H18.9323V87.208ZM49.578 74.44C51.658 74.44 53.05 74.36 53.754 74.2C54.49 74.072 54.986 73.672 55.242 73H52.938C49.034 73 46.01 71.88 43.866 69.64C41.722 67.4 40.65 64.296 40.65 60.328C40.65 55.752 41.706 52.232 43.818 49.768C45.962 47.272 49.002 46.024 52.938 46.024C56.874 46.024 59.994 47.288 62.298 49.816C64.634 52.344 65.882 56.072 66.042 61H68.874L69.546 67.24L68.874 73H65.898C65.61 75.592 64.81 77.896 63.498 79.912C62.218 81.928 60.394 83.512 58.026 84.664C55.69 85.848 52.874 86.44 49.578 86.44H41.61V74.44H49.578ZM50.298 59.272C50.298 60.072 50.522 60.664 50.97 61.048C51.418 61.4 52.074 61.576 52.938 61.576H55.482V59.272C55.482 58.408 55.258 57.736 54.81 57.256C54.394 56.776 53.77 56.536 52.938 56.536C52.106 56.536 51.45 56.792 50.97 57.304C50.522 57.784 50.298 58.44 50.298 59.272ZM92.1941 43.912L82.1141 48.376L86.9141 53.272C88.0341 54.424 88.8661 55.72 89.4101 57.16C89.9861 58.6 90.2741 60.088 90.2741 61.624C90.2741 63.576 89.8261 65.432 88.9301 67.192C88.0341 68.92 86.7381 70.328 85.0421 71.416C83.3461 72.472 81.3461 73 79.0421 73H68.3381V61H78.7541L69.2021 51.208L70.9301 40.456L87.9701 32.968L92.1941 43.912Z" fill="url(#paint1_linear_2277_4791)"/>
<path d="M114.549 59.8C113.909 61.112 113.317 62.6 112.773 64.264C112.261 65.896 112.005 67.32 112.005 68.536C112.005 70.072 112.421 71.208 113.253 71.944C114.117 72.648 115.525 73 117.477 73H122.517C124.661 73 126.133 72.92 126.933 72.76C127.765 72.6 128.229 72.312 128.325 71.896L116.613 69.064C116.069 66.952 115.797 64.872 115.797 62.824C115.797 60.328 116.165 57.976 116.901 55.768C117.637 53.528 118.661 51.64 119.973 50.104C121.701 48.184 123.573 46.808 125.589 45.976C127.637 45.112 129.813 44.68 132.117 44.68C134.197 44.68 136.325 45.032 138.501 45.736L136.005 56.008C135.045 55.784 134.181 55.672 133.413 55.672C132.389 55.672 131.365 55.8 130.341 56.056C129.349 56.28 128.469 56.632 127.701 57.112C126.389 57.944 125.541 58.952 125.157 60.136L129.333 60.952C129.845 61.048 130.453 61.16 131.157 61.288C131.861 61.416 132.629 61.576 133.461 61.768C134.869 62.056 135.941 62.504 136.677 63.112C137.413 63.688 137.925 64.456 138.213 65.416C138.501 66.376 138.645 67.64 138.645 69.208C138.645 70.008 138.629 70.632 138.597 71.08C138.437 75.08 137.093 78.392 134.565 81.016C132.037 83.64 128.021 84.952 122.517 84.952H117.477C114.021 84.952 111.093 84.216 108.693 82.744C106.325 81.272 104.533 79.288 103.317 76.792C102.133 74.328 101.541 71.576 101.541 68.536C101.541 66.424 101.909 64.184 102.645 61.816C103.413 59.416 104.245 57.352 105.141 55.624L114.549 59.8ZM155.639 73C152.951 73 150.695 72.424 148.871 71.272C147.047 70.088 145.687 68.52 144.791 66.568C143.895 64.616 143.447 62.456 143.447 60.088V37.384H154.007V59.8C154.007 60.216 154.087 60.52 154.247 60.712C154.439 60.904 154.743 61 155.159 61H158.039L158.519 66.712L158.039 73H155.639ZM157.541 61H161.381C161.157 60.2 161.045 59.288 161.045 58.264C161.045 55.96 161.493 53.848 162.389 51.928C163.317 49.976 164.629 48.424 166.325 47.272C168.021 46.12 170.005 45.544 172.277 45.544C175.221 45.544 177.733 46.552 179.813 48.568L186.581 42.808L194.261 53.272C196.021 55.704 196.901 58.312 196.901 61.096C196.901 62.44 196.693 63.72 196.277 64.936C195.861 66.12 195.301 67.128 194.597 67.96C191.845 71.32 187.925 73 182.837 73C178.869 73 175.141 72.328 171.653 70.984C168.005 72.328 164.149 73 160.085 73H157.541V61ZM169.541 58.216C169.541 59.208 170.261 60.04 171.701 60.712C173.013 60.52 173.893 60.232 174.341 59.848C174.821 59.464 175.061 58.92 175.061 58.216C175.061 57.544 174.773 56.968 174.197 56.488C173.621 55.976 172.981 55.72 172.277 55.72C171.605 55.72 170.981 55.976 170.405 56.488C169.829 56.968 169.541 57.544 169.541 58.216ZM183.605 62.296C185.685 62.296 186.949 61.88 187.397 61.048C187.461 60.952 187.493 60.776 187.493 60.52C187.493 59.976 187.317 59.48 186.965 59.032L182.741 53.416C183.253 54.856 183.509 56.456 183.509 58.216C183.509 59.688 183.221 61.048 182.645 62.296H183.605ZM216.435 41.512C217.043 42.344 217.315 42.728 217.251 42.664C217.955 43.72 219.123 45.464 220.755 47.896C222.387 50.296 223.555 52.056 224.259 53.176C225.091 54.424 225.731 55.768 226.179 57.208C226.627 58.648 226.851 60.072 226.851 61.48C226.851 63.976 226.195 66.136 224.883 67.96C223.667 69.624 222.163 70.888 220.371 71.752C218.579 72.584 216.611 73 214.467 73H211.827C209.395 73 207.235 72.648 205.347 71.944C203.491 71.208 201.795 70.28 200.259 69.16L204.387 59.704C205.443 60.088 206.435 60.408 207.363 60.664C208.323 60.888 209.523 61 210.963 61H213.363C214.227 61 214.851 60.968 215.235 60.904C215.619 60.808 215.859 60.664 215.955 60.472C216.019 60.344 216.051 60.232 216.051 60.136C216.051 59.816 215.907 59.464 215.619 59.08C211.299 53.128 208.627 49.48 207.603 48.136L216.435 41.512ZM244.526 54.376V67.816C244.526 71.272 243.902 74.28 242.654 76.84C241.438 79.432 239.614 81.432 237.182 82.84C234.782 84.28 231.87 85 228.446 85H225.422V73H228.446C230.238 73 231.486 72.904 232.19 72.712C232.926 72.488 233.406 72.04 233.63 71.368C233.854 70.696 233.966 69.512 233.966 67.816V54.376H244.526ZM257.281 72.664C259.361 72.664 260.753 72.6 261.457 72.472C262.193 72.312 262.689 71.896 262.945 71.224H260.641C256.737 71.224 253.713 70.104 251.569 67.864C249.425 65.624 248.353 62.52 248.353 58.552C248.353 53.976 249.409 50.456 251.521 47.992C253.665 45.496 256.705 44.248 260.641 44.248C264.705 44.248 267.905 45.608 270.241 48.328C272.577 51.016 273.745 55 273.745 60.28V68.968C273.745 71.912 273.137 74.568 271.921 76.936C270.737 79.304 268.897 81.176 266.401 82.552C263.937 83.96 260.897 84.664 257.281 84.664H249.313V72.664H257.281ZM258.001 57.496C258.001 58.296 258.225 58.888 258.673 59.272C259.121 59.624 259.777 59.8 260.641 59.8H263.185V57.496C263.185 56.632 262.961 55.96 262.513 55.48C262.097 55 261.473 54.76 260.641 54.76C259.809 54.76 259.153 55.016 258.673 55.528C258.225 56.008 258.001 56.664 258.001 57.496ZM290.733 73C288.045 73 285.789 72.424 283.965 71.272C282.141 70.088 280.781 68.52 279.885 66.568C278.989 64.616 278.541 62.456 278.541 60.088V37.384H289.101V59.8C289.101 60.216 289.181 60.52 289.341 60.712C289.533 60.904 289.837 61 290.253 61H293.133L293.613 66.712L293.133 73H290.733ZM310.059 54.376V59.8C310.059 60.28 310.139 60.6 310.299 60.76C310.459 60.92 310.763 61 311.211 61H312.459L312.891 67.192L312.459 73H310.587C308.283 73 306.203 72.312 304.347 70.936C302.363 72.312 300.299 73 298.155 73H292.635V61H298.059C298.667 61 299.051 60.92 299.211 60.76C299.403 60.6 299.499 60.28 299.499 59.8V54.376H310.059ZM294.027 42.376H296.667H301.947H302.043H309.963V50.392H302.043H301.947H294.027V42.376ZM311.994 61H314.586C315.098 61 315.466 60.92 315.69 60.76C315.914 60.568 316.026 60.248 316.026 59.8V54.376H326.586V61C326.586 61.288 326.698 61.544 326.922 61.768C327.178 61.96 327.466 62.056 327.786 62.056C328.106 62.056 328.378 61.96 328.602 61.768C328.858 61.544 328.986 61.288 328.986 61V54.376H339.546V60.712C339.546 61.096 339.658 61.416 339.882 61.672C340.138 61.896 340.458 62.008 340.842 62.008C341.226 62.008 341.53 61.864 341.754 61.576C342.01 61.288 342.138 60.856 342.138 60.28C342.138 59.96 342.122 59.704 342.09 59.512L341.13 53.224L351.114 50.68C352.234 55.448 352.794 58.936 352.794 61.144C352.794 63.128 352.362 65.032 351.498 66.856C350.666 68.648 349.354 70.12 347.562 71.272C345.77 72.424 343.514 73 340.794 73C338.33 73 336.154 72.28 334.266 70.84C333.562 71.48 332.586 72.008 331.338 72.424C330.09 72.808 328.906 73 327.786 73C326.282 73 324.906 72.824 323.658 72.472C322.442 72.088 321.546 71.544 320.97 70.84C319.722 72.28 317.578 73 314.538 73H311.994V61ZM373.748 41.512C374.356 42.344 374.628 42.728 374.564 42.664C375.268 43.72 376.436 45.464 378.068 47.896C379.7 50.296 380.868 52.056 381.572 53.176C382.404 54.424 383.044 55.768 383.492 57.208C383.94 58.648 384.164 60.072 384.164 61.48C384.164 63.976 383.508 66.136 382.196 67.96C380.98 69.624 379.476 70.888 377.684 71.752C375.892 72.584 373.924 73 371.78 73H369.14C366.708 73 364.548 72.648 362.66 71.944C360.804 71.208 359.108 70.28 357.572 69.16L361.7 59.704C362.756 60.088 363.748 60.408 364.676 60.664C365.636 60.888 366.836 61 368.276 61H370.676C371.54 61 372.164 60.968 372.548 60.904C372.932 60.808 373.172 60.664 373.268 60.472C373.332 60.344 373.364 60.232 373.364 60.136C373.364 59.816 373.22 59.464 372.932 59.08C368.612 53.128 365.94 49.48 364.916 48.136L373.748 41.512Z" fill="#0C1118" fill-opacity="0.8"/>
<defs>
<linearGradient id="paint0_linear_2277_4791" x1="193.547" y1="0.178023" x2="193.547" y2="22.0408" gradientUnits="userSpaceOnUse">
<stop stop-color="#ED1B24" stop-opacity="0.6"/>
<stop offset="1" stop-color="#ED1B24"/>
</linearGradient>
<linearGradient id="paint1_linear_2277_4791" x1="193.609" y1="22.6312" x2="193.609" y2="100.145" gradientUnits="userSpaceOnUse">
<stop stop-color="#ED1B24" stop-opacity="0.6"/>
<stop offset="1" stop-color="#ED1B24"/>
</linearGradient>
</defs>
</svg>
