<svg width="230" height="100" viewBox="0 0 230 100" fill="none" xmlns="http://www.w3.org/2000/svg">
<path d="M0 8C0 9 0 10 0 11C0.933334 10.975 1.86667 10.95 2.8 10.925C19.6 10.475 36.4 10.025 53.2 9.575C54.1333 9.55 55.0667 9.525 56 9.5C55.0667 9.475 54.1333 9.45 53.2 9.425C36.4 8.975 19.6 8.525 2.8 8.075C1.86667 8.05 0.933334 8.025 0 8Z" fill="#ED1B24"/>
<path d="M71.1519 16.252C69.2679 16.252 67.7019 15.622 66.4539 14.362C65.2179 13.114 64.5999 11.56 64.5999 9.7C64.5999 7.828 65.2179 6.274 66.4539 5.038C67.7019 3.778 69.2679 3.148 71.1519 3.148C72.2919 3.148 73.3419 3.418 74.3019 3.958C75.2739 4.486 76.0299 5.206 76.5699 6.118L74.4279 7.36C74.1159 6.796 73.6719 6.358 73.0959 6.046C72.5199 5.722 71.8719 5.56 71.1519 5.56C69.9279 5.56 68.9379 5.944 68.1819 6.712C67.4379 7.492 67.0659 8.488 67.0659 9.7C67.0659 10.9 67.4379 11.89 68.1819 12.67C68.9379 13.438 69.9279 13.822 71.1519 13.822C71.8719 13.822 72.5199 13.666 73.0959 13.354C73.6839 13.03 74.1279 12.592 74.4279 12.04L76.5699 13.282C76.0299 14.194 75.2739 14.92 74.3019 15.46C73.3419 15.988 72.2919 16.252 71.1519 16.252ZM85.7085 14.884C84.7965 15.796 83.6685 16.252 82.3245 16.252C80.9805 16.252 79.8525 15.796 78.9405 14.884C78.0285 13.972 77.5725 12.844 77.5725 11.5C77.5725 10.168 78.0285 9.046 78.9405 8.134C79.8645 7.21 80.9925 6.748 82.3245 6.748C83.6565 6.748 84.7845 7.21 85.7085 8.134C86.6325 9.058 87.0945 10.18 87.0945 11.5C87.0945 12.832 86.6325 13.96 85.7085 14.884ZM80.5785 13.282C81.0465 13.75 81.6285 13.984 82.3245 13.984C83.0205 13.984 83.6025 13.75 84.0705 13.282C84.5385 12.814 84.7725 12.22 84.7725 11.5C84.7725 10.78 84.5385 10.186 84.0705 9.718C83.6025 9.25 83.0205 9.016 82.3245 9.016C81.6285 9.016 81.0465 9.25 80.5785 9.718C80.1225 10.198 79.8945 10.792 79.8945 11.5C79.8945 12.208 80.1225 12.802 80.5785 13.282ZM93.966 6.748C95.178 6.748 96.21 7.21 97.062 8.134C97.926 9.058 98.358 10.18 98.358 11.5C98.358 12.844 97.926 13.972 97.062 14.884C96.222 15.796 95.19 16.252 93.966 16.252C92.706 16.252 91.734 15.814 91.05 14.938V19.6H88.728V7H91.05V8.062C91.734 7.186 92.706 6.748 93.966 6.748ZM91.752 13.336C92.22 13.804 92.814 14.038 93.534 14.038C94.254 14.038 94.848 13.804 95.316 13.336C95.796 12.856 96.036 12.244 96.036 11.5C96.036 10.756 95.796 10.15 95.316 9.682C94.848 9.202 94.254 8.962 93.534 8.962C92.814 8.962 92.22 9.202 91.752 9.682C91.284 10.15 91.05 10.756 91.05 11.5C91.05 12.244 91.284 12.856 91.752 13.336ZM106.836 8.062V7H109.158V16H106.836V14.938C106.14 15.814 105.162 16.252 103.902 16.252C102.702 16.252 101.67 15.796 100.806 14.884C99.9536 13.96 99.5276 12.832 99.5276 11.5C99.5276 10.18 99.9536 9.058 100.806 8.134C101.67 7.21 102.702 6.748 103.902 6.748C105.162 6.748 106.14 7.186 106.836 8.062ZM102.552 13.336C103.02 13.804 103.614 14.038 104.334 14.038C105.054 14.038 105.648 13.804 106.116 13.336C106.596 12.856 106.836 12.244 106.836 11.5C106.836 10.756 106.596 10.15 106.116 9.682C105.648 9.202 105.054 8.962 104.334 8.962C103.614 8.962 103.02 9.202 102.552 9.682C102.084 10.15 101.85 10.756 101.85 11.5C101.85 12.244 102.084 12.856 102.552 13.336Z" fill="url(#paint0_linear_2248_3901)"/>
<path d="M126.671 16H123.971L123.215 13.732H118.193L117.437 16H114.755L119.165 3.4H122.243L126.671 16ZM120.713 6.262L118.985 11.41H122.441L120.713 6.262ZM133.025 6.748C134.237 6.748 135.269 7.21 136.121 8.134C136.985 9.058 137.417 10.18 137.417 11.5C137.417 12.844 136.985 13.972 136.121 14.884C135.281 15.796 134.249 16.252 133.025 16.252C131.765 16.252 130.793 15.814 130.109 14.938V16H127.787V3.4H130.109V8.062C130.793 7.186 131.765 6.748 133.025 6.748ZM130.811 13.336C131.279 13.804 131.873 14.038 132.593 14.038C133.313 14.038 133.907 13.804 134.375 13.336C134.855 12.856 135.095 12.244 135.095 11.5C135.095 10.756 134.855 10.15 134.375 9.682C133.907 9.202 133.313 8.962 132.593 8.962C131.873 8.962 131.279 9.202 130.811 9.682C130.343 10.15 130.109 10.756 130.109 11.5C130.109 12.244 130.343 12.856 130.811 13.336ZM146.722 14.884C145.81 15.796 144.682 16.252 143.338 16.252C141.994 16.252 140.866 15.796 139.954 14.884C139.042 13.972 138.586 12.844 138.586 11.5C138.586 10.168 139.042 9.046 139.954 8.134C140.878 7.21 142.006 6.748 143.338 6.748C144.67 6.748 145.798 7.21 146.722 8.134C147.646 9.058 148.108 10.18 148.108 11.5C148.108 12.832 147.646 13.96 146.722 14.884ZM141.592 13.282C142.06 13.75 142.642 13.984 143.338 13.984C144.034 13.984 144.616 13.75 145.084 13.282C145.552 12.814 145.786 12.22 145.786 11.5C145.786 10.78 145.552 10.186 145.084 9.718C144.616 9.25 144.034 9.016 143.338 9.016C142.642 9.016 142.06 9.25 141.592 9.718C141.136 10.198 140.908 10.792 140.908 11.5C140.908 12.208 141.136 12.802 141.592 13.282ZM155.682 11.86V7H158.004V16H155.682V14.992C155.13 15.832 154.236 16.252 153 16.252C152.016 16.252 151.2 15.922 150.552 15.262C149.916 14.59 149.598 13.678 149.598 12.526V7H151.92V12.238C151.92 12.826 152.076 13.282 152.388 13.606C152.712 13.93 153.15 14.092 153.702 14.092C154.314 14.092 154.794 13.906 155.142 13.534C155.502 13.15 155.682 12.592 155.682 11.86ZM165.278 7V9.232H163.244V12.976C163.244 13.288 163.322 13.516 163.478 13.66C163.634 13.804 163.862 13.888 164.162 13.912C164.462 13.924 164.834 13.918 165.278 13.894V16C163.706 16.18 162.584 16.036 161.912 15.568C161.252 15.088 160.922 14.224 160.922 12.976V9.232H159.356V7H160.922V5.182L163.244 4.48V7H165.278Z" fill="#0C1118" fill-opacity="0.8"/>
<path d="M174 9.5C174.933 9.525 175.867 9.55 176.8 9.575C193.6 10.025 210.4 10.475 227.2 10.925C228.133 10.95 229.067 10.975 230 11C230 10 230 9 230 8C229.067 8.025 228.133 8.05 227.2 8.075C210.4 8.525 193.6 8.975 176.8 9.425C175.867 9.45 174.933 9.475 174 9.5Z" fill="#ED1B24"/>
<path d="M14.9358 73C12.2478 73 9.99175 72.424 8.16775 71.272C6.34375 70.088 4.98375 68.52 4.08775 66.568C3.19175 64.616 2.74375 62.456 2.74375 60.088V37.384H13.3038V59.8C13.3038 60.216 13.3838 60.52 13.5438 60.712C13.7358 60.904 14.0398 61 14.4557 61H17.3358L17.8158 66.712L17.3358 73H14.9358ZM16.8381 61H22.4061C23.4621 61 24.1981 60.824 24.6141 60.472C25.0301 60.12 25.1741 59.576 25.0461 58.84C24.8221 57.368 24.5021 55.496 24.0861 53.224L34.0701 50.68C35.1901 55.448 35.7501 58.936 35.7501 61.144C35.7501 63.128 35.3181 65.032 34.4541 66.856C33.6221 68.648 32.3421 70.12 30.6141 71.272C28.8861 72.424 26.7901 73 24.3261 73H16.8381V61ZM14.7261 76.696H22.6461H22.7421H30.6621V84.712H22.7421H22.6461H17.3661H14.7261V76.696ZM18.8541 87.208H26.5341V94.12H18.8541V87.208ZM49.4999 74.44C51.5799 74.44 52.9719 74.36 53.6759 74.2C54.4119 74.072 54.9079 73.672 55.1639 73H52.8599C48.9559 73 45.9319 71.88 43.7879 69.64C41.6439 67.4 40.5719 64.296 40.5719 60.328C40.5719 55.752 41.6279 52.232 43.7399 49.768C45.8839 47.272 48.9239 46.024 52.8599 46.024C56.7959 46.024 59.9159 47.288 62.2199 49.816C64.5559 52.344 65.8039 56.072 65.9639 61H68.7959L69.4679 67.24L68.7959 73H65.8199C65.5319 75.592 64.7319 77.896 63.4199 79.912C62.1399 81.928 60.3159 83.512 57.9479 84.664C55.6119 85.848 52.7959 86.44 49.4999 86.44H41.5319V74.44H49.4999ZM50.2199 59.272C50.2199 60.072 50.4439 60.664 50.8919 61.048C51.3399 61.4 51.9959 61.576 52.8599 61.576H55.4039V59.272C55.4039 58.408 55.1799 57.736 54.7319 57.256C54.3159 56.776 53.6919 56.536 52.8599 56.536C52.0279 56.536 51.3719 56.792 50.8919 57.304C50.4439 57.784 50.2199 58.44 50.2199 59.272ZM92.116 43.912L82.036 48.376L86.836 53.272C87.956 54.424 88.788 55.72 89.332 57.16C89.908 58.6 90.196 60.088 90.196 61.624C90.196 63.576 89.748 65.432 88.852 67.192C87.956 68.92 86.66 70.328 84.964 71.416C83.268 72.472 81.268 73 78.964 73H68.26V61H78.676L69.124 51.208L70.852 40.456L87.892 32.968L92.116 43.912Z" fill="url(#paint1_linear_2248_3901)"/>
<path d="M115.719 43.672C119.143 47.096 121.575 49.624 123.015 51.256C124.455 52.856 125.511 54.408 126.182 55.912C126.887 57.384 127.239 59.096 127.239 61.048C127.239 63.352 126.663 65.48 125.51 67.432C124.359 69.352 122.791 70.872 120.807 71.992C118.855 73.112 116.711 73.672 114.375 73.672C112.039 73.672 109.879 73.112 107.895 71.992C105.911 70.872 104.343 69.352 103.191 67.432C102.039 65.48 101.463 63.352 101.463 61.048C101.463 58.872 101.879 56.904 102.711 55.144C103.575 53.352 104.839 51.496 106.503 49.576L105.543 48.664L113.127 41.08L115.719 43.672ZM112.023 60.04C112.023 60.616 112.215 61.128 112.599 61.576C112.983 61.992 113.575 62.2 114.375 62.2C115.175 62.2 115.751 61.992 116.103 61.576C116.487 61.128 116.679 60.616 116.679 60.04C116.679 59.72 116.503 59.32 116.151 58.84C115.799 58.328 115.127 57.608 114.135 56.68C113.367 57.544 112.823 58.232 112.503 58.744C112.183 59.224 112.023 59.656 112.023 60.04ZM143.948 54.376V67.816C143.948 71.272 143.324 74.28 142.076 76.84C140.86 79.432 139.036 81.432 136.604 82.84C134.204 84.28 131.292 85 127.868 85H124.844V73H127.868C129.66 73 130.908 72.904 131.612 72.712C132.348 72.488 132.828 72.04 133.052 71.368C133.276 70.696 133.388 69.512 133.388 67.816V54.376H143.948ZM159.967 73C157.279 73 155.023 72.424 153.199 71.272C151.375 70.088 150.015 68.52 149.119 66.568C148.223 64.616 147.775 62.456 147.775 60.088V37.384H158.335V59.8C158.335 60.216 158.415 60.52 158.575 60.712C158.767 60.904 159.071 61 159.487 61H162.367L162.847 66.712L162.367 73H159.967ZM161.869 61H166.285C167.341 61 168.077 60.824 168.493 60.472C168.909 60.12 169.053 59.576 168.925 58.84C168.701 57.368 168.381 55.496 167.965 53.224L177.949 50.68C179.069 55.448 179.629 58.936 179.629 61.144C179.629 63.064 179.149 64.952 178.189 66.808C177.261 68.632 175.933 70.12 174.205 71.272C172.477 72.424 170.477 73 168.205 73H161.869V61ZM161.245 76.504H165.709C167.693 76.504 169.165 76.52 170.125 76.552V85.144H161.245V76.504ZM196.823 54.376V67.816C196.823 71.272 196.199 74.28 194.951 76.84C193.735 79.432 191.911 81.432 189.479 82.84C187.079 84.28 184.167 85 180.743 85H177.719V73H180.743C182.535 73 183.783 72.904 184.487 72.712C185.223 72.488 185.703 72.04 185.927 71.368C186.151 70.696 186.263 69.512 186.263 67.816V54.376H196.823ZM216.826 41.512C217.434 42.344 217.706 42.728 217.642 42.664C218.346 43.72 219.514 45.464 221.146 47.896C222.778 50.296 223.946 52.056 224.65 53.176C225.482 54.424 226.122 55.768 226.57 57.208C227.018 58.648 227.242 60.072 227.242 61.48C227.242 63.976 226.586 66.136 225.274 67.96C224.058 69.624 222.554 70.888 220.762 71.752C218.97 72.584 217.002 73 214.858 73H212.218C209.786 73 207.626 72.648 205.738 71.944C203.882 71.208 202.186 70.28 200.65 69.16L204.778 59.704C205.834 60.088 206.826 60.408 207.754 60.664C208.714 60.888 209.914 61 211.354 61H213.754C214.618 61 215.242 60.968 215.626 60.904C216.01 60.808 216.25 60.664 216.346 60.472C216.41 60.344 216.442 60.232 216.442 60.136C216.442 59.816 216.298 59.464 216.01 59.08C211.69 53.128 209.018 49.48 207.994 48.136L216.826 41.512Z" fill="#0C1118" fill-opacity="0.8"/>
<defs>
<linearGradient id="paint0_linear_2248_3901" x1="115.029" y1="0.178023" x2="115.029" y2="22.0408" gradientUnits="userSpaceOnUse">
<stop stop-color="#ED1B24" stop-opacity="0.6"/>
<stop offset="1" stop-color="#ED1B24"/>
</linearGradient>
<linearGradient id="paint1_linear_2248_3901" x1="115.065" y1="22.6312" x2="115.065" y2="100.145" gradientUnits="userSpaceOnUse">
<stop stop-color="#ED1B24" stop-opacity="0.6"/>
<stop offset="1" stop-color="#ED1B24"/>
</linearGradient>
</defs>
</svg>
