<svg width="292" height="100" viewBox="0 0 292 100" fill="none" xmlns="http://www.w3.org/2000/svg">
<path d="M0 8C0 9 0 10 0 11C1.36667 10.975 2.73333 10.95 4.1 10.925C28.7 10.475 53.3 10.025 77.9 9.575C79.2667 9.55 80.6333 9.525 82 9.5C80.6333 9.475 79.2667 9.45 77.9 9.425C53.3 8.975 28.7 8.525 4.1 8.075C2.73333 8.05 1.36667 8.025 0 8Z" fill="#ED1B24"/>
<path d="M97.4673 16.252C95.5833 16.252 94.0173 15.622 92.7693 14.362C91.5333 13.114 90.9153 11.56 90.9153 9.7C90.9153 7.828 91.5333 6.274 92.7693 5.038C94.0173 3.778 95.5833 3.148 97.4673 3.148C98.6073 3.148 99.6573 3.418 100.617 3.958C101.589 4.486 102.345 5.206 102.885 6.118L100.743 7.36C100.431 6.796 99.9873 6.358 99.4113 6.046C98.8353 5.722 98.1873 5.56 97.4673 5.56C96.2433 5.56 95.2533 5.944 94.4973 6.712C93.7533 7.492 93.3813 8.488 93.3813 9.7C93.3813 10.9 93.7533 11.89 94.4973 12.67C95.2533 13.438 96.2433 13.822 97.4673 13.822C98.1873 13.822 98.8353 13.666 99.4113 13.354C99.9993 13.03 100.443 12.592 100.743 12.04L102.885 13.282C102.345 14.194 101.589 14.92 100.617 15.46C99.6573 15.988 98.6073 16.252 97.4673 16.252ZM112.024 14.884C111.112 15.796 109.984 16.252 108.64 16.252C107.296 16.252 106.168 15.796 105.256 14.884C104.344 13.972 103.888 12.844 103.888 11.5C103.888 10.168 104.344 9.046 105.256 8.134C106.18 7.21 107.308 6.748 108.64 6.748C109.972 6.748 111.1 7.21 112.024 8.134C112.948 9.058 113.41 10.18 113.41 11.5C113.41 12.832 112.948 13.96 112.024 14.884ZM106.894 13.282C107.362 13.75 107.944 13.984 108.64 13.984C109.336 13.984 109.918 13.75 110.386 13.282C110.854 12.814 111.088 12.22 111.088 11.5C111.088 10.78 110.854 10.186 110.386 9.718C109.918 9.25 109.336 9.016 108.64 9.016C107.944 9.016 107.362 9.25 106.894 9.718C106.438 10.198 106.21 10.792 106.21 11.5C106.21 12.208 106.438 12.802 106.894 13.282ZM120.281 6.748C121.493 6.748 122.525 7.21 123.377 8.134C124.241 9.058 124.673 10.18 124.673 11.5C124.673 12.844 124.241 13.972 123.377 14.884C122.537 15.796 121.505 16.252 120.281 16.252C119.021 16.252 118.049 15.814 117.365 14.938V19.6H115.043V7H117.365V8.062C118.049 7.186 119.021 6.748 120.281 6.748ZM118.067 13.336C118.535 13.804 119.129 14.038 119.849 14.038C120.569 14.038 121.163 13.804 121.631 13.336C122.111 12.856 122.351 12.244 122.351 11.5C122.351 10.756 122.111 10.15 121.631 9.682C121.163 9.202 120.569 8.962 119.849 8.962C119.129 8.962 118.535 9.202 118.067 9.682C117.599 10.15 117.365 10.756 117.365 11.5C117.365 12.244 117.599 12.856 118.067 13.336ZM133.151 8.062V7H135.473V16H133.151V14.938C132.455 15.814 131.477 16.252 130.217 16.252C129.017 16.252 127.985 15.796 127.121 14.884C126.269 13.96 125.843 12.832 125.843 11.5C125.843 10.18 126.269 9.058 127.121 8.134C127.985 7.21 129.017 6.748 130.217 6.748C131.477 6.748 132.455 7.186 133.151 8.062ZM128.867 13.336C129.335 13.804 129.929 14.038 130.649 14.038C131.369 14.038 131.963 13.804 132.431 13.336C132.911 12.856 133.151 12.244 133.151 11.5C133.151 10.756 132.911 10.15 132.431 9.682C131.963 9.202 131.369 8.962 130.649 8.962C129.929 8.962 129.335 9.202 128.867 9.682C128.399 10.15 128.165 10.756 128.165 11.5C128.165 12.244 128.399 12.856 128.867 13.336Z" fill="url(#paint0_linear_2252_4149)"/>
<path d="M151.961 3.4H154.517V16H152.051V7.828L148.505 13.678H148.217L144.671 7.846V16H142.187V3.4H144.743L148.361 9.358L151.961 3.4ZM157.908 5.92C157.524 5.92 157.188 5.782 156.9 5.506C156.624 5.218 156.486 4.882 156.486 4.498C156.486 4.114 156.624 3.778 156.9 3.49C157.188 3.202 157.524 3.058 157.908 3.058C158.304 3.058 158.64 3.202 158.916 3.49C159.204 3.778 159.348 4.114 159.348 4.498C159.348 4.882 159.204 5.218 158.916 5.506C158.64 5.782 158.304 5.92 157.908 5.92ZM159.078 16H156.756V7H159.078V16ZM163.275 9.556C163.275 9.94 163.821 10.27 164.913 10.546C165.297 10.63 165.645 10.732 165.957 10.852C166.269 10.96 166.581 11.122 166.893 11.338C167.217 11.542 167.469 11.818 167.649 12.166C167.829 12.514 167.919 12.916 167.919 13.372C167.919 14.296 167.571 15.01 166.875 15.514C166.179 16.006 165.321 16.252 164.301 16.252C162.453 16.252 161.193 15.538 160.521 14.11L162.537 12.976C162.813 13.756 163.401 14.146 164.301 14.146C165.129 14.146 165.543 13.888 165.543 13.372C165.543 12.988 164.997 12.658 163.905 12.382C163.497 12.274 163.149 12.166 162.861 12.058C162.573 11.95 162.261 11.794 161.925 11.59C161.589 11.374 161.331 11.104 161.151 10.78C160.983 10.444 160.899 10.054 160.899 9.61C160.899 8.722 161.223 8.026 161.871 7.522C162.531 7.006 163.347 6.748 164.319 6.748C165.051 6.748 165.717 6.916 166.317 7.252C166.917 7.576 167.391 8.044 167.739 8.656L165.759 9.736C165.471 9.124 164.991 8.818 164.319 8.818C164.019 8.818 163.767 8.89 163.563 9.034C163.371 9.166 163.275 9.34 163.275 9.556ZM171.08 9.556C171.08 9.94 171.626 10.27 172.718 10.546C173.102 10.63 173.45 10.732 173.762 10.852C174.074 10.96 174.386 11.122 174.698 11.338C175.022 11.542 175.274 11.818 175.454 12.166C175.634 12.514 175.724 12.916 175.724 13.372C175.724 14.296 175.376 15.01 174.68 15.514C173.984 16.006 173.126 16.252 172.106 16.252C170.258 16.252 168.998 15.538 168.326 14.11L170.342 12.976C170.618 13.756 171.206 14.146 172.106 14.146C172.934 14.146 173.348 13.888 173.348 13.372C173.348 12.988 172.802 12.658 171.71 12.382C171.302 12.274 170.954 12.166 170.666 12.058C170.378 11.95 170.066 11.794 169.73 11.59C169.394 11.374 169.136 11.104 168.956 10.78C168.788 10.444 168.704 10.054 168.704 9.61C168.704 8.722 169.028 8.026 169.676 7.522C170.336 7.006 171.152 6.748 172.124 6.748C172.856 6.748 173.522 6.916 174.122 7.252C174.722 7.576 175.196 8.044 175.544 8.656L173.564 9.736C173.276 9.124 172.796 8.818 172.124 8.818C171.824 8.818 171.572 8.89 171.368 9.034C171.176 9.166 171.08 9.34 171.08 9.556ZM178.369 5.92C177.985 5.92 177.649 5.782 177.361 5.506C177.085 5.218 176.947 4.882 176.947 4.498C176.947 4.114 177.085 3.778 177.361 3.49C177.649 3.202 177.985 3.058 178.369 3.058C178.765 3.058 179.101 3.202 179.377 3.49C179.665 3.778 179.809 4.114 179.809 4.498C179.809 4.882 179.665 5.218 179.377 5.506C179.101 5.782 178.765 5.92 178.369 5.92ZM179.539 16H177.217V7H179.539V16ZM189.333 14.884C188.421 15.796 187.293 16.252 185.949 16.252C184.605 16.252 183.477 15.796 182.565 14.884C181.653 13.972 181.197 12.844 181.197 11.5C181.197 10.168 181.653 9.046 182.565 8.134C183.489 7.21 184.617 6.748 185.949 6.748C187.281 6.748 188.409 7.21 189.333 8.134C190.257 9.058 190.719 10.18 190.719 11.5C190.719 12.832 190.257 13.96 189.333 14.884ZM184.203 13.282C184.671 13.75 185.253 13.984 185.949 13.984C186.645 13.984 187.227 13.75 187.695 13.282C188.163 12.814 188.397 12.22 188.397 11.5C188.397 10.78 188.163 10.186 187.695 9.718C187.227 9.25 186.645 9.016 185.949 9.016C185.253 9.016 184.671 9.25 184.203 9.718C183.747 10.198 183.519 10.792 183.519 11.5C183.519 12.208 183.747 12.802 184.203 13.282ZM197.356 6.748C198.352 6.748 199.162 7.078 199.786 7.738C200.434 8.41 200.758 9.322 200.758 10.474V16H198.436V10.762C198.436 10.174 198.274 9.718 197.95 9.394C197.638 9.07 197.206 8.908 196.654 8.908C196.042 8.908 195.556 9.1 195.196 9.484C194.848 9.856 194.674 10.408 194.674 11.14V16H192.352V7H194.674V8.008C195.226 7.168 196.12 6.748 197.356 6.748Z" fill="#0C1118" fill-opacity="0.8"/>
<path d="M210 9.5C211.367 9.525 212.733 9.55 214.1 9.575C238.7 10.025 263.3 10.475 287.9 10.925C289.267 10.95 290.633 10.975 292 11C292 10 292 9 292 8C290.633 8.025 289.267 8.05 287.9 8.075C263.3 8.525 238.7 8.975 214.1 9.425C212.733 9.45 211.367 9.475 210 9.5Z" fill="#ED1B24"/>
<path d="M14.9279 73C12.2399 73 9.98394 72.424 8.15994 71.272C6.33594 70.088 4.97594 68.52 4.07994 66.568C3.18394 64.616 2.73594 62.456 2.73594 60.088V37.384H13.2959V59.8C13.2959 60.216 13.3759 60.52 13.5359 60.712C13.7279 60.904 14.0319 61 14.4479 61H17.3279L17.8079 66.712L17.3279 73H14.9279ZM16.8303 61H22.3983C23.4543 61 24.1903 60.824 24.6063 60.472C25.0223 60.12 25.1663 59.576 25.0383 58.84C24.8143 57.368 24.4943 55.496 24.0783 53.224L34.0623 50.68C35.1823 55.448 35.7423 58.936 35.7423 61.144C35.7423 63.128 35.3103 65.032 34.4463 66.856C33.6143 68.648 32.3343 70.12 30.6063 71.272C28.8783 72.424 26.7823 73 24.3183 73H16.8303V61ZM14.7183 76.696H22.6383H22.7343H30.6543V84.712H22.7343H22.6383H17.3583H14.7183V76.696ZM18.8463 87.208H26.5263V94.12H18.8463V87.208ZM49.4921 74.44C51.5721 74.44 52.9641 74.36 53.6681 74.2C54.4041 74.072 54.9001 73.672 55.1561 73H52.8521C48.9481 73 45.9241 71.88 43.7801 69.64C41.6361 67.4 40.5641 64.296 40.5641 60.328C40.5641 55.752 41.6201 52.232 43.7321 49.768C45.8761 47.272 48.9161 46.024 52.8521 46.024C56.7881 46.024 59.9081 47.288 62.2121 49.816C64.5481 52.344 65.7961 56.072 65.9561 61H68.7881L69.4601 67.24L68.7881 73H65.8121C65.5241 75.592 64.7241 77.896 63.4121 79.912C62.1321 81.928 60.3081 83.512 57.9401 84.664C55.6041 85.848 52.7881 86.44 49.4921 86.44H41.5241V74.44H49.4921ZM50.2121 59.272C50.2121 60.072 50.4361 60.664 50.8841 61.048C51.3321 61.4 51.9881 61.576 52.8521 61.576H55.3961V59.272C55.3961 58.408 55.1721 57.736 54.7241 57.256C54.3081 56.776 53.6841 56.536 52.8521 56.536C52.0201 56.536 51.3641 56.792 50.8841 57.304C50.4361 57.784 50.2121 58.44 50.2121 59.272ZM92.1082 43.912L82.0282 48.376L86.8282 53.272C87.9482 54.424 88.7802 55.72 89.3242 57.16C89.9002 58.6 90.1882 60.088 90.1882 61.624C90.1882 63.576 89.7402 65.432 88.8442 67.192C87.9482 68.92 86.6522 70.328 84.9562 71.416C83.2602 72.472 81.2602 73 78.9562 73H68.2522V61H78.6682L69.1162 51.208L70.8442 40.456L87.8842 32.968L92.1082 43.912Z" fill="url(#paint1_linear_2252_4149)"/>
<path d="M113.407 73C111.071 73 108.991 72.504 107.167 71.512C105.375 70.488 103.967 69.08 102.943 67.288C101.951 65.464 101.455 63.368 101.455 61C101.455 59.944 101.551 58.872 101.743 57.784C102.127 55.8 102.591 53.832 103.135 51.88L112.975 54.856C112.495 56.68 112.159 58.088 111.967 59.08C111.935 59.208 111.919 59.4 111.919 59.656C111.919 60.552 112.463 61 113.551 61H130.543C131.151 61 131.535 60.92 131.695 60.76C131.887 60.6 131.983 60.28 131.983 59.8V54.376H142.543V59.8C142.543 60.28 142.623 60.6 142.783 60.76C142.943 60.92 143.247 61 143.695 61H144.271L144.799 67.384L144.271 73H143.071C140.767 73 138.687 72.312 136.831 70.936C136.127 71.64 135.295 72.168 134.335 72.52C133.375 72.84 132.143 73 130.639 73H113.407ZM115.183 44.488H117.823H123.103H123.199H131.119V52.504H123.199H123.103H115.183V44.488ZM143.768 61H149.336C150.392 61 151.128 60.824 151.544 60.472C151.96 60.12 152.104 59.576 151.976 58.84C151.752 57.368 151.432 55.496 151.016 53.224L161 50.68C162.12 55.448 162.68 58.936 162.68 61.144C162.68 63.128 162.248 65.032 161.384 66.856C160.552 68.648 159.272 70.12 157.544 71.272C155.816 72.424 153.72 73 151.256 73H143.768V61ZM140.36 76.648H143H148.28H148.376H156.296V84.664H148.376H148.28H140.36V76.648ZM180.831 54.376V67.816C180.831 71.272 180.207 74.28 178.959 76.84C177.743 79.432 175.919 81.432 173.487 82.84C171.087 84.28 168.175 85 164.751 85H161.727V73H164.751C166.543 73 167.791 72.904 168.495 72.712C169.231 72.488 169.711 72.04 169.935 71.368C170.159 70.696 170.271 69.512 170.271 67.816V54.376H180.831ZM193.586 74.44C195.666 74.44 197.058 74.36 197.762 74.2C198.498 74.072 198.994 73.672 199.25 73H196.946C193.042 73 190.018 71.88 187.874 69.64C185.73 67.4 184.658 64.296 184.658 60.328C184.658 55.752 185.714 52.232 187.826 49.768C189.97 47.272 193.01 46.024 196.946 46.024C200.882 46.024 204.002 47.288 206.306 49.816C208.642 52.344 209.89 56.072 210.05 61H212.882L213.554 67.24L212.882 73H209.906C209.618 75.592 208.818 77.896 207.506 79.912C206.226 81.928 204.402 83.512 202.034 84.664C199.698 85.848 196.882 86.44 193.586 86.44H185.618V74.44H193.586ZM194.306 59.272C194.306 60.072 194.53 60.664 194.978 61.048C195.426 61.4 196.082 61.576 196.946 61.576H199.49V59.272C199.49 58.408 199.266 57.736 198.818 57.256C198.402 56.776 197.778 56.536 196.946 56.536C196.114 56.536 195.458 56.792 194.978 57.304C194.53 57.784 194.306 58.44 194.306 59.272ZM212.346 61H213.834C214.314 61 214.682 60.936 214.938 60.808C215.194 60.68 215.386 60.44 215.514 60.088L216.858 55.768C217.946 52.28 219.498 49.704 221.514 48.04C223.53 46.344 226.122 45.496 229.29 45.496C231.594 45.496 233.658 46.168 235.482 47.512C237.338 48.856 238.778 50.648 239.802 52.888C240.826 55.096 241.338 57.48 241.338 60.04C241.338 62.984 240.826 65.496 239.802 67.576C238.81 69.656 237.45 71.24 235.722 72.328C234.026 73.384 232.122 73.912 230.01 73.912C228.922 73.912 227.706 73.688 226.362 73.24C225.018 72.824 223.146 72.104 220.746 71.08C219.082 72.36 217.242 73 215.226 73H212.346V61ZM226.074 61.24C227.93 61.944 229.114 62.296 229.626 62.296C230.33 62.296 230.89 62.104 231.306 61.72C231.754 61.304 231.978 60.696 231.978 59.896C231.978 58.968 231.754 58.216 231.306 57.64C230.858 57.032 230.25 56.728 229.482 56.728C228.842 56.728 228.282 56.968 227.802 57.448C227.322 57.896 226.954 58.488 226.698 59.224L226.074 61.24ZM258.35 73C255.662 73 253.406 72.424 251.582 71.272C249.758 70.088 248.398 68.52 247.502 66.568C246.606 64.616 246.158 62.456 246.158 60.088V37.384H256.718V59.8C256.718 60.216 256.798 60.52 256.958 60.712C257.15 60.904 257.454 61 257.87 61H260.75L261.23 66.712L260.75 73H258.35ZM260.252 61H261.74C262.22 61 262.588 60.936 262.844 60.808C263.1 60.68 263.292 60.44 263.42 60.088L264.764 55.768C265.852 52.28 267.404 49.704 269.42 48.04C271.436 46.344 274.028 45.496 277.196 45.496C279.5 45.496 281.564 46.168 283.388 47.512C285.244 48.856 286.684 50.648 287.708 52.888C288.732 55.096 289.244 57.48 289.244 60.04C289.244 62.984 288.732 65.496 287.708 67.576C286.716 69.656 285.356 71.24 283.628 72.328C281.932 73.384 280.028 73.912 277.916 73.912C276.828 73.912 275.612 73.688 274.268 73.24C272.924 72.824 271.052 72.104 268.652 71.08C266.988 72.36 265.148 73 263.132 73H260.252V61ZM273.98 61.24C275.836 61.944 277.02 62.296 277.532 62.296C278.236 62.296 278.796 62.104 279.212 61.72C279.66 61.304 279.884 60.696 279.884 59.896C279.884 58.968 279.66 58.216 279.212 57.64C278.764 57.032 278.156 56.728 277.388 56.728C276.748 56.728 276.188 56.968 275.708 57.448C275.228 57.896 274.86 58.488 274.604 59.224L273.98 61.24Z" fill="#0C1118" fill-opacity="0.8"/>
<defs>
<linearGradient id="paint0_linear_2252_4149" x1="146.031" y1="0.178023" x2="146.031" y2="22.0408" gradientUnits="userSpaceOnUse">
<stop stop-color="#ED1B24" stop-opacity="0.6"/>
<stop offset="1" stop-color="#ED1B24"/>
</linearGradient>
<linearGradient id="paint1_linear_2252_4149" x1="146.082" y1="22.6312" x2="146.082" y2="100.145" gradientUnits="userSpaceOnUse">
<stop stop-color="#ED1B24" stop-opacity="0.6"/>
<stop offset="1" stop-color="#ED1B24"/>
</linearGradient>
</defs>
</svg>
