<svg width="328" height="28" viewBox="0 0 328 28" fill="none" xmlns="http://www.w3.org/2000/svg">
<path d="M5.14095 17.668C3.88495 17.668 2.84095 17.248 2.00895 16.408C1.18495 15.576 0.772953 14.54 0.772953 13.3C0.772953 12.052 1.18495 11.016 2.00895 10.192C2.84095 9.352 3.88495 8.932 5.14095 8.932C5.90095 8.932 6.60095 9.112 7.24095 9.472C7.88895 9.824 8.39295 10.304 8.75295 10.912L7.32495 11.74C7.11695 11.364 6.82095 11.072 6.43695 10.864C6.05295 10.648 5.62095 10.54 5.14095 10.54C4.32495 10.54 3.66495 10.796 3.16095 11.308C2.66495 11.828 2.41695 12.492 2.41695 13.3C2.41695 14.1 2.66495 14.76 3.16095 15.28C3.66495 15.792 4.32495 16.048 5.14095 16.048C5.62095 16.048 6.05295 15.944 6.43695 15.736C6.82895 15.52 7.12495 15.228 7.32495 14.86L8.75295 15.688C8.39295 16.296 7.88895 16.78 7.24095 17.14C6.60095 17.492 5.90095 17.668 5.14095 17.668ZM14.8454 16.756C14.2374 17.364 13.4854 17.668 12.5894 17.668C11.6934 17.668 10.9414 17.364 10.3334 16.756C9.72539 16.148 9.42139 15.396 9.42139 14.5C9.42139 13.612 9.72539 12.864 10.3334 12.256C10.9494 11.64 11.7014 11.332 12.5894 11.332C13.4774 11.332 14.2294 11.64 14.8454 12.256C15.4614 12.872 15.7694 13.62 15.7694 14.5C15.7694 15.388 15.4614 16.14 14.8454 16.756ZM11.4254 15.688C11.7374 16 12.1254 16.156 12.5894 16.156C13.0534 16.156 13.4414 16 13.7534 15.688C14.0654 15.376 14.2214 14.98 14.2214 14.5C14.2214 14.02 14.0654 13.624 13.7534 13.312C13.4414 13 13.0534 12.844 12.5894 12.844C12.1254 12.844 11.7374 13 11.4254 13.312C11.1214 13.632 10.9694 14.028 10.9694 14.5C10.9694 14.972 11.1214 15.368 11.4254 15.688ZM20.3504 11.332C21.1584 11.332 21.8464 11.64 22.4144 12.256C22.9904 12.872 23.2784 13.62 23.2784 14.5C23.2784 15.396 22.9904 16.148 22.4144 16.756C21.8544 17.364 21.1664 17.668 20.3504 17.668C19.5104 17.668 18.8624 17.376 18.4064 16.792V19.9H16.8584V11.5H18.4064V12.208C18.8624 11.624 19.5104 11.332 20.3504 11.332ZM18.8744 15.724C19.1864 16.036 19.5824 16.192 20.0624 16.192C20.5424 16.192 20.9384 16.036 21.2504 15.724C21.5704 15.404 21.7304 14.996 21.7304 14.5C21.7304 14.004 21.5704 13.6 21.2504 13.288C20.9384 12.968 20.5424 12.808 20.0624 12.808C19.5824 12.808 19.1864 12.968 18.8744 13.288C18.5624 13.6 18.4064 14.004 18.4064 14.5C18.4064 14.996 18.5624 15.404 18.8744 15.724ZM28.9301 12.208V11.5H30.4781V17.5H28.9301V16.792C28.4661 17.376 27.8141 17.668 26.9741 17.668C26.1741 17.668 25.4861 17.364 24.9101 16.756C24.3421 16.14 24.0581 15.388 24.0581 14.5C24.0581 13.62 24.3421 12.872 24.9101 12.256C25.4861 11.64 26.1741 11.332 26.9741 11.332C27.8141 11.332 28.4661 11.624 28.9301 12.208ZM26.0741 15.724C26.3861 16.036 26.7821 16.192 27.2621 16.192C27.7421 16.192 28.1381 16.036 28.4501 15.724C28.7701 15.404 28.9301 14.996 28.9301 14.5C28.9301 14.004 28.7701 13.6 28.4501 13.288C28.1381 12.968 27.7421 12.808 27.2621 12.808C26.7821 12.808 26.3861 12.968 26.0741 13.288C25.7621 13.6 25.6061 14.004 25.6061 14.5C25.6061 14.996 25.7621 15.404 26.0741 15.724Z" fill="url(#paint0_linear_3095_7734)"/>
<path d="M42.1538 17.5H40.3538L39.8498 15.988H36.5018L35.9978 17.5H34.2098L37.1498 9.1H39.2018L42.1538 17.5ZM38.1818 11.008L37.0298 14.44H39.3338L38.1818 11.008ZM47.2814 12.208V9.1H48.8294V17.5H47.2814V16.792C46.8254 17.376 46.1774 17.668 45.3374 17.668C44.5294 17.668 43.8374 17.364 43.2614 16.756C42.6934 16.14 42.4094 15.388 42.4094 14.5C42.4094 13.62 42.6934 12.872 43.2614 12.256C43.8374 11.64 44.5294 11.332 45.3374 11.332C46.1774 11.332 46.8254 11.624 47.2814 12.208ZM44.4254 15.724C44.7534 16.036 45.1534 16.192 45.6254 16.192C46.1054 16.192 46.5014 16.036 46.8134 15.724C47.1254 15.404 47.2814 14.996 47.2814 14.5C47.2814 14.004 47.1254 13.6 46.8134 13.288C46.5014 12.968 46.1054 12.808 45.6254 12.808C45.1454 12.808 44.7454 12.968 44.4254 13.288C44.1134 13.6 43.9574 14.004 43.9574 14.5C43.9574 14.996 44.1134 15.404 44.4254 15.724ZM54.7931 12.208V9.1H56.3411V17.5H54.7931V16.792C54.3371 17.376 53.6891 17.668 52.8491 17.668C52.0411 17.668 51.3491 17.364 50.7731 16.756C50.2051 16.14 49.9211 15.388 49.9211 14.5C49.9211 13.62 50.2051 12.872 50.7731 12.256C51.3491 11.64 52.0411 11.332 52.8491 11.332C53.6891 11.332 54.3371 11.624 54.7931 12.208ZM51.9371 15.724C52.2651 16.036 52.6651 16.192 53.1371 16.192C53.6171 16.192 54.0131 16.036 54.3251 15.724C54.6371 15.404 54.7931 14.996 54.7931 14.5C54.7931 14.004 54.6371 13.6 54.3251 13.288C54.0131 12.968 53.6171 12.808 53.1371 12.808C52.6571 12.808 52.2571 12.968 51.9371 13.288C51.6251 13.6 51.4691 14.004 51.4691 14.5C51.4691 14.996 51.6251 15.404 51.9371 15.724ZM59.3048 11.5V12.532C59.4408 12.156 59.6728 11.872 60.0008 11.68C60.3288 11.48 60.7048 11.38 61.1288 11.38V13.108C60.6568 13.044 60.2328 13.14 59.8568 13.396C59.4888 13.644 59.3048 14.056 59.3048 14.632V17.5H57.7568V11.5H59.3048ZM67.6435 15.136H63.1195C63.3195 15.888 63.8835 16.264 64.8115 16.264C65.4035 16.264 65.8515 16.064 66.1555 15.664L67.4035 16.384C66.8115 17.24 65.9395 17.668 64.7875 17.668C63.7955 17.668 62.9995 17.368 62.3995 16.768C61.7995 16.168 61.4995 15.412 61.4995 14.5C61.4995 13.604 61.7955 12.852 62.3875 12.244C62.9715 11.636 63.7315 11.332 64.6675 11.332C65.5555 11.332 66.2795 11.636 66.8395 12.244C67.4155 12.852 67.7035 13.604 67.7035 14.5C67.7035 14.668 67.6835 14.88 67.6435 15.136ZM63.0955 13.936H66.1555C66.0675 13.544 65.8875 13.244 65.6155 13.036C65.3515 12.828 65.0355 12.724 64.6675 12.724C64.2515 12.724 63.9075 12.832 63.6355 13.048C63.3635 13.256 63.1835 13.552 63.0955 13.936ZM69.9778 13.204C69.9778 13.46 70.3418 13.68 71.0698 13.864C71.3258 13.92 71.5578 13.988 71.7658 14.068C71.9738 14.14 72.1818 14.248 72.3898 14.392C72.6058 14.528 72.7738 14.712 72.8938 14.944C73.0138 15.176 73.0738 15.444 73.0738 15.748C73.0738 16.364 72.8418 16.84 72.3778 17.176C71.9138 17.504 71.3418 17.668 70.6618 17.668C69.4298 17.668 68.5898 17.192 68.1418 16.24L69.4858 15.484C69.6698 16.004 70.0618 16.264 70.6618 16.264C71.2138 16.264 71.4898 16.092 71.4898 15.748C71.4898 15.492 71.1258 15.272 70.3978 15.088C70.1258 15.016 69.8938 14.944 69.7018 14.872C69.5098 14.8 69.3018 14.696 69.0778 14.56C68.8538 14.416 68.6818 14.236 68.5618 14.02C68.4498 13.796 68.3938 13.536 68.3938 13.24C68.3938 12.648 68.6098 12.184 69.0418 11.848C69.4818 11.504 70.0258 11.332 70.6738 11.332C71.1618 11.332 71.6058 11.444 72.0058 11.668C72.4058 11.884 72.7218 12.196 72.9538 12.604L71.6338 13.324C71.4418 12.916 71.1218 12.712 70.6738 12.712C70.4738 12.712 70.3058 12.76 70.1698 12.856C70.0418 12.944 69.9778 13.06 69.9778 13.204ZM75.1809 13.204C75.1809 13.46 75.5449 13.68 76.2729 13.864C76.5289 13.92 76.7609 13.988 76.9689 14.068C77.1769 14.14 77.3849 14.248 77.5929 14.392C77.8089 14.528 77.9769 14.712 78.0969 14.944C78.2169 15.176 78.2769 15.444 78.2769 15.748C78.2769 16.364 78.0449 16.84 77.5809 17.176C77.1169 17.504 76.5449 17.668 75.8649 17.668C74.6329 17.668 73.7929 17.192 73.3449 16.24L74.6889 15.484C74.8729 16.004 75.2649 16.264 75.8649 16.264C76.4169 16.264 76.6929 16.092 76.6929 15.748C76.6929 15.492 76.3289 15.272 75.6009 15.088C75.3289 15.016 75.0969 14.944 74.9049 14.872C74.7129 14.8 74.5049 14.696 74.2809 14.56C74.0569 14.416 73.8849 14.236 73.7649 14.02C73.6529 13.796 73.5969 13.536 73.5969 13.24C73.5969 12.648 73.8129 12.184 74.2449 11.848C74.6849 11.504 75.2289 11.332 75.8769 11.332C76.3649 11.332 76.8089 11.444 77.2089 11.668C77.6089 11.884 77.9249 12.196 78.1569 12.604L76.8369 13.324C76.6449 12.916 76.3249 12.712 75.8769 12.712C75.6769 12.712 75.5089 12.76 75.3729 12.856C75.2449 12.944 75.1809 13.06 75.1809 13.204Z" fill="#0C1118" fill-opacity="0.8"/>
<path d="M87 12.5C89.05 12.525 91.1 12.55 93.15 12.575C130.05 13.025 166.95 13.475 203.85 13.925C205.9 13.95 207.95 13.975 210 14C210 13 210 12 210 11C207.95 11.025 205.9 11.05 203.85 11.075C166.95 11.525 130.05 11.975 93.15 12.425C91.1 12.45 89.05 12.475 87 12.5Z" fill="#ED1B24"/>
<path d="M223.251 19C221.943 19 220.947 18.61 220.263 17.83C219.579 17.038 219.237 16.024 219.237 14.788V6.76H222.099V14.788C222.099 15.112 222.117 15.34 222.153 15.472C222.201 15.592 222.297 15.67 222.441 15.706C222.597 15.742 222.867 15.76 223.251 15.76H224.151L224.259 17.434L224.151 19H223.251ZM223.959 15.76H225.651C226.515 15.76 226.917 15.466 226.857 14.878C226.797 14.194 226.659 13.258 226.443 12.07L229.125 11.404C229.533 13.108 229.737 14.368 229.737 15.184C229.737 15.844 229.593 16.468 229.305 17.056C229.029 17.632 228.609 18.1 228.045 18.46C227.481 18.82 226.785 19 225.957 19H223.959V15.76ZM223.941 20.206H226.209H226.335H228.585V22.582H226.335H226.209H223.941V20.206ZM225.147 23.248H227.415V25.174H225.147V23.248ZM234.278 20.494C234.938 20.494 235.43 20.452 235.754 20.368C236.09 20.284 236.324 20.14 236.456 19.936C236.6 19.732 236.684 19.42 236.708 19H235.484C234.248 19 233.282 18.646 232.586 17.938C231.89 17.218 231.542 16.222 231.542 14.95C231.542 14.014 231.71 13.198 232.046 12.502C232.382 11.794 232.844 11.254 233.432 10.882C234.032 10.498 234.71 10.306 235.466 10.306C236.282 10.306 237.002 10.498 237.626 10.882C238.25 11.254 238.736 11.794 239.084 12.502C239.432 13.198 239.606 14.014 239.606 14.95V15.76H240.596L240.758 17.398L240.596 19H239.588C239.504 20.428 239.03 21.574 238.166 22.438C237.302 23.302 236.006 23.734 234.278 23.734H231.974V20.494H234.278ZM234.26 14.752C234.26 15.544 234.668 15.94 235.484 15.94H236.726V14.86C236.726 14.368 236.636 13.984 236.456 13.708C236.276 13.432 235.946 13.294 235.466 13.294C235.046 13.294 234.74 13.432 234.548 13.708C234.356 13.984 234.26 14.332 234.26 14.752ZM249.143 8.146L244.535 10.18L246.983 12.664C247.379 13.072 247.673 13.516 247.865 13.996C248.069 14.464 248.171 14.95 248.171 15.454C248.171 16.078 248.021 16.66 247.721 17.2C247.421 17.74 246.983 18.178 246.407 18.514C245.843 18.838 245.183 19 244.427 19H240.413V15.76H244.517C244.685 15.76 244.817 15.718 244.913 15.634C245.021 15.55 245.075 15.442 245.075 15.31C245.075 15.142 244.997 14.98 244.841 14.824L241.421 11.368L242.051 7.804L247.991 5.194L249.143 8.146Z" fill="url(#paint1_linear_3095_7734)"/>
<path d="M256.554 14.554C255.954 15.85 255.654 17.014 255.654 18.046C255.654 18.61 255.732 19.054 255.888 19.378C256.044 19.702 256.308 19.936 256.68 20.08C257.064 20.224 257.598 20.296 258.282 20.296H259.56C260.304 20.296 260.838 20.248 261.162 20.152C261.498 20.056 261.72 19.87 261.828 19.594C261.936 19.33 261.99 18.898 261.99 18.298V12.646H264.87V14.878C264.87 15.154 264.96 15.37 265.14 15.526C265.32 15.682 265.53 15.76 265.77 15.76C266.01 15.76 266.22 15.688 266.4 15.544C266.58 15.388 266.67 15.184 266.67 14.932L266.652 12.646H269.532L269.514 14.932C269.514 15.196 269.592 15.4 269.748 15.544C269.904 15.688 270.102 15.76 270.342 15.76C270.606 15.76 270.84 15.682 271.044 15.526C271.248 15.358 271.326 15.124 271.278 14.824L270.792 12.07L273.474 11.404C273.882 13.108 274.086 14.368 274.086 15.184C274.086 16.264 273.786 17.17 273.186 17.902C272.586 18.634 271.638 19 270.342 19C269.43 19 268.68 18.682 268.092 18.046C267.828 18.31 267.486 18.538 267.066 18.73C266.658 18.91 266.226 19 265.77 19C265.446 19 265.14 18.946 264.852 18.838C264.756 20.278 264.276 21.418 263.412 22.258C262.548 23.11 261.264 23.536 259.56 23.536H258.282C257.142 23.536 256.164 23.302 255.348 22.834C254.532 22.366 253.908 21.712 253.476 20.872C253.056 20.044 252.846 19.102 252.846 18.046C252.846 17.362 252.978 16.582 253.242 15.706C253.506 14.818 253.812 14.014 254.16 13.294L256.554 14.554ZM279.822 12.646V17.722C279.822 19.534 279.348 20.956 278.4 21.988C277.452 23.02 276.096 23.536 274.332 23.536H273.198V20.296H274.332C275.052 20.296 275.592 20.224 275.952 20.08C276.324 19.948 276.582 19.702 276.726 19.342C276.87 18.982 276.942 18.442 276.942 17.722V12.646H279.822ZM287.136 10.18C288.48 12.268 289.116 13.258 289.044 13.15C289.56 13.978 289.818 14.8 289.818 15.616C289.818 16.312 289.626 16.936 289.242 17.488C288.87 18.016 288.414 18.4 287.874 18.64C287.346 18.88 286.674 19 285.858 19H284.904C284.088 19 283.374 18.856 282.762 18.568C282.15 18.28 281.682 17.98 281.358 17.668L282.654 15.13C282.882 15.262 283.188 15.4 283.572 15.544C283.968 15.688 284.424 15.76 284.94 15.76H285.75C286.134 15.76 286.404 15.742 286.56 15.706C286.716 15.67 286.824 15.61 286.884 15.526C286.92 15.466 286.938 15.406 286.938 15.346C286.938 15.214 286.842 15.01 286.65 14.734L285.012 12.34L283.896 10.702L286.308 8.902L287.136 10.18ZM291.984 9.082H294.846V19H291.984V9.082ZM289.32 8.146C289.644 7.282 290.04 6.676 290.508 6.328C290.964 5.968 291.636 5.788 292.524 5.788H296.34V7.93H292.524C292.152 7.93 291.87 7.996 291.678 8.128C291.498 8.248 291.342 8.464 291.21 8.776L289.32 8.146Z" fill="#0C1118" fill-opacity="0.8"/>
<path opacity="0.4" d="M324.62 10.45C323.57 5.83 319.54 3.75 316 3.75C316 3.75 316 3.75 315.99 3.75C312.46 3.75 308.42 5.82 307.37 10.44C306.2 15.6 309.36 19.97 312.22 22.72C313.28 23.74 314.64 24.25 316 24.25C317.36 24.25 318.72 23.74 319.77 22.72C322.63 19.97 325.79 15.61 324.62 10.45Z" fill="#ED1B24"/>
<path d="M316.001 15.4602C317.74 15.4602 319.151 14.0499 319.151 12.3102C319.151 10.5705 317.74 9.16016 316.001 9.16016C314.261 9.16016 312.851 10.5705 312.851 12.3102C312.851 14.0499 314.261 15.4602 316.001 15.4602Z" fill="#ED1B24"/>
<defs>
<linearGradient id="paint0_linear_3095_7734" x1="39.5222" y1="6.62138" x2="39.5222" y2="21.5278" gradientUnits="userSpaceOnUse">
<stop stop-color="#ED1B24" stop-opacity="0.6"/>
<stop offset="1" stop-color="#ED1B24"/>
</linearGradient>
<linearGradient id="paint1_linear_3095_7734" x1="257.022" y1="0.226574" x2="257.022" y2="28.0519" gradientUnits="userSpaceOnUse">
<stop stop-color="#ED1B24" stop-opacity="0.6"/>
<stop offset="1" stop-color="#ED1B24"/>
</linearGradient>
</defs>
</svg>
