<svg width="60" height="60" viewBox="0 0 60 60" fill="none" xmlns="http://www.w3.org/2000/svg">
<g clip-path="url(#clip0_2294_5524)">
<path opacity="0.4" d="M50.25 17.35C50.25 18.7 49.525 19.9249 48.375 20.5499L44.025 22.8999L40.325 24.875L32.65 29.0249C31.825 29.4749 30.925 29.7 30 29.7C29.075 29.7 28.175 29.4749 27.35 29.0249L11.625 20.5499C10.475 19.9249 9.75 18.7 9.75 17.35C9.75 16 10.475 14.7749 11.625 14.1499L16.55 11.4999L20.475 9.37495L27.35 5.675C29 4.775 31 4.775 32.65 5.675L48.375 14.1499C49.525 14.7749 50.25 16 50.25 17.35Z" fill="url(#paint0_linear_2294_5524)"/>
<path opacity="0.4" d="M24.7498 31.9749L10.1248 24.65C8.99977 24.075 7.69979 24.15 6.62479 24.8C5.54979 25.45 4.9248 26.6 4.9248 27.85V41.675C4.9248 44.075 6.24976 46.225 8.39977 47.3L23.0248 54.6001C23.5248 54.8501 24.0748 54.975 24.6248 54.975C25.2748 54.975 25.9248 54.8001 26.4998 54.425C27.5748 53.775 28.1998 52.625 28.1998 51.375V37.55C28.2248 35.2 26.8998 33.0499 24.7498 31.9749Z" fill="url(#paint1_linear_2294_5524)"/>
<path opacity="0.4" d="M55.0754 27.8751V41.7001C55.0754 44.0751 53.7504 46.225 51.6004 47.3L36.9754 54.625C36.4754 54.875 35.9254 55.0001 35.3754 55.0001C34.7254 55.0001 34.0754 54.8252 33.4754 54.4502C32.4254 53.8002 31.7754 52.6501 31.7754 51.4001V37.6C31.7754 35.2 33.1004 33.05 35.2504 31.975L40.6254 29.3L44.3754 27.425L49.8754 24.6751C51.0004 24.1001 52.3004 24.1501 53.3754 24.8251C54.4254 25.4751 55.0754 26.6251 55.0754 27.8751Z" fill="url(#paint2_linear_2294_5524)"/>
<path d="M44.0248 22.8999L40.3248 24.875L16.5498 11.4999L20.4748 9.375L43.4248 22.325C43.6748 22.475 43.8748 22.6749 44.0248 22.8999Z" fill="url(#paint3_linear_2294_5524)"/>
<path d="M44.375 27.4248V33.0999C44.375 34.1249 43.525 34.9749 42.5 34.9749C41.475 34.9749 40.625 34.1249 40.625 33.0999V29.2998L44.375 27.4248Z" fill="url(#paint4_linear_2294_5524)"/>
</g>
<defs>
<linearGradient id="paint0_linear_2294_5524" x1="9.75" y1="5" x2="31.7099" y2="41.0071" gradientUnits="userSpaceOnUse">
<stop stop-color="#ED1B24"/>
<stop offset="1" stop-color="#ED1B24" stop-opacity="0.6"/>
</linearGradient>
<linearGradient id="paint1_linear_2294_5524" x1="4.9248" y1="24.2617" x2="34.4939" y2="46.67" gradientUnits="userSpaceOnUse">
<stop stop-color="#ED1B24"/>
<stop offset="1" stop-color="#ED1B24" stop-opacity="0.6"/>
</linearGradient>
<linearGradient id="paint2_linear_2294_5524" x1="31.7754" y1="24.2783" x2="61.3589" y2="46.7151" gradientUnits="userSpaceOnUse">
<stop stop-color="#ED1B24"/>
<stop offset="1" stop-color="#ED1B24" stop-opacity="0.6"/>
</linearGradient>
<linearGradient id="paint3_linear_2294_5524" x1="16.5498" y1="9.375" x2="29.8163" y2="32.8908" gradientUnits="userSpaceOnUse">
<stop stop-color="#ED1B24"/>
<stop offset="1" stop-color="#ED1B24" stop-opacity="0.6"/>
</linearGradient>
<linearGradient id="paint4_linear_2294_5524" x1="40.625" y1="27.4248" x2="46.6409" y2="30.4128" gradientUnits="userSpaceOnUse">
<stop stop-color="#ED1B24"/>
<stop offset="1" stop-color="#ED1B24" stop-opacity="0.6"/>
</linearGradient>
<clipPath id="clip0_2294_5524">
<rect width="60" height="60" fill="white"/>
</clipPath>
</defs>
</svg>
