<svg width="24" height="24" viewBox="0 0 24 24" fill="none" xmlns="http://www.w3.org/2000/svg">
<g clip-path="url(#clip0_2987_594)">
<path opacity="0.4" d="M20.1004 6.93998C20.1004 7.47998 19.8104 7.96995 19.3504 8.21995L17.6104 9.15995L16.1304 9.94999L13.0604 11.61C12.7304 11.79 12.3704 11.88 12.0004 11.88C11.6304 11.88 11.2704 11.79 10.9404 11.61L4.65039 8.21995C4.19039 7.96995 3.90039 7.47998 3.90039 6.93998C3.90039 6.39998 4.19039 5.90995 4.65039 5.65995L6.62039 4.59996L8.1904 3.74998L10.9404 2.27C11.6004 1.91 12.4004 1.91 13.0604 2.27L19.3504 5.65995C19.8104 5.90995 20.1004 6.39998 20.1004 6.93998Z" fill="#0C1118" fill-opacity="0.6"/>
<path opacity="0.4" d="M9.89972 12.7899L4.04971 9.85989C3.59971 9.62989 3.07972 9.65989 2.64972 9.91989C2.21972 10.1799 1.96973 10.6399 1.96973 11.1399V16.6699C1.96973 17.6299 2.49971 18.4899 3.35971 18.9199L9.20972 21.8399C9.40972 21.9399 9.62973 21.9899 9.84973 21.9899C10.1097 21.9899 10.3697 21.9199 10.5997 21.7699C11.0297 21.5099 11.2797 21.0499 11.2797 20.5499V15.0199C11.2897 14.0799 10.7597 13.2199 9.89972 12.7899Z" fill="#0C1118" fill-opacity="0.6"/>
<path opacity="0.4" d="M22.03 11.1502V16.6801C22.03 17.6301 21.5 18.4901 20.64 18.9201L14.79 21.8501C14.59 21.9501 14.37 22.0001 14.15 22.0001C13.89 22.0001 13.63 21.9302 13.39 21.7802C12.97 21.5202 12.71 21.0601 12.71 20.5601V15.0401C12.71 14.0801 13.24 13.2201 14.1 12.7901L16.25 11.7201L17.75 10.9701L19.95 9.87013C20.4 9.64013 20.92 9.66012 21.35 9.93012C21.77 10.1901 22.03 10.6502 22.03 11.1502Z" fill="#0C1118" fill-opacity="0.6"/>
<path d="M17.6101 9.15997L16.1301 9.95001L6.62012 4.59998L8.19012 3.75L17.3701 8.92999C17.4701 8.98999 17.5501 9.06997 17.6101 9.15997Z" fill="#0C1118" fill-opacity="0.6"/>
<path d="M17.75 10.97V13.24C17.75 13.65 17.41 13.99 17 13.99C16.59 13.99 16.25 13.65 16.25 13.24V11.72L17.75 10.97Z" fill="#0C1118" fill-opacity="0.6"/>
</g>
<defs>
<clipPath id="clip0_2987_594">
<rect width="24" height="24" fill="white"/>
</clipPath>
</defs>
</svg>
