<svg width="686" height="28" viewBox="0 0 686 28" fill="none" xmlns="http://www.w3.org/2000/svg">
<path d="M4.86166 17.668C3.60566 17.668 2.56166 17.248 1.72966 16.408C0.905656 15.576 0.493656 14.54 0.493656 13.3C0.493656 12.052 0.905656 11.016 1.72966 10.192C2.56166 9.352 3.60566 8.932 4.86166 8.932C5.62166 8.932 6.32166 9.112 6.96166 9.472C7.60966 9.824 8.11366 10.304 8.47366 10.912L7.04566 11.74C6.83766 11.364 6.54166 11.072 6.15766 10.864C5.77366 10.648 5.34166 10.54 4.86166 10.54C4.04566 10.54 3.38566 10.796 2.88166 11.308C2.38566 11.828 2.13766 12.492 2.13766 13.3C2.13766 14.1 2.38566 14.76 2.88166 15.28C3.38566 15.792 4.04566 16.048 4.86166 16.048C5.34166 16.048 5.77366 15.944 6.15766 15.736C6.54966 15.52 6.84566 15.228 7.04566 14.86L8.47366 15.688C8.11366 16.296 7.60966 16.78 6.96166 17.14C6.32166 17.492 5.62166 17.668 4.86166 17.668ZM12.8487 11.332C13.5127 11.332 14.0527 11.552 14.4687 11.992C14.9007 12.44 15.1167 13.048 15.1167 13.816V17.5H13.5687V14.008C13.5687 13.616 13.4607 13.312 13.2447 13.096C13.0367 12.88 12.7487 12.772 12.3807 12.772C11.9727 12.772 11.6487 12.9 11.4087 13.156C11.1767 13.404 11.0607 13.772 11.0607 14.26V17.5H9.51269V9.1H11.0607V12.172C11.4287 11.612 12.0247 11.332 12.8487 11.332ZM20.9985 12.208V11.5H22.5465V17.5H20.9985V16.792C20.5345 17.376 19.8825 17.668 19.0425 17.668C18.2425 17.668 17.5545 17.364 16.9785 16.756C16.4105 16.14 16.1265 15.388 16.1265 14.5C16.1265 13.62 16.4105 12.872 16.9785 12.256C17.5545 11.64 18.2425 11.332 19.0425 11.332C19.8825 11.332 20.5345 11.624 20.9985 12.208ZM18.1425 15.724C18.4545 16.036 18.8505 16.192 19.3305 16.192C19.8105 16.192 20.2065 16.036 20.5185 15.724C20.8385 15.404 20.9985 14.996 20.9985 14.5C20.9985 14.004 20.8385 13.6 20.5185 13.288C20.2065 12.968 19.8105 12.808 19.3305 12.808C18.8505 12.808 18.4545 12.968 18.1425 13.288C17.8305 13.6 17.6745 14.004 17.6745 14.5C17.6745 14.996 17.8305 15.404 18.1425 15.724ZM27.3822 11.5V12.988H26.0262V15.484C26.0262 15.692 26.0782 15.844 26.1822 15.94C26.2862 16.036 26.4382 16.092 26.6382 16.108C26.8382 16.116 27.0862 16.112 27.3822 16.096V17.5C26.3342 17.62 25.5862 17.524 25.1382 17.212C24.6982 16.892 24.4782 16.316 24.4782 15.484V12.988H23.4342V11.5H24.4782V10.288L26.0262 9.82V11.5H27.3822ZM31.6713 11.5V12.988H30.3153V15.484C30.3153 15.692 30.3673 15.844 30.4713 15.94C30.5753 16.036 30.7273 16.092 30.9273 16.108C31.1273 16.116 31.3753 16.112 31.6713 16.096V17.5C30.6233 17.62 29.8753 17.524 29.4273 17.212C28.9873 16.892 28.7673 16.316 28.7673 15.484V12.988H27.7233V11.5H28.7673V10.288L30.3153 9.82V11.5H31.6713ZM33.5307 10.78C33.2747 10.78 33.0507 10.688 32.8587 10.504C32.6747 10.312 32.5827 10.088 32.5827 9.832C32.5827 9.576 32.6747 9.352 32.8587 9.16C33.0507 8.968 33.2747 8.872 33.5307 8.872C33.7947 8.872 34.0187 8.968 34.2027 9.16C34.3947 9.352 34.4907 9.576 34.4907 9.832C34.4907 10.088 34.3947 10.312 34.2027 10.504C34.0187 10.688 33.7947 10.78 33.5307 10.78ZM34.3107 17.5H32.7627V11.5H34.3107V17.5ZM39.0635 11.332C39.7275 11.332 40.2675 11.552 40.6835 11.992C41.1155 12.44 41.3315 13.048 41.3315 13.816V17.5H39.7835V14.008C39.7835 13.616 39.6755 13.312 39.4595 13.096C39.2515 12.88 38.9635 12.772 38.5955 12.772C38.1875 12.772 37.8635 12.9 37.6235 13.156C37.3915 13.404 37.2755 13.772 37.2755 14.26V17.5H35.7275V11.5H37.2755V12.172C37.6435 11.612 38.2395 11.332 39.0635 11.332ZM47.2493 12.244V11.5H48.7613V17.212C48.7613 18.132 48.4533 18.84 47.8373 19.336C47.2293 19.824 46.4933 20.068 45.6293 20.068C44.2693 20.068 43.3213 19.58 42.7853 18.604L44.1053 17.848C44.4013 18.408 44.9253 18.688 45.6773 18.688C46.1653 18.688 46.5493 18.56 46.8293 18.304C47.1093 18.048 47.2493 17.684 47.2493 17.212V16.564C46.7933 17.172 46.1533 17.476 45.3293 17.476C44.4813 17.476 43.7693 17.18 43.1933 16.588C42.6253 15.98 42.3413 15.252 42.3413 14.404C42.3413 13.556 42.6293 12.832 43.2053 12.232C43.7813 11.632 44.4893 11.332 45.3293 11.332C46.1533 11.332 46.7933 11.636 47.2493 12.244ZM46.7693 15.592C47.0893 15.28 47.2493 14.884 47.2493 14.404C47.2493 13.924 47.0893 13.536 46.7693 13.24C46.4573 12.928 46.0573 12.772 45.5693 12.772C45.0893 12.772 44.6853 12.928 44.3573 13.24C44.0453 13.536 43.8893 13.924 43.8893 14.404C43.8893 14.884 44.0453 15.28 44.3573 15.592C44.6773 15.896 45.0813 16.048 45.5693 16.048C46.0573 16.048 46.4573 15.896 46.7693 15.592ZM58.901 15.196L59.921 11.5H61.565L59.657 17.5H58.181L57.077 13.864L55.973 17.5H54.497L52.589 11.5H54.233L55.253 15.184L56.345 11.5H57.809L58.901 15.196ZM63.1674 10.78C62.9114 10.78 62.6874 10.688 62.4954 10.504C62.3114 10.312 62.2194 10.088 62.2194 9.832C62.2194 9.576 62.3114 9.352 62.4954 9.16C62.6874 8.968 62.9114 8.872 63.1674 8.872C63.4314 8.872 63.6554 8.968 63.8394 9.16C64.0314 9.352 64.1274 9.576 64.1274 9.832C64.1274 10.088 64.0314 10.312 63.8394 10.504C63.6554 10.688 63.4314 10.78 63.1674 10.78ZM63.9474 17.5H62.3994V11.5H63.9474V17.5ZM68.7963 11.5V12.988H67.4403V15.484C67.4403 15.692 67.4923 15.844 67.5963 15.94C67.7003 16.036 67.8523 16.092 68.0523 16.108C68.2523 16.116 68.5003 16.112 68.7963 16.096V17.5C67.7483 17.62 67.0003 17.524 66.5523 17.212C66.1123 16.892 65.8923 16.316 65.8923 15.484V12.988H64.8483V11.5H65.8923V10.288L67.4403 9.82V11.5H68.7963ZM73.2237 11.332C73.8877 11.332 74.4277 11.552 74.8437 11.992C75.2757 12.44 75.4917 13.048 75.4917 13.816V17.5H73.9437V14.008C73.9437 13.616 73.8357 13.312 73.6197 13.096C73.4117 12.88 73.1237 12.772 72.7557 12.772C72.3477 12.772 72.0237 12.9 71.7837 13.156C71.5517 13.404 71.4357 13.772 71.4357 14.26V17.5H69.8877V9.1H71.4357V12.172C71.8037 11.612 72.3997 11.332 73.2237 11.332Z" fill="#0C1118" fill-opacity="0.8"/>
<path d="M83.8695 17.668C82.6135 17.668 81.5695 17.248 80.7375 16.408C79.9135 15.576 79.5015 14.54 79.5015 13.3C79.5015 12.052 79.9135 11.016 80.7375 10.192C81.5695 9.352 82.6135 8.932 83.8695 8.932C84.6295 8.932 85.3295 9.112 85.9695 9.472C86.6175 9.824 87.1215 10.304 87.4815 10.912L86.0535 11.74C85.8455 11.364 85.5495 11.072 85.1655 10.864C84.7815 10.648 84.3495 10.54 83.8695 10.54C83.0535 10.54 82.3935 10.796 81.8895 11.308C81.3935 11.828 81.1455 12.492 81.1455 13.3C81.1455 14.1 81.3935 14.76 81.8895 15.28C82.3935 15.792 83.0535 16.048 83.8695 16.048C84.3495 16.048 84.7815 15.944 85.1655 15.736C85.5575 15.52 85.8535 15.228 86.0535 14.86L87.4815 15.688C87.1215 16.296 86.6175 16.78 85.9695 17.14C85.3295 17.492 84.6295 17.668 83.8695 17.668ZM93.5739 16.756C92.9659 17.364 92.2139 17.668 91.3179 17.668C90.4219 17.668 89.6699 17.364 89.0619 16.756C88.4539 16.148 88.1499 15.396 88.1499 14.5C88.1499 13.612 88.4539 12.864 89.0619 12.256C89.6779 11.64 90.4299 11.332 91.3179 11.332C92.2059 11.332 92.9579 11.64 93.5739 12.256C94.1899 12.872 94.4979 13.62 94.4979 14.5C94.4979 15.388 94.1899 16.14 93.5739 16.756ZM90.1539 15.688C90.4659 16 90.8539 16.156 91.3179 16.156C91.7819 16.156 92.1699 16 92.4819 15.688C92.7939 15.376 92.9499 14.98 92.9499 14.5C92.9499 14.02 92.7939 13.624 92.4819 13.312C92.1699 13 91.7819 12.844 91.3179 12.844C90.8539 12.844 90.4659 13 90.1539 13.312C89.8499 13.632 89.6979 14.028 89.6979 14.5C89.6979 14.972 89.8499 15.368 90.1539 15.688ZM99.0789 11.332C99.8869 11.332 100.575 11.64 101.143 12.256C101.719 12.872 102.007 13.62 102.007 14.5C102.007 15.396 101.719 16.148 101.143 16.756C100.583 17.364 99.8949 17.668 99.0789 17.668C98.2389 17.668 97.5909 17.376 97.1349 16.792V19.9H95.5869V11.5H97.1349V12.208C97.5909 11.624 98.2389 11.332 99.0789 11.332ZM97.6029 15.724C97.9149 16.036 98.3109 16.192 98.7909 16.192C99.2709 16.192 99.6669 16.036 99.9789 15.724C100.299 15.404 100.459 14.996 100.459 14.5C100.459 14.004 100.299 13.6 99.9789 13.288C99.6669 12.968 99.2709 12.808 98.7909 12.808C98.3109 12.808 97.9149 12.968 97.6029 13.288C97.2909 13.6 97.1349 14.004 97.1349 14.5C97.1349 14.996 97.2909 15.404 97.6029 15.724ZM107.659 12.208V11.5H109.207V17.5H107.659V16.792C107.195 17.376 106.543 17.668 105.703 17.668C104.903 17.668 104.215 17.364 103.639 16.756C103.071 16.14 102.787 15.388 102.787 14.5C102.787 13.62 103.071 12.872 103.639 12.256C104.215 11.64 104.903 11.332 105.703 11.332C106.543 11.332 107.195 11.624 107.659 12.208ZM104.803 15.724C105.115 16.036 105.511 16.192 105.991 16.192C106.471 16.192 106.867 16.036 107.179 15.724C107.499 15.404 107.659 14.996 107.659 14.5C107.659 14.004 107.499 13.6 107.179 13.288C106.867 12.968 106.471 12.808 105.991 12.808C105.511 12.808 105.115 12.968 104.803 13.288C104.491 13.6 104.335 14.004 104.335 14.5C104.335 14.996 104.491 15.404 104.803 15.724Z" fill="url(#paint0_linear_3095_7897)"/>
<path d="M118 12.5C125.033 12.525 132.067 12.55 139.1 12.575C265.7 13.025 392.3 13.475 518.9 13.925C525.933 13.95 532.967 13.975 540 14C540 13 540 12 540 11C532.967 11.025 525.933 11.05 518.9 11.075C392.3 11.525 265.7 11.975 139.1 12.425C132.067 12.45 125.033 12.475 118 12.5Z" fill="#ED1B24"/>
<path d="M553.294 19C551.986 19 550.99 18.61 550.306 17.83C549.622 17.038 549.28 16.024 549.28 14.788V6.76H552.142V14.788C552.142 15.112 552.16 15.34 552.196 15.472C552.244 15.592 552.34 15.67 552.484 15.706C552.64 15.742 552.91 15.76 553.294 15.76H554.194L554.302 17.434L554.194 19H553.294ZM554.002 15.76H555.694C556.558 15.76 556.96 15.466 556.9 14.878C556.84 14.194 556.702 13.258 556.486 12.07L559.168 11.404C559.576 13.108 559.78 14.368 559.78 15.184C559.78 15.844 559.636 16.468 559.348 17.056C559.072 17.632 558.652 18.1 558.088 18.46C557.524 18.82 556.828 19 556 19H554.002V15.76ZM553.984 20.206H556.252H556.378H558.628V22.582H556.378H556.252H553.984V20.206ZM555.19 23.248H557.458V25.174H555.19V23.248ZM564.321 20.494C564.981 20.494 565.473 20.452 565.797 20.368C566.133 20.284 566.367 20.14 566.499 19.936C566.643 19.732 566.727 19.42 566.751 19H565.527C564.291 19 563.325 18.646 562.629 17.938C561.933 17.218 561.585 16.222 561.585 14.95C561.585 14.014 561.753 13.198 562.089 12.502C562.425 11.794 562.887 11.254 563.475 10.882C564.075 10.498 564.753 10.306 565.509 10.306C566.325 10.306 567.045 10.498 567.669 10.882C568.293 11.254 568.779 11.794 569.127 12.502C569.475 13.198 569.649 14.014 569.649 14.95V15.76H570.639L570.801 17.398L570.639 19H569.631C569.547 20.428 569.073 21.574 568.209 22.438C567.345 23.302 566.049 23.734 564.321 23.734H562.017V20.494H564.321ZM564.303 14.752C564.303 15.544 564.711 15.94 565.527 15.94H566.769V14.86C566.769 14.368 566.679 13.984 566.499 13.708C566.319 13.432 565.989 13.294 565.509 13.294C565.089 13.294 564.783 13.432 564.591 13.708C564.399 13.984 564.303 14.332 564.303 14.752ZM579.186 8.146L574.578 10.18L577.026 12.664C577.422 13.072 577.716 13.516 577.908 13.996C578.112 14.464 578.214 14.95 578.214 15.454C578.214 16.078 578.064 16.66 577.764 17.2C577.464 17.74 577.026 18.178 576.45 18.514C575.886 18.838 575.226 19 574.47 19H570.456V15.76H574.56C574.728 15.76 574.86 15.718 574.956 15.634C575.064 15.55 575.118 15.442 575.118 15.31C575.118 15.142 575.04 14.98 574.884 14.824L571.464 11.368L572.094 7.804L578.034 5.194L579.186 8.146Z" fill="url(#paint1_linear_3095_7897)"/>
<path d="M586.903 19C585.595 19 584.599 18.61 583.915 17.83C583.231 17.038 582.889 16.024 582.889 14.788V6.76H585.751V14.788C585.751 15.112 585.769 15.34 585.805 15.472C585.853 15.592 585.949 15.67 586.093 15.706C586.249 15.742 586.519 15.76 586.903 15.76H587.803L587.911 17.434L587.803 19H586.903ZM587.612 15.76H589.178C589.598 15.76 589.904 15.694 590.096 15.562C590.288 15.43 590.384 15.226 590.384 14.95C590.384 14.674 590.336 14.26 590.24 13.708C590.156 13.144 590.066 12.598 589.97 12.07L592.652 11.404C593.06 13.108 593.264 14.368 593.264 15.184C593.264 15.844 593.12 16.468 592.832 17.056C592.556 17.632 592.136 18.1 591.572 18.46C591.008 18.82 590.312 19 589.484 19H587.612V15.76ZM586.73 20.818H589.52V23.518H586.73V20.818ZM601.293 14.554C600.693 15.85 600.393 17.014 600.393 18.046C600.393 18.61 600.471 19.054 600.627 19.378C600.783 19.702 601.047 19.936 601.419 20.08C601.803 20.224 602.337 20.296 603.021 20.296H604.299C605.043 20.296 605.577 20.248 605.901 20.152C606.237 20.056 606.459 19.87 606.567 19.594C606.675 19.33 606.729 18.898 606.729 18.298V12.646H609.609V18.298C609.609 19.882 609.177 21.148 608.313 22.096C607.449 23.056 606.111 23.536 604.299 23.536H603.021C601.881 23.536 600.903 23.302 600.087 22.834C599.271 22.366 598.647 21.712 598.215 20.872C597.795 20.044 597.585 19.102 597.585 18.046C597.585 17.362 597.717 16.582 597.981 15.706C598.245 14.818 598.551 14.014 598.899 13.294L601.293 14.554ZM602.697 9.928H605.487V12.628H602.697V9.928ZM615.415 19C614.107 19 613.111 18.61 612.427 17.83C611.743 17.038 611.401 16.024 611.401 14.788V6.76H614.263V14.788C614.263 15.112 614.281 15.34 614.317 15.472C614.365 15.592 614.461 15.67 614.605 15.706C614.761 15.742 615.031 15.76 615.415 15.76H616.315L616.423 17.434L616.315 19H615.415ZM616.141 15.76H616.591C616.783 15.76 616.927 15.712 617.023 15.616C617.119 15.508 617.203 15.31 617.275 15.022L617.653 13.528C617.929 12.412 618.403 11.572 619.075 11.008C619.747 10.444 620.551 10.162 621.487 10.162C622.219 10.162 622.879 10.354 623.467 10.738C624.067 11.122 624.535 11.668 624.871 12.376C625.219 13.072 625.393 13.87 625.393 14.77C625.393 15.07 625.417 15.286 625.465 15.418C625.525 15.55 625.633 15.64 625.789 15.688C625.957 15.736 626.221 15.76 626.581 15.76H626.887L627.067 17.308L626.887 19H626.581C625.585 19 624.793 18.754 624.205 18.262C623.869 18.598 623.485 18.85 623.053 19.018C622.633 19.186 622.213 19.27 621.793 19.27C621.409 19.27 620.989 19.192 620.533 19.036C620.077 18.88 619.447 18.622 618.643 18.262C618.343 18.49 618.019 18.67 617.671 18.802C617.335 18.934 616.993 19 616.645 19H616.141V15.76ZM620.047 15.58C620.551 15.796 620.935 15.946 621.199 16.03C621.463 16.114 621.709 16.156 621.937 16.156C622.189 16.156 622.387 16.036 622.531 15.796C622.687 15.544 622.765 15.208 622.765 14.788C622.765 14.272 622.645 13.888 622.405 13.636C622.165 13.372 621.883 13.24 621.559 13.24C621.259 13.24 621.001 13.348 620.785 13.564C620.569 13.78 620.413 14.08 620.317 14.464L620.047 15.58ZM632.772 12.646V15.292C632.772 15.484 632.826 15.61 632.934 15.67C633.054 15.73 633.246 15.76 633.51 15.76H634.518L634.644 17.47L634.518 19H633.51C633.138 19 632.754 18.94 632.358 18.82C631.962 18.688 631.596 18.496 631.26 18.244C630.924 18.484 630.546 18.67 630.126 18.802C629.706 18.934 629.28 19 628.848 19H626.688V15.76H628.848C629.268 15.76 629.544 15.73 629.676 15.67C629.82 15.61 629.892 15.484 629.892 15.292V12.646H632.772ZM627.534 8.11H629.766H629.928H632.142V10.486H629.928H629.766H627.534V8.11ZM634.335 15.76H634.911H636.045C635.889 15.508 635.769 15.22 635.685 14.896C635.601 14.572 635.559 14.254 635.559 13.942C635.559 13.306 635.733 12.676 636.081 12.052C636.441 11.428 636.933 10.918 637.557 10.522C638.181 10.126 638.877 9.928 639.645 9.928C640.389 9.928 641.067 10.126 641.679 10.522C642.303 10.918 642.789 11.428 643.137 12.052C643.497 12.664 643.677 13.288 643.677 13.924C643.677 14.236 643.629 14.56 643.533 14.896C643.449 15.22 643.329 15.508 643.173 15.76H644.271H644.901L645.081 17.38L644.901 19H643.461C642.885 19 642.255 18.94 641.571 18.82C640.899 18.688 640.239 18.502 639.591 18.262C638.943 18.502 638.283 18.688 637.611 18.82C636.939 18.94 636.327 19 635.775 19H634.335V15.76ZM638.241 6.148H641.031V8.848H638.241V6.148ZM638.367 14.194C638.367 14.554 638.493 14.866 638.745 15.13C639.009 15.382 639.297 15.544 639.609 15.616C639.909 15.556 640.203 15.394 640.491 15.13C640.779 14.854 640.923 14.542 640.923 14.194C640.923 13.846 640.797 13.546 640.545 13.294C640.293 13.042 639.993 12.916 639.645 12.916C639.297 12.916 638.997 13.042 638.745 13.294C638.493 13.546 638.367 13.846 638.367 14.194ZM653.525 8.578L649.223 10.522L651.293 12.664C651.689 13.06 651.983 13.504 652.175 13.996C652.367 14.476 652.463 14.962 652.463 15.454C652.463 16.078 652.313 16.666 652.013 17.218C651.713 17.758 651.281 18.19 650.717 18.514C650.153 18.838 649.493 19 648.737 19H644.723V15.76H648.827C648.995 15.76 649.127 15.718 649.223 15.634C649.331 15.55 649.385 15.442 649.385 15.31C649.385 15.142 649.307 14.98 649.151 14.824L646.109 11.71L646.739 8.146L652.373 5.626L653.525 8.578ZM647.009 6.04L651.329 4.15L651.707 5.122L646.883 7.228L647.009 6.04Z" fill="#0C1118" fill-opacity="0.8"/>
<path d="M680 18.7498C679.84 18.7498 679.69 18.6998 679.55 18.5998C679.22 18.3498 679.15 17.8798 679.4 17.5498C680.97 15.4598 680.97 12.5398 679.4 10.4498C679.15 10.1198 679.22 9.64978 679.55 9.39978C679.88 9.14978 680.35 9.21978 680.6 9.54978C682.56 12.1698 682.56 15.8298 680.6 18.4498C680.45 18.6498 680.23 18.7498 680 18.7498Z" fill="#ED1B24"/>
<path d="M681.829 21.2498C681.669 21.2498 681.519 21.1998 681.379 21.0998C681.049 20.8498 680.979 20.3798 681.229 20.0498C683.899 16.4898 683.899 11.5098 681.229 7.94978C680.979 7.61978 681.049 7.14978 681.379 6.89978C681.709 6.64978 682.179 6.71978 682.429 7.04978C685.499 11.1398 685.499 16.8598 682.429 20.9498C682.289 21.1498 682.059 21.2498 681.829 21.2498Z" fill="#ED1B24"/>
<path opacity="0.4" d="M677.75 9.41021V18.5902C677.75 20.3102 677.13 21.6002 676.02 22.2202C675.57 22.4702 675.07 22.5902 674.55 22.5902C673.75 22.5902 672.89 22.3202 672.01 21.7702L669.09 19.9402C668.89 19.8202 668.66 19.7502 668.43 19.7502H667.5V8.25021H668.43C668.66 8.25021 668.89 8.18021 669.09 8.06021L672.01 6.23021C673.47 5.32021 674.9 5.16021 676.02 5.78021C677.13 6.40021 677.75 7.69021 677.75 9.41021Z" fill="#ED1B24"/>
<path d="M667.5 8.25V19.75H667C664.58 19.75 663.25 18.42 663.25 16V12C663.25 9.58 664.58 8.25 667 8.25H667.5Z" fill="#ED1B24"/>
<defs>
<linearGradient id="paint0_linear_3095_7897" x1="55.0309" y1="6.62138" x2="55.0309" y2="21.5278" gradientUnits="userSpaceOnUse">
<stop stop-color="#ED1B24" stop-opacity="0.6"/>
<stop offset="1" stop-color="#ED1B24"/>
</linearGradient>
<linearGradient id="paint1_linear_3095_7897" x1="601.03" y1="0.226574" x2="601.03" y2="28.0519" gradientUnits="userSpaceOnUse">
<stop stop-color="#ED1B24" stop-opacity="0.6"/>
<stop offset="1" stop-color="#ED1B24"/>
</linearGradient>
</defs>
</svg>
