<svg width="296" height="18" viewBox="0 0 296 18" fill="none" xmlns="http://www.w3.org/2000/svg">
<path d="M5.18392 12.668C3.92792 12.668 2.88392 12.248 2.05192 11.408C1.22792 10.576 0.815922 9.54 0.815922 8.3C0.815922 7.052 1.22792 6.016 2.05192 5.192C2.88392 4.352 3.92792 3.932 5.18392 3.932C5.94392 3.932 6.64392 4.112 7.28392 4.472C7.93192 4.824 8.43592 5.304 8.79592 5.912L7.36792 6.74C7.15992 6.364 6.86392 6.072 6.47992 5.864C6.09592 5.648 5.66392 5.54 5.18392 5.54C4.36792 5.54 3.70792 5.796 3.20392 6.308C2.70792 6.828 2.45992 7.492 2.45992 8.3C2.45992 9.1 2.70792 9.76 3.20392 10.28C3.70792 10.792 4.36792 11.048 5.18392 11.048C5.66392 11.048 6.09592 10.944 6.47992 10.736C6.87192 10.52 7.16792 10.228 7.36792 9.86L8.79592 10.688C8.43592 11.296 7.93192 11.78 7.28392 12.14C6.64392 12.492 5.94392 12.668 5.18392 12.668ZM14.8884 11.756C14.2804 12.364 13.5284 12.668 12.6324 12.668C11.7364 12.668 10.9844 12.364 10.3764 11.756C9.76836 11.148 9.46436 10.396 9.46436 9.5C9.46436 8.612 9.76836 7.864 10.3764 7.256C10.9924 6.64 11.7444 6.332 12.6324 6.332C13.5204 6.332 14.2724 6.64 14.8884 7.256C15.5044 7.872 15.8124 8.62 15.8124 9.5C15.8124 10.388 15.5044 11.14 14.8884 11.756ZM11.4684 10.688C11.7804 11 12.1684 11.156 12.6324 11.156C13.0964 11.156 13.4844 11 13.7964 10.688C14.1084 10.376 14.2644 9.98 14.2644 9.5C14.2644 9.02 14.1084 8.624 13.7964 8.312C13.4844 8 13.0964 7.844 12.6324 7.844C12.1684 7.844 11.7804 8 11.4684 8.312C11.1644 8.632 11.0124 9.028 11.0124 9.5C11.0124 9.972 11.1644 10.368 11.4684 10.688ZM20.2374 6.332C20.9014 6.332 21.4414 6.552 21.8574 6.992C22.2894 7.44 22.5054 8.048 22.5054 8.816V12.5H20.9574V9.008C20.9574 8.616 20.8494 8.312 20.6334 8.096C20.4254 7.88 20.1374 7.772 19.7694 7.772C19.3614 7.772 19.0374 7.9 18.7974 8.156C18.5654 8.404 18.4494 8.772 18.4494 9.26V12.5H16.9014V6.5H18.4494V7.172C18.8174 6.612 19.4134 6.332 20.2374 6.332ZM27.2591 6.5V7.988H25.9031V10.484C25.9031 10.692 25.9551 10.844 26.0591 10.94C26.1631 11.036 26.3151 11.092 26.5151 11.108C26.7151 11.116 26.9631 11.112 27.2591 11.096V12.5C26.2111 12.62 25.4631 12.524 25.0151 12.212C24.5751 11.892 24.3551 11.316 24.3551 10.484V7.988H23.3111V6.5H24.3551V5.288L25.9031 4.82V6.5H27.2591ZM32.7231 7.208V6.5H34.2711V12.5H32.7231V11.792C32.2591 12.376 31.6071 12.668 30.7671 12.668C29.9671 12.668 29.2791 12.364 28.7031 11.756C28.1351 11.14 27.8511 10.388 27.8511 9.5C27.8511 8.62 28.1351 7.872 28.7031 7.256C29.2791 6.64 29.9671 6.332 30.7671 6.332C31.6071 6.332 32.2591 6.624 32.7231 7.208ZM29.8671 10.724C30.1791 11.036 30.5751 11.192 31.0551 11.192C31.5351 11.192 31.9311 11.036 32.2431 10.724C32.5631 10.404 32.7231 9.996 32.7231 9.5C32.7231 9.004 32.5631 8.6 32.2431 8.288C31.9311 7.968 31.5351 7.808 31.0551 7.808C30.5751 7.808 30.1791 7.968 29.8671 8.288C29.5551 8.6 29.3991 9.004 29.3991 9.5C29.3991 9.996 29.5551 10.404 29.8671 10.724ZM38.5308 12.668C37.6268 12.668 36.8708 12.364 36.2628 11.756C35.6628 11.148 35.3628 10.396 35.3628 9.5C35.3628 8.604 35.6628 7.852 36.2628 7.244C36.8708 6.636 37.6268 6.332 38.5308 6.332C39.1148 6.332 39.6468 6.472 40.1268 6.752C40.6068 7.032 40.9708 7.408 41.2188 7.88L39.8868 8.66C39.7668 8.412 39.5828 8.216 39.3348 8.072C39.0948 7.928 38.8228 7.856 38.5188 7.856C38.0548 7.856 37.6708 8.012 37.3668 8.324C37.0628 8.628 36.9108 9.02 36.9108 9.5C36.9108 9.964 37.0628 10.356 37.3668 10.676C37.6708 10.98 38.0548 11.132 38.5188 11.132C38.8308 11.132 39.1068 11.064 39.3468 10.928C39.5948 10.784 39.7788 10.588 39.8988 10.34L41.2428 11.108C40.9788 11.588 40.6028 11.968 40.1148 12.248C39.6348 12.528 39.1068 12.668 38.5308 12.668ZM45.4935 6.5V7.988H44.1375V10.484C44.1375 10.692 44.1895 10.844 44.2935 10.94C44.3975 11.036 44.5495 11.092 44.7495 11.108C44.9495 11.116 45.1975 11.112 45.4935 11.096V12.5C44.4455 12.62 43.6975 12.524 43.2495 12.212C42.8095 11.892 42.5895 11.316 42.5895 10.484V7.988H41.5455V6.5H42.5895V5.288L44.1375 4.82V6.5H45.4935ZM47.884 8.204C47.884 8.46 48.248 8.68 48.976 8.864C49.232 8.92 49.464 8.988 49.672 9.068C49.88 9.14 50.088 9.248 50.296 9.392C50.512 9.528 50.68 9.712 50.8 9.944C50.92 10.176 50.98 10.444 50.98 10.748C50.98 11.364 50.748 11.84 50.284 12.176C49.82 12.504 49.248 12.668 48.568 12.668C47.336 12.668 46.496 12.192 46.048 11.24L47.392 10.484C47.576 11.004 47.968 11.264 48.568 11.264C49.12 11.264 49.396 11.092 49.396 10.748C49.396 10.492 49.032 10.272 48.304 10.088C48.032 10.016 47.8 9.944 47.608 9.872C47.416 9.8 47.208 9.696 46.984 9.56C46.76 9.416 46.588 9.236 46.468 9.02C46.356 8.796 46.3 8.536 46.3 8.24C46.3 7.648 46.516 7.184 46.948 6.848C47.388 6.504 47.932 6.332 48.58 6.332C49.068 6.332 49.512 6.444 49.912 6.668C50.312 6.884 50.628 7.196 50.86 7.604L49.54 8.324C49.348 7.916 49.028 7.712 48.58 7.712C48.38 7.712 48.212 7.76 48.076 7.856C47.948 7.944 47.884 8.06 47.884 8.204ZM58.9942 9.74V6.5H60.5422V12.5H58.9942V11.828C58.6262 12.388 58.0302 12.668 57.2062 12.668C56.5502 12.668 56.0062 12.448 55.5742 12.008C55.1502 11.56 54.9382 10.952 54.9382 10.184V6.5H56.4862V9.992C56.4862 10.384 56.5902 10.688 56.7982 10.904C57.0142 11.12 57.3062 11.228 57.6742 11.228C58.0822 11.228 58.4022 11.104 58.6342 10.856C58.8742 10.6 58.9942 10.228 58.9942 9.74ZM63.3411 8.204C63.3411 8.46 63.7051 8.68 64.4331 8.864C64.6891 8.92 64.9211 8.988 65.1291 9.068C65.3371 9.14 65.5451 9.248 65.7531 9.392C65.9691 9.528 66.1371 9.712 66.2571 9.944C66.3771 10.176 66.4371 10.444 66.4371 10.748C66.4371 11.364 66.2051 11.84 65.7411 12.176C65.2771 12.504 64.7051 12.668 64.0251 12.668C62.7931 12.668 61.9531 12.192 61.5051 11.24L62.8491 10.484C63.0331 11.004 63.4251 11.264 64.0251 11.264C64.5771 11.264 64.8531 11.092 64.8531 10.748C64.8531 10.492 64.4891 10.272 63.7611 10.088C63.4891 10.016 63.2571 9.944 63.0651 9.872C62.8731 9.8 62.6651 9.696 62.4411 9.56C62.2171 9.416 62.0451 9.236 61.9251 9.02C61.8131 8.796 61.7571 8.536 61.7571 8.24C61.7571 7.648 61.9731 7.184 62.4051 6.848C62.8451 6.504 63.3891 6.332 64.0371 6.332C64.5251 6.332 64.9691 6.444 65.3691 6.668C65.7691 6.884 66.0851 7.196 66.3171 7.604L64.9971 8.324C64.8051 7.916 64.4851 7.712 64.0371 7.712C63.8371 7.712 63.6691 7.76 63.5331 7.856C63.4051 7.944 63.3411 8.06 63.3411 8.204Z" fill="#0C1118" fill-opacity="0.8"/>
<path d="M74.5472 12.668C73.2912 12.668 72.2472 12.248 71.4152 11.408C70.5912 10.576 70.1792 9.54 70.1792 8.3C70.1792 7.052 70.5912 6.016 71.4152 5.192C72.2472 4.352 73.2912 3.932 74.5472 3.932C75.3072 3.932 76.0072 4.112 76.6472 4.472C77.2952 4.824 77.7992 5.304 78.1592 5.912L76.7312 6.74C76.5232 6.364 76.2272 6.072 75.8432 5.864C75.4592 5.648 75.0272 5.54 74.5472 5.54C73.7312 5.54 73.0712 5.796 72.5672 6.308C72.0712 6.828 71.8232 7.492 71.8232 8.3C71.8232 9.1 72.0712 9.76 72.5672 10.28C73.0712 10.792 73.7312 11.048 74.5472 11.048C75.0272 11.048 75.4592 10.944 75.8432 10.736C76.2352 10.52 76.5312 10.228 76.7312 9.86L78.1592 10.688C77.7992 11.296 77.2952 11.78 76.6472 12.14C76.0072 12.492 75.3072 12.668 74.5472 12.668ZM84.2516 11.756C83.6436 12.364 82.8916 12.668 81.9956 12.668C81.0996 12.668 80.3476 12.364 79.7396 11.756C79.1316 11.148 78.8276 10.396 78.8276 9.5C78.8276 8.612 79.1316 7.864 79.7396 7.256C80.3556 6.64 81.1076 6.332 81.9956 6.332C82.8836 6.332 83.6356 6.64 84.2516 7.256C84.8676 7.872 85.1756 8.62 85.1756 9.5C85.1756 10.388 84.8676 11.14 84.2516 11.756ZM80.8316 10.688C81.1436 11 81.5316 11.156 81.9956 11.156C82.4596 11.156 82.8476 11 83.1596 10.688C83.4716 10.376 83.6276 9.98 83.6276 9.5C83.6276 9.02 83.4716 8.624 83.1596 8.312C82.8476 8 82.4596 7.844 81.9956 7.844C81.5316 7.844 81.1436 8 80.8316 8.312C80.5276 8.632 80.3756 9.028 80.3756 9.5C80.3756 9.972 80.5276 10.368 80.8316 10.688ZM89.7566 6.332C90.5646 6.332 91.2526 6.64 91.8206 7.256C92.3966 7.872 92.6846 8.62 92.6846 9.5C92.6846 10.396 92.3966 11.148 91.8206 11.756C91.2606 12.364 90.5726 12.668 89.7566 12.668C88.9166 12.668 88.2686 12.376 87.8126 11.792V14.9H86.2646V6.5H87.8126V7.208C88.2686 6.624 88.9166 6.332 89.7566 6.332ZM88.2806 10.724C88.5926 11.036 88.9886 11.192 89.4686 11.192C89.9486 11.192 90.3446 11.036 90.6566 10.724C90.9766 10.404 91.1366 9.996 91.1366 9.5C91.1366 9.004 90.9766 8.6 90.6566 8.288C90.3446 7.968 89.9486 7.808 89.4686 7.808C88.9886 7.808 88.5926 7.968 88.2806 8.288C87.9686 8.6 87.8126 9.004 87.8126 9.5C87.8126 9.996 87.9686 10.404 88.2806 10.724ZM98.3364 7.208V6.5H99.8844V12.5H98.3364V11.792C97.8724 12.376 97.2204 12.668 96.3804 12.668C95.5804 12.668 94.8924 12.364 94.3164 11.756C93.7484 11.14 93.4644 10.388 93.4644 9.5C93.4644 8.62 93.7484 7.872 94.3164 7.256C94.8924 6.64 95.5804 6.332 96.3804 6.332C97.2204 6.332 97.8724 6.624 98.3364 7.208ZM95.4804 10.724C95.7924 11.036 96.1884 11.192 96.6684 11.192C97.1484 11.192 97.5444 11.036 97.8564 10.724C98.1764 10.404 98.3364 9.996 98.3364 9.5C98.3364 9.004 98.1764 8.6 97.8564 8.288C97.5444 7.968 97.1484 7.808 96.6684 7.808C96.1884 7.808 95.7924 7.968 95.4804 8.288C95.1684 8.6 95.0124 9.004 95.0124 9.5C95.0124 9.996 95.1684 10.404 95.4804 10.724Z" fill="url(#paint0_linear_3095_8944)"/>
<path d="M109 7.5C110.333 7.525 111.667 7.55 113 7.575C137 8.025 161 8.475 185 8.925C186.333 8.95 187.667 8.975 189 9C189 8 189 7 189 6C187.667 6.025 186.333 6.05 185 6.075C161 6.525 137 6.975 113 7.425C111.667 7.45 110.333 7.475 109 7.5Z" fill="#ED1B24"/>
<path d="M201.186 13C200.206 13 199.483 12.7153 199.016 12.146C198.559 11.5767 198.33 10.8113 198.33 9.85V3.648H200.108V9.85C200.108 10.2047 200.127 10.4567 200.164 10.606C200.211 10.7553 200.304 10.858 200.444 10.914C200.594 10.9607 200.841 10.984 201.186 10.984H201.69L201.774 12.02L201.69 13H201.186ZM201.533 10.984H203.087C203.507 10.984 203.806 10.914 203.983 10.774C204.161 10.6247 204.24 10.4147 204.221 10.144C204.175 9.56533 204.053 8.79067 203.857 7.82L205.537 7.4C205.649 7.89467 205.752 8.422 205.845 8.982C205.948 9.542 205.999 9.99467 205.999 10.34C205.999 10.8067 205.897 11.2407 205.691 11.642C205.486 12.0433 205.173 12.37 204.753 12.622C204.343 12.874 203.834 13 203.227 13H201.533V10.984ZM201.001 14.106H202.667V15.772H201.001V14.106ZM202.373 16.206H203.969V17.788H202.373V16.206ZM203.661 14.106H205.327V15.772H203.661V14.106ZM209.349 14.61C209.928 14.61 210.366 14.5587 210.665 14.456C210.964 14.3627 211.169 14.1993 211.281 13.966C211.402 13.742 211.472 13.42 211.491 13H210.287C209.4 13 208.696 12.7433 208.173 12.23C207.66 11.7073 207.403 10.9793 207.403 10.046C207.403 9.38333 207.524 8.79533 207.767 8.282C208.019 7.76867 208.36 7.372 208.789 7.092C209.228 6.80267 209.722 6.658 210.273 6.658C210.87 6.658 211.393 6.798 211.841 7.078C212.298 7.358 212.648 7.75467 212.891 8.268C213.143 8.78133 213.269 9.374 213.269 10.046V10.984H214.039L214.151 12.006L214.039 13H213.269C213.232 14.092 212.896 14.9693 212.261 15.632C211.626 16.2947 210.656 16.626 209.349 16.626H207.683V14.61H209.349ZM209.111 9.948C209.111 10.3307 209.204 10.6153 209.391 10.802C209.578 10.9793 209.876 11.068 210.287 11.068H211.491V10.004C211.491 9.03333 211.085 8.548 210.273 8.548C209.89 8.548 209.601 8.67867 209.405 8.94C209.209 9.20133 209.111 9.53733 209.111 9.948ZM220.599 4.586L216.679 6.308L218.835 8.506C219.115 8.786 219.325 9.09867 219.465 9.444C219.605 9.78 219.675 10.1253 219.675 10.48C219.675 10.928 219.568 11.3433 219.353 11.726C219.148 12.1087 218.84 12.4167 218.429 12.65C218.028 12.8833 217.556 13 217.015 13H213.893V10.984H217.057C217.3 10.984 217.486 10.9373 217.617 10.844C217.757 10.7413 217.827 10.6107 217.827 10.452C217.827 10.256 217.729 10.06 217.533 9.864L214.747 7.064L215.181 4.81L219.871 2.738L220.599 4.586Z" fill="url(#paint1_linear_3095_8944)"/>
<path d="M226.985 13C226.005 13 225.282 12.7153 224.815 12.146C224.358 11.5767 224.129 10.8113 224.129 9.85V3.648H225.907V9.85C225.907 10.2047 225.926 10.4567 225.963 10.606C226.01 10.7553 226.103 10.858 226.243 10.914C226.392 10.9607 226.64 10.984 226.985 10.984H227.489L227.573 12.02L227.489 13H226.985ZM227.332 10.984H228.69C229.409 10.984 229.754 10.704 229.726 10.144C229.698 9.73333 229.577 8.95867 229.362 7.82L231.028 7.4C231.345 8.772 231.504 9.752 231.504 10.34C231.504 10.7973 231.401 11.2313 231.196 11.642C231 12.0433 230.697 12.37 230.286 12.622C229.885 12.874 229.399 13 228.83 13H227.332V10.984ZM227.066 14.694H228.928V16.514H227.066V14.694ZM237.963 9.514C237.478 10.5313 237.235 11.4693 237.235 12.328C237.235 13.056 237.403 13.602 237.739 13.966C238.084 14.33 238.658 14.512 239.461 14.512H240.665C241.262 14.512 241.71 14.4607 242.009 14.358C242.308 14.2553 242.508 14.078 242.611 13.826C242.723 13.574 242.779 13.2007 242.779 12.706V8.31H244.557V9.948C244.557 10.312 244.641 10.578 244.809 10.746C244.986 10.9047 245.22 10.984 245.509 10.984C245.808 10.984 246.036 10.914 246.195 10.774C246.354 10.6247 246.433 10.4007 246.433 10.102L246.419 8.31H248.211L248.197 10.172C248.197 10.7133 248.477 10.984 249.037 10.984C249.317 10.984 249.541 10.9047 249.709 10.746C249.886 10.5873 249.961 10.3773 249.933 10.116C249.849 9.56533 249.714 8.8 249.527 7.82L251.207 7.4C251.515 8.76267 251.669 9.74733 251.669 10.354C251.669 10.8207 251.576 11.2547 251.389 11.656C251.212 12.0573 250.922 12.384 250.521 12.636C250.129 12.8787 249.634 13 249.037 13C248.682 13 248.356 12.93 248.057 12.79C247.758 12.65 247.502 12.454 247.287 12.202C247.082 12.4447 246.825 12.6407 246.517 12.79C246.209 12.93 245.873 13 245.509 13C245.192 13 244.874 12.9253 244.557 12.776C244.538 13.9333 244.216 14.848 243.591 15.52C242.966 16.192 241.99 16.528 240.665 16.528H239.461C238.621 16.528 237.902 16.3413 237.305 15.968C236.708 15.5947 236.255 15.0907 235.947 14.456C235.639 13.8213 235.485 13.112 235.485 12.328C235.485 11.7587 235.583 11.152 235.779 10.508C235.975 9.864 236.208 9.27133 236.479 8.73L237.963 9.514ZM256.147 13C255.167 13 254.444 12.7153 253.977 12.146C253.52 11.5767 253.291 10.8113 253.291 9.85V3.648H255.069V9.85C255.069 10.2047 255.088 10.4567 255.125 10.606C255.172 10.7553 255.265 10.858 255.405 10.914C255.555 10.9607 255.802 10.984 256.147 10.984H256.651L256.735 12.02L256.651 13H256.147ZM256.508 10.984H256.872C257.059 10.984 257.199 10.942 257.292 10.858C257.395 10.7647 257.469 10.6153 257.516 10.41L257.88 9.066C258.085 8.254 258.431 7.63333 258.916 7.204C259.401 6.77467 259.985 6.56 260.666 6.56C261.207 6.56 261.688 6.70933 262.108 7.008C262.537 7.29733 262.873 7.70333 263.116 8.226C263.359 8.73933 263.48 9.318 263.48 9.962C263.48 10.2607 263.503 10.48 263.55 10.62C263.606 10.76 263.695 10.858 263.816 10.914C263.937 10.9607 264.124 10.984 264.376 10.984H264.586L264.698 11.964L264.586 13H264.376C263.695 13 263.144 12.8133 262.724 12.44C262.481 12.7107 262.206 12.9113 261.898 13.042C261.599 13.182 261.291 13.252 260.974 13.252C260.657 13.252 260.321 13.1867 259.966 13.056C259.621 12.9347 259.103 12.7107 258.412 12.384C258.197 12.58 257.959 12.734 257.698 12.846C257.437 12.9487 257.171 13 256.9 13H256.508V10.984ZM259.266 10.69C259.77 10.9233 260.143 11.082 260.386 11.166C260.629 11.25 260.848 11.292 261.044 11.292C261.557 11.292 261.814 10.8533 261.814 9.976C261.814 9.5 261.711 9.136 261.506 8.884C261.301 8.62267 261.035 8.492 260.708 8.492C260.437 8.492 260.199 8.59 259.994 8.786C259.789 8.982 259.639 9.26667 259.546 9.64L259.266 10.69ZM264.424 10.984H265.978C266.398 10.984 266.696 10.914 266.874 10.774C267.051 10.6247 267.13 10.4147 267.112 10.144C267.065 9.56533 266.944 8.79067 266.748 7.82L268.428 7.4C268.54 7.89467 268.642 8.422 268.736 8.982C268.838 9.542 268.89 9.99467 268.89 10.34C268.89 10.8067 268.787 11.2407 268.582 11.642C268.376 12.0433 268.064 12.37 267.644 12.622C267.233 12.874 266.724 13 266.118 13H264.424V10.984ZM264.816 4.18H266.482V5.846H264.816V4.18ZM267.434 4.18H269.114V5.846H267.434V4.18Z" fill="#0C1118" fill-opacity="0.8"/>
<path d="M291.215 8.0627C290.893 8.0627 290.638 7.80019 290.638 7.4852C290.638 7.2077 290.36 6.6302 289.895 6.1277C289.437 5.6402 288.935 5.3552 288.515 5.3552C288.193 5.3552 287.938 5.0927 287.938 4.7777C287.938 4.4627 288.2 4.2002 288.515 4.2002C289.265 4.2002 290.052 4.6052 290.742 5.3327C291.387 6.0152 291.8 6.8627 291.8 7.4777C291.8 7.8002 291.538 8.0627 291.215 8.0627Z" fill="#ED1B24"/>
<path d="M293.923 8.0625C293.6 8.0625 293.345 7.8 293.345 7.485C293.345 4.8225 291.178 2.6625 288.523 2.6625C288.2 2.6625 287.945 2.4 287.945 2.085C287.945 1.77 288.2 1.5 288.515 1.5C291.815 1.5 294.5 4.185 294.5 7.485C294.5 7.8 294.238 8.0625 293.923 8.0625Z" fill="#ED1B24"/>
<path opacity="0.4" d="M286.842 10.6575L284.39 13.11C284.12 12.87 283.858 12.6225 283.602 12.3675C282.83 11.5875 282.132 10.77 281.51 9.915C280.895 9.06 280.4 8.205 280.04 7.3575C279.68 6.5025 279.5 5.685 279.5 4.905C279.5 4.395 279.59 3.9075 279.77 3.4575C279.95 3 280.235 2.58 280.632 2.205C281.112 1.7325 281.638 1.5 282.193 1.5C282.403 1.5 282.613 1.545 282.8 1.635C282.995 1.725 283.168 1.86 283.303 2.055L285.043 4.5075C285.178 4.695 285.275 4.8675 285.342 5.0325C285.41 5.19 285.448 5.3475 285.448 5.49C285.448 5.67 285.395 5.85 285.29 6.0225C285.193 6.195 285.05 6.375 284.87 6.555L284.3 7.1475C284.217 7.23 284.18 7.3275 284.18 7.4475C284.18 7.5075 284.188 7.56 284.203 7.62C284.225 7.68 284.248 7.725 284.263 7.77C284.398 8.0175 284.63 8.34 284.96 8.73C285.297 9.12 285.657 9.5175 286.047 9.915C286.317 10.1775 286.58 10.4325 286.842 10.6575Z" fill="#ED1B24"/>
<path d="M294.478 13.7473C294.478 13.9573 294.44 14.1748 294.365 14.3848C294.343 14.4448 294.32 14.5048 294.29 14.5648C294.163 14.8348 293.998 15.0898 293.78 15.3298C293.413 15.7348 293.008 16.0273 292.55 16.2148C292.543 16.2148 292.535 16.2223 292.528 16.2223C292.085 16.4023 291.605 16.4998 291.088 16.4998C290.323 16.4998 289.505 16.3198 288.643 15.9523C287.78 15.5848 286.918 15.0898 286.063 14.4673C285.77 14.2498 285.478 14.0323 285.2 13.7998L287.653 11.3473C287.863 11.5048 288.05 11.6248 288.208 11.7073C288.245 11.7223 288.29 11.7448 288.343 11.7673C288.403 11.7898 288.463 11.7973 288.53 11.7973C288.658 11.7973 288.755 11.7523 288.838 11.6698L289.408 11.1073C289.595 10.9198 289.775 10.7773 289.948 10.6873C290.12 10.5823 290.293 10.5298 290.48 10.5298C290.623 10.5298 290.773 10.5598 290.938 10.6273C291.103 10.6948 291.275 10.7923 291.463 10.9198L293.945 12.6823C294.14 12.8173 294.275 12.9748 294.358 13.1623C294.433 13.3498 294.478 13.5373 294.478 13.7473Z" fill="#ED1B24"/>
<defs>
<linearGradient id="paint0_linear_3095_8944" x1="50.5284" y1="1.62138" x2="50.5284" y2="16.5278" gradientUnits="userSpaceOnUse">
<stop stop-color="#ED1B24" stop-opacity="0.6"/>
<stop offset="1" stop-color="#ED1B24"/>
</linearGradient>
<linearGradient id="paint1_linear_3095_8944" x1="233.521" y1="0.145655" x2="233.521" y2="18.0334" gradientUnits="userSpaceOnUse">
<stop stop-color="#ED1B24" stop-opacity="0.6"/>
<stop offset="1" stop-color="#ED1B24"/>
</linearGradient>
</defs>
</svg>
