<svg width="24" height="24" viewBox="0 0 24 24" fill="none" xmlns="http://www.w3.org/2000/svg">
<path opacity="0.4" d="M16.1898 2H7.81976C4.17976 2 2.00977 4.17 2.00977 7.81V16.18C2.00977 19.82 4.17976 21.99 7.81976 21.99H16.1898C19.8298 21.99 21.9998 19.82 21.9998 16.18V7.81C21.9998 4.17 19.8298 2 16.1898 2Z" fill="#0C1118" fill-opacity="0.6"/>
<path d="M13.9195 9.27971L13.9695 12.2297L16.5995 12.1897C16.7895 12.1897 16.9295 12.3597 16.8995 12.5397L16.5495 14.4497C16.5195 14.5897 16.3995 14.6897 16.2595 14.6997L14.0095 14.7397L14.1295 21.9897L11.1295 22.0397L11.0095 14.7897L9.30948 14.8197C9.13948 14.8197 9.00949 14.6897 9.00949 14.5197L8.97949 12.6197C8.97949 12.4497 9.10948 12.3197 9.27948 12.3197L10.9795 12.2897L10.9295 9.03971C10.8995 7.37971 12.2195 6.01971 13.8795 5.98971L16.5795 5.94971C16.7495 5.94971 16.8795 6.07971 16.8795 6.24971L16.9195 8.64971C16.9195 8.81971 16.7895 8.94971 16.6195 8.94971L14.2195 8.98971C14.0495 8.97971 13.9195 9.11971 13.9195 9.27971Z" fill="#0C1118" fill-opacity="0.6"/>
</svg>
