<svg width="60" height="60" viewBox="0 0 60 60" fill="none" xmlns="http://www.w3.org/2000/svg">
<path d="M30.0007 1.57155H29.9976V1.56844C22.1513 1.569 15.0441 4.75226 9.89777 9.89876C4.75373 15.0433 1.57005 22.1488 1.56863 29.9941H1.57203V30.004H1.56863C1.56948 37.8507 4.75373 44.9579 9.89947 50.1035C15.0447 55.2477 22.1499 58.4299 29.9942 58.4313V58.4282H30.0041V58.4313C37.8504 58.4307 44.9579 55.2466 50.1031 50.1012C55.2468 44.957 58.4297 37.8515 58.4308 30.0074H58.4283V29.9977H58.4308C58.4308 22.1499 55.246 15.0419 50.1005 9.89649C44.9559 4.75226 37.8512 1.57014 30.0075 1.56844V1.57155H30.0007ZM29.9976 0.00254525V0H30.0075V0.00254525C38.2894 0.00452491 45.7864 3.36029 51.2115 8.78563C56.638 14.2115 59.9958 21.7121 59.9969 29.9977H60V30.0074H59.9969C59.9946 38.2896 56.6386 45.7873 51.214 51.2124C45.7881 56.6386 38.2882 59.996 30.0041 59.9969V60H29.9942V59.9969C21.7118 59.9952 14.2142 56.6394 8.78824 51.2147C3.36172 45.7885 0.00396264 38.2887 0.00311349 30.004H0V29.9941H0.00311349C0.00509481 21.7107 3.36172 14.213 8.78683 8.78761C14.2133 3.36029 21.7135 0.00367647 29.9976 0.00254525Z" fill="black"/>
<path fill-rule="evenodd" clip-rule="evenodd" d="M21.3698 45.0343L21.9597 43.2187H21.9886L22.5875 45.0343H21.3698ZM24.6226 46.1658C24.2611 45.1953 23.8504 44.0736 23.4417 42.9438L22.7955 41.1475L22.1406 41.279L20.2388 46.1938C19.9269 46.9925 19.7828 47.0292 19.2974 47.0968L19.2982 47.4679H21.5125V47.0968L21.2388 47.0683C20.8006 47.0199 20.8006 46.9257 20.9235 46.5179L21.2099 45.6053H22.7683L23.1111 46.5745C23.2334 46.9161 23.2136 47.0123 22.8634 47.0589L22.5767 47.0968V47.4679H25.562V47.0968C25.0967 47.0414 24.9251 46.9925 24.6226 46.1658ZM38.2211 45.0343L38.8124 43.2187H38.839L39.4399 45.0343H38.2211ZM41.473 46.1658C41.1116 45.1953 40.7029 44.0736 40.2944 42.9438L39.6483 41.1475L38.9913 41.279L37.0895 46.1938C36.7759 46.9925 36.6367 47.0292 36.1512 47.0968V47.4679H38.3663V47.0968L38.0898 47.0683C37.6519 47.0199 37.6519 46.9257 37.7756 46.5179L38.0604 45.6053H39.6188L39.9621 46.5745C40.0839 46.9161 40.0643 47.0123 39.7139 47.0589L39.4292 47.0968V47.4679H42.4144V47.0968C41.9477 47.0414 41.779 46.9925 41.473 46.1658ZM49.4874 46.6981C49.287 46.9444 48.8783 46.9724 48.5755 46.9724C48.2794 46.9724 48.0609 46.9648 47.9078 46.8884C47.7365 46.8027 47.7176 46.5649 47.7176 46.07V42.8095C47.7176 41.7832 47.7945 41.7179 48.4804 41.6608V41.2886H45.3892V41.6608C46.0281 41.7179 46.1045 41.7832 46.1045 42.8095V45.9458C46.1045 46.9724 46.0281 47.0414 45.3049 47.0968V47.4679H50.0207C50.1048 47.1723 50.3052 46.1839 50.3603 45.8234L49.9516 45.7569C49.7985 46.2606 49.6375 46.5179 49.4874 46.6981ZM32.633 46.6981C32.434 46.9444 32.0267 46.9724 31.7219 46.9724C31.4267 46.9724 31.2076 46.9648 31.0564 46.8884C30.8846 46.8027 30.8648 46.5649 30.8648 46.07V42.8095C30.8648 41.7832 30.9412 41.7179 31.6256 41.6608V41.2886H28.5385V41.6608C29.1736 41.7179 29.2503 41.7832 29.2503 42.8095V45.9458C29.2503 46.9724 29.1736 47.0414 28.453 47.0968V47.4679H33.166C33.2503 47.1723 33.4504 46.1839 33.5087 45.8234L33.1003 45.7569C32.9469 46.2606 32.7861 46.5179 32.633 46.6981ZM13.3192 41.6608C13.9192 41.7179 13.9943 41.7832 13.9943 42.8095V43.9122H12.0268V42.8095C12.0268 41.7832 12.1032 41.7179 12.6835 41.6608V41.2886H9.6416V41.6608C10.3334 41.7179 10.4101 41.7832 10.4101 42.8095V45.9458C10.4101 46.9724 10.3334 47.0414 9.67811 47.0968V47.4679H12.7206V47.0968C12.1032 47.0414 12.0268 46.9724 12.0268 45.9458V44.5015H13.9943V45.9458C13.9943 46.9724 13.9192 47.0414 13.2422 47.0968V47.4679H16.341V47.0968C15.686 47.0414 15.6096 46.9724 15.6096 45.9458V42.8095C15.6096 41.7832 15.686 41.7179 16.3611 41.6608V41.2886H13.3192V41.6608Z" fill="black"/>
<path fill-rule="evenodd" clip-rule="evenodd" d="M25.1092 25.7244C27.0268 27.0612 28.0747 31.249 28.0747 31.249C29.1208 21.8771 20.5757 19.1992 20.5757 19.1992C20.5757 19.1992 20.3988 19.6995 20.5757 22.2066C20.7478 24.7247 23.1854 24.3853 25.1092 25.7244Z" fill="black"/>
<path fill-rule="evenodd" clip-rule="evenodd" d="M19.8751 33.7569C20.5756 32.0858 19.3512 23.0434 19.3512 20.6992C19.3512 18.3621 20.2215 17.0216 20.2215 17.0216C19.0042 16.3499 18.1355 13.3369 18.1355 13.3369C17.7811 14.174 16.5637 16.0137 16.5637 16.0137C16.5637 16.0137 20.0517 32.5889 17.7811 34.5883C15.5165 36.5946 10.9787 36.9365 8.36452 35.2673C5.74466 33.59 8.53491 28.2317 8.53491 28.2317C6.96374 30.0719 5.74466 32.249 5.92015 34.5883C6.09366 36.9365 7.83806 39.2724 12.0254 39.4433C16.2097 39.6121 19.1745 35.4294 19.8751 33.7569Z" fill="black"/>
<path fill-rule="evenodd" clip-rule="evenodd" d="M42.205 27.5634C39.3652 27.8856 37.8045 32.6497 37.6782 33.0487C37.7448 32.8708 38.1297 32.1022 40.1116 31.079C42.3805 29.9025 46.9128 32.4195 46.9128 32.4195C44.8234 34.2597 40.9805 34.4268 37.8427 34.0892C34.7037 33.7501 34.8761 27.0612 34.7037 21.8771C34.5257 16.6893 33.4807 17.1918 33.4807 17.1918C33.4807 17.1918 33.6556 14.8434 31.3913 25.5552C29.1207 36.2611 16.9102 38.9373 16.9102 38.9373C23.7162 39.9458 28.5982 36.7656 30.3375 33.4206C32.0853 30.0719 33.301 23.0434 33.301 23.0434C33.301 33.0875 34.1773 35.5943 36.7957 36.7656C39.4127 37.9424 44.4719 36.2676 48.1362 34.9263C50.4679 34.0753 53.1956 34.4268 53.1956 34.4268L55.2859 31.249C55.2859 31.249 52.3176 31.4116 50.2296 30.5804C48.1362 29.7422 45.1721 27.2317 42.205 27.5634Z" fill="black"/>
</svg>
