<svg width="60" height="60" viewBox="0 0 60 60" fill="none" xmlns="http://www.w3.org/2000/svg">
<path fill-rule="evenodd" clip-rule="evenodd" d="M45.4093 31.7788L45.4212 32.0331L45.4285 32.1931C45.4223 32.0555 45.4158 31.9173 45.4093 31.7788ZM52.5617 29.4112C52.5595 29.2118 52.5573 29.0139 52.5558 28.8185C52.5563 28.8745 52.5567 28.9308 52.5573 28.9872C52.5585 29.1274 52.5601 29.269 52.5617 29.4112C52.5617 29.4113 52.5617 29.4111 52.5617 29.4112Z" fill="#397CC4"/>
<path fill-rule="evenodd" clip-rule="evenodd" d="M21.7974 43.0186C21.7984 43.0186 21.7995 43.0187 21.8005 43.0187C21.8044 43.019 21.8085 43.0192 21.8124 43.0194C21.8192 43.0198 21.826 43.0202 21.8328 43.0206C21.8501 43.0216 21.8673 43.0226 21.8846 43.0235C21.8922 43.0239 21.8999 43.0243 21.9075 43.0247C21.9087 43.0247 21.9099 43.0248 21.9111 43.0248C21.9121 43.0249 21.9132 43.0249 21.9142 43.025C21.9167 43.0251 21.9191 43.0252 21.9215 43.0254C21.9222 43.0254 21.9228 43.0254 21.9235 43.0255C21.9283 43.0257 21.9331 43.0259 21.9379 43.0261C21.9383 43.0261 21.9388 43.0261 21.9393 43.0262C21.94 43.0262 21.9408 43.0262 21.9415 43.0263C21.9437 43.0264 21.9459 43.0265 21.9481 43.0266C21.957 43.0269 21.9659 43.0273 21.9748 43.0276C21.9784 43.0277 21.9819 43.0278 21.9854 43.028C22.0172 43.029 22.0488 43.0296 22.0802 43.0296L22.9324 44.6917C24.7665 44.3148 26.6629 44.0951 28.6245 44.0002C28.7307 43.8234 28.726 43.6553 28.7135 43.4746C28.7127 43.4627 28.7118 43.4508 28.7109 43.4388C28.7109 43.4386 28.7109 43.4384 28.7109 43.4383C28.7109 43.4381 28.7109 43.438 28.7109 43.4379C28.7017 43.311 28.6922 43.1773 28.7167 43.0296H29.5396C29.6011 43.1473 29.6046 43.3005 29.6008 43.4592C29.6005 43.4705 29.6002 43.4817 29.5999 43.493C29.5996 43.5044 29.5992 43.5161 29.5989 43.5275C29.5987 43.5332 29.5985 43.539 29.5983 43.5448C29.5981 43.5518 29.5979 43.5589 29.5977 43.5659C29.5977 43.5673 29.5977 43.5688 29.5976 43.5702C29.5976 43.5711 29.5976 43.572 29.5976 43.5728C29.5975 43.5739 29.5975 43.575 29.5975 43.576C29.5974 43.5794 29.5973 43.5827 29.5972 43.586C29.5937 43.7222 29.5947 43.8568 29.6319 43.9705C31.5299 44.0951 33.585 44.3148 35.4503 44.7241L36.3071 43.0296H37.1582C37.0908 43.3544 36.949 43.6712 36.7971 43.9887C36.7754 44.0341 36.7534 44.0794 36.7315 44.1248C36.7217 44.1452 36.7119 44.1655 36.7021 44.1858C36.701 44.1881 36.6999 44.1904 36.6988 44.1927C36.6969 44.1965 36.695 44.2004 36.6932 44.2042C36.6926 44.2054 36.6921 44.2066 36.6915 44.2078C36.6913 44.2081 36.6911 44.2085 36.6909 44.2089C36.6907 44.2094 36.6904 44.21 36.6901 44.2105C36.6889 44.2132 36.6876 44.2158 36.6863 44.2184C36.6854 44.2203 36.6845 44.2223 36.6836 44.2242C36.6782 44.2354 36.6728 44.2467 36.6674 44.2579C36.6662 44.2604 36.6651 44.2629 36.6639 44.2653C36.6583 44.2771 36.6526 44.2888 36.6471 44.3005C36.5559 44.4923 36.4686 44.6853 36.3993 44.8814L36.5562 45.0061C37.9769 45.3833 39.2403 45.8874 40.6339 46.4514C41.5186 45.5693 42.2465 44.5539 42.9309 43.5568C43.0286 43.4145 43.1253 43.2726 43.2215 43.1316C43.2217 43.1314 43.2218 43.1312 43.2219 43.131L43.2908 43.03H44.2723C43.5134 44.3802 42.5319 45.603 41.518 46.8308C41.92 47.0951 42.3493 47.335 42.7818 47.5766C43.1661 47.7914 43.5529 48.0075 43.9255 48.2435L44.2402 48.2734C46.073 46.8308 47.7484 44.9767 49.0717 43.0599C49.3912 43.03 49.8035 43.03 50.0855 43.0599C44.7121 51.2885 35.4503 55.4662 25.747 54.1784C22.9328 53.8018 20.2786 52.9206 17.7829 51.6977L17.749 51.6029L17.7191 51.6326C14.0211 49.7809 10.4774 46.6411 8.2041 43.0599C8.24595 43.0566 8.28627 43.0532 8.32539 43.05C8.63971 43.0239 8.8767 43.0043 9.21547 43.0599C10.5412 45.0389 12.3129 46.9232 14.2093 48.3684C14.7815 48.1057 15.34 47.7762 15.8944 47.4397C15.9733 47.3918 16.0522 47.3437 16.131 47.2957C16.1312 47.2956 16.1316 47.2954 16.1317 47.2953C16.1341 47.2938 16.1364 47.2924 16.1387 47.291C16.1575 47.2796 16.1762 47.2682 16.1949 47.2568C16.1971 47.2554 16.1993 47.2541 16.2015 47.2528C16.2051 47.2505 16.2087 47.2483 16.2124 47.2461C16.2148 47.2446 16.2173 47.2431 16.2198 47.2416C16.2206 47.2411 16.2213 47.2407 16.2221 47.2402C16.2241 47.239 16.226 47.2378 16.2279 47.2367C16.229 47.236 16.2301 47.2353 16.2312 47.2346C16.2539 47.2209 16.2765 47.2071 16.2991 47.1933C16.3021 47.1915 16.3051 47.1897 16.3081 47.1879C16.3092 47.1872 16.3104 47.1865 16.3116 47.1858C16.3132 47.1848 16.3148 47.1838 16.3164 47.1828C16.3181 47.1818 16.3199 47.1807 16.3216 47.1797C16.3242 47.1781 16.3269 47.1764 16.3296 47.1748C16.3323 47.1732 16.3349 47.1716 16.3376 47.17C16.3506 47.162 16.3636 47.1541 16.3766 47.1462C16.3774 47.1458 16.3782 47.1453 16.3789 47.1449C16.3804 47.1439 16.3819 47.143 16.3834 47.1421C16.3851 47.1411 16.3868 47.1401 16.3885 47.139C16.3887 47.1389 16.3889 47.1388 16.3892 47.1386C16.3919 47.137 16.3946 47.1353 16.3973 47.1337C16.4066 47.1281 16.4158 47.1225 16.4251 47.1169C16.551 47.0406 16.6768 46.965 16.8027 46.8908L16.6498 46.7017C15.6877 45.5118 14.7406 44.3405 14.0211 43.03C14.1252 43.0479 14.2552 43.0323 14.3902 43.0161C14.705 42.9784 15.0475 42.9373 15.1556 43.3092C15.8522 44.3798 16.705 45.4482 17.5902 46.4189L17.7191 46.4836C19.0762 45.9174 20.467 45.4129 21.8917 45.0061L21.9852 44.9111L21.195 43.0595C21.3413 42.9966 21.5431 43.004 21.7549 43.0161C21.769 43.0169 21.783 43.0177 21.7971 43.0185C21.7972 43.0185 21.7973 43.0185 21.7974 43.0186ZM34.5016 52.7954L34.2791 52.9851C30.9337 53.7063 27.1987 53.7362 23.8519 52.9201L24.1041 52.6381C27.0445 50.7213 31.628 50.7213 34.5016 52.7954ZM23.1877 52.0742L22.5546 52.5758C19.8976 51.8845 17.4331 50.6914 15.1558 49.0593V48.9643C15.1783 48.9504 15.2008 48.9364 15.2232 48.9224C15.2311 48.9175 15.239 48.9126 15.2468 48.9077C15.2653 48.8962 15.2837 48.8847 15.3022 48.8732C15.3033 48.8725 15.3044 48.8718 15.3055 48.8711C15.3494 48.8437 15.3935 48.8161 15.4374 48.7886C15.4455 48.7836 15.4538 48.7784 15.4618 48.7733C16.121 48.3608 16.7856 47.9447 17.4969 47.6468C19.2986 49.4335 21.1638 50.7864 23.1877 52.0742ZM43.2262 48.9643C41.4586 50.3768 39.4033 51.3204 37.3155 52.1041L35.8301 52.5758C35.5806 52.4484 35.3581 52.2639 35.1359 52.0742L35.1955 51.9793C37.2233 50.786 39.0563 49.3411 40.7914 47.6142C41.6483 47.9614 42.467 48.4303 43.2262 48.9643ZM39.848 47.1749C38.8343 48.3354 37.5381 49.3414 36.3344 50.1898C36.2172 50.2608 36.0999 50.3325 35.9825 50.4046C35.9408 50.4302 35.8991 50.4558 35.8574 50.4814C35.2885 50.831 34.715 51.1834 34.122 51.4777L32.7609 50.8813L32.8584 50.6617C33.9971 49.1218 35.0112 47.552 35.8952 45.8874L35.987 45.8226C37.3483 46.1366 38.6445 46.5788 39.848 47.1749ZM22.4613 45.8547C23.3764 47.5819 24.515 49.214 25.6537 50.8462C25.4799 50.9458 25.2921 51.0306 25.1013 51.1117C25.0897 51.1167 25.0781 51.1216 25.0664 51.1265C25.0512 51.133 25.0357 51.1395 25.0204 51.1459C25.0201 51.146 25.0199 51.1462 25.0196 51.1463C24.9884 51.1594 24.9571 51.1725 24.9258 51.1855C24.9257 51.1856 24.9256 51.1856 24.9255 51.1856C24.9254 51.1857 24.9253 51.1857 24.9252 51.1858C24.9251 51.1858 24.9249 51.1859 24.9248 51.1859C24.9101 51.1921 24.8953 51.1983 24.8806 51.2044C24.8805 51.2045 24.8804 51.2045 24.8803 51.2045C24.6558 51.2984 24.4329 51.3934 24.229 51.5076C22.1441 50.472 20.1513 49.027 18.4771 47.3V47.205C19.7093 46.6088 21.0054 46.169 22.3324 45.8224L22.4613 45.8547ZM34.9463 45.5727L34.9733 45.6676C34.0952 47.3621 32.9834 48.9942 31.7851 50.5341C31.5047 50.5667 31.2332 50.5224 30.9604 50.4679C30.9417 50.4642 30.923 50.4604 30.9044 50.4566C30.9035 50.4564 30.9027 50.4563 30.9018 50.4561C30.8834 50.4524 30.865 50.4486 30.8466 50.4448C30.8455 50.4446 30.8444 50.4444 30.8433 50.4442C30.6325 50.401 30.4202 50.3575 30.2016 50.3444L29.6701 50.2846C29.6054 48.4301 29.5728 46.7953 29.6701 44.9435C31.4705 44.9765 33.2706 45.1633 34.9463 45.5727ZM27.7065 50.4082C27.3589 50.448 27.0147 50.4873 26.6948 50.5669C25.3974 49.027 24.3238 47.3623 23.4074 45.635L23.5659 45.5076C25.209 45.1962 26.9169 44.9437 28.6874 44.9437L28.7173 50.2524C28.431 50.3203 28.1323 50.3589 27.8342 50.3936C27.7916 50.3985 27.7491 50.4034 27.7065 50.4082Z" fill="#397CC4"/>
<path fill-rule="evenodd" clip-rule="evenodd" d="M41.1446 20.3503C45.3739 17.9646 51.6369 18.1543 55.747 20.7923C57.1677 21.7656 58.3387 23.1157 58.9028 24.6234C60.329 28.5164 60.1717 33.7004 57.8289 37.1544C56.8207 38.4719 55.4596 39.4483 54.0389 40.0444L53.9033 40.104C53.4316 40.359 52.7372 40.5353 52.5207 40.5786C47.9389 41.8665 42.7875 41.1752 39.2411 38.0356C36.2104 35.0505 35.988 30.3084 36.8448 26.3176C37.3165 23.902 38.8347 21.5432 41.1446 20.3503ZM52.5097 27.2946C52.5244 27.4738 52.5389 27.6516 52.559 27.8253C52.5537 28.11 52.5534 28.4033 52.5551 28.7026C52.5564 28.9355 52.559 29.1721 52.5617 29.411C52.5771 30.798 52.5934 32.2657 52.3638 33.573C52.2008 34.3292 51.6916 35.1131 50.8887 35.3978C49.6036 35.9618 47.8685 35.8044 46.6811 35.1457C45.6965 34.4635 45.5621 33.3251 45.4338 32.2375L45.4285 32.1931C45.4223 32.0555 45.4158 31.9173 45.4093 31.7788C45.4084 31.759 45.4075 31.7392 45.4066 31.7194C45.4065 31.7193 45.4065 31.7192 45.4065 31.719C45.3114 29.6933 45.2127 27.5894 45.7811 25.7514C46.2636 24.5286 47.5813 24.214 48.7691 24.1192C50.0212 24.1191 51.2411 24.3088 52.0111 25.3147C52.3946 25.8878 52.453 26.6013 52.5097 27.2946Z" fill="#397CC4"/>
<path fill-rule="evenodd" clip-rule="evenodd" d="M28.2428 5.30573C29.1607 5.21369 30.2019 5.2434 31.0583 5.33835L31.1179 5.40069L31.1504 5.33835C38.7094 5.93488 45.6933 10.0505 49.9284 16.4572C49.7148 16.564 49.4987 16.5395 49.2631 16.5128C49.1518 16.5002 49.0362 16.4871 48.9144 16.4871C47.5589 14.508 45.8508 12.7185 43.9258 11.2437L43.6059 11.3684L41.3933 12.6562V12.8135C41.93 13.3801 42.3746 13.9114 42.7868 14.508C43.3017 15.1222 43.7557 15.7851 44.1425 16.4871C43.942 16.5635 43.6778 16.5591 43.4015 16.5544C43.3344 16.5533 43.2666 16.5522 43.1989 16.5522C42.3746 15.3593 41.4584 14.1312 40.4765 13.0954L40.3264 13.1568C40.1593 13.225 39.9925 13.2931 39.8259 13.3608C38.6599 13.8341 37.5 14.285 36.2742 14.6029L36.2093 14.668L37.0011 16.4871C36.8323 16.5838 36.5731 16.5712 36.3323 16.5595C36.294 16.5576 36.2562 16.5558 36.2193 16.5544C36.1825 16.5531 36.1465 16.5522 36.1118 16.5522L35.2605 14.9173L35.1034 14.8874C33.33 15.3239 31.4052 15.5137 29.5724 15.6086C29.5067 15.7575 29.5103 15.9237 29.5141 16.0941C29.5145 16.1132 29.5149 16.1323 29.5152 16.1514C29.5175 16.2854 29.5151 16.4211 29.4747 16.5522H28.6248C28.5902 16.4492 28.5932 16.3205 28.5986 16.1881C28.5986 16.188 28.5987 16.1879 28.5987 16.1877C28.599 16.179 28.5994 16.1703 28.5997 16.1616C28.5997 16.1615 28.5998 16.1613 28.5998 16.1612C28.6091 15.9393 28.6188 15.7111 28.465 15.5789C26.5048 15.5138 24.5758 15.294 22.743 14.8874C22.5618 15.1922 22.4123 15.5185 22.2638 15.8425C22.2637 15.8426 22.2637 15.8427 22.2636 15.8429C22.2606 15.8494 22.2576 15.856 22.2546 15.8626C22.2507 15.871 22.2469 15.8793 22.2431 15.8877C22.243 15.8878 22.243 15.8879 22.2429 15.888C22.2375 15.8999 22.232 15.9119 22.2265 15.9238C22.2262 15.9244 22.226 15.9249 22.2257 15.9255C22.2245 15.928 22.2234 15.9306 22.2222 15.9331C22.2162 15.9462 22.2102 15.9592 22.2042 15.9722C22.1964 15.9892 22.1886 16.0062 22.1808 16.0231C22.1669 16.053 22.1531 16.0828 22.1391 16.1126C22.0693 16.2618 21.9978 16.4091 21.9215 16.5522C21.8814 16.5556 21.8429 16.5591 21.8058 16.5625C21.8053 16.5625 21.8048 16.5626 21.8043 16.5626C21.8035 16.5627 21.8026 16.5628 21.8018 16.5629C21.7882 16.5641 21.7749 16.5653 21.7617 16.5665C21.7435 16.5681 21.7256 16.5697 21.708 16.5712C21.7061 16.5714 21.7042 16.5715 21.7024 16.5717C21.4676 16.5919 21.2737 16.6004 21.0051 16.5522L21.7941 14.7276L21.6695 14.6027C20.6952 14.3387 19.7522 13.9976 18.807 13.6446C18.672 13.5941 18.5369 13.5435 18.4016 13.4927C18.3343 13.4674 18.2668 13.4421 18.1994 13.4169C17.997 13.341 17.7941 13.2653 17.5905 13.1902C16.5804 14.2258 15.7251 15.389 14.9363 16.552C14.6204 16.6143 14.2096 16.6442 13.9873 16.552C14.6594 15.333 15.5719 14.1948 16.4794 13.0627C16.4795 13.0625 16.4797 13.0623 16.4799 13.0621C16.4874 13.0527 16.4949 13.0434 16.5024 13.034C16.5092 13.0255 16.516 13.0171 16.5227 13.0086C16.5367 12.9912 16.5507 12.9738 16.5646 12.9563C16.5672 12.9531 16.5698 12.9499 16.5723 12.9467C16.579 12.9385 16.5856 12.9302 16.5922 12.9219C16.5989 12.9136 16.6055 12.9054 16.6121 12.8971C16.6153 12.8931 16.6186 12.889 16.6218 12.885C16.6227 12.8838 16.6236 12.8827 16.6245 12.8816C16.6515 12.848 16.6784 12.8143 16.7053 12.7807C16.4241 12.6019 16.1269 12.4311 15.8236 12.2611C15.773 12.2327 15.7221 12.2044 15.6712 12.176C15.6328 12.1546 15.5943 12.1332 15.5557 12.1117C15.5434 12.1049 15.531 12.098 15.5186 12.0911C15.5185 12.091 15.5184 12.091 15.5183 12.0909C15.518 12.0908 15.5176 12.0906 15.5173 12.0904C15.5136 12.0884 15.51 12.0863 15.5063 12.0843C15.4999 12.0807 15.4935 12.0772 15.4872 12.0736C15.4445 12.0499 15.4018 12.0262 15.3591 12.0024C15.3557 12.0005 15.3523 11.9986 15.349 11.9967C15.3487 11.9966 15.3484 11.9964 15.3481 11.9963C15.3455 11.9948 15.3429 11.9933 15.3403 11.9919C15.315 11.9778 15.2896 11.9637 15.2643 11.9495C15.264 11.9493 15.2637 11.9491 15.2634 11.949C14.8963 11.7437 14.529 11.5334 14.1785 11.3059C13.3555 11.8326 12.6403 12.5186 11.8838 13.2442C11.8635 13.2637 11.8433 13.2831 11.823 13.3026C11.7858 13.3382 11.7486 13.3739 11.7112 13.4097C10.7639 14.4156 9.90978 15.4539 9.1505 16.5194C8.95594 16.5962 8.73756 16.5783 8.52466 16.5609C8.39216 16.55 8.26178 16.5394 8.14062 16.5518C12.5017 9.86055 19.4871 5.93471 27.0743 5.33835C27.4851 5.30573 27.8958 5.27602 28.2428 5.30573ZM31.4976 9.1069C32.7338 10.6767 33.9322 12.2789 34.7565 14.006C33.0486 14.4154 31.3131 14.6323 29.5401 14.6323C29.4752 12.9702 29.5075 11.1159 29.5401 9.38868C29.826 9.34604 30.1241 9.30333 30.4229 9.26083C30.4918 9.25103 30.5608 9.24123 30.6297 9.23145C30.6299 9.23143 30.6301 9.2314 30.6303 9.23138C30.7625 9.21259 30.8944 9.19385 31.0249 9.1752C31.0865 9.16639 31.1479 9.15761 31.2088 9.14883C31.3063 9.1348 31.4027 9.12082 31.4976 9.1069ZM28.5707 13.0853C28.5653 13.5976 28.5599 14.1067 28.5599 14.6027C27.9003 14.6956 27.2953 14.6337 26.6643 14.5692C26.4473 14.5469 26.2271 14.5244 26.0007 14.5078C25.9784 14.5045 25.956 14.5013 25.9335 14.4981C25.9331 14.498 25.9327 14.498 25.9323 14.4979C25.9321 14.4979 25.9319 14.4979 25.9316 14.4978C25.8494 14.4861 25.7654 14.4746 25.6799 14.4632C25.6254 14.4559 25.5703 14.4486 25.5147 14.4413C25.4855 14.4375 25.4563 14.4336 25.427 14.4298C25.4266 14.4297 25.4263 14.4297 25.4259 14.4296C24.6956 14.3338 23.8881 14.2278 23.2189 14.0062C24.1353 12.2791 25.2089 10.6145 26.5048 9.07447L28.53 9.35915C28.585 10.3043 28.5863 11.3341 28.5777 12.369C28.577 12.4485 28.5763 12.528 28.5756 12.6076C28.5754 12.6294 28.5751 12.6516 28.5749 12.6734C28.5748 12.6896 28.5746 12.7058 28.5745 12.722C28.5744 12.7252 28.5744 12.7284 28.5744 12.7316C28.5743 12.7321 28.5744 12.7326 28.5744 12.7331C28.5743 12.7367 28.5743 12.7404 28.5742 12.744C28.5742 12.7447 28.5742 12.7454 28.5742 12.7461C28.5737 12.794 28.5733 12.8419 28.5728 12.8897C28.5727 12.8962 28.5726 12.9027 28.5725 12.9091C28.5724 12.9174 28.5724 12.9257 28.5723 12.9339C28.572 12.958 28.5718 12.9821 28.5715 13.0062C28.5714 13.0201 28.5712 13.034 28.5711 13.0478C28.5709 13.0603 28.5708 13.0728 28.5707 13.0853ZM25.4612 8.76262L25.3675 9.01195C24.3846 10.2443 23.5728 11.5617 22.7901 12.8769C22.7649 12.9192 22.7398 12.9615 22.7147 13.0038C22.6801 13.0619 22.6457 13.12 22.6112 13.1781C22.5676 13.2518 22.524 13.3254 22.4804 13.399C22.4723 13.4127 22.4642 13.4264 22.456 13.4401C22.3935 13.5457 22.331 13.6512 22.2686 13.7565L22.1439 13.7864C20.848 13.4419 19.5819 13.0326 18.3821 12.4986L18.4459 12.3086C20.1839 10.6466 22.0167 9.26402 24.0405 8.19579C24.086 8.21375 24.1315 8.23146 24.1769 8.24899C24.1835 8.25151 24.19 8.25403 24.1966 8.25655C24.1994 8.25764 24.2023 8.25874 24.2051 8.25984C24.2097 8.26159 24.2143 8.26334 24.2188 8.2651C24.2231 8.26671 24.2273 8.26833 24.2315 8.26994C24.2318 8.27008 24.2322 8.27022 24.2326 8.27035C24.2772 8.28744 24.3218 8.30439 24.3664 8.32128C24.4032 8.33522 24.44 8.34914 24.4768 8.36302C24.4776 8.36333 24.4784 8.36363 24.4792 8.36394C24.8064 8.48746 25.1331 8.6108 25.4612 8.76262ZM39.6853 12.3442L39.6259 12.4364C38.3898 12.9706 37.1263 13.4722 35.765 13.7567C34.789 12.0894 33.7153 10.4274 32.5115 8.82496C32.736 8.69759 32.9842 8.58609 33.2357 8.47479C33.2525 8.46737 33.2692 8.45995 33.286 8.45253C33.5158 8.35093 33.7473 8.24861 33.9648 8.13365C36.0198 9.16942 38.0098 10.647 39.6853 12.3442ZM23.0902 7.59945C21.1313 8.82496 19.2037 10.2699 17.4332 12.0269C16.5804 11.7123 15.7889 11.2433 15.0311 10.7066V10.6468C17.0224 9.16924 19.2347 8.07114 21.5745 7.31477L21.8577 7.13032V7.18992C21.9536 7.21467 22.0409 7.18883 22.1243 7.15774C22.1362 7.1533 22.148 7.14876 22.1598 7.14424C22.2823 7.09716 22.3979 7.05276 22.5221 7.16003L23.0902 7.59945ZM43.0041 10.5819L42.9443 10.7068L40.7647 11.9348H40.6017C38.9317 10.2376 36.9688 8.76281 34.9732 7.59963L35.5805 7.06544C38.2322 7.75675 40.7319 8.9498 43.0041 10.5819ZM34.3118 6.75086V6.81337C31.5627 8.82496 27.1053 9.01195 24.199 7.16039L23.6934 6.75086C27.0444 5.96477 30.9933 5.90226 34.3118 6.75086Z" fill="#397CC4"/>
<path fill-rule="evenodd" clip-rule="evenodd" d="M17.4331 20.4448C20.5943 18.154 25.461 18.3085 28.9394 19.7861L30.3911 20.5727C30.4736 20.3737 30.4786 20.1328 30.474 19.8943C30.4734 19.8603 30.4726 19.8263 30.4717 19.7924C30.4717 19.7923 30.4717 19.7922 30.4717 19.7922C30.4706 19.747 30.4695 19.7021 30.4689 19.6579C30.467 19.5252 30.4694 19.3982 30.489 19.2851C31.9097 19.22 33.6502 19.22 35.0709 19.2499C35.0805 20.0242 35.0954 20.7679 35.11 21.4984C35.11 21.4994 35.1101 21.5004 35.1101 21.5014C35.1101 21.5017 35.1101 21.502 35.1101 21.5024C35.1101 21.5025 35.1101 21.5026 35.1101 21.5027C35.1101 21.503 35.1101 21.5032 35.1101 21.5034C35.1447 23.2317 35.1778 24.8863 35.1358 26.6975C33.9888 26.7426 32.7891 26.7365 31.6701 26.7309C31.67 26.7309 31.6698 26.7309 31.6697 26.7309C31.3077 26.729 30.9542 26.7272 30.6136 26.7272C29.3176 24.6858 27.0443 23.9319 24.832 23.6176C24.7573 23.6154 24.6809 23.6118 24.603 23.6074C24.4989 23.6014 24.3922 23.5939 24.2842 23.5863C24.2841 23.5863 24.284 23.5863 24.2838 23.5863C23.3442 23.5202 22.2952 23.4465 21.7941 24.3089C21.7333 24.6531 21.8918 24.9351 22.1439 25.1547L22.7133 25.4394L30.3643 27.6681C32.9236 28.3297 35.4508 30.748 35.7978 33.4185C36.1503 36.1485 34.8814 38.6916 32.5119 40.0146C29.2584 41.7063 25.0207 41.3947 21.7335 40.0146C21.5591 39.9223 21.385 39.8273 21.2109 39.7322C20.8474 39.5337 20.4842 39.3354 20.1203 39.1633L20.0565 40.6735L15.3145 40.7032C15.2195 38.19 15.2536 35.2697 15.3145 32.7266L19.5821 32.694C19.7107 32.8529 19.8149 33.0276 19.9189 33.2022C20.0209 33.3733 20.1227 33.5443 20.2475 33.6999C22.3962 35.961 25.6197 36.5876 28.5898 35.7713L28.6003 35.7654C28.8212 35.6416 29.1009 35.4849 29.1009 35.2074C29.1603 34.8602 28.7823 34.5784 28.4949 34.4535C27.2462 34.0247 25.9785 33.6451 24.7107 33.2688C24.6261 33.2437 24.5416 33.2187 24.4571 33.1936C22.9244 32.739 21.3934 32.2849 19.8976 31.7505C17.8439 30.9669 15.6952 29.3022 15.2831 27.0411C14.7449 24.6526 15.3779 21.9523 17.4331 20.4448Z" fill="#397CC4"/>
<path fill-rule="evenodd" clip-rule="evenodd" d="M0.0790189 18.9375L2.03919 18.9049L13.9576 18.9373C14.0511 20.5722 14.0214 22.4863 13.9873 24.2784L10.8587 24.3083L10.7949 24.4033L10.7637 35.427C11.3488 35.499 11.9864 35.4977 12.622 35.4964C13.0852 35.4954 13.5474 35.4945 13.9873 35.5219V40.703H0.0478492C-0.0159497 38.9766 -0.0159497 37.2484 0.0478492 35.5219L3.1765 35.4569L3.2104 35.0204V24.3382C2.53127 24.2764 1.86588 24.2697 1.18742 24.2629C0.8231 24.2592 0.455011 24.2555 0.0790189 24.2432C0.0478492 22.4748 0.0478492 20.7059 0.0790189 18.9375Z" fill="#397CC4"/>
</svg>
