<svg width="328" height="28" viewBox="0 0 328 28" fill="none" xmlns="http://www.w3.org/2000/svg">
<path d="M4.77767 17.668C3.52167 17.668 2.47767 17.248 1.64567 16.408C0.821672 15.576 0.409672 14.54 0.409672 13.3C0.409672 12.052 0.821672 11.016 1.64567 10.192C2.47767 9.352 3.52167 8.932 4.77767 8.932C5.53767 8.932 6.23767 9.112 6.87767 9.472C7.52567 9.824 8.02967 10.304 8.38967 10.912L6.96167 11.74C6.75367 11.364 6.45767 11.072 6.07367 10.864C5.68967 10.648 5.25767 10.54 4.77767 10.54C3.96167 10.54 3.30167 10.796 2.79767 11.308C2.30167 11.828 2.05367 12.492 2.05367 13.3C2.05367 14.1 2.30167 14.76 2.79767 15.28C3.30167 15.792 3.96167 16.048 4.77767 16.048C5.25767 16.048 5.68967 15.944 6.07367 15.736C6.46567 15.52 6.76167 15.228 6.96167 14.86L8.38967 15.688C8.02967 16.296 7.52567 16.78 6.87767 17.14C6.23767 17.492 5.53767 17.668 4.77767 17.668ZM14.4821 16.756C13.8741 17.364 13.1221 17.668 12.2261 17.668C11.3301 17.668 10.5781 17.364 9.97011 16.756C9.36211 16.148 9.05811 15.396 9.05811 14.5C9.05811 13.612 9.36211 12.864 9.97011 12.256C10.5861 11.64 11.3381 11.332 12.2261 11.332C13.1141 11.332 13.8661 11.64 14.4821 12.256C15.0981 12.872 15.4061 13.62 15.4061 14.5C15.4061 15.388 15.0981 16.14 14.4821 16.756ZM11.0621 15.688C11.3741 16 11.7621 16.156 12.2261 16.156C12.6901 16.156 13.0781 16 13.3901 15.688C13.7021 15.376 13.8581 14.98 13.8581 14.5C13.8581 14.02 13.7021 13.624 13.3901 13.312C13.0781 13 12.6901 12.844 12.2261 12.844C11.7621 12.844 11.3741 13 11.0621 13.312C10.7581 13.632 10.6061 14.028 10.6061 14.5C10.6061 14.972 10.7581 15.368 11.0621 15.688ZM19.9871 11.332C20.7951 11.332 21.4831 11.64 22.0511 12.256C22.6271 12.872 22.9151 13.62 22.9151 14.5C22.9151 15.396 22.6271 16.148 22.0511 16.756C21.4911 17.364 20.8031 17.668 19.9871 17.668C19.1471 17.668 18.4991 17.376 18.0431 16.792V19.9H16.4951V11.5H18.0431V12.208C18.4991 11.624 19.1471 11.332 19.9871 11.332ZM18.5111 15.724C18.8231 16.036 19.2191 16.192 19.6991 16.192C20.1791 16.192 20.5751 16.036 20.8871 15.724C21.2071 15.404 21.3671 14.996 21.3671 14.5C21.3671 14.004 21.2071 13.6 20.8871 13.288C20.5751 12.968 20.1791 12.808 19.6991 12.808C19.2191 12.808 18.8231 12.968 18.5111 13.288C18.1991 13.6 18.0431 14.004 18.0431 14.5C18.0431 14.996 18.1991 15.404 18.5111 15.724ZM28.5668 12.208V11.5H30.1148V17.5H28.5668V16.792C28.1028 17.376 27.4508 17.668 26.6108 17.668C25.8108 17.668 25.1228 17.364 24.5468 16.756C23.9788 16.14 23.6948 15.388 23.6948 14.5C23.6948 13.62 23.9788 12.872 24.5468 12.256C25.1228 11.64 25.8108 11.332 26.6108 11.332C27.4508 11.332 28.1028 11.624 28.5668 12.208ZM25.7108 15.724C26.0228 16.036 26.4188 16.192 26.8988 16.192C27.3788 16.192 27.7748 16.036 28.0868 15.724C28.4068 15.404 28.5668 14.996 28.5668 14.5C28.5668 14.004 28.4068 13.6 28.0868 13.288C27.7748 12.968 27.3788 12.808 26.8988 12.808C26.4188 12.808 26.0228 12.968 25.7108 13.288C25.3988 13.6 25.2428 14.004 25.2428 14.5C25.2428 14.996 25.3988 15.404 25.7108 15.724Z" fill="url(#paint0_linear_3095_7778)"/>
<path d="M36.2465 9.1V15.916H39.4505V17.5H34.5905V9.1H36.2465ZM41.0873 10.78C40.8313 10.78 40.6073 10.688 40.4153 10.504C40.2313 10.312 40.1393 10.088 40.1393 9.832C40.1393 9.576 40.2313 9.352 40.4153 9.16C40.6073 8.968 40.8313 8.872 41.0873 8.872C41.3513 8.872 41.5753 8.968 41.7593 9.16C41.9513 9.352 42.0473 9.576 42.0473 9.832C42.0473 10.088 41.9513 10.312 41.7593 10.504C41.5753 10.688 41.3513 10.78 41.0873 10.78ZM41.8673 17.5H40.3193V11.5H41.8673V17.5ZM46.6202 11.332C47.2842 11.332 47.8242 11.552 48.2402 11.992C48.6722 12.44 48.8882 13.048 48.8882 13.816V17.5H47.3402V14.008C47.3402 13.616 47.2322 13.312 47.0162 13.096C46.8082 12.88 46.5202 12.772 46.1522 12.772C45.7442 12.772 45.4202 12.9 45.1802 13.156C44.9482 13.404 44.8322 13.772 44.8322 14.26V17.5H43.2842V11.5H44.8322V12.172C45.2002 11.612 45.7962 11.332 46.6202 11.332ZM53.258 14.464L55.742 17.5H53.942L51.758 14.776V17.5H50.21V9.1H51.758V14.14L53.822 11.5H55.67L53.258 14.464ZM57.5442 13.204C57.5442 13.46 57.9082 13.68 58.6362 13.864C58.8922 13.92 59.1242 13.988 59.3322 14.068C59.5402 14.14 59.7482 14.248 59.9562 14.392C60.1722 14.528 60.3402 14.712 60.4602 14.944C60.5802 15.176 60.6402 15.444 60.6402 15.748C60.6402 16.364 60.4082 16.84 59.9442 17.176C59.4802 17.504 58.9082 17.668 58.2282 17.668C56.9962 17.668 56.1562 17.192 55.7082 16.24L57.0522 15.484C57.2362 16.004 57.6282 16.264 58.2282 16.264C58.7802 16.264 59.0562 16.092 59.0562 15.748C59.0562 15.492 58.6922 15.272 57.9642 15.088C57.6922 15.016 57.4602 14.944 57.2682 14.872C57.0762 14.8 56.8682 14.696 56.6442 14.56C56.4202 14.416 56.2482 14.236 56.1282 14.02C56.0162 13.796 55.9602 13.536 55.9602 13.24C55.9602 12.648 56.1762 12.184 56.6082 11.848C57.0482 11.504 57.5922 11.332 58.2402 11.332C58.7282 11.332 59.1722 11.444 59.5722 11.668C59.9722 11.884 60.2882 12.196 60.5202 12.604L59.2002 13.324C59.0082 12.916 58.6882 12.712 58.2402 12.712C58.0402 12.712 57.8722 12.76 57.7362 12.856C57.6082 12.944 57.5442 13.06 57.5442 13.204Z" fill="#0C1118" fill-opacity="0.8"/>
<path d="M69 12.5C70.8667 12.525 72.7333 12.55 74.6 12.575C108.2 13.025 141.8 13.475 175.4 13.925C177.267 13.95 179.133 13.975 181 14C181 13 181 12 181 11C179.133 11.025 177.267 11.05 175.4 11.075C141.8 11.525 108.2 11.975 74.6 12.425C72.7333 12.45 70.8667 12.475 69 12.5Z" fill="#ED1B24"/>
<path d="M194.126 19C192.818 19 191.822 18.61 191.138 17.83C190.454 17.038 190.112 16.024 190.112 14.788V6.76H192.974V14.788C192.974 15.112 192.992 15.34 193.028 15.472C193.076 15.592 193.172 15.67 193.316 15.706C193.472 15.742 193.742 15.76 194.126 15.76H195.026L195.134 17.434L195.026 19H194.126ZM194.834 15.76H196.526C197.39 15.76 197.792 15.466 197.732 14.878C197.672 14.194 197.534 13.258 197.318 12.07L200 11.404C200.408 13.108 200.612 14.368 200.612 15.184C200.612 15.844 200.468 16.468 200.18 17.056C199.904 17.632 199.484 18.1 198.92 18.46C198.356 18.82 197.66 19 196.832 19H194.834V15.76ZM194.816 20.206H197.084H197.21H199.46V22.582H197.21H197.084H194.816V20.206ZM196.022 23.248H198.29V25.174H196.022V23.248ZM205.153 20.494C205.813 20.494 206.305 20.452 206.629 20.368C206.965 20.284 207.199 20.14 207.331 19.936C207.475 19.732 207.559 19.42 207.583 19H206.359C205.123 19 204.157 18.646 203.461 17.938C202.765 17.218 202.417 16.222 202.417 14.95C202.417 14.014 202.585 13.198 202.921 12.502C203.257 11.794 203.719 11.254 204.307 10.882C204.907 10.498 205.585 10.306 206.341 10.306C207.157 10.306 207.877 10.498 208.501 10.882C209.125 11.254 209.611 11.794 209.959 12.502C210.307 13.198 210.481 14.014 210.481 14.95V15.76H211.471L211.633 17.398L211.471 19H210.463C210.379 20.428 209.905 21.574 209.041 22.438C208.177 23.302 206.881 23.734 205.153 23.734H202.849V20.494H205.153ZM205.135 14.752C205.135 15.544 205.543 15.94 206.359 15.94H207.601V14.86C207.601 14.368 207.511 13.984 207.331 13.708C207.151 13.432 206.821 13.294 206.341 13.294C205.921 13.294 205.615 13.432 205.423 13.708C205.231 13.984 205.135 14.332 205.135 14.752ZM220.018 8.146L215.41 10.18L217.858 12.664C218.254 13.072 218.548 13.516 218.74 13.996C218.944 14.464 219.046 14.95 219.046 15.454C219.046 16.078 218.896 16.66 218.596 17.2C218.296 17.74 217.858 18.178 217.282 18.514C216.718 18.838 216.058 19 215.302 19H211.288V15.76H215.392C215.56 15.76 215.692 15.718 215.788 15.634C215.896 15.55 215.95 15.442 215.95 15.31C215.95 15.142 215.872 14.98 215.716 14.824L212.296 11.368L212.926 7.804L218.866 5.194L220.018 8.146Z" fill="url(#paint1_linear_3095_7778)"/>
<path d="M227.429 14.554C226.829 15.898 226.529 17.062 226.529 18.046C226.529 18.61 226.607 19.054 226.763 19.378C226.919 19.702 227.183 19.936 227.555 20.08C227.939 20.224 228.473 20.296 229.157 20.296H230.435C231.083 20.296 231.563 20.266 231.875 20.206C232.199 20.146 232.421 20.056 232.541 19.936C232.673 19.828 232.763 19.66 232.811 19.432V19.36C232.811 19.3 232.781 19.264 232.721 19.252L228.473 18.1C228.353 17.548 228.293 16.984 228.293 16.408C228.293 15.58 228.419 14.794 228.671 14.05C228.923 13.306 229.271 12.688 229.715 12.196C230.807 10.96 232.121 10.342 233.657 10.342C234.053 10.342 234.455 10.384 234.863 10.468C235.271 10.552 235.595 10.666 235.835 10.81L235.151 13.618C234.767 13.51 234.389 13.456 234.017 13.456C233.189 13.456 232.493 13.696 231.929 14.176C231.701 14.368 231.509 14.584 231.353 14.824C231.209 15.052 231.119 15.262 231.083 15.454L234.251 16.372C234.851 16.552 235.247 16.786 235.439 17.074C235.643 17.362 235.745 17.812 235.745 18.424C235.745 18.664 235.739 18.856 235.727 19C235.667 20.404 235.193 21.508 234.305 22.312C233.417 23.128 232.127 23.536 230.435 23.536H229.157C228.017 23.536 227.039 23.302 226.223 22.834C225.407 22.366 224.783 21.712 224.351 20.872C223.931 20.044 223.721 19.102 223.721 18.046C223.721 17.362 223.853 16.582 224.117 15.706C224.381 14.818 224.687 14.014 225.035 13.294L227.429 14.554ZM242.009 19C240.701 19 239.705 18.61 239.021 17.83C238.337 17.038 237.995 16.024 237.995 14.788V6.76H240.857V14.788C240.857 15.112 240.875 15.34 240.911 15.472C240.959 15.592 241.055 15.67 241.199 15.706C241.355 15.742 241.625 15.76 242.009 15.76H242.909L243.017 17.434L242.909 19H242.009ZM253.301 8.29L256.271 12.718C256.511 13.09 256.691 13.498 256.811 13.942C256.943 14.386 257.009 14.83 257.009 15.274C257.009 16.09 256.835 16.756 256.487 17.272C256.031 17.932 255.377 18.406 254.525 18.694C253.685 18.982 252.533 19.126 251.069 19.126C249.821 19.126 248.639 18.934 247.523 18.55C246.479 18.85 245.381 19 244.229 19H242.735V15.76H243.887C243.563 15.148 243.401 14.506 243.401 13.834C243.401 13.042 243.587 12.304 243.959 11.62C244.331 10.924 244.841 10.372 245.489 9.964C246.149 9.544 246.869 9.334 247.649 9.334C248.417 9.334 249.119 9.538 249.755 9.946C250.391 10.354 250.895 10.906 251.267 11.602C251.639 12.286 251.825 13.024 251.825 13.816C251.825 14.596 251.633 15.304 251.249 15.94C252.173 15.928 252.803 15.886 253.139 15.814C253.475 15.73 253.709 15.61 253.841 15.454C253.949 15.322 254.003 15.178 254.003 15.022C254.003 14.818 253.907 14.566 253.715 14.266L250.889 10.09L253.301 8.29ZM246.281 13.834C246.281 14.11 246.395 14.374 246.623 14.626C246.863 14.878 247.193 15.094 247.613 15.274C248.501 14.926 248.945 14.44 248.945 13.816C248.945 13.396 248.813 13.054 248.549 12.79C248.297 12.514 247.997 12.376 247.649 12.376C247.265 12.376 246.941 12.514 246.677 12.79C246.413 13.054 246.281 13.402 246.281 13.834ZM264.543 19C263.727 19 263.025 18.82 262.437 18.46C261.849 18.1 261.399 17.62 261.087 17.02C260.787 16.42 260.637 15.766 260.637 15.058C260.637 14.686 260.679 14.332 260.763 13.996C260.991 12.904 261.147 12.202 261.231 11.89L263.859 12.538L263.733 13.114C263.589 13.714 263.493 14.188 263.445 14.536L263.427 14.734C263.427 15.046 263.523 15.298 263.715 15.49C263.907 15.67 264.183 15.76 264.543 15.76H269.871C270.039 15.76 270.171 15.724 270.267 15.652C270.375 15.568 270.429 15.46 270.429 15.328C270.429 15.16 270.351 14.992 270.195 14.824L267.207 11.368L267.837 7.804L273.777 5.194L274.929 8.146L270.321 10.18L272.337 12.664L272.661 13.06C273.249 13.78 273.699 14.314 274.011 14.662C274.323 14.998 274.635 15.268 274.947 15.472C275.271 15.664 275.607 15.76 275.955 15.76H276.225L276.405 17.308L276.225 19H275.955C275.379 19 274.857 18.88 274.389 18.64C273.921 18.4 273.417 18.01 272.877 17.47C272.565 17.95 272.145 18.328 271.617 18.604C271.101 18.868 270.489 19 269.781 19H264.543ZM281.554 12.646V15.292C281.554 15.484 281.608 15.61 281.716 15.67C281.836 15.73 282.028 15.76 282.292 15.76H282.742L282.868 17.506L282.742 19H282.292C281.92 19 281.536 18.94 281.14 18.82C280.744 18.688 280.378 18.496 280.042 18.244C279.706 18.484 279.328 18.67 278.908 18.802C278.488 18.934 278.062 19 277.63 19H276.046V15.76H277.63C278.05 15.76 278.326 15.73 278.458 15.67C278.602 15.61 278.674 15.484 278.674 15.292V12.646H281.554ZM278.71 7.75H281.5V10.45H278.71V7.75ZM288.651 12.646V15.292C288.651 15.484 288.705 15.61 288.813 15.67C288.933 15.73 289.125 15.76 289.389 15.76H290.397L290.523 17.47L290.397 19H289.389C289.017 19 288.633 18.94 288.237 18.82C287.841 18.688 287.475 18.496 287.139 18.244C286.803 18.484 286.425 18.67 286.005 18.802C285.585 18.934 285.159 19 284.727 19H282.567V15.76H284.727C285.147 15.76 285.423 15.73 285.555 15.67C285.699 15.61 285.771 15.484 285.771 15.292V12.646H288.651ZM281.559 20.836H283.791H283.953H286.167V23.212H283.953H283.791H281.559V20.836ZM294.894 15.292C294.894 16.12 294.702 16.816 294.318 17.38C293.946 17.932 293.484 18.34 292.932 18.604C292.38 18.868 291.828 19 291.276 19H290.214V15.76H291.132C291.42 15.76 291.636 15.688 291.78 15.544C291.936 15.388 292.014 15.172 292.014 14.896V6.76H294.894V15.292Z" fill="#0C1118" fill-opacity="0.8"/>
<path opacity="0.4" d="M315 9.5V18.5C315 19.05 314.55 19.5 314 19.5H311.5C309.98 19.5 308.61 18.88 307.61 17.89C306.67 16.94 306.06 15.65 306 14.22C305.88 11.08 308.62 8.5 311.77 8.5H314C314.55 8.5 315 8.95 315 9.5Z" fill="#ED1B24"/>
<path opacity="0.4" d="M326 13.78C326.13 16.93 323.39 19.5 320.24 19.5H318.01C317.46 19.5 317.01 19.05 317.01 18.5V9.5C317.01 8.95 317.46 8.5 318.01 8.5H320.51C322.03 8.5 323.4 9.12 324.4 10.11C325.33 11.06 325.94 12.35 326 13.78Z" fill="#ED1B24"/>
<path d="M320 14.75H312C311.59 14.75 311.25 14.41 311.25 14C311.25 13.59 311.59 13.25 312 13.25H320C320.41 13.25 320.75 13.59 320.75 14C320.75 14.41 320.41 14.75 320 14.75Z" fill="#ED1B24"/>
<defs>
<linearGradient id="paint0_linear_3095_7778" x1="30.5171" y1="6.62138" x2="30.5171" y2="21.5278" gradientUnits="userSpaceOnUse">
<stop stop-color="#ED1B24" stop-opacity="0.6"/>
<stop offset="1" stop-color="#ED1B24"/>
</linearGradient>
<linearGradient id="paint1_linear_3095_7778" x1="242.53" y1="0.226574" x2="242.53" y2="28.0519" gradientUnits="userSpaceOnUse">
<stop stop-color="#ED1B24" stop-opacity="0.6"/>
<stop offset="1" stop-color="#ED1B24"/>
</linearGradient>
</defs>
</svg>
