<svg width="296" height="18" viewBox="0 0 296 18" fill="none" xmlns="http://www.w3.org/2000/svg">
<path d="M4.77767 12.668C3.52167 12.668 2.47767 12.248 1.64567 11.408C0.821672 10.576 0.409672 9.54 0.409672 8.3C0.409672 7.052 0.821672 6.016 1.64567 5.192C2.47767 4.352 3.52167 3.932 4.77767 3.932C5.53767 3.932 6.23767 4.112 6.87767 4.472C7.52567 4.824 8.02967 5.304 8.38967 5.912L6.96167 6.74C6.75367 6.364 6.45767 6.072 6.07367 5.864C5.68967 5.648 5.25767 5.54 4.77767 5.54C3.96167 5.54 3.30167 5.796 2.79767 6.308C2.30167 6.828 2.05367 7.492 2.05367 8.3C2.05367 9.1 2.30167 9.76 2.79767 10.28C3.30167 10.792 3.96167 11.048 4.77767 11.048C5.25767 11.048 5.68967 10.944 6.07367 10.736C6.46567 10.52 6.76167 10.228 6.96167 9.86L8.38967 10.688C8.02967 11.296 7.52567 11.78 6.87767 12.14C6.23767 12.492 5.53767 12.668 4.77767 12.668ZM14.4821 11.756C13.8741 12.364 13.1221 12.668 12.2261 12.668C11.3301 12.668 10.5781 12.364 9.97011 11.756C9.36211 11.148 9.05811 10.396 9.05811 9.5C9.05811 8.612 9.36211 7.864 9.97011 7.256C10.5861 6.64 11.3381 6.332 12.2261 6.332C13.1141 6.332 13.8661 6.64 14.4821 7.256C15.0981 7.872 15.4061 8.62 15.4061 9.5C15.4061 10.388 15.0981 11.14 14.4821 11.756ZM11.0621 10.688C11.3741 11 11.7621 11.156 12.2261 11.156C12.6901 11.156 13.0781 11 13.3901 10.688C13.7021 10.376 13.8581 9.98 13.8581 9.5C13.8581 9.02 13.7021 8.624 13.3901 8.312C13.0781 8 12.6901 7.844 12.2261 7.844C11.7621 7.844 11.3741 8 11.0621 8.312C10.7581 8.632 10.6061 9.028 10.6061 9.5C10.6061 9.972 10.7581 10.368 11.0621 10.688ZM19.9871 6.332C20.7951 6.332 21.4831 6.64 22.0511 7.256C22.6271 7.872 22.9151 8.62 22.9151 9.5C22.9151 10.396 22.6271 11.148 22.0511 11.756C21.4911 12.364 20.8031 12.668 19.9871 12.668C19.1471 12.668 18.4991 12.376 18.0431 11.792V14.9H16.4951V6.5H18.0431V7.208C18.4991 6.624 19.1471 6.332 19.9871 6.332ZM18.5111 10.724C18.8231 11.036 19.2191 11.192 19.6991 11.192C20.1791 11.192 20.5751 11.036 20.8871 10.724C21.2071 10.404 21.3671 9.996 21.3671 9.5C21.3671 9.004 21.2071 8.6 20.8871 8.288C20.5751 7.968 20.1791 7.808 19.6991 7.808C19.2191 7.808 18.8231 7.968 18.5111 8.288C18.1991 8.6 18.0431 9.004 18.0431 9.5C18.0431 9.996 18.1991 10.404 18.5111 10.724ZM28.5668 7.208V6.5H30.1148V12.5H28.5668V11.792C28.1028 12.376 27.4508 12.668 26.6108 12.668C25.8108 12.668 25.1228 12.364 24.5468 11.756C23.9788 11.14 23.6948 10.388 23.6948 9.5C23.6948 8.62 23.9788 7.872 24.5468 7.256C25.1228 6.64 25.8108 6.332 26.6108 6.332C27.4508 6.332 28.1028 6.624 28.5668 7.208ZM25.7108 10.724C26.0228 11.036 26.4188 11.192 26.8988 11.192C27.3788 11.192 27.7748 11.036 28.0868 10.724C28.4068 10.404 28.5668 9.996 28.5668 9.5C28.5668 9.004 28.4068 8.6 28.0868 8.288C27.7748 7.968 27.3788 7.808 26.8988 7.808C26.4188 7.808 26.0228 7.968 25.7108 8.288C25.3988 8.6 25.2428 9.004 25.2428 9.5C25.2428 9.996 25.3988 10.404 25.7108 10.724Z" fill="url(#paint0_linear_3095_8779)"/>
<path d="M36.2465 4.1V10.916H39.4505V12.5H34.5905V4.1H36.2465ZM41.0873 5.78C40.8313 5.78 40.6073 5.688 40.4153 5.504C40.2313 5.312 40.1393 5.088 40.1393 4.832C40.1393 4.576 40.2313 4.352 40.4153 4.16C40.6073 3.968 40.8313 3.872 41.0873 3.872C41.3513 3.872 41.5753 3.968 41.7593 4.16C41.9513 4.352 42.0473 4.576 42.0473 4.832C42.0473 5.088 41.9513 5.312 41.7593 5.504C41.5753 5.688 41.3513 5.78 41.0873 5.78ZM41.8673 12.5H40.3193V6.5H41.8673V12.5ZM46.6202 6.332C47.2842 6.332 47.8242 6.552 48.2402 6.992C48.6722 7.44 48.8882 8.048 48.8882 8.816V12.5H47.3402V9.008C47.3402 8.616 47.2322 8.312 47.0162 8.096C46.8082 7.88 46.5202 7.772 46.1522 7.772C45.7442 7.772 45.4202 7.9 45.1802 8.156C44.9482 8.404 44.8322 8.772 44.8322 9.26V12.5H43.2842V6.5H44.8322V7.172C45.2002 6.612 45.7962 6.332 46.6202 6.332ZM53.258 9.464L55.742 12.5H53.942L51.758 9.776V12.5H50.21V4.1H51.758V9.14L53.822 6.5H55.67L53.258 9.464ZM57.5442 8.204C57.5442 8.46 57.9082 8.68 58.6362 8.864C58.8922 8.92 59.1242 8.988 59.3322 9.068C59.5402 9.14 59.7482 9.248 59.9562 9.392C60.1722 9.528 60.3402 9.712 60.4602 9.944C60.5802 10.176 60.6402 10.444 60.6402 10.748C60.6402 11.364 60.4082 11.84 59.9442 12.176C59.4802 12.504 58.9082 12.668 58.2282 12.668C56.9962 12.668 56.1562 12.192 55.7082 11.24L57.0522 10.484C57.2362 11.004 57.6282 11.264 58.2282 11.264C58.7802 11.264 59.0562 11.092 59.0562 10.748C59.0562 10.492 58.6922 10.272 57.9642 10.088C57.6922 10.016 57.4602 9.944 57.2682 9.872C57.0762 9.8 56.8682 9.696 56.6442 9.56C56.4202 9.416 56.2482 9.236 56.1282 9.02C56.0162 8.796 55.9602 8.536 55.9602 8.24C55.9602 7.648 56.1762 7.184 56.6082 6.848C57.0482 6.504 57.5922 6.332 58.2402 6.332C58.7282 6.332 59.1722 6.444 59.5722 6.668C59.9722 6.884 60.2882 7.196 60.5202 7.604L59.2002 8.324C59.0082 7.916 58.6882 7.712 58.2402 7.712C58.0402 7.712 57.8722 7.76 57.7362 7.856C57.6082 7.944 57.5442 8.06 57.5442 8.204Z" fill="#0C1118" fill-opacity="0.8"/>
<path d="M69 7.5C70.85 7.525 72.7 7.55 74.55 7.575C107.85 8.025 141.15 8.475 174.45 8.925C176.3 8.95 178.15 8.975 180 9C180 8 180 7 180 6C178.15 6.025 176.3 6.05 174.45 6.075C141.15 6.525 107.85 6.975 74.55 7.425C72.7 7.45 70.85 7.475 69 7.5Z" fill="#ED1B24"/>
<path d="M191.826 13C190.846 13 190.123 12.7153 189.656 12.146C189.199 11.5767 188.97 10.8113 188.97 9.85V3.648H190.748V9.85C190.748 10.2047 190.767 10.4567 190.804 10.606C190.851 10.7553 190.944 10.858 191.084 10.914C191.233 10.9607 191.481 10.984 191.826 10.984H192.33L192.414 12.02L192.33 13H191.826ZM192.173 10.984H193.727C194.147 10.984 194.446 10.914 194.623 10.774C194.8 10.6247 194.88 10.4147 194.861 10.144C194.814 9.56533 194.693 8.79067 194.497 7.82L196.177 7.4C196.289 7.89467 196.392 8.422 196.485 8.982C196.588 9.542 196.639 9.99467 196.639 10.34C196.639 10.8067 196.536 11.2407 196.331 11.642C196.126 12.0433 195.813 12.37 195.393 12.622C194.982 12.874 194.474 13 193.867 13H192.173V10.984ZM191.641 14.106H193.307V15.772H191.641V14.106ZM193.013 16.206H194.609V17.788H193.013V16.206ZM194.301 14.106H195.967V15.772H194.301V14.106ZM199.989 14.61C200.567 14.61 201.006 14.5587 201.305 14.456C201.603 14.3627 201.809 14.1993 201.921 13.966C202.042 13.742 202.112 13.42 202.131 13H200.927C200.04 13 199.335 12.7433 198.813 12.23C198.299 11.7073 198.043 10.9793 198.043 10.046C198.043 9.38333 198.164 8.79533 198.407 8.282C198.659 7.76867 198.999 7.372 199.429 7.092C199.867 6.80267 200.362 6.658 200.913 6.658C201.51 6.658 202.033 6.798 202.481 7.078C202.938 7.358 203.288 7.75467 203.531 8.268C203.783 8.78133 203.909 9.374 203.909 10.046V10.984H204.679L204.791 12.006L204.679 13H203.909C203.871 14.092 203.535 14.9693 202.901 15.632C202.266 16.2947 201.295 16.626 199.989 16.626H198.323V14.61H199.989ZM199.751 9.948C199.751 10.3307 199.844 10.6153 200.031 10.802C200.217 10.9793 200.516 11.068 200.927 11.068H202.131V10.004C202.131 9.03333 201.725 8.548 200.913 8.548C200.53 8.548 200.241 8.67867 200.045 8.94C199.849 9.20133 199.751 9.53733 199.751 9.948ZM211.239 4.586L207.319 6.308L209.475 8.506C209.755 8.786 209.965 9.09867 210.105 9.444C210.245 9.78 210.315 10.1253 210.315 10.48C210.315 10.928 210.207 11.3433 209.993 11.726C209.787 12.1087 209.479 12.4167 209.069 12.65C208.667 12.8833 208.196 13 207.655 13H204.533V10.984H207.697C207.939 10.984 208.126 10.9373 208.257 10.844C208.397 10.7413 208.467 10.6107 208.467 10.452C208.467 10.256 208.369 10.06 208.173 9.864L205.387 7.064L205.821 4.81L210.511 2.738L211.239 4.586Z" fill="url(#paint1_linear_3095_8779)"/>
<path d="M217.051 9.472C216.547 10.6107 216.295 11.5487 216.295 12.286C216.295 13.0327 216.467 13.588 216.813 13.952C217.158 14.3253 217.727 14.512 218.521 14.512H219.725C220.257 14.512 220.667 14.4747 220.957 14.4C221.246 14.3253 221.451 14.2087 221.573 14.05C221.703 13.8913 221.783 13.6767 221.811 13.406V13.322C221.811 13.2753 221.797 13.238 221.769 13.21C221.75 13.1913 221.708 13.1773 221.643 13.168L218.479 12.3C218.367 11.8893 218.311 11.446 218.311 10.97C218.311 10.4007 218.399 9.864 218.577 9.36C218.763 8.856 219.011 8.42667 219.319 8.072C219.711 7.63333 220.145 7.29733 220.621 7.064C221.106 6.83067 221.619 6.714 222.161 6.714C222.441 6.714 222.73 6.742 223.029 6.798C223.337 6.84467 223.589 6.91 223.785 6.994L223.365 8.8C223.066 8.716 222.744 8.674 222.399 8.674C222.044 8.674 221.717 8.73467 221.419 8.856C221.129 8.968 220.882 9.12667 220.677 9.332C220.257 9.73333 220.047 10.172 220.047 10.648C220.373 10.732 221.185 10.9607 222.483 11.334C222.959 11.474 223.271 11.684 223.421 11.964C223.57 12.2347 223.631 12.6547 223.603 13.224C223.556 14.26 223.201 15.0673 222.539 15.646C221.885 16.234 220.947 16.528 219.725 16.528H218.521C217.699 16.528 216.985 16.3413 216.379 15.968C215.781 15.5947 215.324 15.086 215.007 14.442C214.699 13.8073 214.545 13.098 214.545 12.314C214.545 11.7727 214.638 11.1753 214.825 10.522C215.021 9.86867 215.254 9.25267 215.525 8.674L217.051 9.472ZM228.439 13C227.459 13 226.736 12.7153 226.269 12.146C225.812 11.5767 225.583 10.8113 225.583 9.85V3.648H227.361V9.85C227.361 10.2047 227.38 10.4567 227.417 10.606C227.464 10.7553 227.557 10.858 227.697 10.914C227.847 10.9607 228.094 10.984 228.439 10.984H228.943L229.027 12.02L228.943 13H228.439ZM236.444 5.258L238.684 8.632C239.029 9.15467 239.202 9.738 239.202 10.382C239.202 10.97 239.057 11.4647 238.768 11.866C238.451 12.2953 237.993 12.6033 237.396 12.79C236.808 12.9767 236.019 13.07 235.03 13.07C234.153 13.07 233.294 12.9253 232.454 12.636C231.67 12.8787 230.83 13 229.934 13H228.8V10.984H230.018H230.074C229.701 10.4613 229.514 9.89667 229.514 9.29C229.514 8.72067 229.645 8.19333 229.906 7.708C230.177 7.21333 230.541 6.82133 230.998 6.532C231.465 6.24267 231.978 6.098 232.538 6.098C233.079 6.098 233.579 6.24267 234.036 6.532C234.493 6.82133 234.853 7.20867 235.114 7.694C235.375 8.17933 235.506 8.70667 235.506 9.276C235.506 9.93867 235.305 10.536 234.904 11.068H234.96C235.688 11.068 236.22 11.0353 236.556 10.97C236.892 10.9047 237.116 10.8067 237.228 10.676C237.321 10.564 237.368 10.438 237.368 10.298C237.368 10.0927 237.284 9.86867 237.116 9.626L234.946 6.364L236.444 5.258ZM231.292 9.318C231.292 9.58867 231.395 9.84067 231.6 10.074C231.815 10.298 232.104 10.4893 232.468 10.648C232.879 10.4987 233.191 10.312 233.406 10.088C233.621 9.864 233.728 9.60733 233.728 9.318C233.728 8.93533 233.616 8.62267 233.392 8.38C233.168 8.13733 232.883 8.016 232.538 8.016C232.174 8.016 231.875 8.13733 231.642 8.38C231.409 8.62267 231.292 8.93533 231.292 9.318ZM245.716 13C245.137 13 244.629 12.874 244.19 12.622C243.761 12.3607 243.429 12.0153 243.196 11.586C242.972 11.1473 242.86 10.676 242.86 10.172C242.86 9.948 242.879 9.74733 242.916 9.57C242.963 9.30867 243.023 8.996 243.098 8.632C243.182 8.268 243.257 7.95067 243.322 7.68L244.96 8.086L244.862 8.534C244.675 9.262 244.582 9.766 244.582 10.046C244.582 10.3353 244.68 10.564 244.876 10.732C245.072 10.9 245.352 10.984 245.716 10.984H250.056C250.299 10.984 250.481 10.9373 250.602 10.844C250.733 10.7507 250.798 10.6247 250.798 10.466C250.798 10.2793 250.709 10.0787 250.532 9.864L248.152 7.064L248.586 4.81L253.276 2.738L253.99 4.586L250.084 6.308L251.834 8.506L251.876 8.562C252.455 9.29 252.875 9.80333 253.136 10.102C253.407 10.3913 253.668 10.6107 253.92 10.76C254.172 10.9093 254.461 10.984 254.788 10.984H255.026L255.138 11.964L255.026 13H254.788C254.303 13 253.873 12.9067 253.5 12.72C253.136 12.524 252.735 12.1973 252.296 11.74C252.1 12.132 251.806 12.44 251.414 12.664C251.031 12.888 250.565 13 250.014 13H245.716ZM258.946 8.31V10.34C258.946 10.5827 259.011 10.7507 259.142 10.844C259.273 10.9373 259.478 10.984 259.758 10.984H260.178L260.262 12.062L260.178 13H259.758C259.469 13 259.165 12.944 258.848 12.832C258.531 12.7107 258.251 12.538 258.008 12.314C257.756 12.538 257.462 12.7107 257.126 12.832C256.799 12.944 256.463 13 256.118 13H254.886V10.984H256.118C256.501 10.984 256.771 10.9327 256.93 10.83C257.089 10.718 257.168 10.5313 257.168 10.27V8.31H258.946ZM256.566 4.838H258.428V6.658H256.566V4.838ZM264.478 8.31V10.34C264.478 10.5827 264.544 10.7507 264.674 10.844C264.805 10.9373 265.01 10.984 265.29 10.984H266.046L266.13 12.048L266.046 13H265.29C265.001 13 264.698 12.944 264.38 12.832C264.063 12.7107 263.783 12.538 263.54 12.314C263.279 12.538 262.98 12.7107 262.644 12.832C262.318 12.944 261.982 13 261.636 13H260.04V10.984H261.636C262.028 10.984 262.304 10.9327 262.462 10.83C262.621 10.718 262.7 10.5313 262.7 10.27V8.31H264.478ZM259.074 14.708H260.754V16.388H259.074V14.708ZM261.706 14.708H263.386V16.388H261.706V14.708ZM269.252 10.27C269.252 10.886 269.116 11.3993 268.846 11.81C268.575 12.2207 268.239 12.524 267.838 12.72C267.436 12.9067 267.044 13 266.662 13H265.906V10.984H266.564C267.17 10.984 267.474 10.6853 267.474 10.088V3.648H269.252V10.27Z" fill="#0C1118" fill-opacity="0.8"/>
<path opacity="0.4" d="M286.25 5.625V12.375C286.25 12.7875 285.912 13.125 285.5 13.125H283.625C282.485 13.125 281.457 12.66 280.707 11.9175C280.002 11.205 279.545 10.2375 279.5 9.165C279.41 6.81 281.465 4.875 283.827 4.875H285.5C285.912 4.875 286.25 5.2125 286.25 5.625Z" fill="#ED1B24"/>
<path opacity="0.4" d="M294.5 8.835C294.598 11.1975 292.543 13.125 290.18 13.125H288.508C288.095 13.125 287.758 12.7875 287.758 12.375V5.625C287.758 5.2125 288.095 4.875 288.508 4.875H290.383C291.523 4.875 292.55 5.34 293.3 6.0825C293.998 6.795 294.455 7.7625 294.5 8.835Z" fill="#ED1B24"/>
<path d="M290 9.5625H284C283.692 9.5625 283.438 9.3075 283.438 9C283.438 8.6925 283.692 8.4375 284 8.4375H290C290.307 8.4375 290.562 8.6925 290.562 9C290.562 9.3075 290.307 9.5625 290 9.5625Z" fill="#ED1B24"/>
<defs>
<linearGradient id="paint0_linear_3095_8779" x1="30.5171" y1="1.62138" x2="30.5171" y2="16.5278" gradientUnits="userSpaceOnUse">
<stop stop-color="#ED1B24" stop-opacity="0.6"/>
<stop offset="1" stop-color="#ED1B24"/>
</linearGradient>
<linearGradient id="paint1_linear_3095_8779" x1="229.023" y1="0.145655" x2="229.023" y2="18.0334" gradientUnits="userSpaceOnUse">
<stop stop-color="#ED1B24" stop-opacity="0.6"/>
<stop offset="1" stop-color="#ED1B24"/>
</linearGradient>
</defs>
</svg>
