<svg width="60" height="60" viewBox="0 0 60 60" fill="none" xmlns="http://www.w3.org/2000/svg">
<g clip-path="url(#clip0_2294_5537)">
<path opacity="0.4" d="M43.8246 19.425C43.6496 19.4 43.4746 19.4 43.2996 19.425C39.4246 19.3 36.3496 16.125 36.3496 12.225C36.3496 8.25 39.5746 5 43.5746 5C47.5496 5 50.7996 8.225 50.7996 12.225C50.7746 16.125 47.6996 19.3 43.8246 19.425Z" fill="url(#paint0_linear_2294_5537)"/>
<path opacity="0.4" d="M51.975 36.75C49.175 38.625 45.25 39.325 41.625 38.85C42.575 36.8 43.075 34.525 43.1 32.125C43.1 29.625 42.55 27.25 41.5 25.175C45.2 24.675 49.125 25.375 51.95 27.25C55.9 29.85 55.9 34.125 51.975 36.75Z" fill="url(#paint1_linear_2294_5537)"/>
<path opacity="0.4" d="M16.1 19.425C16.275 19.4 16.45 19.4 16.625 19.425C20.5 19.3 23.575 16.125 23.575 12.225C23.575 8.25 20.35 5 16.35 5C12.375 5 9.125 8.225 9.125 12.225C9.15 16.125 12.225 19.3 16.1 19.425Z" fill="url(#paint2_linear_2294_5537)"/>
<path opacity="0.4" d="M16.3748 32.125C16.3748 34.55 16.8998 36.85 17.8498 38.925C14.3248 39.3 10.6498 38.55 7.9498 36.775C3.9998 34.15 3.9998 29.875 7.9498 27.25C10.6248 25.45 14.3998 24.725 17.9498 25.125C16.9248 27.225 16.3748 29.6 16.3748 32.125Z" fill="url(#paint3_linear_2294_5537)"/>
<path d="M30.3 39.675C30.1 39.65 29.875 39.65 29.65 39.675C25.05 39.525 21.375 35.75 21.375 31.1C21.375 26.35 25.2 22.5 29.975 22.5C34.725 22.5 38.575 26.35 38.575 31.1C38.575 35.75 34.925 39.525 30.3 39.675Z" fill="url(#paint4_linear_2294_5537)"/>
<path d="M22.175 44.8501C18.4 47.3751 18.4 51.5251 22.175 54.0251C26.475 56.9001 33.525 56.9001 37.825 54.0251C41.6 51.5001 41.6 47.3501 37.825 44.8501C33.55 41.9751 26.5 41.9751 22.175 44.8501Z" fill="url(#paint5_linear_2294_5537)"/>
</g>
<defs>
<linearGradient id="paint0_linear_2294_5537" x1="36.3496" y1="5" x2="50.7746" y2="19.45" gradientUnits="userSpaceOnUse">
<stop stop-color="#ED1B24"/>
<stop offset="1" stop-color="#ED1B24" stop-opacity="0.6"/>
</linearGradient>
<linearGradient id="paint1_linear_2294_5537" x1="41.5" y1="25.0186" x2="55.4638" y2="38.423" gradientUnits="userSpaceOnUse">
<stop stop-color="#ED1B24"/>
<stop offset="1" stop-color="#ED1B24" stop-opacity="0.6"/>
</linearGradient>
<linearGradient id="paint2_linear_2294_5537" x1="9.125" y1="5" x2="23.55" y2="19.45" gradientUnits="userSpaceOnUse">
<stop stop-color="#ED1B24"/>
<stop offset="1" stop-color="#ED1B24" stop-opacity="0.6"/>
</linearGradient>
<linearGradient id="paint3_linear_2294_5537" x1="4.9873" y1="25.0181" x2="18.947" y2="37.9422" gradientUnits="userSpaceOnUse">
<stop stop-color="#ED1B24"/>
<stop offset="1" stop-color="#ED1B24" stop-opacity="0.6"/>
</linearGradient>
<linearGradient id="paint4_linear_2294_5537" x1="21.375" y1="22.5" x2="38.55" y2="39.7" gradientUnits="userSpaceOnUse">
<stop stop-color="#ED1B24"/>
<stop offset="1" stop-color="#ED1B24" stop-opacity="0.6"/>
</linearGradient>
<linearGradient id="paint5_linear_2294_5537" x1="19.3438" y1="42.6938" x2="31.533" y2="61.9549" gradientUnits="userSpaceOnUse">
<stop stop-color="#ED1B24"/>
<stop offset="1" stop-color="#ED1B24" stop-opacity="0.6"/>
</linearGradient>
<clipPath id="clip0_2294_5537">
<rect width="60" height="60" fill="white"/>
</clipPath>
</defs>
</svg>
