<svg width="16" height="16" viewBox="0 0 16 16" fill="none" xmlns="http://www.w3.org/2000/svg">
<path opacity="0.4" d="M13.6665 15.2H2.33314C2.06647 15.2 1.7998 15 1.7998 14.6666C1.7998 14.3333 1.9998 14.1333 2.33314 14.1333H13.6665C13.9331 14.1333 14.1998 14.3333 14.1998 14.6666C14.1998 15 13.9331 15.2 13.6665 15.2Z" fill="#0C1118" fill-opacity="0.8"/>
<path d="M12.6663 12.1329C12.5329 12.1329 12.3996 12.0663 12.3329 11.9996L2.99961 2.66628C2.79961 2.46628 2.79961 2.19961 2.99961 1.99961C3.19961 1.79961 3.53294 1.79961 3.73294 1.99961L13.0663 11.3329C13.2663 11.5329 13.2663 11.8663 13.0663 12.0663C12.9329 12.1329 12.7996 12.1329 12.6663 12.1329Z" fill="#0C1118" fill-opacity="0.8"/>
<path d="M3.33314 9.66647C3.06647 9.66647 2.7998 9.46647 2.7998 9.13314V2.33314C2.7998 2.06647 2.9998 1.7998 3.33314 1.7998H10.1998C10.4665 1.7998 10.7331 1.9998 10.7331 2.33314C10.7331 2.66647 10.5331 2.86647 10.1998 2.86647H3.86647V9.19981C3.86647 9.46647 3.5998 9.66647 3.33314 9.66647Z" fill="#0C1118" fill-opacity="0.8"/>
</svg>
