<svg width="60" height="60" viewBox="0 0 60 60" fill="none" xmlns="http://www.w3.org/2000/svg">
<g clip-path="url(#clip0_2277_4300)">
<path d="M59.4072 34.1579V58.5454C59.2899 58.5411 59.1725 58.5347 59.053 58.5347C45.0159 58.5347 30.9808 58.5326 16.9436 58.5368C15.418 58.5368 13.9138 58.3747 12.4288 58.0354C10.4787 57.5916 8.65655 56.8448 6.99231 55.7247C4.69865 54.1778 2.99387 52.1252 1.79263 49.646C0.331093 46.6311 -0.238588 43.4179 -0.343136 40.0979C-0.343136 40.0681 -0.323933 40.0382 -0.315399 40.0169C-0.294062 40.0062 -0.287661 39.9998 -0.279127 39.9998C4.05642 39.9955 8.39197 39.9934 12.7275 39.9912C12.7446 39.9912 12.7617 39.9912 12.7787 39.9891C12.7958 39.9891 12.8129 39.9848 12.8278 39.9806C12.8363 39.9806 12.8449 39.972 12.847 39.9656C12.8491 39.9614 12.8449 39.9528 12.8406 39.9379C11.042 39.6307 9.38412 38.9458 7.85217 37.96C4.66238 35.9096 2.33031 33.1188 0.794093 29.6623C-0.0401596 27.7804 -0.524495 25.809 -0.582103 23.7436C-0.599172 23.112 -0.588504 22.4784 -0.588504 21.8468C-0.584237 19.0816 -0.577836 16.3164 -0.575702 13.5491C-0.573569 10.9525 -0.573569 8.35581 -0.571435 5.75704C-0.571435 4.02026 -0.565034 2.28348 -0.562901 0.546703C-0.562901 0.45709 -0.562901 0.367477 -0.562901 0.256528C-0.411412 0.256528 -0.296196 0.256528 -0.178846 0.256528C14.0013 0.256528 28.1815 0.256528 42.3616 0.254395C43.5138 0.254395 44.651 0.38668 45.7733 0.636316C49.3365 1.43216 52.3022 3.23509 54.6428 6.02588C57.7259 9.7 59.1021 14.0121 59.292 18.7488C59.292 18.7957 59.2813 18.8426 59.2749 18.8917C57.041 18.8917 54.8242 18.8917 52.6073 18.8917C50.3905 18.8917 48.1587 18.8917 45.9355 18.8917C46.0101 18.9365 46.0869 18.96 46.168 18.9749C47.1239 19.1542 48.0478 19.4443 48.9417 19.822C53.4181 21.7124 57.1968 25.8452 58.6989 30.5008C59.0616 31.6274 59.3262 32.7753 59.3646 33.9637C59.3667 34.0277 59.3923 34.0939 59.4094 34.1579H59.4072ZM3.36086 43.1192C3.36939 43.2344 3.36726 43.3176 3.38433 43.3987C3.53155 44.1326 3.65103 44.8751 3.83879 45.6006C4.32953 47.4867 5.17018 49.2 6.47383 50.668C7.6388 51.9823 9.04914 52.9595 10.6366 53.6956C12.081 54.3656 13.6002 54.7987 15.1599 55.1123C15.849 55.251 16.5403 55.3065 17.2444 55.3001C18.9321 55.283 20.6177 55.2873 22.3054 55.2852C24.9618 55.2809 27.6203 55.2788 30.2767 55.2766C32.9331 55.2745 35.5916 55.2724 38.248 55.2702C41.6127 55.2702 44.9796 55.266 48.3443 55.266C50.8492 55.266 53.3541 55.266 55.859 55.2617C55.9571 55.2617 56.0532 55.2553 56.1662 55.251V54.9438C56.1662 48.3167 56.1662 41.6896 56.1662 35.0625C56.1662 34.9708 56.1662 34.8769 56.1577 34.7852C56.0681 33.8954 55.9337 33.0143 55.7182 32.1437C54.6236 27.725 52.0547 24.4946 47.9432 22.5125C46.0123 21.5822 43.964 21.0488 41.8495 20.7501C41.602 20.716 41.3545 20.6797 41.1134 20.6477C41.0601 20.1548 41.0814 15.8598 41.1412 15.6614H51.6579C52.3662 15.6614 53.0746 15.6614 53.783 15.6614C54.4785 15.6614 55.172 15.6678 55.8803 15.655C55.8697 15.5675 55.8675 15.5163 55.8547 15.4694C55.3917 13.675 54.7666 11.9446 53.8448 10.3294C52.6543 8.24486 51.0647 6.54649 48.9716 5.34098C47.653 4.58141 46.2384 4.07574 44.7556 3.75356C43.7463 3.53379 42.7329 3.42925 41.6959 3.43351C36.189 3.45058 30.6799 3.44418 25.173 3.44632C19.8091 3.44632 14.443 3.44632 9.07901 3.44632C7.04565 3.44632 5.01443 3.44632 2.98107 3.44632C2.88292 3.44632 2.78478 3.45272 2.66956 3.45698C2.66956 3.57647 2.66956 3.66821 2.66956 3.75783C2.66956 6.83453 2.66529 9.91337 2.66529 12.9901C2.66529 16.2609 2.66956 19.5339 2.66316 22.8048C2.66316 23.7351 2.7421 24.6568 2.91493 25.57C3.49314 28.6488 4.90775 31.2839 7.1694 33.4453C9.91753 36.0718 13.2417 37.4821 16.9735 38.0091C17.2274 38.0454 17.4834 38.0752 17.7352 38.1094V43.1234H3.36086V43.1192Z" fill="#159B86"/>
<path d="M39.8038 23.3449V27.1919C39.7099 27.2004 39.6203 27.2111 39.5307 27.2175C38.9738 27.2623 38.5129 27.497 38.1523 27.9237C37.8643 28.2651 37.6744 28.6598 37.5485 29.0823C37.4461 29.4194 37.3629 29.765 37.2967 30.1128C36.8615 32.3723 35.5728 33.8488 33.3282 34.4505C32.6347 34.6361 31.9242 34.7279 31.2095 34.7641C31.154 34.5721 31.1327 31.4314 31.1817 30.8745C31.2628 30.8617 31.3503 30.8404 31.4399 30.8318C32.0331 30.7764 32.4897 30.4926 32.8268 30.0083C33.0593 29.6733 33.2215 29.302 33.3388 28.9137C33.4391 28.583 33.5245 28.248 33.6034 27.913C33.8701 26.7801 34.3694 25.7751 35.225 24.9686C35.6474 24.5717 36.1296 24.2688 36.6588 24.0341C37.6509 23.5945 38.7028 23.4281 39.8016 23.3428L39.8038 23.3449Z" fill="#159B86"/>
<path d="M25.2796 23.3599C25.2796 23.4687 25.2796 23.5583 25.2796 23.65C25.2796 25.8754 25.2796 28.1008 25.2796 30.3241C25.2796 30.4158 25.2839 30.5118 25.2604 30.5993C24.8742 32.1547 24.0528 33.3858 22.5912 34.1283C21.789 34.5337 20.9248 34.7129 20.033 34.7599C19.7812 34.7727 19.5295 34.7599 19.2798 34.7599C19.2243 34.5764 19.203 31.3247 19.2563 30.8724C19.3396 30.866 19.427 30.8596 19.5166 30.8553C19.7513 30.8468 19.9903 30.8596 20.2229 30.8255C20.6389 30.7636 20.8779 30.5118 20.9505 30.0958C20.9739 29.9549 20.9825 29.812 20.9825 29.669C20.9825 27.6719 20.9825 25.6749 20.9825 23.6778V23.3599H25.2796Z" fill="#159B86"/>
<path d="M13.9889 23.3555H18.237V34.7491H13.9953C13.9463 34.5699 13.9356 23.6414 13.9868 23.3555H13.9889Z" fill="#159B86"/>
<path d="M30.3903 23.3555V34.7491H26.1935C26.1444 34.572 26.1316 23.6478 26.1849 23.3555H30.3882H30.3903Z" fill="#159B86"/>
<path d="M40.6018 23.353H44.7666C44.8221 23.5408 44.8307 34.4991 44.773 34.7552H40.6082C40.5463 34.561 40.5378 23.6069 40.6018 23.353Z" fill="#159B86"/>
</g>
<defs>
<clipPath id="clip0_2277_4300">
<rect width="60" height="60" fill="white"/>
</clipPath>
</defs>
</svg>
