<svg width="322" height="100" viewBox="0 0 322 100" fill="none" xmlns="http://www.w3.org/2000/svg">
<path d="M0 8C0 9 0 10 0 11C1.50833 10.975 3.01667 10.95 4.525 10.925C31.675 10.475 58.825 10.025 85.975 9.575C87.4833 9.55 88.9917 9.525 90.5 9.5C88.9917 9.475 87.4833 9.45 85.975 9.425C58.825 8.975 31.675 8.525 4.525 8.075C3.01667 8.05 1.50833 8.025 0 8Z" fill="#ED1B24"/>
<path d="M106.104 16.252C104.22 16.252 102.654 15.622 101.406 14.362C100.17 13.114 99.552 11.56 99.552 9.7C99.552 7.828 100.17 6.274 101.406 5.038C102.654 3.778 104.22 3.148 106.104 3.148C107.244 3.148 108.294 3.418 109.254 3.958C110.226 4.486 110.982 5.206 111.522 6.118L109.38 7.36C109.068 6.796 108.624 6.358 108.048 6.046C107.472 5.722 106.824 5.56 106.104 5.56C104.88 5.56 103.89 5.944 103.134 6.712C102.39 7.492 102.018 8.488 102.018 9.7C102.018 10.9 102.39 11.89 103.134 12.67C103.89 13.438 104.88 13.822 106.104 13.822C106.824 13.822 107.472 13.666 108.048 13.354C108.636 13.03 109.08 12.592 109.38 12.04L111.522 13.282C110.982 14.194 110.226 14.92 109.254 15.46C108.294 15.988 107.244 16.252 106.104 16.252ZM120.661 14.884C119.749 15.796 118.621 16.252 117.277 16.252C115.933 16.252 114.805 15.796 113.893 14.884C112.981 13.972 112.525 12.844 112.525 11.5C112.525 10.168 112.981 9.046 113.893 8.134C114.817 7.21 115.945 6.748 117.277 6.748C118.609 6.748 119.737 7.21 120.661 8.134C121.585 9.058 122.047 10.18 122.047 11.5C122.047 12.832 121.585 13.96 120.661 14.884ZM115.531 13.282C115.999 13.75 116.581 13.984 117.277 13.984C117.973 13.984 118.555 13.75 119.023 13.282C119.491 12.814 119.725 12.22 119.725 11.5C119.725 10.78 119.491 10.186 119.023 9.718C118.555 9.25 117.973 9.016 117.277 9.016C116.581 9.016 115.999 9.25 115.531 9.718C115.075 10.198 114.847 10.792 114.847 11.5C114.847 12.208 115.075 12.802 115.531 13.282ZM128.918 6.748C130.13 6.748 131.162 7.21 132.014 8.134C132.878 9.058 133.31 10.18 133.31 11.5C133.31 12.844 132.878 13.972 132.014 14.884C131.174 15.796 130.142 16.252 128.918 16.252C127.658 16.252 126.686 15.814 126.002 14.938V19.6H123.68V7H126.002V8.062C126.686 7.186 127.658 6.748 128.918 6.748ZM126.704 13.336C127.172 13.804 127.766 14.038 128.486 14.038C129.206 14.038 129.8 13.804 130.268 13.336C130.748 12.856 130.988 12.244 130.988 11.5C130.988 10.756 130.748 10.15 130.268 9.682C129.8 9.202 129.206 8.962 128.486 8.962C127.766 8.962 127.172 9.202 126.704 9.682C126.236 10.15 126.002 10.756 126.002 11.5C126.002 12.244 126.236 12.856 126.704 13.336ZM141.788 8.062V7H144.11V16H141.788V14.938C141.092 15.814 140.114 16.252 138.854 16.252C137.654 16.252 136.622 15.796 135.758 14.884C134.906 13.96 134.48 12.832 134.48 11.5C134.48 10.18 134.906 9.058 135.758 8.134C136.622 7.21 137.654 6.748 138.854 6.748C140.114 6.748 141.092 7.186 141.788 8.062ZM137.504 13.336C137.972 13.804 138.566 14.038 139.286 14.038C140.006 14.038 140.6 13.804 141.068 13.336C141.548 12.856 141.788 12.244 141.788 11.5C141.788 10.756 141.548 10.15 141.068 9.682C140.6 9.202 140.006 8.962 139.286 8.962C138.566 8.962 137.972 9.202 137.504 9.682C137.036 10.15 136.802 10.756 136.802 11.5C136.802 12.244 137.036 12.856 137.504 13.336Z" fill="url(#paint0_linear_2294_5582)"/>
<path d="M150.823 3.4H155.521C156.721 3.4 157.741 3.808 158.581 4.624C159.409 5.44 159.823 6.442 159.823 7.63C159.823 8.818 159.409 9.82 158.581 10.636C157.741 11.452 156.721 11.86 155.521 11.86H153.307V16H150.823V3.4ZM153.307 9.538H155.521C156.049 9.538 156.487 9.358 156.835 8.998C157.183 8.626 157.357 8.17 157.357 7.63C157.357 7.078 157.183 6.622 156.835 6.262C156.487 5.902 156.049 5.722 155.521 5.722H153.307V9.538ZM163.461 7V8.548C163.665 7.984 164.013 7.558 164.505 7.27C164.997 6.97 165.561 6.82 166.197 6.82V9.412C165.489 9.316 164.853 9.46 164.289 9.844C163.737 10.216 163.461 10.834 163.461 11.698V16H161.139V7H163.461ZM174.889 14.884C173.977 15.796 172.849 16.252 171.505 16.252C170.161 16.252 169.033 15.796 168.121 14.884C167.209 13.972 166.753 12.844 166.753 11.5C166.753 10.168 167.209 9.046 168.121 8.134C169.045 7.21 170.173 6.748 171.505 6.748C172.837 6.748 173.965 7.21 174.889 8.134C175.813 9.058 176.275 10.18 176.275 11.5C176.275 12.832 175.813 13.96 174.889 14.884ZM169.759 13.282C170.227 13.75 170.809 13.984 171.505 13.984C172.201 13.984 172.783 13.75 173.251 13.282C173.719 12.814 173.953 12.22 173.953 11.5C173.953 10.78 173.719 10.186 173.251 9.718C172.783 9.25 172.201 9.016 171.505 9.016C170.809 9.016 170.227 9.25 169.759 9.718C169.303 10.198 169.075 10.792 169.075 11.5C169.075 12.208 169.303 12.802 169.759 13.282ZM184.731 8.062V3.4H187.053V16H184.731V14.938C184.047 15.814 183.075 16.252 181.815 16.252C180.603 16.252 179.565 15.796 178.701 14.884C177.849 13.96 177.423 12.832 177.423 11.5C177.423 10.18 177.849 9.058 178.701 8.134C179.565 7.21 180.603 6.748 181.815 6.748C183.075 6.748 184.047 7.186 184.731 8.062ZM180.447 13.336C180.939 13.804 181.539 14.038 182.247 14.038C182.967 14.038 183.561 13.804 184.029 13.336C184.497 12.856 184.731 12.244 184.731 11.5C184.731 10.756 184.497 10.15 184.029 9.682C183.561 9.202 182.967 8.962 182.247 8.962C181.527 8.962 180.927 9.202 180.447 9.682C179.979 10.15 179.745 10.756 179.745 11.5C179.745 12.244 179.979 12.856 180.447 13.336ZM195.116 11.86V7H197.438V16H195.116V14.992C194.564 15.832 193.67 16.252 192.434 16.252C191.45 16.252 190.634 15.922 189.986 15.262C189.35 14.59 189.032 13.678 189.032 12.526V7H191.354V12.238C191.354 12.826 191.51 13.282 191.822 13.606C192.146 13.93 192.584 14.092 193.136 14.092C193.748 14.092 194.228 13.906 194.576 13.534C194.936 13.15 195.116 12.592 195.116 11.86ZM203.849 16.252C202.493 16.252 201.359 15.796 200.447 14.884C199.547 13.972 199.097 12.844 199.097 11.5C199.097 10.156 199.547 9.028 200.447 8.116C201.359 7.204 202.493 6.748 203.849 6.748C204.725 6.748 205.523 6.958 206.243 7.378C206.963 7.798 207.509 8.362 207.881 9.07L205.883 10.24C205.703 9.868 205.427 9.574 205.055 9.358C204.695 9.142 204.287 9.034 203.831 9.034C203.135 9.034 202.559 9.268 202.103 9.736C201.647 10.192 201.419 10.78 201.419 11.5C201.419 12.196 201.647 12.784 202.103 13.264C202.559 13.72 203.135 13.948 203.831 13.948C204.299 13.948 204.713 13.846 205.073 13.642C205.445 13.426 205.721 13.132 205.901 12.76L207.917 13.912C207.521 14.632 206.957 15.202 206.225 15.622C205.505 16.042 204.713 16.252 203.849 16.252ZM214.293 7V9.232H212.259V12.976C212.259 13.288 212.337 13.516 212.493 13.66C212.649 13.804 212.877 13.888 213.177 13.912C213.477 13.924 213.849 13.918 214.293 13.894V16C212.721 16.18 211.599 16.036 210.927 15.568C210.267 15.088 209.937 14.224 209.937 12.976V9.232H208.371V7H209.937V5.182L212.259 4.48V7H214.293ZM217.879 9.556C217.879 9.94 218.425 10.27 219.517 10.546C219.901 10.63 220.249 10.732 220.561 10.852C220.873 10.96 221.185 11.122 221.497 11.338C221.821 11.542 222.073 11.818 222.253 12.166C222.433 12.514 222.523 12.916 222.523 13.372C222.523 14.296 222.175 15.01 221.479 15.514C220.783 16.006 219.925 16.252 218.905 16.252C217.057 16.252 215.797 15.538 215.125 14.11L217.141 12.976C217.417 13.756 218.005 14.146 218.905 14.146C219.733 14.146 220.147 13.888 220.147 13.372C220.147 12.988 219.601 12.658 218.509 12.382C218.101 12.274 217.753 12.166 217.465 12.058C217.177 11.95 216.865 11.794 216.529 11.59C216.193 11.374 215.935 11.104 215.755 10.78C215.587 10.444 215.503 10.054 215.503 9.61C215.503 8.722 215.827 8.026 216.475 7.522C217.135 7.006 217.951 6.748 218.923 6.748C219.655 6.748 220.321 6.916 220.921 7.252C221.521 7.576 221.995 8.044 222.343 8.656L220.363 9.736C220.075 9.124 219.595 8.818 218.923 8.818C218.623 8.818 218.371 8.89 218.167 9.034C217.975 9.166 217.879 9.34 217.879 9.556Z" fill="#0C1118" fill-opacity="0.8"/>
<path d="M231.5 9.5C233.008 9.525 234.517 9.55 236.025 9.575C263.175 10.025 290.325 10.475 317.475 10.925C318.983 10.95 320.492 10.975 322 11C322 10 322 9 322 8C320.492 8.025 318.983 8.05 317.475 8.075C290.325 8.525 263.175 8.975 236.025 9.425C234.517 9.45 233.008 9.475 231.5 9.5Z" fill="#ED1B24"/>
<path d="M14.9983 73C12.3103 73 10.0543 72.424 8.23025 71.272C6.40625 70.088 5.04625 68.52 4.15025 66.568C3.25425 64.616 2.80625 62.456 2.80625 60.088V37.384H13.3663V59.8C13.3663 60.216 13.4463 60.52 13.6063 60.712C13.7983 60.904 14.1023 61 14.5182 61H17.3983L17.8783 66.712L17.3983 73H14.9983ZM16.9006 61H22.4686C23.5246 61 24.2606 60.824 24.6766 60.472C25.0926 60.12 25.2366 59.576 25.1086 58.84C24.8846 57.368 24.5646 55.496 24.1486 53.224L34.1326 50.68C35.2526 55.448 35.8126 58.936 35.8126 61.144C35.8126 63.128 35.3806 65.032 34.5166 66.856C33.6846 68.648 32.4046 70.12 30.6766 71.272C28.9486 72.424 26.8526 73 24.3886 73H16.9006V61ZM14.7886 76.696H22.7086H22.8046H30.7246V84.712H22.8046H22.7086H17.4286H14.7886V76.696ZM18.9166 87.208H26.5966V94.12H18.9166V87.208ZM49.5624 74.44C51.6424 74.44 53.0344 74.36 53.7384 74.2C54.4744 74.072 54.9704 73.672 55.2264 73H52.9224C49.0184 73 45.9944 71.88 43.8504 69.64C41.7064 67.4 40.6344 64.296 40.6344 60.328C40.6344 55.752 41.6904 52.232 43.8024 49.768C45.9464 47.272 48.9864 46.024 52.9224 46.024C56.8584 46.024 59.9784 47.288 62.2824 49.816C64.6184 52.344 65.8664 56.072 66.0264 61H68.8584L69.5304 67.24L68.8584 73H65.8824C65.5944 75.592 64.7944 77.896 63.4824 79.912C62.2024 81.928 60.3784 83.512 58.0104 84.664C55.6744 85.848 52.8584 86.44 49.5624 86.44H41.5944V74.44H49.5624ZM50.2824 59.272C50.2824 60.072 50.5064 60.664 50.9544 61.048C51.4024 61.4 52.0584 61.576 52.9224 61.576H55.4664V59.272C55.4664 58.408 55.2424 57.736 54.7944 57.256C54.3784 56.776 53.7544 56.536 52.9224 56.536C52.0904 56.536 51.4344 56.792 50.9544 57.304C50.5064 57.784 50.2824 58.44 50.2824 59.272ZM92.1785 43.912L82.0985 48.376L86.8985 53.272C88.0185 54.424 88.8505 55.72 89.3945 57.16C89.9705 58.6 90.2585 60.088 90.2585 61.624C90.2585 63.576 89.8105 65.432 88.9145 67.192C88.0185 68.92 86.7225 70.328 85.0265 71.416C83.3305 72.472 81.3305 73 79.0265 73H68.3225V61H78.7385L69.1865 51.208L70.9145 40.456L87.9545 32.968L92.1785 43.912Z" fill="url(#paint1_linear_2294_5582)"/>
<path d="M113.477 73C111.141 73 109.061 72.504 107.237 71.512C105.445 70.488 104.037 69.08 103.013 67.288C102.021 65.464 101.525 63.368 101.525 61C101.525 59.944 101.621 58.872 101.813 57.784C102.197 55.8 102.661 53.832 103.205 51.88L113.045 54.856C112.565 56.68 112.229 58.088 112.037 59.08C112.005 59.208 111.989 59.4 111.989 59.656C111.989 60.552 112.533 61 113.621 61H129.365C130.421 61 131.157 60.824 131.573 60.472C131.989 60.12 132.133 59.576 132.005 58.84C131.781 57.368 131.461 55.496 131.045 53.224L141.029 50.68C142.149 55.448 142.709 58.936 142.709 61.144C142.709 63.064 142.229 64.952 141.269 66.808C140.341 68.632 139.013 70.12 137.285 71.272C135.557 72.424 133.557 73 131.285 73H113.477ZM114.629 44.488H117.269H122.549H122.645H130.565V52.504H122.645H122.549H114.629V44.488ZM147.509 61H162.677C163.125 61 163.509 60.824 163.829 60.472C164.181 60.12 164.357 59.688 164.357 59.176V37.384H174.917V59.8C174.917 62.456 174.421 64.792 173.429 66.808C172.437 68.792 171.093 70.328 169.397 71.416C167.701 72.472 165.845 73 163.829 73H147.509V61ZM158.069 37.768L159.317 57.592L148.757 58.36L147.509 38.536L158.069 37.768ZM188.641 74.44C190.721 74.44 192.113 74.36 192.817 74.2C193.553 74.072 194.049 73.672 194.305 73H192.001C188.097 73 185.073 71.88 182.929 69.64C180.785 67.4 179.713 64.296 179.713 60.328C179.713 55.752 180.769 52.232 182.881 49.768C185.025 47.272 188.065 46.024 192.001 46.024C195.937 46.024 199.057 47.288 201.361 49.816C203.697 52.344 204.945 56.072 205.105 61H207.937L208.609 67.24L207.937 73H204.961C204.673 75.592 203.873 77.896 202.561 79.912C201.281 81.928 199.457 83.512 197.089 84.664C194.753 85.848 191.937 86.44 188.641 86.44H180.673V74.44H188.641ZM189.361 59.272C189.361 60.072 189.585 60.664 190.033 61.048C190.481 61.4 191.137 61.576 192.001 61.576H194.545V59.272C194.545 58.408 194.321 57.736 193.873 57.256C193.457 56.776 192.833 56.536 192.001 56.536C191.169 56.536 190.513 56.792 190.033 57.304C189.585 57.784 189.361 58.44 189.361 59.272ZM222.953 59.992C222.953 60.6 223.209 60.936 223.721 61L227.561 54.76C229.545 51.624 231.417 49.384 233.177 48.04C234.969 46.664 237.193 45.976 239.849 45.976C242.217 45.976 244.329 46.568 246.185 47.752C248.073 48.936 249.545 50.552 250.601 52.6C251.657 54.616 252.185 56.856 252.185 59.32C252.185 59.928 252.169 60.392 252.137 60.712C252.873 60.904 253.673 61 254.537 61H255.353L256.025 67.192L255.353 73H254.537C251.241 73 248.729 72.168 247.001 70.504C244.761 72.168 242.169 73 239.225 73H224.489C222.153 73 219.881 72.184 217.673 70.552C215.561 72.184 213.321 73 210.953 73H207.449V61H211.241C211.689 61 211.993 60.92 212.153 60.76C212.313 60.6 212.393 60.344 212.393 59.992V54.376H222.953V59.992ZM239.657 61C240.457 61 241.049 60.856 241.433 60.568C241.817 60.28 242.009 59.768 242.009 59.032C242.009 58.424 241.801 57.96 241.385 57.64C241.001 57.32 240.489 57.16 239.849 57.16C238.921 57.16 238.137 57.384 237.497 57.832C236.889 58.248 236.233 59 235.529 60.088C235.401 60.248 235.209 60.552 234.953 61H239.657ZM289.827 73C286.147 73 283.139 71.448 280.803 68.344C277.699 70.072 274.723 71.288 271.875 71.992C269.059 72.664 265.683 73 261.747 73H254.979V61H261.747C267.539 61 272.355 60.44 276.195 59.32C270.531 57.624 267.363 56.776 266.691 56.776C265.795 56.776 265.059 57.4 264.483 58.648L255.987 55.576C257.011 52.376 258.403 49.992 260.163 48.424C261.923 46.824 264.083 46.024 266.643 46.024C267.987 46.024 269.747 46.376 271.923 47.08C274.099 47.752 277.267 48.856 281.427 50.392C282.387 50.776 283.827 51.32 285.747 52.024L286.371 60.856C287.331 60.952 288.387 61 289.539 61H290.883L291.363 67L290.883 73H289.827ZM290.182 61H291.67C292.15 61 292.518 60.936 292.774 60.808C293.03 60.68 293.222 60.44 293.35 60.088L294.694 55.768C295.782 52.28 297.334 49.704 299.35 48.04C301.366 46.344 303.958 45.496 307.126 45.496C309.43 45.496 311.494 46.168 313.318 47.512C315.174 48.856 316.614 50.648 317.638 52.888C318.662 55.096 319.174 57.48 319.174 60.04C319.174 62.984 318.662 65.496 317.638 67.576C316.646 69.656 315.286 71.24 313.558 72.328C311.862 73.384 309.958 73.912 307.846 73.912C306.758 73.912 305.542 73.688 304.198 73.24C302.854 72.824 300.982 72.104 298.582 71.08C296.918 72.36 295.078 73 293.062 73H290.182V61ZM303.91 61.24C305.766 61.944 306.95 62.296 307.462 62.296C308.166 62.296 308.726 62.104 309.142 61.72C309.59 61.304 309.814 60.696 309.814 59.896C309.814 58.968 309.59 58.216 309.142 57.64C308.694 57.032 308.086 56.728 307.318 56.728C306.678 56.728 306.118 56.968 305.638 57.448C305.158 57.896 304.79 58.488 304.534 59.224L303.91 61.24Z" fill="#0C1118" fill-opacity="0.8"/>
<defs>
<linearGradient id="paint0_linear_2294_5582" x1="161.035" y1="0.178023" x2="161.035" y2="22.0408" gradientUnits="userSpaceOnUse">
<stop stop-color="#ED1B24" stop-opacity="0.6"/>
<stop offset="1" stop-color="#ED1B24"/>
</linearGradient>
<linearGradient id="paint1_linear_2294_5582" x1="161.09" y1="22.6312" x2="161.09" y2="100.145" gradientUnits="userSpaceOnUse">
<stop stop-color="#ED1B24" stop-opacity="0.6"/>
<stop offset="1" stop-color="#ED1B24"/>
</linearGradient>
</defs>
</svg>
