<svg width="326" height="100" viewBox="0 0 326 100" fill="none" xmlns="http://www.w3.org/2000/svg">
<path d="M0 8C0 9 0 10 0 11C1.74167 10.975 3.48333 10.95 5.225 10.925C36.575 10.475 67.925 10.025 99.275 9.575C101.017 9.55 102.758 9.525 104.5 9.5C102.758 9.475 101.017 9.45 99.275 9.425C67.925 8.975 36.575 8.525 5.225 8.075C3.48333 8.05 1.74167 8.025 0 8Z" fill="#ED1B24"/>
<path d="M120.057 16.252C118.173 16.252 116.607 15.622 115.359 14.362C114.123 13.114 113.505 11.56 113.505 9.7C113.505 7.828 114.123 6.274 115.359 5.038C116.607 3.778 118.173 3.148 120.057 3.148C121.197 3.148 122.247 3.418 123.207 3.958C124.179 4.486 124.935 5.206 125.475 6.118L123.333 7.36C123.021 6.796 122.577 6.358 122.001 6.046C121.425 5.722 120.777 5.56 120.057 5.56C118.833 5.56 117.843 5.944 117.087 6.712C116.343 7.492 115.971 8.488 115.971 9.7C115.971 10.9 116.343 11.89 117.087 12.67C117.843 13.438 118.833 13.822 120.057 13.822C120.777 13.822 121.425 13.666 122.001 13.354C122.589 13.03 123.033 12.592 123.333 12.04L125.475 13.282C124.935 14.194 124.179 14.92 123.207 15.46C122.247 15.988 121.197 16.252 120.057 16.252ZM134.614 14.884C133.702 15.796 132.574 16.252 131.23 16.252C129.886 16.252 128.758 15.796 127.846 14.884C126.934 13.972 126.478 12.844 126.478 11.5C126.478 10.168 126.934 9.046 127.846 8.134C128.77 7.21 129.898 6.748 131.23 6.748C132.562 6.748 133.69 7.21 134.614 8.134C135.538 9.058 136 10.18 136 11.5C136 12.832 135.538 13.96 134.614 14.884ZM129.484 13.282C129.952 13.75 130.534 13.984 131.23 13.984C131.926 13.984 132.508 13.75 132.976 13.282C133.444 12.814 133.678 12.22 133.678 11.5C133.678 10.78 133.444 10.186 132.976 9.718C132.508 9.25 131.926 9.016 131.23 9.016C130.534 9.016 129.952 9.25 129.484 9.718C129.028 10.198 128.8 10.792 128.8 11.5C128.8 12.208 129.028 12.802 129.484 13.282ZM142.871 6.748C144.083 6.748 145.115 7.21 145.967 8.134C146.831 9.058 147.263 10.18 147.263 11.5C147.263 12.844 146.831 13.972 145.967 14.884C145.127 15.796 144.095 16.252 142.871 16.252C141.611 16.252 140.639 15.814 139.955 14.938V19.6H137.633V7H139.955V8.062C140.639 7.186 141.611 6.748 142.871 6.748ZM140.657 13.336C141.125 13.804 141.719 14.038 142.439 14.038C143.159 14.038 143.753 13.804 144.221 13.336C144.701 12.856 144.941 12.244 144.941 11.5C144.941 10.756 144.701 10.15 144.221 9.682C143.753 9.202 143.159 8.962 142.439 8.962C141.719 8.962 141.125 9.202 140.657 9.682C140.189 10.15 139.955 10.756 139.955 11.5C139.955 12.244 140.189 12.856 140.657 13.336ZM155.741 8.062V7H158.063V16H155.741V14.938C155.045 15.814 154.067 16.252 152.807 16.252C151.607 16.252 150.575 15.796 149.711 14.884C148.859 13.96 148.433 12.832 148.433 11.5C148.433 10.18 148.859 9.058 149.711 8.134C150.575 7.21 151.607 6.748 152.807 6.748C154.067 6.748 155.045 7.186 155.741 8.062ZM151.457 13.336C151.925 13.804 152.519 14.038 153.239 14.038C153.959 14.038 154.553 13.804 155.021 13.336C155.501 12.856 155.741 12.244 155.741 11.5C155.741 10.756 155.501 10.15 155.021 9.682C154.553 9.202 153.959 8.962 153.239 8.962C152.519 8.962 151.925 9.202 151.457 9.682C150.989 10.15 150.755 10.756 150.755 11.5C150.755 12.244 150.989 12.856 151.457 13.336Z" fill="url(#paint0_linear_2248_3898)"/>
<path d="M170.968 16H167.89L163.66 3.4H166.36L169.438 13.084L172.498 3.4H175.216L170.968 16ZM177.123 5.92C176.739 5.92 176.403 5.782 176.115 5.506C175.839 5.218 175.701 4.882 175.701 4.498C175.701 4.114 175.839 3.778 176.115 3.49C176.403 3.202 176.739 3.058 177.123 3.058C177.519 3.058 177.855 3.202 178.131 3.49C178.419 3.778 178.563 4.114 178.563 4.498C178.563 4.882 178.419 5.218 178.131 5.506C177.855 5.782 177.519 5.92 177.123 5.92ZM178.293 16H175.971V7H178.293V16ZM182.49 9.556C182.49 9.94 183.036 10.27 184.128 10.546C184.512 10.63 184.86 10.732 185.172 10.852C185.484 10.96 185.796 11.122 186.108 11.338C186.432 11.542 186.684 11.818 186.864 12.166C187.044 12.514 187.134 12.916 187.134 13.372C187.134 14.296 186.786 15.01 186.09 15.514C185.394 16.006 184.536 16.252 183.516 16.252C181.668 16.252 180.408 15.538 179.736 14.11L181.752 12.976C182.028 13.756 182.616 14.146 183.516 14.146C184.344 14.146 184.758 13.888 184.758 13.372C184.758 12.988 184.212 12.658 183.12 12.382C182.712 12.274 182.364 12.166 182.076 12.058C181.788 11.95 181.476 11.794 181.14 11.59C180.804 11.374 180.546 11.104 180.366 10.78C180.198 10.444 180.114 10.054 180.114 9.61C180.114 8.722 180.438 8.026 181.086 7.522C181.746 7.006 182.562 6.748 183.534 6.748C184.266 6.748 184.932 6.916 185.532 7.252C186.132 7.576 186.606 8.044 186.954 8.656L184.974 9.736C184.686 9.124 184.206 8.818 183.534 8.818C183.234 8.818 182.982 8.89 182.778 9.034C182.586 9.166 182.49 9.34 182.49 9.556ZM189.779 5.92C189.395 5.92 189.059 5.782 188.771 5.506C188.495 5.218 188.357 4.882 188.357 4.498C188.357 4.114 188.495 3.778 188.771 3.49C189.059 3.202 189.395 3.058 189.779 3.058C190.175 3.058 190.511 3.202 190.787 3.49C191.075 3.778 191.219 4.114 191.219 4.498C191.219 4.882 191.075 5.218 190.787 5.506C190.511 5.782 190.175 5.92 189.779 5.92ZM190.949 16H188.627V7H190.949V16ZM200.743 14.884C199.831 15.796 198.703 16.252 197.359 16.252C196.015 16.252 194.887 15.796 193.975 14.884C193.063 13.972 192.607 12.844 192.607 11.5C192.607 10.168 193.063 9.046 193.975 8.134C194.899 7.21 196.027 6.748 197.359 6.748C198.691 6.748 199.819 7.21 200.743 8.134C201.667 9.058 202.129 10.18 202.129 11.5C202.129 12.832 201.667 13.96 200.743 14.884ZM195.613 13.282C196.081 13.75 196.663 13.984 197.359 13.984C198.055 13.984 198.637 13.75 199.105 13.282C199.573 12.814 199.807 12.22 199.807 11.5C199.807 10.78 199.573 10.186 199.105 9.718C198.637 9.25 198.055 9.016 197.359 9.016C196.663 9.016 196.081 9.25 195.613 9.718C195.157 10.198 194.929 10.792 194.929 11.5C194.929 12.208 195.157 12.802 195.613 13.282ZM208.766 6.748C209.762 6.748 210.572 7.078 211.196 7.738C211.844 8.41 212.168 9.322 212.168 10.474V16H209.846V10.762C209.846 10.174 209.684 9.718 209.36 9.394C209.048 9.07 208.616 8.908 208.064 8.908C207.452 8.908 206.966 9.1 206.606 9.484C206.258 9.856 206.084 10.408 206.084 11.14V16H203.762V7H206.084V8.008C206.636 7.168 207.53 6.748 208.766 6.748Z" fill="#0C1118" fill-opacity="0.8"/>
<path d="M221.5 9.5C223.242 9.525 224.983 9.55 226.725 9.575C258.075 10.025 289.425 10.475 320.775 10.925C322.517 10.95 324.258 10.975 326 11C326 10 326 9 326 8C324.258 8.025 322.517 8.05 320.775 8.075C289.425 8.525 258.075 8.975 226.725 9.425C224.983 9.45 223.242 9.475 221.5 9.5Z" fill="#ED1B24"/>
<path d="M14.7014 73C12.0134 73 9.75738 72.424 7.93338 71.272C6.10938 70.088 4.74938 68.52 3.85338 66.568C2.95738 64.616 2.50938 62.456 2.50938 60.088V37.384H13.0694V59.8C13.0694 60.216 13.1494 60.52 13.3094 60.712C13.5014 60.904 13.8054 61 14.2214 61H17.1014L17.5814 66.712L17.1014 73H14.7014ZM16.6037 61H22.1718C23.2278 61 23.9638 60.824 24.3798 60.472C24.7958 60.12 24.9398 59.576 24.8118 58.84C24.5878 57.368 24.2678 55.496 23.8518 53.224L33.8358 50.68C34.9558 55.448 35.5158 58.936 35.5158 61.144C35.5158 63.128 35.0838 65.032 34.2198 66.856C33.3878 68.648 32.1078 70.12 30.3798 71.272C28.6518 72.424 26.5558 73 24.0918 73H16.6037V61ZM14.4917 76.696H22.4118H22.5078H30.4278V84.712H22.5078H22.4118H17.1318H14.4917V76.696ZM18.6198 87.208H26.2998V94.12H18.6198V87.208ZM49.2655 74.44C51.3455 74.44 52.7375 74.36 53.4415 74.2C54.1775 74.072 54.6735 73.672 54.9295 73H52.6255C48.7215 73 45.6975 71.88 43.5535 69.64C41.4095 67.4 40.3375 64.296 40.3375 60.328C40.3375 55.752 41.3935 52.232 43.5055 49.768C45.6495 47.272 48.6895 46.024 52.6255 46.024C56.5615 46.024 59.6815 47.288 61.9855 49.816C64.3215 52.344 65.5695 56.072 65.7295 61H68.5615L69.2335 67.24L68.5615 73H65.5855C65.2975 75.592 64.4975 77.896 63.1855 79.912C61.9055 81.928 60.0815 83.512 57.7135 84.664C55.3775 85.848 52.5615 86.44 49.2655 86.44H41.2975V74.44H49.2655ZM49.9855 59.272C49.9855 60.072 50.2095 60.664 50.6575 61.048C51.1055 61.4 51.7615 61.576 52.6255 61.576H55.1695V59.272C55.1695 58.408 54.9455 57.736 54.4975 57.256C54.0815 56.776 53.4575 56.536 52.6255 56.536C51.7935 56.536 51.1375 56.792 50.6575 57.304C50.2095 57.784 49.9855 58.44 49.9855 59.272ZM91.8816 43.912L81.8016 48.376L86.6016 53.272C87.7216 54.424 88.5536 55.72 89.0976 57.16C89.6736 58.6 89.9616 60.088 89.9616 61.624C89.9616 63.576 89.5136 65.432 88.6176 67.192C87.7216 68.92 86.4256 70.328 84.7296 71.416C83.0336 72.472 81.0336 73 78.7296 73H68.0256V61H78.4416L68.8896 51.208L70.6176 40.456L87.6576 32.968L91.8816 43.912Z" fill="url(#paint1_linear_2248_3898)"/>
<path d="M117.932 54.376V67.816C117.932 71.272 117.308 74.28 116.06 76.84C114.844 79.432 113.02 81.432 110.588 82.84C108.188 84.28 105.276 85 101.852 85H98.8281V73H101.852C103.644 73 104.892 72.904 105.596 72.712C106.332 72.488 106.812 72.04 107.036 71.368C107.26 70.696 107.372 69.512 107.372 67.816V54.376H117.932ZM108.188 39.976H112.652C114.636 39.976 116.108 39.992 117.068 40.024V48.616H108.188V39.976ZM121.759 37.384H132.319V73H121.759V37.384ZM158.363 48.184L161.435 54.76L161.531 54.952C162.299 56.616 162.955 57.88 163.499 58.744C164.075 59.576 164.619 60.168 165.131 60.52C165.675 60.84 166.283 61 166.955 61H167.963L168.443 67.192L167.963 73H166.955C164.235 73 161.691 71.992 159.323 69.976C156.987 71.992 154.091 73 150.635 73H148.187C145.755 73 143.595 72.648 141.707 71.944C139.851 71.208 138.155 70.28 136.619 69.16L140.747 59.704C141.835 60.088 142.891 60.408 143.915 60.664C144.971 60.888 146.395 61 148.187 61H149.579C150.987 61 151.883 60.888 152.267 60.664C151.851 59.672 151.499 58.856 151.211 58.216L145.739 46.888L155.243 41.608L158.363 48.184ZM167.494 61H171.91C172.966 61 173.702 60.824 174.118 60.472C174.534 60.12 174.678 59.576 174.55 58.84C174.326 57.368 174.006 55.496 173.59 53.224L183.574 50.68C184.694 55.448 185.254 58.936 185.254 61.144C185.254 63.064 184.774 64.952 183.814 66.808C182.886 68.632 181.558 70.12 179.83 71.272C178.102 72.424 176.102 73 173.83 73H167.494V61ZM170.23 39.16H174.694C176.678 39.16 178.15 39.176 179.11 39.208V47.8H170.23V39.16ZM190.056 37.384H200.616V73H190.056V37.384ZM249.491 67L249.011 73H248.435C245.843 73 243.635 72.296 241.811 70.888C240.819 71.88 239.683 72.632 238.403 73.144C237.123 73.656 235.747 73.912 234.275 73.912C233.251 73.912 232.099 73.736 230.819 73.384C229.539 73.064 227.699 72.52 225.299 71.752L222.179 70.744V86.536H211.619V64.888L218.387 57.592C218.963 57.784 219.619 57.992 220.355 58.216L221.123 55.768C222.211 52.28 223.763 49.704 225.779 48.04C227.795 46.344 230.387 45.496 233.555 45.496C235.859 45.496 237.923 46.168 239.747 47.512C241.603 48.856 243.043 50.648 244.067 52.888C245.091 55.096 245.603 57.48 245.603 60.04C245.635 60.296 245.875 60.52 246.323 60.712C246.771 60.904 247.475 61 248.435 61H249.011L249.491 67ZM230.339 61.432C232.291 62.008 233.475 62.296 233.891 62.296C234.595 62.296 235.155 62.104 235.571 61.72C236.019 61.304 236.243 60.696 236.243 59.896C236.243 58.968 236.019 58.216 235.571 57.64C235.123 57.032 234.515 56.728 233.747 56.728C233.107 56.728 232.531 56.968 232.019 57.448C231.539 57.896 231.187 58.488 230.963 59.224L230.339 61.432ZM270.429 70.84C269.757 71.48 268.797 72.008 267.549 72.424C266.301 72.808 265.165 73 264.141 73C262.637 73 261.293 72.824 260.109 72.472C258.957 72.088 258.093 71.544 257.517 70.84C256.269 72.28 254.125 73 251.085 73H248.541V61H251.133C251.645 61 252.013 60.92 252.237 60.76C252.461 60.568 252.573 60.248 252.573 59.8V54.376H263.133V61C263.133 61.288 263.229 61.528 263.421 61.72C263.613 61.912 263.853 62.008 264.141 62.008C264.429 62.008 264.669 61.912 264.861 61.72C265.053 61.528 265.149 61.288 265.149 61V54.376H275.709V61C275.709 61.288 275.805 61.528 275.997 61.72C276.189 61.912 276.429 62.008 276.717 62.008C277.005 62.008 277.245 61.912 277.437 61.72C277.629 61.528 277.725 61.288 277.725 61V54.376H288.285V59.8C288.285 60.248 288.397 60.568 288.621 60.76C288.845 60.92 289.213 61 289.725 61H292.317L292.749 67.048L292.317 73H289.773C286.733 73 284.589 72.28 283.341 70.84C282.765 71.544 281.885 72.088 280.701 72.472C279.549 72.824 278.221 73 276.717 73C274.413 73 272.317 72.28 270.429 70.84ZM262.701 42.376H265.341H270.621H270.717H278.637V50.392H270.717H270.621H262.701V42.376ZM266.829 32.968H274.509V39.88H266.829V32.968ZM291.854 61H298.622C304.414 61 309.23 60.44 313.07 59.32C307.406 57.624 304.238 56.776 303.566 56.776C302.67 56.776 301.934 57.4 301.358 58.648L292.862 55.576C293.886 52.376 295.278 49.992 297.038 48.424C298.798 46.824 300.958 46.024 303.518 46.024C304.862 46.024 306.622 46.376 308.798 47.08C310.974 47.752 314.142 48.856 318.302 50.392C319.262 50.776 320.702 51.32 322.622 52.024L323.486 64.696C320.254 66.904 317.406 68.6 314.942 69.784C312.51 70.936 310.03 71.768 307.502 72.28C305.006 72.76 302.046 73 298.622 73H291.854V61ZM300.926 76.696H308.846H308.942H316.862V84.712H308.942H308.846H303.566H300.926V76.696ZM305.054 87.208H312.734V94.12H305.054V87.208Z" fill="#0C1118" fill-opacity="0.8"/>
<defs>
<linearGradient id="paint0_linear_2248_3898" x1="163.028" y1="0.178023" x2="163.028" y2="22.0408" gradientUnits="userSpaceOnUse">
<stop stop-color="#ED1B24" stop-opacity="0.6"/>
<stop offset="1" stop-color="#ED1B24"/>
</linearGradient>
<linearGradient id="paint1_linear_2248_3898" x1="163.092" y1="22.6312" x2="163.092" y2="100.145" gradientUnits="userSpaceOnUse">
<stop stop-color="#ED1B24" stop-opacity="0.6"/>
<stop offset="1" stop-color="#ED1B24"/>
</linearGradient>
</defs>
</svg>
